<?xml version="1.0" standalone="no"?>
<!DOCTYPE svg PUBLIC "-//W3C//DTD SVG 20010904//EN"
 "http://www.w3.org/TR/2001/REC-SVG-20010904/DTD/svg10.dtd">
<svg version="1.0" xmlns="http://www.w3.org/2000/svg"
 width="330.000000pt" height="330.000000pt" viewBox="0 0 330.000000 330.000000"
 preserveAspectRatio="xMidYMid meet">
<metadata>
Created by potrace 1.14, written by Peter Selinger 2001-2017
</metadata>
<g transform="translate(0.000000,330.000000) scale(0.100000,-0.100000)"
fill="#000000" stroke="none">
<path d="M1290 3237 c-37 -29 -126 -82 -203 -120 -151 -75 -177 -99 -177 -160
0 -46 65 -245 134 -412 l46 -110 -47 -42 -48 -43 -30 38 c-66 84 -283 291
-335 320 -58 33 -120 42 -137 20 -6 -7 -16 -31 -23 -53 -23 -72 -67 -149 -139
-245 -39 -51 -71 -96 -71 -100 0 -41 284 -290 433 -379 29 -18 37 -19 37 -8 0
8 -62 66 -137 129 -170 142 -277 238 -281 253 -1 6 24 46 58 90 71 94 118 181
135 244 15 61 34 62 113 11 95 -61 342 -307 342 -339 0 -5 -16 -31 -35 -57
-77 -106 -154 -299 -155 -385 0 -23 -13 -32 -127 -87 -71 -33 -210 -92 -309
-131 -199 -78 -241 -102 -264 -146 -28 -56 -17 -432 13 -463 22 -21 71 -3 207
78 72 43 165 92 208 110 97 39 122 52 122 60 0 4 -20 4 -44 -1 -89 -16 -174
-52 -286 -119 -129 -77 -167 -96 -176 -87 -10 10 -21 128 -23 257 -3 180 -1
181 259 285 52 21 166 71 253 110 l157 73 1 -57 c1 -195 25 -345 68 -438 56
-118 193 -236 378 -324 109 -52 202 -75 339 -84 l110 -7 1 -51 c1 -29 20 -148
42 -266 23 -118 41 -237 41 -264 l0 -50 -127 7 c-121 6 -173 11 -200 21 -17 6
-23 67 -26 245 -3 151 0 190 22 258 14 47 -8 38 -34 -14 -17 -33 -20 -60 -21
-179 0 -177 10 -321 25 -339 22 -26 343 -46 375 -23 36 26 30 88 -49 497 -14
74 -23 140 -21 146 2 6 43 14 93 17 48 4 113 14 143 23 113 33 253 126 376
252 137 140 182 250 189 462 6 208 -32 382 -119 557 -62 123 -118 178 -289
282 -52 32 -65 37 -57 21 9 -16 8 -20 -5 -20 -8 0 -15 4 -15 9 0 5 -8 11 -17
14 -10 3 -36 12 -58 20 -59 22 -123 29 -290 32 -243 3 -301 -6 -413 -65 -52
-28 -96 -50 -97 -48 -7 7 -106 262 -139 357 -20 57 -36 120 -36 141 0 47 18
62 143 119 88 41 183 98 220 131 38 36 43 29 51 -65 15 -173 74 -423 112 -480
21 -30 17 0 -11 83 -23 68 -48 184 -60 282 -3 25 -7 61 -10 80 -2 19 -7 60
-10 90 -7 64 -14 90 -23 90 -4 0 -36 -24 -72 -53z m490 -712 c155 -17 327
-104 454 -229 83 -82 125 -168 172 -350 21 -79 25 -252 8 -347 -20 -113 -107
-305 -175 -384 -65 -75 -227 -163 -388 -212 -76 -22 -104 -26 -236 -26 -268 0
-388 49 -563 232 -129 134 -199 270 -228 447 -37 214 31 436 188 626 27 32 68
70 91 85 23 15 47 32 52 38 40 44 187 109 277 123 57 9 257 7 348 -3z"/>
<path d="M1448 2265 c-7 -7 5 -64 27 -124 17 -49 10 -65 -26 -59 -21 3 -26 13
-41 72 -17 72 -33 100 -43 75 -3 -8 13 -96 35 -196 22 -100 49 -233 60 -295
21 -118 31 -141 52 -120 10 10 5 51 -25 200 -49 241 -49 227 -12 227 29 0 31
-3 55 -87 28 -95 43 -119 61 -101 12 12 -29 162 -90 328 -27 74 -39 93 -53 80z"/>
<path d="M1580 2218 c9 -32 33 -176 45 -268 3 -25 8 -56 10 -70 2 -14 7 -43
10 -65 12 -93 39 -203 56 -237 20 -39 52 -55 87 -44 29 9 62 45 62 66 0 18 -1
18 -46 -1 -52 -23 -67 -17 -83 34 -9 29 -42 202 -57 302 -11 77 -56 280 -65
297 -16 30 -28 20 -19 -14z"/>
<path d="M1978 2229 c-23 -13 -48 -98 -42 -141 8 -52 24 -87 45 -93 23 -8 35
-1 50 27 10 19 9 20 -15 16 -19 -4 -29 0 -36 13 -16 29 -11 101 10 147 20 43
18 49 -12 31z"/>
<path d="M1814 2192 c-56 -36 -39 -232 20 -232 59 1 77 67 45 166 -12 37 -50
76 -65 66z m36 -144 c0 -31 -15 -45 -24 -22 -3 9 -6 37 -5 62 l1 47 13 -30 c8
-16 14 -42 15 -57z"/>
<path d="M1169 2063 c-10 -27 -7 -90 7 -160 3 -18 20 -48 38 -68 51 -58 124
-48 167 22 31 50 19 57 -30 18 -70 -55 -117 -42 -145 42 -17 49 -22 153 -7
153 4 0 19 -10 33 -22 48 -45 64 -54 38 -23 -59 72 -84 81 -101 38z"/>
<path d="M1995 2080 c3 -5 10 -10 16 -10 5 0 9 5 9 10 0 6 -7 10 -16 10 -8 0
-12 -4 -9 -10z"/>
<path d="M1760 1382 c-58 -52 -112 -120 -105 -132 10 -16 43 7 70 50 14 22 32
40 40 40 8 0 15 9 15 20 0 26 25 36 55 22 34 -16 23 -36 -30 -56 -36 -14 -42
-20 -38 -39 14 -55 47 -61 95 -18 43 38 31 49 -22 19 -30 -16 -44 -20 -47 -11
-2 7 -3 16 -2 20 3 9 56 30 108 43 43 11 80 45 65 60 -8 8 -15 6 -24 -5 -16
-19 -33 -19 -71 1 -52 27 -67 25 -109 -14z"/>
<path d="M1552 3231 c-10 -23 -10 -35 -2 -51 6 -11 29 -114 51 -228 43 -221
66 -283 56 -151 -7 85 -49 307 -66 353 -7 16 -10 30 -8 33 2 2 53 4 114 6 123
2 137 -3 152 -59 5 -18 7 -137 5 -264 -3 -206 1 -253 19 -222 7 11 20 246 19
357 -1 115 -16 170 -54 198 -23 17 -41 19 -141 18 -105 -1 -115 1 -123 19 -8
19 -10 18 -22 -9z"/>
<path d="M2420 3165 c-30 -16 -102 -110 -205 -268 -81 -125 -110 -182 -100
-197 12 -19 24 -9 56 48 51 91 216 338 245 367 15 15 33 24 41 21 8 -4 62 -35
118 -71 57 -36 115 -70 129 -76 14 -7 26 -15 26 -18 -1 -7 -91 -104 -231 -248
-99 -101 -136 -149 -126 -160 11 -10 243 212 351 335 68 77 63 91 -49 156 -49
29 -113 67 -140 84 -61 39 -83 44 -115 27z"/>
<path d="M2900 2626 c-41 -13 -156 -52 -255 -88 -99 -36 -196 -69 -215 -74
-38 -11 -48 -37 -15 -42 11 -1 63 13 115 32 459 164 480 169 480 128 0 -9 4
-53 9 -97 5 -44 12 -125 16 -181 l7 -101 -43 -11 c-24 -6 -87 -16 -139 -23
-135 -15 -229 -38 -251 -60 -40 -40 -13 -50 62 -23 24 8 109 24 189 35 223 30
232 35 224 130 -26 324 -36 376 -70 390 -31 11 -24 12 -114 -15z"/>
<path d="M2674 1865 c-9 -21 2 -33 59 -61 83 -42 224 -90 350 -118 139 -31
149 -35 144 -50 -2 -6 -24 -80 -48 -164 l-43 -154 -27 6 c-15 3 -68 24 -116
46 -205 96 -289 121 -392 116 -88 -4 -143 -45 -63 -47 171 -3 224 -16 416
-106 168 -79 194 -83 219 -32 19 40 97 331 97 366 0 18 -8 23 -57 33 -275 52
-478 119 -506 167 -10 17 -26 17 -33 -2z"/>
<path d="M2535 1310 c-16 -26 37 -83 318 -343 64 -60 117 -116 117 -125 0 -11
-27 -31 -75 -56 -42 -21 -105 -65 -140 -97 -36 -32 -75 -59 -86 -59 -43 0
-118 50 -299 201 -64 53 -127 103 -142 113 -26 17 -26 17 -21 -4 12 -46 222
-237 338 -307 64 -38 120 -57 150 -49 13 3 52 33 87 66 37 36 96 77 145 102
142 74 137 89 -107 307 -58 51 -141 131 -186 177 -44 46 -83 84 -87 84 -3 0
-9 -4 -12 -10z"/>
<path d="M793 1278 c-17 -21 -59 -110 -73 -153 -7 -22 -53 -136 -102 -253 -49
-117 -90 -225 -91 -240 -2 -25 8 -32 146 -101 114 -57 161 -75 202 -79 48 -4
55 -2 69 21 21 30 31 66 56 184 21 98 37 253 27 253 -10 0 -43 -124 -67 -245
-22 -115 -44 -168 -73 -173 -15 -3 -300 120 -320 138 -13 12 18 74 48 98 21
17 24 22 10 22 -10 0 -15 5 -12 13 102 262 197 520 193 524 -2 2 -8 -2 -13 -9z"/>
<path d="M2110 853 c0 -4 10 -24 21 -43 19 -31 47 -65 173 -216 16 -19 26 -37
23 -41 -7 -6 -160 -38 -233 -48 -50 -6 -52 -6 -81 32 -41 52 -143 223 -143
240 0 14 -12 17 -23 6 -8 -7 77 -170 129 -249 36 -55 53 -64 122 -64 23 0 42
-4 42 -10 0 -5 4 -10 10 -10 5 0 7 6 4 13 -4 10 20 18 95 31 55 10 108 24 118
31 16 12 16 16 3 40 -20 37 -232 288 -247 293 -7 2 -13 0 -13 -5z"/>
<path d="M2570 423 c-24 -9 -28 -23 -19 -63 20 -87 42 -115 54 -67 6 22 11 24
68 23 49 -1 62 2 62 14 0 9 -17 20 -42 28 -24 8 -43 20 -43 27 0 33 -42 52
-80 38z"/>
<path d="M2457 350 c-33 -26 -38 -61 -17 -108 20 -44 42 -57 71 -42 25 14 24
40 -1 47 -16 4 -18 9 -9 25 7 13 7 23 0 32 -6 6 -8 21 -5 33 8 30 -10 36 -39
13z"/>
<path d="M808 298 c-26 -20 -58 -81 -58 -109 0 -14 9 -34 20 -44 19 -17 21
-17 40 0 18 16 18 19 4 30 -14 10 -15 17 -5 48 13 37 26 47 33 25 5 -15 28 -1
28 17 0 14 -26 45 -39 45 -4 0 -14 -6 -23 -12z"/>
<path d="M2336 292 c-3 -5 -3 -21 0 -35 5 -31 -1 -33 -56 -11 -61 24 -70 17
-55 -48 8 -35 17 -54 28 -56 13 -3 17 4 17 27 0 35 2 36 33 17 12 -7 34 -17
50 -20 23 -5 29 -2 36 16 15 41 -33 142 -53 110z"/>
<path d="M917 230 c-9 -30 -18 -66 -19 -79 -4 -30 21 -41 29 -12 7 29 23 27
23 -3 0 -34 16 -41 34 -14 17 24 23 138 8 138 -5 0 -14 -11 -20 -25 -17 -36
-30 -31 -34 13 l-4 37 -17 -55z"/>
<path d="M1056 212 c-18 -40 -24 -91 -12 -111 4 -6 18 -11 32 -11 23 0 24 2
24 80 0 91 -15 106 -44 42z"/>
<path d="M2113 228 c-15 -7 -23 -20 -23 -37 0 -45 20 -100 40 -111 21 -11 22
-11 24 34 1 16 7 31 14 34 18 6 15 42 -5 42 -15 0 -15 1 0 18 28 30 -4 42 -50
20z"/>
<path d="M1246 189 c-26 -20 -42 -83 -31 -117 10 -33 44 -34 76 -2 16 16 29
34 30 42 0 7 2 22 4 32 9 49 -39 76 -79 45z m34 -42 c0 -7 -7 -22 -15 -33 -12
-16 -14 -17 -15 -2 0 23 11 48 21 48 5 0 9 -6 9 -13z"/>
<path d="M1414 187 c-48 -42 -49 -158 -2 -171 14 -3 29 1 38 10 13 13 12 17
-9 34 l-25 18 37 16 c45 18 47 32 6 41 l-31 7 21 22 c25 26 26 32 6 40 -8 3
-26 -5 -41 -17z"/>
<path d="M1943 183 c-29 -41 -42 -85 -32 -111 7 -19 12 -21 29 -12 11 6 20 17
20 25 0 22 15 18 32 -7 19 -29 52 -18 43 14 -11 39 -50 111 -62 115 -6 2 -20
-9 -30 -24z"/>
<path d="M1819 163 c-1 -10 -1 -23 0 -29 2 -14 -22 -25 -36 -16 -5 4 -12 15
-16 25 -15 40 -37 5 -37 -60 0 -17 7 -39 16 -47 17 -17 34 -13 34 9 0 23 32
27 47 6 20 -30 42 -16 36 22 -10 71 -41 135 -44 90z"/>
</g>
</svg>
