<svg width="401" height="67" viewBox="0 0 401 67" fill="none" xmlns="http://www.w3.org/2000/svg">
<circle cx="33.5" cy="33.5" r="33.5" fill="#006C67"/>
<path fill-rule="evenodd" clip-rule="evenodd" d="M27.9166 36.2915C25.7511 36.2915 24.427 37.9705 24.427 39.7811C24.427 40.9184 25.0589 44.8249 33.5017 49.9171C37.5867 47.4703 39.8383 45.4045 41.0723 43.7592C42.3577 42.0454 42.5728 40.7463 42.5728 39.7811C42.5728 38.6963 42.2976 37.8359 41.8368 37.2829C41.4319 36.7971 40.6735 36.2915 39.0833 36.2915C36.5611 36.2915 35.4991 37.6729 35.3726 37.9258C35.0481 38.5748 34.4107 39.0095 33.6879 39.0747C32.9652 39.1399 32.2603 38.8262 31.8249 38.2457C31.3581 37.6233 29.8166 36.2915 27.9166 36.2915ZM20.2395 39.7811C20.2395 36.0083 23.1029 32.104 27.9166 32.104C30.1784 32.104 32.049 33.0054 33.3712 33.988C34.6589 32.9576 36.5604 32.104 39.0833 32.104C41.6805 32.104 43.7137 32.9942 45.0537 34.6022C46.3377 36.1429 46.7603 38.0742 46.7603 39.7811C46.7603 41.6076 46.2776 43.798 44.4223 46.2717C42.6167 48.6792 39.5595 51.2925 34.5387 54.1615C33.895 54.5293 33.1048 54.5293 32.4611 54.1615C22.3484 48.3828 20.2395 43.0656 20.2395 39.7811Z" fill="white"/>
<path fill-rule="evenodd" clip-rule="evenodd" d="M32.0799 13.1178C32.882 12.3774 34.1182 12.3774 34.9202 13.1178L53.0661 29.8678C53.9158 30.6521 53.9687 31.9767 53.1844 32.8264C52.4001 33.6761 51.0755 33.7291 50.2258 32.9447L33.5001 17.5057L16.7744 32.9447C15.9247 33.7291 14.6001 33.6761 13.8158 32.8264C13.0314 31.9767 13.0844 30.6521 13.9341 29.8678L32.0799 13.1178Z" fill="white"/>
<path d="M83 48.0082V19.3197H88.3534V31.2459H101.486V19.3197H106.839V48.0082H101.486V35.5082H88.3534V48.0082H83Z" fill="#003844"/>
<path d="M122.358 48.5C120.351 48.5 118.538 48.0492 116.921 47.1475C115.332 46.2459 114.063 45.0027 113.115 43.418C112.195 41.806 111.735 39.9481 111.735 37.8443C111.735 35.7404 112.209 33.8962 113.157 32.3115C114.105 30.6995 115.374 29.4426 116.963 28.541C118.58 27.6393 120.393 27.1885 122.4 27.1885C124.38 27.1885 126.164 27.6393 127.753 28.541C129.371 29.4426 130.639 30.6995 131.559 32.3115C132.507 33.8962 132.981 35.7404 132.981 37.8443C132.981 39.9481 132.507 41.806 131.559 43.418C130.639 45.0027 129.371 46.2459 127.753 47.1475C126.136 48.0492 124.338 48.5 122.358 48.5ZM122.358 43.9508C123.752 43.9508 124.965 43.4454 125.997 42.4344C127.029 41.3962 127.544 39.8661 127.544 37.8443C127.544 35.8224 127.029 34.306 125.997 33.2951C124.965 32.2568 123.766 31.7377 122.4 31.7377C120.978 31.7377 119.751 32.2568 118.72 33.2951C117.716 34.306 117.214 35.8224 117.214 37.8443C117.214 39.8661 117.716 41.3962 118.72 42.4344C119.751 43.4454 120.964 43.9508 122.358 43.9508Z" fill="#003844"/>
<path d="M145.547 48.5C142.954 48.5 140.947 47.7077 139.525 46.123C138.13 44.5383 137.433 42.2158 137.433 39.1557V27.6803H142.745V38.6639C142.745 40.4126 143.107 41.7514 143.832 42.6803C144.557 43.6093 145.7 44.0738 147.262 44.0738C148.74 44.0738 149.953 43.5546 150.901 42.5164C151.876 41.4781 152.364 40.0301 152.364 38.1721V27.6803H157.718V48.0082H152.992L152.573 44.5656C151.932 45.7678 150.998 46.724 149.771 47.4344C148.572 48.1448 147.164 48.5 145.547 48.5Z" fill="#003844"/>
<path d="M171.787 48.5C169.947 48.5 168.33 48.2131 166.936 47.6393C165.541 47.0382 164.426 46.2186 163.59 45.1803C162.753 44.1421 162.251 42.9399 162.084 41.5738H167.479C167.647 42.3661 168.093 43.0492 168.818 43.6229C169.57 44.1694 170.532 44.4426 171.703 44.4426C172.875 44.4426 173.725 44.2104 174.255 43.7459C174.812 43.2814 175.091 42.7486 175.091 42.1475C175.091 41.2732 174.701 40.6858 173.92 40.3852C173.139 40.0574 172.052 39.7432 170.658 39.4426C169.766 39.2514 168.859 39.0191 167.939 38.7459C167.019 38.4727 166.169 38.1311 165.388 37.7213C164.635 37.2842 164.022 36.7377 163.548 36.082C163.074 35.3989 162.837 34.5656 162.837 33.582C162.837 31.7787 163.562 30.2623 165.012 29.0328C166.489 27.8033 168.553 27.1885 171.202 27.1885C173.655 27.1885 175.607 27.7486 177.057 28.8689C178.535 29.9891 179.413 31.5328 179.692 33.5H174.631C174.324 31.9973 173.167 31.2459 171.16 31.2459C170.156 31.2459 169.375 31.4372 168.818 31.8197C168.288 32.2022 168.023 32.6803 168.023 33.2541C168.023 33.8552 168.427 34.3333 169.236 34.6885C170.044 35.0437 171.118 35.3716 172.456 35.6721C173.906 36 175.231 36.3689 176.43 36.7787C177.656 37.1612 178.632 37.7486 179.357 38.541C180.082 39.306 180.445 40.4126 180.445 41.8607C180.472 43.1175 180.138 44.2514 179.441 45.2623C178.744 46.2732 177.74 47.0656 176.43 47.6393C175.119 48.2131 173.572 48.5 171.787 48.5Z" fill="#003844"/>
<path d="M195.266 48.5C193.175 48.5 191.321 48.0628 189.704 47.1885C188.087 46.3142 186.818 45.0847 185.898 43.5C184.978 41.9153 184.518 40.0847 184.518 38.0082C184.518 35.9044 184.964 34.0328 185.856 32.3934C186.776 30.7541 188.031 29.4836 189.62 28.582C191.237 27.653 193.133 27.1885 195.308 27.1885C197.344 27.1885 199.142 27.6257 200.704 28.5C202.265 29.3743 203.478 30.5765 204.342 32.1066C205.234 33.6093 205.681 35.2896 205.681 37.1475C205.681 37.4481 205.667 37.7623 205.639 38.0902C205.639 38.418 205.625 38.7596 205.597 39.1148H189.829C189.941 40.6995 190.499 41.9426 191.502 42.8443C192.534 43.7459 193.775 44.1967 195.225 44.1967C196.312 44.1967 197.218 43.9645 197.943 43.5C198.696 43.0082 199.254 42.3798 199.616 41.6148H205.053C204.663 42.8989 204.008 44.0738 203.087 45.1393C202.195 46.1776 201.08 46.9973 199.742 47.5984C198.431 48.1995 196.939 48.5 195.266 48.5ZM195.308 31.4508C193.998 31.4508 192.841 31.8197 191.837 32.5574C190.833 33.2678 190.192 34.3607 189.913 35.8361H200.243C200.16 34.4973 199.658 33.4317 198.738 32.6393C197.818 31.847 196.675 31.4508 195.308 31.4508Z" fill="#003844"/>
<path d="M220.274 48.0082V19.3197H225.628L239.388 39.5246V19.3197H244.741V48.0082H239.388L225.628 27.8443V48.0082H220.274Z" fill="#003844"/>
<path d="M258.07 48.5C255.477 48.5 253.47 47.7077 252.048 46.123C250.654 44.5383 249.957 42.2158 249.957 39.1557V27.6803H255.268V38.6639C255.268 40.4126 255.631 41.7514 256.356 42.6803C257.081 43.6093 258.224 44.0738 259.785 44.0738C261.263 44.0738 262.476 43.5546 263.424 42.5164C264.4 41.4781 264.888 40.0301 264.888 38.1721V27.6803H270.241V48.0082H265.515L265.097 44.5656C264.455 45.7678 263.521 46.724 262.295 47.4344C261.096 48.1448 259.688 48.5 258.07 48.5Z" fill="#003844"/>
<path d="M275.737 48.0082V27.6803H280.463L280.923 30.4262C281.592 29.4426 282.47 28.6639 283.558 28.0902C284.673 27.4891 285.955 27.1885 287.405 27.1885C290.612 27.1885 292.884 28.4044 294.223 30.8361C294.975 29.7158 295.979 28.8279 297.234 28.1721C298.516 27.5164 299.911 27.1885 301.416 27.1885C304.121 27.1885 306.198 27.9809 307.648 29.5656C309.098 31.1503 309.823 33.4727 309.823 36.5328V48.0082H304.469V37.0246C304.469 35.276 304.121 33.9372 303.424 33.0082C302.755 32.0792 301.709 31.6148 300.287 31.6148C298.837 31.6148 297.666 32.1339 296.774 33.1721C295.909 34.2104 295.477 35.6585 295.477 37.5164V48.0082H290.124V37.0246C290.124 35.276 289.775 33.9372 289.078 33.0082C288.381 32.0792 287.308 31.6148 285.858 31.6148C284.436 31.6148 283.279 32.1339 282.387 33.1721C281.522 34.2104 281.09 35.6585 281.09 37.5164V48.0082H275.737Z" fill="#003844"/>
<path d="M327.201 48.5C325.64 48.5 324.274 48.2131 323.103 47.6393C321.932 47.0656 320.984 46.2596 320.259 45.2213L319.673 48.0082H314.905V18.5H320.259V30.5902C320.928 29.6885 321.806 28.8962 322.894 28.2131C324.009 27.5301 325.445 27.1885 327.201 27.1885C329.153 27.1885 330.896 27.653 332.429 28.582C333.963 29.5109 335.176 30.7814 336.068 32.3934C336.96 34.0055 337.406 35.8361 337.406 37.8852C337.406 39.9344 336.96 41.765 336.068 43.377C335.176 44.9617 333.963 46.2186 332.429 47.1475C330.896 48.0492 329.153 48.5 327.201 48.5ZM326.072 43.9098C327.773 43.9098 329.181 43.3497 330.296 42.2295C331.412 41.1093 331.969 39.6612 331.969 37.8852C331.969 36.1093 331.412 34.6475 330.296 33.5C329.181 32.3525 327.773 31.7787 326.072 31.7787C324.343 31.7787 322.921 32.3525 321.806 33.5C320.719 34.6202 320.175 36.0683 320.175 37.8443C320.175 39.6202 320.719 41.082 321.806 42.2295C322.921 43.3497 324.343 43.9098 326.072 43.9098Z" fill="#003844"/>
<path d="M352.268 48.5C350.177 48.5 348.323 48.0628 346.706 47.1885C345.088 46.3142 343.82 45.0847 342.9 43.5C341.98 41.9153 341.519 40.0847 341.519 38.0082C341.519 35.9044 341.966 34.0328 342.858 32.3934C343.778 30.7541 345.033 29.4836 346.622 28.582C348.239 27.653 350.135 27.1885 352.31 27.1885C354.345 27.1885 356.144 27.6257 357.705 28.5C359.267 29.3743 360.479 30.5765 361.344 32.1066C362.236 33.6093 362.682 35.2896 362.682 37.1475C362.682 37.4481 362.668 37.7623 362.64 38.0902C362.64 38.418 362.626 38.7596 362.599 39.1148H346.831C346.943 40.6995 347.5 41.9426 348.504 42.8443C349.536 43.7459 350.776 44.1967 352.226 44.1967C353.314 44.1967 354.22 43.9645 354.945 43.5C355.698 43.0082 356.255 42.3798 356.618 41.6148H362.055C361.664 42.8989 361.009 44.0738 360.089 45.1393C359.197 46.1776 358.082 46.9973 356.743 47.5984C355.433 48.1995 353.941 48.5 352.268 48.5ZM352.31 31.4508C350.999 31.4508 349.842 31.8197 348.839 32.5574C347.835 33.2678 347.194 34.3607 346.915 35.8361H357.245C357.161 34.4973 356.66 33.4317 355.739 32.6393C354.819 31.847 353.676 31.4508 352.31 31.4508Z" fill="#003844"/>
<path d="M367.185 48.0082V27.6803H371.953L372.455 31.4918C373.207 30.1803 374.225 29.1421 375.508 28.377C376.818 27.5847 378.352 27.1885 380.108 27.1885V32.7213H378.603C377.432 32.7213 376.386 32.8989 375.466 33.2541C374.546 33.6093 373.821 34.224 373.291 35.0984C372.789 35.9727 372.538 37.1885 372.538 38.7459V48.0082H367.185Z" fill="#003844"/>
<path d="M392.341 48.5C390.501 48.5 388.884 48.2131 387.489 47.6393C386.095 47.0382 384.98 46.2186 384.144 45.1803C383.307 44.1421 382.805 42.9399 382.638 41.5738H388.033C388.2 42.3661 388.647 43.0492 389.371 43.6229C390.124 44.1694 391.086 44.4426 392.257 44.4426C393.428 44.4426 394.279 44.2104 394.809 43.7459C395.366 43.2814 395.645 42.7486 395.645 42.1475C395.645 41.2732 395.255 40.6858 394.474 40.3852C393.693 40.0574 392.606 39.7432 391.212 39.4426C390.319 39.2514 389.413 39.0191 388.493 38.7459C387.573 38.4727 386.723 38.1311 385.942 37.7213C385.189 37.2842 384.576 36.7377 384.102 36.082C383.628 35.3989 383.391 34.5656 383.391 33.582C383.391 31.7787 384.116 30.2623 385.566 29.0328C387.043 27.8033 389.107 27.1885 391.755 27.1885C394.209 27.1885 396.161 27.7486 397.611 28.8689C399.088 29.9891 399.967 31.5328 400.246 33.5H395.185C394.878 31.9973 393.721 31.2459 391.714 31.2459C390.71 31.2459 389.929 31.4372 389.371 31.8197C388.842 32.2022 388.577 32.6803 388.577 33.2541C388.577 33.8552 388.981 34.3333 389.79 34.6885C390.598 35.0437 391.672 35.3716 393.01 35.6721C394.46 36 395.784 36.3689 396.983 36.7787C398.21 37.1612 399.186 37.7486 399.911 38.541C400.636 39.306 400.998 40.4126 400.998 41.8607C401.026 43.1175 400.692 44.2514 399.995 45.2623C399.298 46.2732 398.294 47.0656 396.983 47.6393C395.673 48.2131 394.125 48.5 392.341 48.5Z" fill="#003844"/>
</svg>
