<svg width="362" height="311" viewBox="0 0 362 311" fill="none" xmlns="http://www.w3.org/2000/svg">
<g opacity="0.4" clip-path="url(#clip0_770_20483)">
<path d="M44.2749 137.17L179.65 20.9199L315.025 137.17" stroke="#006C67" stroke-width="25" stroke-linecap="round" stroke-linejoin="round"/>
<path d="M75.7085 155.152V245.569C75.7085 252.42 78.878 258.991 84.5197 263.836C90.1614 268.681 97.8132 271.402 105.792 271.402H256.209C264.187 271.402 271.839 268.681 277.481 263.836C283.122 258.991 286.292 252.42 286.292 245.569V155.152" stroke="#006C67" stroke-width="25" stroke-linecap="round" stroke-linejoin="round"/>
<path fill-rule="evenodd" clip-rule="evenodd" d="M154.652 128.078C144.98 128.078 139.066 135.406 139.066 143.307C139.066 148.27 141.889 165.319 179.598 187.543C197.843 176.864 207.9 167.849 213.411 160.668C219.152 153.189 220.113 147.519 220.113 143.307C220.113 138.573 218.884 134.818 216.826 132.405C215.018 130.284 211.63 128.078 204.527 128.078C193.262 128.078 188.519 134.106 187.954 135.21C186.505 138.043 183.658 139.94 180.43 140.224C177.202 140.509 174.053 139.14 172.109 136.606C170.024 133.89 163.139 128.078 154.652 128.078ZM120.363 143.307C120.363 126.842 133.152 109.803 154.652 109.803C164.755 109.803 173.11 113.737 179.015 118.025C184.766 113.528 193.259 109.803 204.527 109.803C216.128 109.803 225.209 113.688 231.194 120.705C236.929 127.429 238.816 135.858 238.816 143.307C238.816 151.278 236.66 160.838 228.374 171.634C220.309 182.14 206.654 193.545 184.23 206.066C181.355 207.671 177.825 207.671 174.95 206.066C129.783 180.847 120.363 157.641 120.363 143.307Z" fill="#006C67" stroke="#006C67" stroke-width="3" stroke-linecap="round" stroke-linejoin="round"/>
</g>
<defs>
<clipPath id="clip0_770_20483">
<rect width="361" height="310" fill="white" transform="translate(0.5 0.152344)"/>
</clipPath>
</defs>
</svg>
