<svg width="450" height="451" viewBox="0 0 450 451" fill="none" xmlns="http://www.w3.org/2000/svg">
<path d="M141.417 121.248C152.833 123.165 165.417 121.165 174.25 115.248C186 107.415 186 94.5818 174.25 86.7485C165.333 80.8318 152.583 78.8318 141.167 80.8318M58.3333 121.248C46.9167 123.165 34.3333 121.165 25.5 115.248C13.75 107.415 13.75 94.5818 25.5 86.7485C34.4167 80.8318 47.1667 78.8318 58.5833 80.8318M150 60.5818C149.476 60.4984 148.941 60.4984 148.417 60.5818C142.855 60.3807 137.59 58.0252 133.733 54.0131C129.877 50.0011 127.731 44.6468 127.75 39.0818C127.75 27.1651 137.333 17.5818 149.25 17.5818C154.952 17.5818 160.421 19.847 164.453 23.879C168.485 27.911 170.75 33.3796 170.75 39.0818C170.735 44.6507 168.567 49.9981 164.699 54.0052C160.832 58.0124 155.565 60.3689 150 60.5818V60.5818ZM49.75 60.5818C50.25 60.4985 50.8333 60.4985 51.3333 60.5818C56.8947 60.3807 62.1601 58.0252 66.0166 54.0131C69.8732 50.0011 72.0188 44.6468 72 39.0818C72 27.1651 62.4167 17.5818 50.5 17.5818C44.7978 17.5818 39.3292 19.847 35.2972 23.879C31.2652 27.911 29 33.3796 29 39.0818C29.0833 50.7485 38.25 60.1651 49.75 60.5818ZM100 122.832C99.4755 122.748 98.9412 122.748 98.4167 122.832C92.8553 122.631 87.5899 120.275 83.7334 116.263C79.8768 112.251 77.7312 106.897 77.75 101.332C77.75 89.4151 87.3333 79.8318 99.25 79.8318C104.952 79.8318 110.421 82.097 114.453 86.129C118.485 90.161 120.75 95.6296 120.75 101.332C120.667 112.998 111.5 122.498 100 122.832ZM75.75 149.082C64 156.915 64 169.748 75.75 177.582C89.0833 186.498 110.917 186.498 124.25 177.582C136 169.748 136 156.915 124.25 149.082C111 140.248 89.0833 140.248 75.75 149.082Z" stroke="black" stroke-width="13" stroke-linecap="round" stroke-linejoin="round"/>
<path d="M328 113.748L340.5 126.248L373.833 92.915" stroke="black" stroke-width="12" stroke-linecap="round" stroke-linejoin="round"/>
<path d="M333.333 50.9151H366.667C383.333 50.9151 383.333 42.5818 383.333 34.2485C383.333 17.5818 375 17.5818 366.667 17.5818H333.333C325 17.5818 316.667 17.5818 316.667 34.2485C316.667 50.9151 325 50.9151 333.333 50.9151Z" stroke="black" stroke-width="12" stroke-miterlimit="10" stroke-linecap="round" stroke-linejoin="round"/>
<path d="M383.333 34.415C411.083 35.915 425 46.165 425 84.2484V134.248C425 167.582 416.667 184.248 375 184.248H325C283.333 184.248 275 167.582 275 134.248V84.2484C275 46.2484 288.917 35.915 316.667 34.415" stroke="black" stroke-width="12" stroke-miterlimit="10" stroke-linecap="round" stroke-linejoin="round"/>
<path d="M110.5 280.915L42.0834 353.332C39.5001 356.082 37.0001 361.498 36.5001 365.248L33.4167 392.248C32.3334 401.998 39.3334 408.665 49.0001 406.998L75.8334 402.415C79.5834 401.748 84.8334 398.998 87.4167 396.165L155.833 323.748C167.667 311.248 173 296.998 154.583 279.582C136.25 262.332 122.333 268.415 110.5 280.915V280.915Z" stroke="black" stroke-width="12" stroke-miterlimit="10" stroke-linecap="round" stroke-linejoin="round"/>
<path d="M99.0833 292.998C100.83 304.172 106.238 314.449 114.458 322.217C122.679 329.985 133.245 334.803 144.5 335.915M25 434.248H175" stroke="black" stroke-width="12" stroke-miterlimit="10" stroke-linecap="round" stroke-linejoin="round"/>
<g clip-path="url(#clip0_787_19943)">
<path d="M333.333 300.915H366.667C383.333 300.915 383.333 292.582 383.333 284.248C383.333 267.582 375 267.582 366.667 267.582H333.333C325 267.582 316.667 267.582 316.667 284.248C316.667 300.915 325 300.915 333.333 300.915Z" stroke="black" stroke-width="12" stroke-miterlimit="10" stroke-linecap="round" stroke-linejoin="round"/>
<path d="M383.333 284.415C411.083 285.915 425 296.165 425 334.248V384.248C425 417.582 416.667 434.248 375 434.248H325C283.333 434.248 275 417.582 275 384.248V334.248C275 296.248 288.917 285.915 316.667 284.415" stroke="black" stroke-width="12" stroke-miterlimit="10" stroke-linecap="round" stroke-linejoin="round"/>
<path d="M372.807 382.038L327.649 336.88M372.351 337.336L327.193 382.494" stroke="black" stroke-width="12" stroke-miterlimit="10" stroke-linecap="round" stroke-linejoin="round"/>
</g>
<defs>
<clipPath id="clip0_787_19943">
<rect width="200" height="200" fill="white" transform="translate(250 250.915)"/>
</clipPath>
</defs>
</svg>
