<svg width="345" height="346" viewBox="0 0 345 346" fill="none" xmlns="http://www.w3.org/2000/svg">
<g filter="url(#filter0_ddd_675_18842)">
<rect width="325" height="325" transform="translate(10 2.02734)" fill="#85E0A3"/>
<path d="M38.1756 42.2771V40.7999C38.1756 40.3639 38.2576 39.9048 38.4218 39.4227C38.5859 38.9405 38.8142 38.4789 39.1065 38.0377C39.3989 37.5966 39.7426 37.2196 40.1375 36.9067L41.2763 37.7223C40.9634 38.1788 40.6966 38.6558 40.4761 39.1534C40.2555 39.6509 40.1452 40.1921 40.1452 40.7768V42.2771H38.1756ZM42.0995 42.2771V40.7999C42.0995 40.3639 42.1816 39.9048 42.3457 39.4227C42.5099 38.9405 42.7381 38.4789 43.0305 38.0377C43.3229 37.5966 43.6665 37.2196 44.0615 36.9067L45.2002 37.7223C44.8873 38.1788 44.6206 38.6558 44.4 39.1534C44.1795 39.6509 44.0692 40.1921 44.0692 40.7768V42.2771H42.0995ZM46.3468 39.3996V37.353H58.5419V39.3996H53.6254V53.1104H51.2556V39.3996H46.3468ZM63.1142 46.0934V53.1104H60.8137V37.353H63.0835V43.2158H63.2296C63.5066 42.5798 63.9298 42.0745 64.4992 41.7001C65.0685 41.3257 65.8123 41.1384 66.7304 41.1384C67.5409 41.1384 68.2487 41.3051 68.854 41.6385C69.4644 41.972 69.9363 42.4695 70.2697 43.1312C70.6082 43.7877 70.7775 44.6084 70.7775 45.5933V53.1104H68.477V45.8703C68.477 45.0034 68.2538 44.3315 67.8076 43.8544C67.3613 43.3723 66.7407 43.1312 65.9456 43.1312C65.4019 43.1312 64.9146 43.2466 64.4838 43.4774C64.058 43.7082 63.7221 44.0468 63.4758 44.493C63.2348 44.9342 63.1142 45.4676 63.1142 46.0934ZM78.7025 53.3489C77.5382 53.3489 76.5354 53.1001 75.6942 52.6025C74.8581 52.0999 74.2118 51.3946 73.7553 50.4867C73.3039 49.5737 73.0782 48.5042 73.0782 47.2783C73.0782 46.0677 73.3039 45.0008 73.7553 44.0776C74.2118 43.1543 74.8478 42.4336 75.6634 41.9155C76.4841 41.3975 77.4433 41.1384 78.541 41.1384C79.2078 41.1384 79.8541 41.2487 80.4799 41.4693C81.1056 41.6898 81.6673 42.0361 82.1649 42.508C82.6624 42.9799 83.0548 43.5928 83.342 44.3468C83.6293 45.0957 83.7729 46.0062 83.7729 47.0782V47.8938H74.3785V46.1703H81.5186C81.5186 45.5651 81.3954 45.029 81.1492 44.5623C80.903 44.0904 80.5568 43.7185 80.1105 43.4466C79.6694 43.1748 79.1514 43.0389 78.5563 43.0389C77.91 43.0389 77.3458 43.1979 76.8637 43.5159C76.3866 43.8288 76.0173 44.2391 75.7557 44.7469C75.4993 45.2496 75.371 45.7959 75.371 46.3858V47.7322C75.371 48.5221 75.5095 49.1941 75.7865 49.7481C76.0686 50.302 76.461 50.7252 76.9637 51.0176C77.4664 51.3048 78.0537 51.4484 78.7256 51.4484C79.1616 51.4484 79.5591 51.3869 79.9182 51.2638C80.2772 51.1355 80.5876 50.9458 80.8492 50.6944C81.1108 50.4431 81.3108 50.1328 81.4493 49.7634L83.6267 50.1558C83.4523 50.797 83.1394 51.3587 82.688 51.8408C82.2418 52.3179 81.6801 52.6897 81.0031 52.9565C80.3311 53.2181 79.5643 53.3489 78.7025 53.3489ZM96.5608 53.3489C95.4169 53.3489 94.4321 53.0898 93.6063 52.5718C92.7856 52.0486 92.1546 51.3279 91.7135 50.4097C91.2724 49.4916 91.0518 48.4401 91.0518 47.2552C91.0518 46.0549 91.2775 44.9957 91.7289 44.0776C92.1803 43.1543 92.8163 42.4336 93.637 41.9155C94.4577 41.3975 95.4246 41.1384 96.5377 41.1384C97.4353 41.1384 98.2355 41.3051 98.9382 41.6385C99.6409 41.9668 100.208 42.4285 100.639 43.0235C101.075 43.6185 101.334 44.3135 101.416 45.1086H99.1767C99.0536 44.5546 98.7715 44.0776 98.3304 43.6775C97.8944 43.2774 97.3096 43.0773 96.5761 43.0773C95.935 43.0773 95.3733 43.2466 94.8912 43.5851C94.4141 43.9185 94.0422 44.3956 93.7755 45.0162C93.5088 45.6317 93.3754 46.3601 93.3754 47.2013C93.3754 48.0631 93.5062 48.8068 93.7678 49.4326C94.0294 50.0584 94.3987 50.5431 94.8758 50.8868C95.3579 51.2304 95.9247 51.4023 96.5761 51.4023C97.0121 51.4023 97.4071 51.3228 97.761 51.1638C98.1201 50.9996 98.4202 50.7662 98.6612 50.4636C98.9074 50.161 99.0793 49.7968 99.1767 49.371H101.416C101.334 50.1353 101.085 50.8175 100.669 51.4177C100.254 52.0178 99.6974 52.4897 98.9998 52.8334C98.3073 53.177 97.4943 53.3489 96.5608 53.3489ZM108.616 53.3489C107.508 53.3489 106.541 53.095 105.715 52.5872C104.889 52.0794 104.248 51.3689 103.791 50.4559C103.335 49.5429 103.107 48.476 103.107 47.2552C103.107 46.0293 103.335 44.9572 103.791 44.0391C104.248 43.1209 104.889 42.4079 105.715 41.9001C106.541 41.3923 107.508 41.1384 108.616 41.1384C109.724 41.1384 110.69 41.3923 111.516 41.9001C112.342 42.4079 112.983 43.1209 113.44 44.0391C113.896 44.9572 114.125 46.0293 114.125 47.2552C114.125 48.476 113.896 49.5429 113.44 50.4559C112.983 51.3689 112.342 52.0794 111.516 52.5872C110.69 53.095 109.724 53.3489 108.616 53.3489ZM108.623 51.4177C109.341 51.4177 109.936 51.2279 110.408 50.8483C110.88 50.4687 111.229 49.9635 111.455 49.3326C111.685 48.7017 111.801 48.0066 111.801 47.2475C111.801 46.4935 111.685 45.801 111.455 45.1701C111.229 44.5341 110.88 44.0237 110.408 43.639C109.936 43.2543 109.341 43.0619 108.623 43.0619C107.9 43.0619 107.3 43.2543 106.823 43.639C106.351 44.0237 106 44.5341 105.769 45.1701C105.543 45.801 105.43 46.4935 105.43 47.2475C105.43 48.0066 105.543 48.7017 105.769 49.3326C106 49.9635 106.351 50.4687 106.823 50.8483C107.3 51.2279 107.9 51.4177 108.623 51.4177ZM118.755 46.0934V53.1104H116.454V41.2923H118.662V43.2158H118.808C119.08 42.59 119.506 42.0874 120.086 41.7078C120.67 41.3282 121.406 41.1384 122.294 41.1384C123.099 41.1384 123.804 41.3077 124.41 41.6462C125.015 41.9796 125.484 42.4772 125.818 43.1389C126.151 43.8006 126.318 44.6187 126.318 45.5933V53.1104H124.017V45.8703C124.017 45.0137 123.794 44.3443 123.348 43.8621C122.902 43.3748 122.289 43.1312 121.509 43.1312C120.976 43.1312 120.501 43.2466 120.086 43.4774C119.675 43.7082 119.35 44.0468 119.109 44.493C118.873 44.9342 118.755 45.4676 118.755 46.0934ZM134.681 41.2923V43.1389H128.226V41.2923H134.681ZM129.957 38.4609H132.258V49.6403C132.258 50.0866 132.324 50.4226 132.458 50.6483C132.591 50.8688 132.763 51.0201 132.973 51.1022C133.189 51.1791 133.422 51.2176 133.674 51.2176C133.858 51.2176 134.02 51.2048 134.158 51.1791C134.297 51.1535 134.404 51.133 134.481 51.1176L134.897 53.018C134.763 53.0693 134.574 53.1206 134.327 53.1719C134.081 53.2283 133.774 53.2591 133.404 53.2642C132.799 53.2745 132.235 53.1668 131.712 52.9411C131.188 52.7154 130.765 52.3666 130.442 51.8947C130.119 51.4228 129.957 50.8304 129.957 50.1174V38.4609ZM140.427 53.3719C139.678 53.3719 139.001 53.2335 138.396 52.9565C137.791 52.6744 137.311 52.2666 136.957 51.7331C136.608 51.1997 136.434 50.5457 136.434 49.7711C136.434 49.1043 136.562 48.5555 136.819 48.1246C137.075 47.6937 137.421 47.3526 137.857 47.1013C138.293 46.85 138.781 46.6602 139.319 46.5319C139.858 46.4037 140.407 46.3063 140.966 46.2396C141.674 46.1575 142.248 46.0908 142.689 46.0395C143.13 45.9831 143.451 45.8933 143.651 45.7702C143.851 45.6471 143.951 45.4471 143.951 45.1701V45.1162C143.951 44.4443 143.761 43.9237 143.382 43.5544C143.007 43.185 142.448 43.0004 141.704 43.0004C140.93 43.0004 140.319 43.1722 139.873 43.5159C139.432 43.8544 139.127 44.2314 138.958 44.6469L136.796 44.1545C137.052 43.4364 137.426 42.8568 137.919 42.4156C138.416 41.9694 138.988 41.6462 139.635 41.4462C140.281 41.241 140.961 41.1384 141.674 41.1384C142.145 41.1384 142.646 41.1949 143.174 41.3077C143.707 41.4154 144.205 41.6155 144.667 41.9078C145.133 42.2002 145.515 42.6182 145.813 43.162C146.11 43.7005 146.259 44.4007 146.259 45.2624V53.1104H144.013V51.4946H143.92C143.771 51.7921 143.548 52.0845 143.251 52.3717C142.953 52.659 142.571 52.8975 142.104 53.0873C141.638 53.2771 141.079 53.3719 140.427 53.3719ZM140.927 51.5254C141.563 51.5254 142.107 51.3997 142.558 51.1484C143.015 50.897 143.361 50.5688 143.597 50.1635C143.838 49.7532 143.959 49.3146 143.959 48.8479V47.3244C143.877 47.4065 143.718 47.4834 143.482 47.5553C143.251 47.6219 142.987 47.6809 142.689 47.7322C142.392 47.7784 142.102 47.822 141.82 47.863C141.538 47.8989 141.302 47.9297 141.112 47.9553C140.666 48.0118 140.258 48.1067 139.889 48.24C139.524 48.3734 139.232 48.5657 139.011 48.8171C138.796 49.0633 138.688 49.3916 138.688 49.8019C138.688 50.3713 138.899 50.8021 139.319 51.0945C139.74 51.3818 140.276 51.5254 140.927 51.5254ZM154.063 53.3489C152.919 53.3489 151.934 53.0898 151.109 52.5718C150.288 52.0486 149.657 51.3279 149.216 50.4097C148.775 49.4916 148.554 48.4401 148.554 47.2552C148.554 46.0549 148.78 44.9957 149.231 44.0776C149.683 43.1543 150.319 42.4336 151.139 41.9155C151.96 41.3975 152.927 41.1384 154.04 41.1384C154.938 41.1384 155.738 41.3051 156.441 41.6385C157.143 41.9668 157.71 42.4285 158.141 43.0235C158.577 43.6185 158.836 44.3135 158.918 45.1086H156.679C156.556 44.5546 156.274 44.0776 155.833 43.6775C155.397 43.2774 154.812 43.0773 154.078 43.0773C153.437 43.0773 152.876 43.2466 152.393 43.5851C151.916 43.9185 151.545 44.3956 151.278 45.0162C151.011 45.6317 150.878 46.3601 150.878 47.2013C150.878 48.0631 151.009 48.8068 151.27 49.4326C151.532 50.0584 151.901 50.5431 152.378 50.8868C152.86 51.2304 153.427 51.4023 154.078 51.4023C154.514 51.4023 154.909 51.3228 155.263 51.1638C155.622 50.9996 155.922 50.7662 156.164 50.4636C156.41 50.161 156.582 49.7968 156.679 49.371H158.918C158.836 50.1353 158.587 50.8175 158.172 51.4177C157.756 52.0178 157.2 52.4897 156.502 52.8334C155.81 53.177 154.997 53.3489 154.063 53.3489ZM166.656 41.2923V43.1389H160.201V41.2923H166.656ZM161.932 38.4609H164.233V49.6403C164.233 50.0866 164.3 50.4226 164.433 50.6483C164.566 50.8688 164.738 51.0201 164.948 51.1022C165.164 51.1791 165.397 51.2176 165.649 51.2176C165.833 51.2176 165.995 51.2048 166.133 51.1791C166.272 51.1535 166.379 51.133 166.456 51.1176L166.872 53.018C166.739 53.0693 166.549 53.1206 166.303 53.1719C166.056 53.2283 165.749 53.2591 165.379 53.2642C164.774 53.2745 164.21 53.1668 163.687 52.9411C163.163 52.7154 162.74 52.3666 162.417 51.8947C162.094 51.4228 161.932 50.8304 161.932 50.1174V38.4609ZM174.459 53.1104V41.2923H176.759V53.1104H174.459ZM175.62 39.4688C175.22 39.4688 174.877 39.3355 174.589 39.0687C174.307 38.7969 174.166 38.4737 174.166 38.0993C174.166 37.7197 174.307 37.3966 174.589 37.1298C174.877 36.858 175.22 36.7221 175.62 36.7221C176.02 36.7221 176.362 36.858 176.644 37.1298C176.931 37.3966 177.075 37.7197 177.075 38.0993C177.075 38.4737 176.931 38.7969 176.644 39.0687C176.362 39.3355 176.02 39.4688 175.62 39.4688ZM181.916 46.0934V53.1104H179.616V41.2923H181.824V43.2158H181.97C182.242 42.59 182.668 42.0874 183.247 41.7078C183.832 41.3282 184.568 41.1384 185.455 41.1384C186.261 41.1384 186.966 41.3077 187.571 41.6462C188.177 41.9796 188.646 42.4772 188.979 43.1389C189.313 43.8006 189.479 44.6187 189.479 45.5933V53.1104H187.179V45.8703C187.179 45.0137 186.956 44.3443 186.51 43.8621C186.063 43.3748 185.45 43.1312 184.671 43.1312C184.137 43.1312 183.663 43.2466 183.247 43.4774C182.837 43.7082 182.511 44.0468 182.27 44.493C182.034 44.9342 181.916 45.4676 181.916 46.0934ZM197.951 41.2923V43.1389H191.272V41.2923H197.951ZM193.104 53.1104V39.9228C193.104 39.1841 193.265 38.5712 193.588 38.0839C193.911 37.5915 194.34 37.2247 194.873 36.9836C195.407 36.7374 195.986 36.6143 196.612 36.6143C197.074 36.6143 197.469 36.6528 197.797 36.7297C198.125 36.8016 198.369 36.8682 198.528 36.9298L197.989 38.7917C197.882 38.761 197.743 38.7251 197.574 38.684C197.405 38.6379 197.199 38.6148 196.958 38.6148C196.399 38.6148 195.999 38.7533 195.758 39.0303C195.522 39.3072 195.404 39.7073 195.404 40.2305V53.1104H193.104ZM204.599 53.3489C203.491 53.3489 202.524 53.095 201.698 52.5872C200.872 52.0794 200.231 51.3689 199.774 50.4559C199.318 49.5429 199.09 48.476 199.09 47.2552C199.09 46.0293 199.318 44.9572 199.774 44.0391C200.231 43.1209 200.872 42.4079 201.698 41.9001C202.524 41.3923 203.491 41.1384 204.599 41.1384C205.707 41.1384 206.673 41.3923 207.499 41.9001C208.325 42.4079 208.966 43.1209 209.423 44.0391C209.879 44.9572 210.108 46.0293 210.108 47.2552C210.108 48.476 209.879 49.5429 209.423 50.4559C208.966 51.3689 208.325 52.0794 207.499 52.5872C206.673 53.095 205.707 53.3489 204.599 53.3489ZM204.606 51.4177C205.324 51.4177 205.919 51.2279 206.391 50.8483C206.863 50.4687 207.212 49.9635 207.438 49.3326C207.669 48.7017 207.784 48.0066 207.784 47.2475C207.784 46.4935 207.669 45.801 207.438 45.1701C207.212 44.5341 206.863 44.0237 206.391 43.639C205.919 43.2543 205.324 43.0619 204.606 43.0619C203.883 43.0619 203.283 43.2543 202.806 43.639C202.334 44.0237 201.983 44.5341 201.752 45.1701C201.526 45.801 201.413 46.4935 201.413 47.2475C201.413 48.0066 201.526 48.7017 201.752 49.3326C201.983 49.9635 202.334 50.4687 202.806 50.8483C203.283 51.2279 203.883 51.4177 204.606 51.4177ZM217.933 53.1104V41.2923H220.233V53.1104H217.933ZM219.095 39.4688C218.694 39.4688 218.351 39.3355 218.064 39.0687C217.781 38.7969 217.64 38.4737 217.64 38.0993C217.64 37.7197 217.781 37.3966 218.064 37.1298C218.351 36.858 218.694 36.7221 219.095 36.7221C219.495 36.7221 219.836 36.858 220.118 37.1298C220.405 37.3966 220.549 37.7197 220.549 38.0993C220.549 38.4737 220.405 38.7969 220.118 39.0687C219.836 39.3355 219.495 39.4688 219.095 39.4688ZM231.946 44.1776L229.861 44.5469C229.773 44.2802 229.635 44.0263 229.445 43.7852C229.26 43.5441 229.009 43.3466 228.691 43.1927C228.373 43.0389 227.976 42.9619 227.499 42.9619C226.847 42.9619 226.303 43.1081 225.867 43.4005C225.431 43.6877 225.213 44.0596 225.213 44.5161C225.213 44.9111 225.36 45.2291 225.652 45.4702C225.944 45.7113 226.416 45.9087 227.068 46.0626L228.945 46.4935C230.032 46.7448 230.843 47.1321 231.376 47.6553C231.91 48.1785 232.177 48.8581 232.177 49.6942C232.177 50.4021 231.971 51.033 231.561 51.5869C231.156 52.1358 230.589 52.5666 229.861 52.8795C229.137 53.1924 228.299 53.3489 227.345 53.3489C226.021 53.3489 224.942 53.0668 224.105 52.5025C223.269 51.9332 222.756 51.1253 222.567 50.0789L224.79 49.7404C224.929 50.32 225.213 50.7585 225.644 51.056C226.075 51.3484 226.637 51.4946 227.329 51.4946C228.083 51.4946 228.686 51.3382 229.137 51.0253C229.589 50.7072 229.814 50.32 229.814 49.8635C229.814 49.4942 229.676 49.1838 229.399 48.9325C229.127 48.6812 228.709 48.4914 228.145 48.3631L226.144 47.9246C225.042 47.6732 224.226 47.2731 223.698 46.7243C223.175 46.1755 222.913 45.4804 222.913 44.6392C222.913 43.9416 223.108 43.3312 223.498 42.808C223.887 42.2848 224.426 41.8771 225.113 41.5847C225.801 41.2872 226.588 41.1384 227.475 41.1384C228.753 41.1384 229.758 41.4154 230.492 41.9694C231.225 42.5182 231.71 43.2543 231.946 44.1776ZM239.963 53.1104V41.2923H242.187V43.1697H242.31C242.525 42.5336 242.905 42.0335 243.449 41.6693C243.997 41.3 244.618 41.1153 245.311 41.1153C245.454 41.1153 245.623 41.1205 245.818 41.1307C246.018 41.141 246.175 41.1538 246.288 41.1692V43.3697C246.195 43.3441 246.031 43.3158 245.795 43.2851C245.559 43.2492 245.323 43.2312 245.087 43.2312C244.544 43.2312 244.059 43.3466 243.633 43.5774C243.213 43.8031 242.879 44.1186 242.633 44.5238C242.387 44.9239 242.264 45.3804 242.264 45.8933V53.1104H239.963ZM252.711 53.3489C251.546 53.3489 250.543 53.1001 249.702 52.6025C248.866 52.0999 248.22 51.3946 247.763 50.4867C247.312 49.5737 247.086 48.5042 247.086 47.2783C247.086 46.0677 247.312 45.0008 247.763 44.0776C248.22 43.1543 248.856 42.4336 249.671 41.9155C250.492 41.3975 251.451 41.1384 252.549 41.1384C253.216 41.1384 253.862 41.2487 254.488 41.4693C255.114 41.6898 255.675 42.0361 256.173 42.508C256.67 42.9799 257.063 43.5928 257.35 44.3468C257.637 45.0957 257.781 46.0062 257.781 47.0782V47.8938H248.386V46.1703H255.527C255.527 45.5651 255.403 45.029 255.157 44.5623C254.911 44.0904 254.565 43.7185 254.119 43.4466C253.677 43.1748 253.159 43.0389 252.564 43.0389C251.918 43.0389 251.354 43.1979 250.872 43.5159C250.395 43.8288 250.025 44.2391 249.764 44.7469C249.507 45.2496 249.379 45.7959 249.379 46.3858V47.7322C249.379 48.5221 249.518 49.1941 249.795 49.7481C250.077 50.302 250.469 50.7252 250.972 51.0176C251.474 51.3048 252.062 51.4484 252.734 51.4484C253.17 51.4484 253.567 51.3869 253.926 51.2638C254.285 51.1355 254.596 50.9458 254.857 50.6944C255.119 50.4431 255.319 50.1328 255.457 49.7634L257.635 50.1558C257.46 50.797 257.147 51.3587 256.696 51.8408C256.25 52.3179 255.688 52.6897 255.011 52.9565C254.339 53.2181 253.572 53.3489 252.711 53.3489ZM263.534 53.3719C262.785 53.3719 262.108 53.2335 261.503 52.9565C260.898 52.6744 260.418 52.2666 260.064 51.7331C259.715 51.1997 259.541 50.5457 259.541 49.7711C259.541 49.1043 259.669 48.5555 259.926 48.1246C260.182 47.6937 260.529 47.3526 260.964 47.1013C261.4 46.85 261.888 46.6602 262.426 46.5319C262.965 46.4037 263.514 46.3063 264.073 46.2396C264.781 46.1575 265.355 46.0908 265.796 46.0395C266.237 45.9831 266.558 45.8933 266.758 45.7702C266.958 45.6471 267.058 45.4471 267.058 45.1701V45.1162C267.058 44.4443 266.868 43.9237 266.489 43.5544C266.114 43.185 265.555 43.0004 264.812 43.0004C264.037 43.0004 263.427 43.1722 262.98 43.5159C262.539 43.8544 262.234 44.2314 262.065 44.6469L259.903 44.1545C260.159 43.4364 260.534 42.8568 261.026 42.4156C261.524 41.9694 262.096 41.6462 262.742 41.4462C263.388 41.241 264.068 41.1384 264.781 41.1384C265.253 41.1384 265.753 41.1949 266.281 41.3077C266.815 41.4154 267.312 41.6155 267.774 41.9078C268.24 42.2002 268.623 42.6182 268.92 43.162C269.218 43.7005 269.366 44.4007 269.366 45.2624V53.1104H267.12V51.4946H267.027C266.879 51.7921 266.656 52.0845 266.358 52.3717C266.061 52.659 265.678 52.8975 265.212 53.0873C264.745 53.2771 264.186 53.3719 263.534 53.3719ZM264.034 51.5254C264.67 51.5254 265.214 51.3997 265.666 51.1484C266.122 50.897 266.468 50.5688 266.704 50.1635C266.945 49.7532 267.066 49.3146 267.066 48.8479V47.3244C266.984 47.4065 266.825 47.4834 266.589 47.5553C266.358 47.6219 266.094 47.6809 265.796 47.7322C265.499 47.7784 265.209 47.822 264.927 47.863C264.645 47.8989 264.409 47.9297 264.219 47.9553C263.773 48.0118 263.365 48.1067 262.996 48.24C262.632 48.3734 262.339 48.5657 262.119 48.8171C261.903 49.0633 261.795 49.3916 261.795 49.8019C261.795 50.3713 262.006 50.8021 262.426 51.0945C262.847 51.3818 263.383 51.5254 264.034 51.5254ZM274.493 37.353V53.1104H272.192V37.353H274.493ZM279.65 37.353V53.1104H277.349V37.353H279.65ZM283.961 57.5421C283.617 57.5421 283.304 57.5139 283.022 57.4575C282.74 57.4062 282.53 57.3498 282.391 57.2882L282.945 55.4032C283.366 55.516 283.74 55.5647 284.068 55.5494C284.397 55.534 284.686 55.4109 284.938 55.18C285.194 54.9492 285.42 54.5722 285.615 54.049L285.9 53.2642L281.575 41.2923H284.038L287.031 50.4636H287.154L290.147 41.2923H292.616L287.746 54.6876C287.52 55.3032 287.233 55.8238 286.884 56.2495C286.536 56.6804 286.12 57.0035 285.638 57.219C285.156 57.4344 284.597 57.5421 283.961 57.5421ZM44.2539 73.2923V75.1389H37.5754V73.2923H44.2539ZM39.4066 85.1104V71.9228C39.4066 71.1841 39.5682 70.5712 39.8913 70.0839C40.2145 69.5915 40.6428 69.2247 41.1762 68.9836C41.7097 68.7374 42.2893 68.6143 42.9151 68.6143C43.3767 68.6143 43.7717 68.6528 44.1 68.7297C44.4282 68.8016 44.6719 68.8682 44.8309 68.9298L44.2923 70.7917C44.1846 70.761 44.0461 70.7251 43.8768 70.684C43.7076 70.6379 43.5024 70.6148 43.2613 70.6148C42.7022 70.6148 42.3021 70.7533 42.0611 71.0303C41.8251 71.3072 41.7071 71.7073 41.7071 72.2305V85.1104H39.4066ZM49.4687 85.3719C48.7198 85.3719 48.0427 85.2335 47.4374 84.9565C46.8322 84.6744 46.3526 84.2666 45.9987 83.7331C45.6499 83.1997 45.4755 82.5457 45.4755 81.7711C45.4755 81.1043 45.6037 80.5555 45.8602 80.1246C46.1166 79.6937 46.4629 79.3526 46.8989 79.1013C47.3349 78.85 47.8221 78.6602 48.3607 78.5319C48.8993 78.4037 49.4482 78.3063 50.0073 78.2396C50.7151 78.1575 51.2896 78.0908 51.7307 78.0395C52.1718 77.9831 52.4924 77.8933 52.6925 77.7702C52.8925 77.6471 52.9925 77.4471 52.9925 77.1701V77.1162C52.9925 76.4443 52.8028 75.9237 52.4232 75.5544C52.0487 75.185 51.4896 75.0004 50.7459 75.0004C49.9713 75.0004 49.361 75.1722 48.9147 75.5159C48.4736 75.8544 48.1684 76.2314 47.9991 76.6469L45.8371 76.1545C46.0936 75.4364 46.468 74.8568 46.9604 74.4156C47.458 73.9694 48.0299 73.6462 48.6762 73.4462C49.3225 73.241 50.0021 73.1384 50.7151 73.1384C51.187 73.1384 51.6871 73.1949 52.2154 73.3077C52.7489 73.4154 53.2464 73.6155 53.7081 73.9078C54.1749 74.2002 54.557 74.6182 54.8545 75.162C55.152 75.7005 55.3007 76.4007 55.3007 77.2624V85.1104H53.0541V83.4946H52.9618C52.813 83.7921 52.5899 84.0845 52.2924 84.3717C51.9949 84.659 51.6127 84.8975 51.146 85.0873C50.6792 85.2771 50.1201 85.3719 49.4687 85.3719ZM49.9688 83.5254C50.6048 83.5254 51.1485 83.3997 51.5999 83.1484C52.0564 82.897 52.4027 82.5688 52.6386 82.1635C52.8797 81.7532 53.0002 81.3146 53.0002 80.8479V79.3244C52.9182 79.4065 52.7592 79.4834 52.5232 79.5553C52.2924 79.6219 52.0282 79.6809 51.7307 79.7322C51.4332 79.7784 51.1434 79.822 50.8613 79.863C50.5792 79.8989 50.3432 79.9297 50.1534 79.9553C49.7072 80.0118 49.2994 80.1067 48.9301 80.24C48.5659 80.3734 48.2735 80.5657 48.053 80.8171C47.8375 81.0633 47.7298 81.3916 47.7298 81.8019C47.7298 82.3713 47.9401 82.8021 48.3607 83.0945C48.7813 83.3818 49.3174 83.5254 49.9688 83.5254ZM58.1266 85.1104V73.2923H60.3501V75.1697H60.4732C60.6887 74.5336 61.0683 74.0335 61.612 73.6693C62.1608 73.3 62.7815 73.1153 63.4739 73.1153C63.6175 73.1153 63.7868 73.1205 63.9817 73.1307C64.1818 73.141 64.3382 73.1538 64.4511 73.1692V75.3697C64.3587 75.3441 64.1946 75.3158 63.9586 75.2851C63.7227 75.2492 63.4867 75.2312 63.2508 75.2312C62.7071 75.2312 62.2224 75.3466 61.7966 75.5774C61.376 75.8031 61.0426 76.1186 60.7964 76.5238C60.5502 76.9239 60.4271 77.3804 60.4271 77.8933V85.1104H58.1266ZM76.1233 85.3412C75.1692 85.3412 74.3178 85.0975 73.5689 84.6102C72.8251 84.1178 72.2404 83.4177 71.8146 82.5098C71.394 81.5967 71.1837 80.5016 71.1837 79.2244C71.1837 77.9472 71.3966 76.8546 71.8223 75.9468C72.2532 75.0389 72.8431 74.3438 73.592 73.8617C74.3408 73.3795 75.1897 73.1384 76.1387 73.1384C76.8722 73.1384 77.4621 73.2615 77.9083 73.5077C78.3597 73.7488 78.7085 74.0309 78.9547 74.3541C79.206 74.6772 79.401 74.9619 79.5394 75.2081H79.6779V69.353H81.9785V85.1104H79.7318V83.2715H79.5394C79.401 83.5228 79.2009 83.8101 78.9393 84.1332C78.6828 84.4564 78.3289 84.7385 77.8775 84.9796C77.4261 85.2206 76.8414 85.3412 76.1233 85.3412ZM76.6311 83.3792C77.2928 83.3792 77.8519 83.2048 78.3084 82.856C78.77 82.5021 79.1188 82.0122 79.3548 81.3864C79.5959 80.7607 79.7164 80.0323 79.7164 79.2013C79.7164 78.3806 79.5984 77.6625 79.3625 77.047C79.1265 76.4315 78.7803 75.9519 78.3238 75.6082C77.8673 75.2645 77.303 75.0927 76.6311 75.0927C75.9386 75.0927 75.3616 75.2722 74.8999 75.6313C74.4383 75.9904 74.0895 76.4802 73.8535 77.1009C73.6227 77.7215 73.5073 78.4217 73.5073 79.2013C73.5073 79.9913 73.6253 80.7017 73.8612 81.3326C74.0972 81.9635 74.446 82.4636 74.9076 82.8329C75.3744 83.1971 75.9489 83.3792 76.6311 83.3792ZM90.0016 85.3489C88.8937 85.3489 87.9268 85.095 87.1009 84.5872C86.2751 84.0794 85.6339 83.3689 85.1774 82.4559C84.7209 81.5429 84.4927 80.476 84.4927 79.2552C84.4927 78.0293 84.7209 76.9572 85.1774 76.0391C85.6339 75.1209 86.2751 74.4079 87.1009 73.9001C87.9268 73.3923 88.8937 73.1384 90.0016 73.1384C91.1095 73.1384 92.0764 73.3923 92.9022 73.9001C93.7281 74.4079 94.3692 75.1209 94.8258 76.0391C95.2823 76.9572 95.5105 78.0293 95.5105 79.2552C95.5105 80.476 95.2823 81.5429 94.8258 82.4559C94.3692 83.3689 93.7281 84.0794 92.9022 84.5872C92.0764 85.095 91.1095 85.3489 90.0016 85.3489ZM90.0093 83.4177C90.7274 83.4177 91.3224 83.2279 91.7943 82.8483C92.2662 82.4687 92.615 81.9635 92.8407 81.3326C93.0715 80.7017 93.1869 80.0066 93.1869 79.2475C93.1869 78.4935 93.0715 77.801 92.8407 77.1701C92.615 76.5341 92.2662 76.0237 91.7943 75.639C91.3224 75.2543 90.7274 75.0619 90.0093 75.0619C89.286 75.0619 88.6859 75.2543 88.2089 75.639C87.737 76.0237 87.3856 76.5341 87.1548 77.1701C86.9291 77.801 86.8163 78.4935 86.8163 79.2475C86.8163 80.0066 86.9291 80.7017 87.1548 81.3326C87.3856 81.9635 87.737 82.4687 88.2089 82.8483C88.6859 83.2279 89.286 83.4177 90.0093 83.4177ZM100.042 85.1104L96.5648 73.2923H98.9423L101.258 81.9712H101.374L103.697 73.2923H106.075L108.383 81.9327H108.498L110.799 73.2923H113.176L109.706 85.1104H107.36L104.959 76.5777H104.782L102.381 85.1104H100.042ZM117.422 78.0934V85.1104H115.121V73.2923H117.329V75.2158H117.475C117.747 74.59 118.173 74.0874 118.753 73.7078C119.337 73.3282 120.073 73.1384 120.961 73.1384C121.766 73.1384 122.471 73.3077 123.077 73.6462C123.682 73.9796 124.151 74.4772 124.485 75.1389C124.818 75.8006 124.985 76.6187 124.985 77.5933V85.1104H122.684V77.8703C122.684 77.0137 122.461 76.3443 122.015 75.8621C121.569 75.3748 120.956 75.1312 120.176 75.1312C119.643 75.1312 119.168 75.2466 118.753 75.4774C118.342 75.7082 118.017 76.0468 117.776 76.493C117.54 76.9342 117.422 77.4676 117.422 78.0934ZM138.844 73.2923V75.1389H132.389V73.2923H138.844ZM134.12 70.4609H136.42V81.6403C136.42 82.0866 136.487 82.4226 136.621 82.6483C136.754 82.8688 136.926 83.0201 137.136 83.1022C137.351 83.1791 137.585 83.2176 137.836 83.2176C138.021 83.2176 138.182 83.2048 138.321 83.1791C138.459 83.1535 138.567 83.133 138.644 83.1176L139.06 85.018C138.926 85.0693 138.736 85.1206 138.49 85.1719C138.244 85.2283 137.936 85.2591 137.567 85.2642C136.962 85.2745 136.397 85.1668 135.874 84.9411C135.351 84.7154 134.928 84.3666 134.605 83.8947C134.282 83.4228 134.12 82.8304 134.12 82.1174V70.4609ZM143.705 78.0934V85.1104H141.404V69.353H143.674V75.2158H143.82C144.097 74.5798 144.521 74.0745 145.09 73.7001C145.659 73.3257 146.403 73.1384 147.321 73.1384C148.132 73.1384 148.839 73.3051 149.445 73.6385C150.055 73.972 150.527 74.4695 150.86 75.1312C151.199 75.7877 151.368 76.6084 151.368 77.5933V85.1104H149.068V77.8703C149.068 77.0034 148.845 76.3315 148.398 75.8544C147.952 75.3723 147.331 75.1312 146.536 75.1312C145.993 75.1312 145.505 75.2466 145.075 75.4774C144.649 75.7082 144.313 76.0468 144.067 76.493C143.826 76.9342 143.705 77.4676 143.705 78.0934ZM159.293 85.3489C158.129 85.3489 157.126 85.1001 156.285 84.6025C155.449 84.0999 154.803 83.3946 154.346 82.4867C153.895 81.5737 153.669 80.5042 153.669 79.2783C153.669 78.0677 153.895 77.0008 154.346 76.0776C154.803 75.1543 155.439 74.4336 156.254 73.9155C157.075 73.3975 158.034 73.1384 159.132 73.1384C159.799 73.1384 160.445 73.2487 161.071 73.4693C161.696 73.6898 162.258 74.0361 162.756 74.508C163.253 74.9799 163.646 75.5928 163.933 76.3468C164.22 77.0957 164.364 78.0062 164.364 79.0782V79.8938H154.969V78.1703H162.109C162.109 77.5651 161.986 77.029 161.74 76.5623C161.494 76.0904 161.148 75.7185 160.701 75.4466C160.26 75.1748 159.742 75.0389 159.147 75.0389C158.501 75.0389 157.937 75.1979 157.454 75.5159C156.977 75.8288 156.608 76.2391 156.346 76.7469C156.09 77.2496 155.962 77.7959 155.962 78.3858V79.7322C155.962 80.5221 156.1 81.1941 156.377 81.7481C156.659 82.302 157.052 82.7252 157.554 83.0176C158.057 83.3048 158.644 83.4484 159.316 83.4484C159.752 83.4484 160.15 83.3869 160.509 83.2638C160.868 83.1355 161.178 82.9458 161.44 82.6944C161.702 82.4431 161.902 82.1328 162.04 81.7634L164.217 82.1558C164.043 82.797 163.73 83.3587 163.279 83.8408C162.833 84.3179 162.271 84.6897 161.594 84.9565C160.922 85.2181 160.155 85.3489 159.293 85.3489ZM172.173 89.5421V73.2923H174.42V75.2081H174.612C174.746 74.9619 174.938 74.6772 175.19 74.3541C175.441 74.0309 175.79 73.7488 176.236 73.5077C176.682 73.2615 177.272 73.1384 178.006 73.1384C178.96 73.1384 179.811 73.3795 180.56 73.8617C181.309 74.3438 181.896 75.0389 182.322 75.9468C182.753 76.8546 182.968 77.9472 182.968 79.2244C182.968 80.5016 182.755 81.5967 182.33 82.5098C181.904 83.4177 181.319 84.1178 180.575 84.6102C179.832 85.0975 178.983 85.3412 178.029 85.3412C177.311 85.3412 176.723 85.2206 176.267 84.9796C175.815 84.7385 175.461 84.4564 175.205 84.1332C174.948 83.8101 174.751 83.5228 174.612 83.2715H174.474V89.5421H172.173ZM174.428 79.2013C174.428 80.0323 174.548 80.7607 174.789 81.3864C175.031 82.0122 175.379 82.5021 175.836 82.856C176.292 83.2048 176.851 83.3792 177.513 83.3792C178.2 83.3792 178.775 83.1971 179.237 82.8329C179.698 82.4636 180.047 81.9635 180.283 81.3326C180.524 80.7017 180.645 79.9913 180.645 79.2013C180.645 78.4217 180.527 77.7215 180.291 77.1009C180.06 76.4802 179.711 75.9904 179.244 75.6313C178.783 75.2722 178.206 75.0927 177.513 75.0927C176.846 75.0927 176.282 75.2645 175.82 75.6082C175.364 75.9519 175.018 76.4315 174.782 77.047C174.546 77.6625 174.428 78.3806 174.428 79.2013ZM188.747 85.3719C187.998 85.3719 187.321 85.2335 186.715 84.9565C186.11 84.6744 185.631 84.2666 185.277 83.7331C184.928 83.1997 184.753 82.5457 184.753 81.7711C184.753 81.1043 184.882 80.5555 185.138 80.1246C185.395 79.6937 185.741 79.3526 186.177 79.1013C186.613 78.85 187.1 78.6602 187.639 78.5319C188.177 78.4037 188.726 78.3063 189.285 78.2396C189.993 78.1575 190.568 78.0908 191.009 78.0395C191.45 77.9831 191.77 77.8933 191.97 77.7702C192.17 77.6471 192.27 77.4471 192.27 77.1701V77.1162C192.27 76.4443 192.081 75.9237 191.701 75.5544C191.327 75.185 190.768 75.0004 190.024 75.0004C189.249 75.0004 188.639 75.1722 188.193 75.5159C187.752 75.8544 187.446 76.2314 187.277 76.6469L185.115 76.1545C185.371 75.4364 185.746 74.8568 186.238 74.4156C186.736 73.9694 187.308 73.6462 187.954 73.4462C188.6 73.241 189.28 73.1384 189.993 73.1384C190.465 73.1384 190.965 73.1949 191.493 73.3077C192.027 73.4154 192.524 73.6155 192.986 73.9078C193.453 74.2002 193.835 74.6182 194.132 75.162C194.43 75.7005 194.579 76.4007 194.579 77.2624V85.1104H192.332V83.4946H192.24C192.091 83.7921 191.868 84.0845 191.57 84.3717C191.273 84.659 190.891 84.8975 190.424 85.0873C189.957 85.2771 189.398 85.3719 188.747 85.3719ZM189.247 83.5254C189.883 83.5254 190.426 83.3997 190.878 83.1484C191.334 82.897 191.681 82.5688 191.917 82.1635C192.158 81.7532 192.278 81.3146 192.278 80.8479V79.3244C192.196 79.4065 192.037 79.4834 191.801 79.5553C191.57 79.6219 191.306 79.6809 191.009 79.7322C190.711 79.7784 190.421 79.822 190.139 79.863C189.857 79.8989 189.621 79.9297 189.431 79.9553C188.985 80.0118 188.577 80.1067 188.208 80.24C187.844 80.3734 187.551 80.5657 187.331 80.8171C187.115 81.0633 187.008 81.3916 187.008 81.8019C187.008 82.3713 187.218 82.8021 187.639 83.0945C188.059 83.3818 188.595 83.5254 189.247 83.5254ZM202.359 89.7883C201.421 89.7883 200.613 89.6652 199.936 89.419C199.264 89.1728 198.715 88.8471 198.289 88.4419C197.864 88.0367 197.546 87.593 197.335 87.1108L199.313 86.2952C199.451 86.5209 199.636 86.7594 199.867 87.0108C200.103 87.2672 200.421 87.4852 200.821 87.6648C201.226 87.8443 201.747 87.9341 202.383 87.9341C203.255 87.9341 203.975 87.7212 204.545 87.2955C205.114 86.8749 205.399 86.2029 205.399 85.2796V82.956H205.252C205.114 83.2074 204.914 83.4869 204.652 83.7947C204.396 84.1024 204.042 84.3692 203.591 84.5949C203.139 84.8205 202.552 84.9334 201.829 84.9334C200.895 84.9334 200.054 84.7154 199.305 84.2794C198.561 83.8383 197.971 83.1894 197.535 82.3328C197.104 81.4711 196.889 80.4119 196.889 79.1552C196.889 77.8985 197.102 76.8213 197.528 75.9237C197.958 75.026 198.548 74.3387 199.297 73.8617C200.046 73.3795 200.895 73.1384 201.844 73.1384C202.577 73.1384 203.17 73.2615 203.621 73.5077C204.073 73.7488 204.424 74.0309 204.675 74.3541C204.932 74.6772 205.129 74.9619 205.268 75.2081H205.437V73.2923H207.691V85.3719C207.691 86.3876 207.455 87.2211 206.984 87.8725C206.512 88.5239 205.873 89.0061 205.068 89.319C204.268 89.6319 203.365 89.7883 202.359 89.7883ZM202.336 83.0253C202.998 83.0253 203.557 82.8714 204.014 82.5636C204.475 82.2507 204.824 81.8045 205.06 81.2249C205.301 80.6401 205.422 79.94 205.422 79.1244C205.422 78.3293 205.304 77.6292 205.068 77.0239C204.832 76.4187 204.486 75.9468 204.029 75.6082C203.573 75.2645 203.008 75.0927 202.336 75.0927C201.644 75.0927 201.067 75.2722 200.605 75.6313C200.144 75.9852 199.795 76.4674 199.559 77.0778C199.328 77.6882 199.213 78.3704 199.213 79.1244C199.213 79.8989 199.331 80.5786 199.567 81.1633C199.802 81.7481 200.151 82.2046 200.613 82.5328C201.08 82.8611 201.654 83.0253 202.336 83.0253ZM215.632 85.3489C214.468 85.3489 213.465 85.1001 212.623 84.6025C211.787 84.0999 211.141 83.3946 210.685 82.4867C210.233 81.5737 210.008 80.5042 210.008 79.2783C210.008 78.0677 210.233 77.0008 210.685 76.0776C211.141 75.1543 211.777 74.4336 212.593 73.9155C213.413 73.3975 214.373 73.1384 215.47 73.1384C216.137 73.1384 216.783 73.2487 217.409 73.4693C218.035 73.6898 218.597 74.0361 219.094 74.508C219.592 74.9799 219.984 75.5928 220.271 76.3468C220.559 77.0957 220.702 78.0062 220.702 79.0782V79.8938H211.308V78.1703H218.448C218.448 77.5651 218.325 77.029 218.079 76.5623C217.832 76.0904 217.486 75.7185 217.04 75.4466C216.599 75.1748 216.081 75.0389 215.486 75.0389C214.839 75.0389 214.275 75.1979 213.793 75.5159C213.316 75.8288 212.947 76.2391 212.685 76.7469C212.429 77.2496 212.3 77.7959 212.3 78.3858V79.7322C212.3 80.5221 212.439 81.1941 212.716 81.7481C212.998 82.302 213.39 82.7252 213.893 83.0176C214.396 83.3048 214.983 83.4484 215.655 83.4484C216.091 83.4484 216.488 83.3869 216.848 83.2638C217.207 83.1355 217.517 82.9458 217.779 82.6944C218.04 82.4431 218.24 82.1328 218.379 81.7634L220.556 82.1558C220.382 82.797 220.069 83.3587 219.617 83.8408C219.171 84.3179 218.609 84.6897 217.932 84.9565C217.26 85.2181 216.494 85.3489 215.632 85.3489ZM235.475 76.2314V78.2319H228.489V76.2314H235.475ZM246.361 69.353V85.1104H243.983V69.353H246.361ZM259.32 85.3412C258.366 85.3412 257.514 85.0975 256.765 84.6102C256.022 84.1178 255.437 83.4177 255.011 82.5098C254.59 81.5967 254.38 80.5016 254.38 79.2244C254.38 77.9472 254.593 76.8546 255.019 75.9468C255.45 75.0389 256.039 74.3438 256.788 73.8617C257.537 73.3795 258.386 73.1384 259.335 73.1384C260.069 73.1384 260.658 73.2615 261.105 73.5077C261.556 73.7488 261.905 74.0309 262.151 74.3541C262.402 74.6772 262.597 74.9619 262.736 75.2081H262.874V69.353H265.175V85.1104H262.928V83.2715H262.736C262.597 83.5228 262.397 83.8101 262.136 84.1332C261.879 84.4564 261.525 84.7385 261.074 84.9796C260.623 85.2206 260.038 85.3412 259.32 85.3412ZM259.828 83.3792C260.489 83.3792 261.048 83.2048 261.505 82.856C261.966 82.5021 262.315 82.0122 262.551 81.3864C262.792 80.7607 262.913 80.0323 262.913 79.2013C262.913 78.3806 262.795 77.6625 262.559 77.047C262.323 76.4315 261.977 75.9519 261.52 75.6082C261.064 75.2645 260.499 75.0927 259.828 75.0927C259.135 75.0927 258.558 75.2722 258.096 75.6313C257.635 75.9904 257.286 76.4802 257.05 77.1009C256.819 77.7215 256.704 78.4217 256.704 79.2013C256.704 79.9913 256.822 80.7017 257.058 81.3326C257.294 81.9635 257.642 82.4636 258.104 82.8329C258.571 83.1971 259.145 83.3792 259.828 83.3792ZM273.198 85.3489C272.09 85.3489 271.123 85.095 270.297 84.5872C269.472 84.0794 268.83 83.3689 268.374 82.4559C267.917 81.5429 267.689 80.476 267.689 79.2552C267.689 78.0293 267.917 76.9572 268.374 76.0391C268.83 75.1209 269.472 74.4079 270.297 73.9001C271.123 73.3923 272.09 73.1384 273.198 73.1384C274.306 73.1384 275.273 73.3923 276.099 73.9001C276.924 74.4079 277.566 75.1209 278.022 76.0391C278.479 76.9572 278.707 78.0293 278.707 79.2552C278.707 80.476 278.479 81.5429 278.022 82.4559C277.566 83.3689 276.924 84.0794 276.099 84.5872C275.273 85.095 274.306 85.3489 273.198 85.3489ZM273.206 83.4177C273.924 83.4177 274.519 83.2279 274.991 82.8483C275.463 82.4687 275.811 81.9635 276.037 81.3326C276.268 80.7017 276.383 80.0066 276.383 79.2475C276.383 78.4935 276.268 77.801 276.037 77.1701C275.811 76.5341 275.463 76.0237 274.991 75.639C274.519 75.2543 273.924 75.0619 273.206 75.0619C272.482 75.0619 271.882 75.2543 271.405 75.639C270.933 76.0237 270.582 76.5341 270.351 77.1701C270.126 77.801 270.013 78.4935 270.013 79.2475C270.013 80.0066 270.126 80.7017 270.351 81.3326C270.582 81.9635 270.933 82.4687 271.405 82.8483C271.882 83.2279 272.482 83.4177 273.206 83.4177ZM283.337 78.0934V85.1104H281.037V73.2923H283.245V75.2158H283.391C283.663 74.59 284.088 74.0874 284.668 73.7078C285.253 73.3282 285.989 73.1384 286.876 73.1384C287.682 73.1384 288.387 73.3077 288.992 73.6462C289.597 73.9796 290.067 74.4772 290.4 75.1389C290.734 75.8006 290.9 76.6187 290.9 77.5933V85.1104H288.6V77.8703C288.6 77.0137 288.377 76.3443 287.93 75.8621C287.484 75.3748 286.871 75.1312 286.091 75.1312C285.558 75.1312 285.084 75.2466 284.668 75.4774C284.258 75.7082 283.932 76.0468 283.691 76.493C283.455 76.9342 283.337 77.4676 283.337 78.0934ZM295.725 69.353V70.8302C295.725 71.2662 295.643 71.7253 295.478 72.2075C295.319 72.6845 295.094 73.1436 294.801 73.5847C294.509 74.0258 294.165 74.4054 293.77 74.7234L292.632 73.9078C292.934 73.4667 293.196 72.9974 293.416 72.4998C293.642 72.0023 293.755 71.4534 293.755 70.8533V69.353H295.725ZM303.68 73.2923V75.1389H297.225V73.2923H303.68ZM298.956 70.4609H301.257V81.6403C301.257 82.0866 301.323 82.4226 301.457 82.6483C301.59 82.8688 301.762 83.0201 301.972 83.1022C302.188 83.1791 302.421 83.2176 302.673 83.2176C302.857 83.2176 303.019 83.2048 303.157 83.1791C303.296 83.1535 303.403 83.133 303.48 83.1176L303.896 85.018C303.763 85.0693 303.573 85.1206 303.327 85.1719C303.08 85.2283 302.773 85.2591 302.403 85.2642C301.798 85.2745 301.234 85.1668 300.711 84.9411C300.187 84.7154 299.764 84.3666 299.441 83.8947C299.118 83.4228 298.956 82.8304 298.956 82.1174V70.4609ZM44.1461 105.292V107.139H37.6908V105.292H44.1461ZM39.422 102.461H41.7225V113.64C41.7225 114.087 41.7892 114.423 41.9226 114.648C42.0559 114.869 42.2278 115.02 42.4381 115.102C42.6535 115.179 42.8869 115.218 43.1382 115.218C43.3229 115.218 43.4844 115.205 43.6229 115.179C43.7614 115.154 43.8691 115.133 43.9461 115.118L44.3616 117.018C44.2282 117.069 44.0384 117.121 43.7922 117.172C43.546 117.228 43.2382 117.259 42.8689 117.264C42.2637 117.274 41.6994 117.167 41.1762 116.941C40.653 116.715 40.2299 116.367 39.9067 115.895C39.5836 115.423 39.422 114.83 39.422 114.117V102.461ZM49.007 110.093V117.11H46.7065V101.353H48.9763V107.216H49.1224C49.3994 106.58 49.8226 106.075 50.392 105.7C50.9613 105.326 51.7051 105.138 52.6232 105.138C53.4337 105.138 54.1415 105.305 54.7468 105.639C55.3572 105.972 55.8291 106.469 56.1625 107.131C56.501 107.788 56.6703 108.608 56.6703 109.593V117.11H54.3698V109.87C54.3698 109.003 54.1466 108.331 53.7004 107.854C53.2541 107.372 52.6335 107.131 51.8384 107.131C51.2947 107.131 50.8074 107.247 50.3766 107.477C49.9508 107.708 49.6149 108.047 49.3686 108.493C49.1276 108.934 49.007 109.468 49.007 110.093ZM59.5019 117.11V105.292H61.8024V117.11H59.5019ZM60.6637 103.469C60.2636 103.469 59.9199 103.335 59.6327 103.069C59.3506 102.797 59.2095 102.474 59.2095 102.099C59.2095 101.72 59.3506 101.397 59.6327 101.13C59.9199 100.858 60.2636 100.722 60.6637 100.722C61.0638 100.722 61.4049 100.858 61.687 101.13C61.9742 101.397 62.1178 101.72 62.1178 102.099C62.1178 102.474 61.9742 102.797 61.687 103.069C61.4049 103.335 61.0638 103.469 60.6637 103.469ZM66.9595 110.093V117.11H64.659V105.292H66.8672V107.216H67.0134C67.2852 106.59 67.711 106.087 68.2906 105.708C68.8753 105.328 69.6114 105.138 70.4988 105.138C71.3041 105.138 72.0094 105.308 72.6146 105.646C73.2199 105.98 73.6892 106.477 74.0226 107.139C74.356 107.801 74.5227 108.619 74.5227 109.593V117.11H72.2222V109.87C72.2222 109.014 71.9991 108.344 71.5528 107.862C71.1066 107.375 70.4936 107.131 69.714 107.131C69.1805 107.131 68.7061 107.247 68.2906 107.477C67.8802 107.708 67.5545 108.047 67.3134 108.493C67.0775 108.934 66.9595 109.468 66.9595 110.093ZM79.4856 113.102L79.4702 110.293H79.8703L84.579 105.292H87.3335L81.9631 110.986H81.6014L79.4856 113.102ZM77.3697 117.11V101.353H79.6702V117.11H77.3697ZM84.8329 117.11L80.6012 111.494L82.1862 109.886L87.6567 117.11H84.8329ZM97.2496 101.353V117.11H94.8721V101.353H97.2496ZM108.347 117.11L104.869 105.292H107.246L109.562 113.971H109.678L112.001 105.292H114.379L116.687 113.933H116.802L119.103 105.292H121.48L118.01 117.11H115.664L113.263 108.578H113.086L110.686 117.11H108.347ZM128.044 117.349C126.936 117.349 125.969 117.095 125.143 116.587C124.317 116.079 123.676 115.369 123.219 114.456C122.763 113.543 122.535 112.476 122.535 111.255C122.535 110.029 122.763 108.957 123.219 108.039C123.676 107.121 124.317 106.408 125.143 105.9C125.969 105.392 126.936 105.138 128.044 105.138C129.152 105.138 130.118 105.392 130.944 105.9C131.77 106.408 132.411 107.121 132.868 108.039C133.324 108.957 133.553 110.029 133.553 111.255C133.553 112.476 133.324 113.543 132.868 114.456C132.411 115.369 131.77 116.079 130.944 116.587C130.118 117.095 129.152 117.349 128.044 117.349ZM128.051 115.418C128.769 115.418 129.364 115.228 129.836 114.848C130.308 114.469 130.657 113.963 130.883 113.333C131.114 112.702 131.229 112.007 131.229 111.247C131.229 110.493 131.114 109.801 130.883 109.17C130.657 108.534 130.308 108.024 129.836 107.639C129.364 107.254 128.769 107.062 128.051 107.062C127.328 107.062 126.728 107.254 126.251 107.639C125.779 108.024 125.428 108.534 125.197 109.17C124.971 109.801 124.858 110.493 124.858 111.247C124.858 112.007 124.971 112.702 125.197 113.333C125.428 113.963 125.779 114.469 126.251 114.848C126.728 115.228 127.328 115.418 128.051 115.418ZM143.368 112.209V105.292H145.677V117.11H143.415V115.064H143.291C143.02 115.695 142.584 116.22 141.983 116.641C141.388 117.056 140.647 117.264 139.76 117.264C139.001 117.264 138.329 117.098 137.744 116.764C137.164 116.426 136.708 115.925 136.374 115.264C136.046 114.602 135.882 113.784 135.882 112.809V105.292H138.183V112.532C138.183 113.338 138.406 113.979 138.852 114.456C139.298 114.933 139.878 115.171 140.591 115.171C141.022 115.171 141.45 115.064 141.876 114.848C142.307 114.633 142.663 114.307 142.945 113.871C143.232 113.435 143.373 112.881 143.368 112.209ZM150.83 101.353V117.11H148.529V101.353H150.83ZM158.111 117.341C157.156 117.341 156.305 117.098 155.556 116.61C154.812 116.118 154.228 115.418 153.802 114.51C153.381 113.597 153.171 112.502 153.171 111.224C153.171 109.947 153.384 108.855 153.81 107.947C154.24 107.039 154.83 106.344 155.579 105.862C156.328 105.38 157.177 105.138 158.126 105.138C158.859 105.138 159.449 105.262 159.896 105.508C160.347 105.749 160.696 106.031 160.942 106.354C161.193 106.677 161.388 106.962 161.527 107.208H161.665V101.353H163.966V117.11H161.719V115.271H161.527C161.388 115.523 161.188 115.81 160.927 116.133C160.67 116.456 160.316 116.738 159.865 116.98C159.413 117.221 158.829 117.341 158.111 117.341ZM158.618 115.379C159.28 115.379 159.839 115.205 160.296 114.856C160.757 114.502 161.106 114.012 161.342 113.386C161.583 112.761 161.704 112.032 161.704 111.201C161.704 110.381 161.586 109.663 161.35 109.047C161.114 108.431 160.768 107.952 160.311 107.608C159.854 107.265 159.29 107.093 158.618 107.093C157.926 107.093 157.349 107.272 156.887 107.631C156.426 107.99 156.077 108.48 155.841 109.101C155.61 109.722 155.495 110.422 155.495 111.201C155.495 111.991 155.613 112.702 155.848 113.333C156.084 113.963 156.433 114.464 156.895 114.833C157.362 115.197 157.936 115.379 158.618 115.379ZM174.807 110.093V117.11H172.506V105.292H174.715V107.216H174.861C175.133 106.59 175.558 106.087 176.138 105.708C176.723 105.328 177.459 105.138 178.346 105.138C179.152 105.138 179.857 105.308 180.462 105.646C181.067 105.98 181.537 106.477 181.87 107.139C182.203 107.801 182.37 108.619 182.37 109.593V117.11H180.07V109.87C180.07 109.014 179.847 108.344 179.4 107.862C178.954 107.375 178.341 107.131 177.561 107.131C177.028 107.131 176.553 107.247 176.138 107.477C175.728 107.708 175.402 108.047 175.161 108.493C174.925 108.934 174.807 109.468 174.807 110.093ZM190.195 117.349C189.087 117.349 188.12 117.095 187.295 116.587C186.469 116.079 185.828 115.369 185.371 114.456C184.915 113.543 184.686 112.476 184.686 111.255C184.686 110.029 184.915 108.957 185.371 108.039C185.828 107.121 186.469 106.408 187.295 105.9C188.12 105.392 189.087 105.138 190.195 105.138C191.303 105.138 192.27 105.392 193.096 105.9C193.922 106.408 194.563 107.121 195.019 108.039C195.476 108.957 195.704 110.029 195.704 111.255C195.704 112.476 195.476 113.543 195.019 114.456C194.563 115.369 193.922 116.079 193.096 116.587C192.27 117.095 191.303 117.349 190.195 117.349ZM190.203 115.418C190.921 115.418 191.516 115.228 191.988 114.848C192.46 114.469 192.809 113.963 193.034 113.333C193.265 112.702 193.381 112.007 193.381 111.247C193.381 110.493 193.265 109.801 193.034 109.17C192.809 108.534 192.46 108.024 191.988 107.639C191.516 107.254 190.921 107.062 190.203 107.062C189.48 107.062 188.88 107.254 188.402 107.639C187.931 108.024 187.579 108.534 187.348 109.17C187.123 109.801 187.01 110.493 187.01 111.247C187.01 112.007 187.123 112.702 187.348 113.333C187.579 113.963 187.931 114.469 188.402 114.848C188.88 115.228 189.48 115.418 190.203 115.418ZM198.034 117.11V105.292H200.257V107.17H200.38C200.596 106.534 200.975 106.034 201.519 105.669C202.068 105.3 202.689 105.115 203.381 105.115C203.525 105.115 203.694 105.12 203.889 105.131C204.089 105.141 204.245 105.154 204.358 105.169V107.37C204.266 107.344 204.102 107.316 203.866 107.285C203.63 107.249 203.394 107.231 203.158 107.231C202.614 107.231 202.129 107.347 201.704 107.577C201.283 107.803 200.95 108.119 200.704 108.524C200.457 108.924 200.334 109.38 200.334 109.893V117.11H198.034ZM206.111 117.11V105.292H208.319V107.216H208.465C208.711 106.564 209.114 106.057 209.673 105.692C210.232 105.323 210.902 105.138 211.681 105.138C212.471 105.138 213.133 105.323 213.666 105.692C214.205 106.062 214.602 106.57 214.859 107.216H214.982C215.264 106.585 215.713 106.082 216.328 105.708C216.944 105.328 217.677 105.138 218.529 105.138C219.601 105.138 220.475 105.474 221.153 106.146C221.835 106.818 222.176 107.831 222.176 109.185V117.11H219.875V109.401C219.875 108.601 219.657 108.021 219.221 107.662C218.785 107.303 218.265 107.123 217.659 107.123C216.911 107.123 216.328 107.354 215.913 107.816C215.497 108.272 215.29 108.86 215.29 109.578V117.11H212.997V109.255C212.997 108.614 212.797 108.098 212.397 107.708C211.997 107.318 211.476 107.123 210.835 107.123C210.399 107.123 209.996 107.239 209.627 107.47C209.263 107.695 208.968 108.011 208.742 108.416C208.521 108.821 208.411 109.291 208.411 109.824V117.11H206.111ZM228.46 117.372C227.711 117.372 227.034 117.233 226.429 116.956C225.824 116.674 225.344 116.267 224.99 115.733C224.641 115.2 224.467 114.546 224.467 113.771C224.467 113.104 224.595 112.555 224.852 112.125C225.108 111.694 225.454 111.353 225.89 111.101C226.326 110.85 226.814 110.66 227.352 110.532C227.891 110.404 228.44 110.306 228.999 110.24C229.707 110.158 230.281 110.091 230.722 110.04C231.163 109.983 231.484 109.893 231.684 109.77C231.884 109.647 231.984 109.447 231.984 109.17V109.116C231.984 108.444 231.794 107.924 231.415 107.554C231.04 107.185 230.481 107 229.737 107C228.963 107 228.352 107.172 227.906 107.516C227.465 107.854 227.16 108.231 226.991 108.647L224.829 108.154C225.085 107.436 225.459 106.857 225.952 106.416C226.449 105.969 227.021 105.646 227.668 105.446C228.314 105.241 228.994 105.138 229.707 105.138C230.178 105.138 230.679 105.195 231.207 105.308C231.74 105.415 232.238 105.615 232.7 105.908C233.166 106.2 233.548 106.618 233.846 107.162C234.143 107.701 234.292 108.401 234.292 109.262V117.11H232.046V115.495H231.953C231.804 115.792 231.581 116.084 231.284 116.372C230.986 116.659 230.604 116.897 230.137 117.087C229.671 117.277 229.112 117.372 228.46 117.372ZM228.96 115.525C229.596 115.525 230.14 115.4 230.591 115.148C231.048 114.897 231.394 114.569 231.63 114.164C231.871 113.753 231.992 113.315 231.992 112.848V111.324C231.91 111.407 231.751 111.483 231.515 111.555C231.284 111.622 231.02 111.681 230.722 111.732C230.425 111.778 230.135 111.822 229.853 111.863C229.571 111.899 229.335 111.93 229.145 111.955C228.699 112.012 228.291 112.107 227.922 112.24C227.557 112.373 227.265 112.566 227.044 112.817C226.829 113.063 226.721 113.392 226.721 113.802C226.721 114.371 226.932 114.802 227.352 115.095C227.773 115.382 228.309 115.525 228.96 115.525ZM239.419 101.353V117.11H237.118V101.353H239.419ZM244.576 101.353V117.11H242.275V101.353H244.576ZM248.886 121.542C248.543 121.542 248.23 121.514 247.948 121.457C247.666 121.406 247.455 121.35 247.317 121.288L247.871 119.403C248.291 119.516 248.666 119.565 248.994 119.549C249.322 119.534 249.612 119.411 249.864 119.18C250.12 118.949 250.346 118.572 250.541 118.049L250.825 117.264L246.501 105.292H248.963L251.956 114.464H252.079L255.072 105.292H257.542L252.672 118.688C252.446 119.303 252.159 119.824 251.81 120.25C251.461 120.68 251.046 121.004 250.564 121.219C250.082 121.434 249.522 121.542 248.886 121.542ZM47.4853 140.178L45.4003 140.547C45.3131 140.28 45.1746 140.026 44.9848 139.785C44.8001 139.544 44.5488 139.347 44.2308 139.193C43.9127 139.039 43.5152 138.962 43.0382 138.962C42.3868 138.962 41.8431 139.108 41.4071 139.4C40.9711 139.688 40.7531 140.06 40.7531 140.516C40.7531 140.911 40.8993 141.229 41.1916 141.47C41.484 141.711 41.9559 141.909 42.6073 142.063L44.4847 142.493C45.5721 142.745 46.3825 143.132 46.916 143.655C47.4494 144.178 47.7162 144.858 47.7162 145.694C47.7162 146.402 47.511 147.033 47.1006 147.587C46.6954 148.136 46.1286 148.567 45.4003 148.88C44.677 149.192 43.8384 149.349 42.8843 149.349C41.5609 149.349 40.4812 149.067 39.6451 148.503C38.809 147.933 38.2961 147.125 38.1063 146.079L40.3299 145.74C40.4684 146.32 40.7531 146.759 41.1839 147.056C41.6148 147.348 42.1765 147.495 42.8689 147.495C43.6229 147.495 44.2256 147.338 44.677 147.025C45.1284 146.707 45.3541 146.32 45.3541 145.863C45.3541 145.494 45.2156 145.184 44.9386 144.932C44.6668 144.681 44.2487 144.491 43.6845 144.363L41.684 143.925C40.5812 143.673 39.7657 143.273 39.2373 142.724C38.7141 142.175 38.4525 141.48 38.4525 140.639C38.4525 139.942 38.6475 139.331 39.0373 138.808C39.4271 138.285 39.9657 137.877 40.653 137.585C41.3404 137.287 42.1277 137.138 43.0151 137.138C44.2923 137.138 45.2977 137.415 46.0312 137.969C46.7647 138.518 47.2494 139.254 47.4853 140.178ZM54.9853 149.349C53.8414 149.349 52.8566 149.09 52.0308 148.572C51.2101 148.049 50.5792 147.328 50.138 146.41C49.6969 145.492 49.4764 144.44 49.4764 143.255C49.4764 142.055 49.7021 140.996 50.1534 140.078C50.6048 139.154 51.2409 138.434 52.0616 137.916C52.8823 137.397 53.8491 137.138 54.9622 137.138C55.8598 137.138 56.66 137.305 57.3628 137.639C58.0655 137.967 58.6323 138.428 59.0631 139.023C59.4991 139.618 59.7582 140.314 59.8402 141.109H57.6013C57.4782 140.555 57.196 140.078 56.7549 139.677C56.3189 139.277 55.7342 139.077 55.0007 139.077C54.3595 139.077 53.7978 139.247 53.3157 139.585C52.8387 139.919 52.4668 140.396 52.2001 141.016C51.9333 141.632 51.8 142.36 51.8 143.201C51.8 144.063 51.9308 144.807 52.1924 145.433C52.454 146.058 52.8233 146.543 53.3003 146.887C53.7825 147.23 54.3493 147.402 55.0007 147.402C55.4367 147.402 55.8316 147.323 56.1856 147.164C56.5446 147 56.8447 146.766 57.0858 146.464C57.332 146.161 57.5038 145.797 57.6013 145.371H59.8402C59.7582 146.135 59.5094 146.818 59.0939 147.418C58.6784 148.018 58.1219 148.49 57.4243 148.833C56.7318 149.177 55.9188 149.349 54.9853 149.349ZM62.0621 149.11V137.292H64.2856V139.17H64.4088C64.6242 138.534 65.0038 138.034 65.5475 137.669C66.0963 137.3 66.717 137.115 67.4094 137.115C67.553 137.115 67.7223 137.12 67.9172 137.131C68.1173 137.141 68.2737 137.154 68.3866 137.169V139.37C68.2942 139.344 68.1301 139.316 67.8941 139.285C67.6582 139.249 67.4222 139.231 67.1863 139.231C66.6426 139.231 66.1579 139.347 65.7321 139.577C65.3115 139.803 64.9781 140.119 64.7319 140.524C64.4857 140.924 64.3626 141.38 64.3626 141.893V149.11H62.0621ZM74.6939 149.349C73.586 149.349 72.6191 149.095 71.7933 148.587C70.9675 148.079 70.3263 147.369 69.8698 146.456C69.4133 145.543 69.185 144.476 69.185 143.255C69.185 142.029 69.4133 140.957 69.8698 140.039C70.3263 139.121 70.9675 138.408 71.7933 137.9C72.6191 137.392 73.586 137.138 74.6939 137.138C75.8019 137.138 76.7688 137.392 77.5946 137.9C78.4204 138.408 79.0616 139.121 79.5181 140.039C79.9746 140.957 80.2029 142.029 80.2029 143.255C80.2029 144.476 79.9746 145.543 79.5181 146.456C79.0616 147.369 78.4204 148.079 77.5946 148.587C76.7688 149.095 75.8019 149.349 74.6939 149.349ZM74.7016 147.418C75.4197 147.418 76.0147 147.228 76.4866 146.848C76.9586 146.469 77.3073 145.963 77.533 145.333C77.7639 144.702 77.8793 144.007 77.8793 143.247C77.8793 142.493 77.7639 141.801 77.533 141.17C77.3073 140.534 76.9586 140.024 76.4866 139.639C76.0147 139.254 75.4197 139.062 74.7016 139.062C73.9784 139.062 73.3783 139.254 72.9012 139.639C72.4293 140.024 72.078 140.534 71.8471 141.17C71.6215 141.801 71.5086 142.493 71.5086 143.247C71.5086 144.007 71.6215 144.702 71.8471 145.333C72.078 145.963 72.4293 146.469 72.9012 146.848C73.3783 147.228 73.9784 147.418 74.7016 147.418ZM84.8329 133.353V149.11H82.5324V133.353H84.8329ZM89.9901 133.353V149.11H87.6895V133.353H89.9901ZM103.859 137.292V139.139H97.4036V137.292H103.859ZM99.1348 134.461H101.435V145.64C101.435 146.087 101.502 146.423 101.635 146.648C101.769 146.869 101.941 147.02 102.151 147.102C102.366 147.179 102.6 147.218 102.851 147.218C103.036 147.218 103.197 147.205 103.336 147.179C103.474 147.154 103.582 147.133 103.659 147.118L104.074 149.018C103.941 149.069 103.751 149.121 103.505 149.172C103.259 149.228 102.951 149.259 102.582 149.264C101.976 149.274 101.412 149.167 100.889 148.941C100.366 148.715 99.9427 148.367 99.6195 147.895C99.2964 147.423 99.1348 146.83 99.1348 146.117V134.461ZM108.72 142.093V149.11H106.419V133.353H108.689V139.216H108.835C109.112 138.58 109.535 138.075 110.105 137.7C110.674 137.326 111.418 137.138 112.336 137.138C113.146 137.138 113.854 137.305 114.46 137.639C115.07 137.972 115.542 138.469 115.875 139.131C116.214 139.788 116.383 140.608 116.383 141.593V149.11H114.083V141.87C114.083 141.003 113.859 140.331 113.413 139.854C112.967 139.372 112.346 139.131 111.551 139.131C111.008 139.131 110.52 139.247 110.089 139.477C109.664 139.708 109.328 140.047 109.081 140.493C108.84 140.934 108.72 141.468 108.72 142.093ZM119.215 149.11V137.292H121.515V149.11H119.215ZM120.376 135.469C119.976 135.469 119.633 135.335 119.345 135.069C119.063 134.797 118.922 134.474 118.922 134.099C118.922 133.72 119.063 133.397 119.345 133.13C119.633 132.858 119.976 132.722 120.376 132.722C120.777 132.722 121.118 132.858 121.4 133.13C121.687 133.397 121.831 133.72 121.831 134.099C121.831 134.474 121.687 134.797 121.4 135.069C121.118 135.335 120.777 135.469 120.376 135.469ZM133.228 140.178L131.143 140.547C131.055 140.28 130.917 140.026 130.727 139.785C130.542 139.544 130.291 139.347 129.973 139.193C129.655 139.039 129.257 138.962 128.78 138.962C128.129 138.962 127.585 139.108 127.149 139.4C126.713 139.688 126.495 140.06 126.495 140.516C126.495 140.911 126.642 141.229 126.934 141.47C127.226 141.711 127.698 141.909 128.35 142.063L130.227 142.493C131.314 142.745 132.125 143.132 132.658 143.655C133.192 144.178 133.458 144.858 133.458 145.694C133.458 146.402 133.253 147.033 132.843 147.587C132.438 148.136 131.871 148.567 131.143 148.88C130.419 149.192 129.581 149.349 128.627 149.349C127.303 149.349 126.223 149.067 125.387 148.503C124.551 147.933 124.038 147.125 123.849 146.079L126.072 145.74C126.211 146.32 126.495 146.759 126.926 147.056C127.357 147.348 127.919 147.495 128.611 147.495C129.365 147.495 129.968 147.338 130.419 147.025C130.871 146.707 131.096 146.32 131.096 145.863C131.096 145.494 130.958 145.184 130.681 144.932C130.409 144.681 129.991 144.491 129.427 144.363L127.426 143.925C126.324 143.673 125.508 143.273 124.98 142.724C124.456 142.175 124.195 141.48 124.195 140.639C124.195 139.942 124.39 139.331 124.78 138.808C125.169 138.285 125.708 137.877 126.395 137.585C127.083 137.287 127.87 137.138 128.757 137.138C130.035 137.138 131.04 137.415 131.773 137.969C132.507 138.518 132.992 139.254 133.228 140.178ZM146.87 137.292V139.139H140.191V137.292H146.87ZM142.022 149.11V135.923C142.022 135.184 142.184 134.571 142.507 134.084C142.83 133.591 143.258 133.225 143.792 132.984C144.325 132.737 144.905 132.614 145.531 132.614C145.992 132.614 146.387 132.653 146.716 132.73C147.044 132.802 147.288 132.868 147.447 132.93L146.908 134.792C146.8 134.761 146.662 134.725 146.493 134.684C146.323 134.638 146.118 134.615 145.877 134.615C145.318 134.615 144.918 134.753 144.677 135.03C144.441 135.307 144.323 135.707 144.323 136.231V149.11H142.022ZM152.084 149.372C151.335 149.372 150.658 149.233 150.053 148.956C149.448 148.674 148.968 148.267 148.614 147.733C148.266 147.2 148.091 146.546 148.091 145.771C148.091 145.104 148.219 144.555 148.476 144.125C148.732 143.694 149.079 143.353 149.515 143.101C149.951 142.85 150.438 142.66 150.976 142.532C151.515 142.404 152.064 142.306 152.623 142.24C153.331 142.158 153.905 142.091 154.346 142.04C154.788 141.983 155.108 141.893 155.308 141.77C155.508 141.647 155.608 141.447 155.608 141.17V141.116C155.608 140.444 155.418 139.924 155.039 139.554C154.664 139.185 154.105 139 153.362 139C152.587 139 151.977 139.172 151.53 139.516C151.089 139.854 150.784 140.231 150.615 140.647L148.453 140.154C148.709 139.436 149.084 138.857 149.576 138.416C150.074 137.969 150.646 137.646 151.292 137.446C151.938 137.241 152.618 137.138 153.331 137.138C153.803 137.138 154.303 137.195 154.831 137.308C155.365 137.415 155.862 137.615 156.324 137.908C156.791 138.2 157.173 138.618 157.47 139.162C157.768 139.701 157.916 140.401 157.916 141.262V149.11H155.67V147.495H155.577C155.429 147.792 155.206 148.084 154.908 148.372C154.611 148.659 154.228 148.897 153.762 149.087C153.295 149.277 152.736 149.372 152.084 149.372ZM152.584 147.525C153.22 147.525 153.764 147.4 154.216 147.148C154.672 146.897 155.018 146.569 155.254 146.164C155.495 145.753 155.616 145.315 155.616 144.848V143.324C155.534 143.407 155.375 143.483 155.139 143.555C154.908 143.622 154.644 143.681 154.346 143.732C154.049 143.778 153.759 143.822 153.477 143.863C153.195 143.899 152.959 143.93 152.769 143.955C152.323 144.012 151.915 144.107 151.546 144.24C151.182 144.373 150.889 144.566 150.669 144.817C150.453 145.063 150.345 145.392 150.345 145.802C150.345 146.371 150.556 146.802 150.976 147.095C151.397 147.382 151.933 147.525 152.584 147.525ZM160.742 149.11V137.292H162.966V139.17H163.089C163.304 138.534 163.684 138.034 164.228 137.669C164.776 137.3 165.397 137.115 166.09 137.115C166.233 137.115 166.402 137.12 166.597 137.131C166.797 137.141 166.954 137.154 167.067 137.169V139.37C166.974 139.344 166.81 139.316 166.574 139.285C166.338 139.249 166.102 139.231 165.866 139.231C165.323 139.231 164.838 139.347 164.412 139.577C163.992 139.803 163.658 140.119 163.412 140.524C163.166 140.924 163.043 141.38 163.043 141.893V149.11H160.742ZM168.981 149.257C168.56 149.257 168.199 149.108 167.896 148.81C167.593 148.508 167.442 148.143 167.442 147.718C167.442 147.297 167.593 146.938 167.896 146.641C168.199 146.338 168.56 146.187 168.981 146.187C169.401 146.187 169.763 146.338 170.066 146.641C170.368 146.938 170.52 147.297 170.52 147.718C170.52 148 170.448 148.259 170.304 148.495C170.166 148.726 169.981 148.91 169.75 149.049C169.519 149.187 169.263 149.257 168.981 149.257ZM173.796 133.353V134.83C173.796 135.266 173.713 135.725 173.549 136.207C173.39 136.684 173.165 137.144 172.872 137.585C172.58 138.026 172.236 138.405 171.841 138.723L170.703 137.908C171.005 137.467 171.267 136.997 171.487 136.5C171.713 136.002 171.826 135.453 171.826 134.853V133.353H173.796ZM177.712 133.353V134.83C177.712 135.266 177.63 135.725 177.466 136.207C177.307 136.684 177.081 137.144 176.789 137.585C176.496 138.026 176.152 138.405 175.758 138.723L174.619 137.908C174.921 137.467 175.183 136.997 175.404 136.5C175.629 136.002 175.742 135.453 175.742 134.853V133.353H177.712Z" fill="black" fill-opacity="0.8"/>
<path d="M48.197 286.969H46.3966C46.3274 286.585 46.1985 286.246 46.01 285.954C45.8215 285.661 45.5907 285.413 45.3176 285.209C45.0444 285.006 44.7386 284.852 44.4 284.748C44.0653 284.644 43.7095 284.592 43.3325 284.592C42.6516 284.592 42.0418 284.763 41.5032 285.106C40.9685 285.448 40.5453 285.95 40.2337 286.612C39.926 287.273 39.7721 288.081 39.7721 289.035C39.7721 289.997 39.926 290.809 40.2337 291.47C40.5453 292.132 40.9704 292.632 41.509 292.971C42.0476 293.309 42.6535 293.479 43.3267 293.479C43.6999 293.479 44.0538 293.429 44.3885 293.329C44.727 293.225 45.0329 293.073 45.306 292.873C45.5791 292.673 45.81 292.428 45.9985 292.14C46.1908 291.847 46.3235 291.513 46.3966 291.136L48.197 291.142C48.1009 291.722 47.9143 292.257 47.6373 292.746C47.3642 293.23 47.0122 293.65 46.5813 294.004C46.1543 294.354 45.6657 294.625 45.1156 294.817C44.5655 295.01 43.9653 295.106 43.3152 295.106C42.2919 295.106 41.3801 294.864 40.5799 294.379C39.7798 293.89 39.1489 293.192 38.6872 292.284C38.2294 291.376 38.0005 290.293 38.0005 289.035C38.0005 287.773 38.2313 286.691 38.693 285.787C39.1546 284.879 39.7855 284.182 40.5857 283.698C41.3859 283.209 42.2957 282.965 43.3152 282.965C43.9422 282.965 44.527 283.055 45.0694 283.236C45.6157 283.413 46.1062 283.674 46.5409 284.021C46.9756 284.363 47.3353 284.782 47.62 285.279C47.9047 285.771 48.097 286.335 48.197 286.969ZM51.7388 289.682V294.944H50.0135V283.126H51.7158V287.523H51.8254C52.0331 287.046 52.3505 286.667 52.7775 286.387C53.2046 286.106 53.7624 285.965 54.451 285.965C55.0588 285.965 55.5897 286.09 56.0437 286.34C56.5015 286.591 56.8554 286.964 57.1054 287.46C57.3593 287.952 57.4863 288.568 57.4863 289.307V294.944H55.7609V289.514C55.7609 288.864 55.5936 288.36 55.2589 288.002C54.9242 287.641 54.4587 287.46 53.8624 287.46C53.4546 287.46 53.0891 287.547 52.766 287.72C52.4467 287.893 52.1947 288.147 52.0101 288.481C51.8292 288.812 51.7388 289.212 51.7388 289.682ZM61.3354 283.126V294.944H59.61V283.126H61.3354ZM67.2113 295.123C66.3804 295.123 65.6552 294.933 65.0359 294.552C64.4165 294.171 63.9356 293.638 63.5932 292.954C63.2508 292.269 63.0796 291.469 63.0796 290.553C63.0796 289.634 63.2508 288.83 63.5932 288.141C63.9356 287.452 64.4165 286.918 65.0359 286.537C65.6552 286.156 66.3804 285.965 67.2113 285.965C68.0423 285.965 68.7675 286.156 69.3868 286.537C70.0062 286.918 70.4871 287.452 70.8295 288.141C71.1718 288.83 71.343 289.634 71.343 290.553C71.343 291.469 71.1718 292.269 70.8295 292.954C70.4871 293.638 70.0062 294.171 69.3868 294.552C68.7675 294.933 68.0423 295.123 67.2113 295.123ZM67.2171 293.675C67.7557 293.675 68.202 293.532 68.5559 293.248C68.9098 292.963 69.1714 292.584 69.3407 292.111C69.5138 291.638 69.6003 291.117 69.6003 290.547C69.6003 289.982 69.5138 289.462 69.3407 288.989C69.1714 288.512 68.9098 288.129 68.5559 287.841C68.202 287.552 67.7557 287.408 67.2171 287.408C66.6747 287.408 66.2246 287.552 65.8668 287.841C65.5129 288.129 65.2494 288.512 65.0762 288.989C64.907 289.462 64.8223 289.982 64.8223 290.547C64.8223 291.117 64.907 291.638 65.0762 292.111C65.2494 292.584 65.5129 292.963 65.8668 293.248C66.2246 293.532 66.6747 293.675 67.2171 293.675ZM76.9103 295.123C76.037 295.123 75.2849 294.937 74.654 294.563C74.027 294.186 73.5422 293.658 73.1998 292.977C72.8613 292.292 72.692 291.49 72.692 290.57C72.692 289.662 72.8613 288.862 73.1998 288.17C73.5422 287.477 74.0193 286.937 74.6309 286.548C75.2465 286.16 75.9659 285.965 76.7891 285.965C77.2892 285.965 77.774 286.048 78.2433 286.214C78.7126 286.379 79.1339 286.639 79.507 286.993C79.8802 287.346 80.1745 287.806 80.3899 288.372C80.6054 288.933 80.7131 289.616 80.7131 290.42V291.032H73.6673V289.739H79.0223C79.0223 289.285 78.93 288.883 78.7453 288.533C78.5607 288.179 78.301 287.9 77.9663 287.697C77.6355 287.493 77.2469 287.391 76.8007 287.391C76.3159 287.391 75.8928 287.51 75.5311 287.748C75.1734 287.983 74.8964 288.291 74.7002 288.672C74.5078 289.049 74.4117 289.458 74.4117 289.901V290.911C74.4117 291.503 74.5155 292.007 74.7233 292.423C74.9349 292.838 75.2292 293.155 75.6062 293.375C75.9832 293.59 76.4236 293.698 76.9276 293.698C77.2546 293.698 77.5527 293.652 77.822 293.559C78.0913 293.463 78.3241 293.321 78.5203 293.132C78.7165 292.944 78.8665 292.711 78.9704 292.434L80.6034 292.728C80.4726 293.209 80.238 293.631 79.8994 293.992C79.5647 294.35 79.1435 294.629 78.6357 294.829C78.1317 295.025 77.5566 295.123 76.9103 295.123ZM86.7089 294.944V283.126H88.492V288.262H94.3837V283.126H96.1726V294.944H94.3837V289.791H88.492V294.944H86.7089ZM101.032 295.141C100.47 295.141 99.962 295.037 99.5081 294.829C99.0541 294.617 98.6945 294.312 98.429 293.911C98.1674 293.511 98.0366 293.021 98.0366 292.44C98.0366 291.94 98.1328 291.528 98.3251 291.205C98.5175 290.882 98.7772 290.626 99.1042 290.438C99.4312 290.249 99.7966 290.107 100.201 290.011C100.604 289.914 101.016 289.841 101.435 289.791C101.966 289.73 102.397 289.68 102.728 289.641C103.059 289.599 103.299 289.532 103.449 289.439C103.599 289.347 103.674 289.197 103.674 288.989V288.949C103.674 288.445 103.532 288.054 103.247 287.777C102.967 287.5 102.547 287.362 101.989 287.362C101.409 287.362 100.951 287.491 100.616 287.748C100.285 288.002 100.056 288.285 99.9293 288.597L98.3078 288.227C98.5002 287.689 98.781 287.254 99.1503 286.923C99.5235 286.589 99.9524 286.346 100.437 286.196C100.922 286.042 101.432 285.965 101.966 285.965C102.32 285.965 102.695 286.008 103.092 286.092C103.492 286.173 103.865 286.323 104.211 286.542C104.561 286.762 104.848 287.075 105.071 287.483C105.294 287.887 105.406 288.412 105.406 289.058V294.944H103.721V293.733H103.651C103.54 293.956 103.372 294.175 103.149 294.39C102.926 294.606 102.64 294.785 102.289 294.927C101.939 295.069 101.52 295.141 101.032 295.141ZM101.407 293.756C101.884 293.756 102.291 293.661 102.63 293.473C102.972 293.284 103.232 293.038 103.409 292.734C103.59 292.426 103.68 292.098 103.68 291.747V290.605C103.619 290.666 103.499 290.724 103.322 290.778C103.149 290.828 102.951 290.872 102.728 290.911C102.505 290.945 102.288 290.978 102.076 291.009C101.864 291.036 101.687 291.059 101.545 291.078C101.21 291.12 100.905 291.192 100.628 291.292C100.354 291.392 100.135 291.536 99.9697 291.724C99.8082 291.909 99.7274 292.155 99.7274 292.463C99.7274 292.89 99.8851 293.213 100.201 293.432C100.516 293.648 100.918 293.756 101.407 293.756ZM111.743 286.081V287.466H106.734V286.081H111.743ZM108.108 294.944V285.054C108.108 284.5 108.229 284.04 108.471 283.674C108.714 283.305 109.035 283.03 109.435 282.849C109.835 282.665 110.27 282.572 110.739 282.572C111.085 282.572 111.382 282.601 111.628 282.659C111.874 282.713 112.057 282.763 112.176 282.809L111.772 284.205C111.691 284.182 111.587 284.155 111.46 284.125C111.333 284.09 111.18 284.073 110.999 284.073C110.579 284.073 110.279 284.177 110.099 284.384C109.922 284.592 109.833 284.892 109.833 285.284V294.944H108.108ZM115.07 289.682V294.944H113.345V286.081H115.001V287.523H115.11C115.314 287.054 115.634 286.677 116.068 286.392C116.507 286.108 117.059 285.965 117.724 285.965C118.328 285.965 118.857 286.092 119.311 286.346C119.765 286.596 120.117 286.969 120.367 287.466C120.617 287.962 120.742 288.576 120.742 289.307V294.944H119.017V289.514C119.017 288.872 118.85 288.37 118.515 288.008C118.18 287.643 117.721 287.46 117.136 287.46C116.736 287.46 116.38 287.547 116.068 287.72C115.761 287.893 115.516 288.147 115.335 288.481C115.159 288.812 115.07 289.212 115.07 289.682ZM126.698 295.123C125.825 295.123 125.072 294.937 124.442 294.563C123.814 294.186 123.33 293.658 122.987 292.977C122.649 292.292 122.48 291.49 122.48 290.57C122.48 289.662 122.649 288.862 122.987 288.17C123.33 287.477 123.807 286.937 124.418 286.548C125.034 286.16 125.753 285.965 126.577 285.965C127.077 285.965 127.561 286.048 128.031 286.214C128.5 286.379 128.921 286.639 129.295 286.993C129.668 287.346 129.962 287.806 130.177 288.372C130.393 288.933 130.501 289.616 130.501 290.42V291.032H123.455V289.739H128.81C128.81 289.285 128.717 288.883 128.533 288.533C128.348 288.179 128.088 287.9 127.754 287.697C127.423 287.493 127.034 287.391 126.588 287.391C126.103 287.391 125.68 287.51 125.319 287.748C124.961 287.983 124.684 288.291 124.488 288.672C124.295 289.049 124.199 289.458 124.199 289.901V290.911C124.199 291.503 124.303 292.007 124.511 292.423C124.722 292.838 125.017 293.155 125.394 293.375C125.771 293.59 126.211 293.698 126.715 293.698C127.042 293.698 127.34 293.652 127.61 293.559C127.879 293.463 128.112 293.321 128.308 293.132C128.504 292.944 128.654 292.711 128.758 292.434L130.391 292.728C130.26 293.209 130.025 293.631 129.687 293.992C129.352 294.35 128.931 294.629 128.423 294.829C127.919 295.025 127.344 295.123 126.698 295.123ZM132.236 294.944V286.081H133.904V287.489H133.996C134.158 287.012 134.442 286.637 134.85 286.364C135.262 286.087 135.727 285.948 136.247 285.948C136.354 285.948 136.481 285.952 136.628 285.96C136.778 285.967 136.895 285.977 136.98 285.988V287.639C136.91 287.62 136.787 287.598 136.61 287.575C136.433 287.548 136.256 287.535 136.079 287.535C135.672 287.535 135.308 287.622 134.989 287.795C134.673 287.964 134.423 288.201 134.239 288.504C134.054 288.804 133.962 289.147 133.962 289.532V294.944H132.236Z" fill="black" fill-opacity="0.494118"/>
</g>
<defs>
<filter id="filter0_ddd_675_18842" x="0" y="0.0273438" width="345" height="345" filterUnits="userSpaceOnUse" color-interpolation-filters="sRGB">
<feFlood flood-opacity="0" result="BackgroundImageFix"/>
<feColorMatrix in="SourceAlpha" type="matrix" values="0 0 0 0 0 0 0 0 0 0 0 0 0 0 0 0 0 0 127 0" result="hardAlpha"/>
<feOffset dy="2.5"/>
<feGaussianBlur stdDeviation="1"/>
<feColorMatrix type="matrix" values="0 0 0 0 0 0 0 0 0 0 0 0 0 0 0 0 0 0 0.02 0"/>
<feBlend mode="normal" in2="BackgroundImageFix" result="effect1_dropShadow_675_18842"/>
<feColorMatrix in="SourceAlpha" type="matrix" values="0 0 0 0 0 0 0 0 0 0 0 0 0 0 0 0 0 0 127 0" result="hardAlpha"/>
<feOffset dy="3"/>
<feGaussianBlur stdDeviation="2.5"/>
<feColorMatrix type="matrix" values="0 0 0 0 0 0 0 0 0 0 0 0 0 0 0 0 0 0 0.04 0"/>
<feBlend mode="normal" in2="effect1_dropShadow_675_18842" result="effect2_dropShadow_675_18842"/>
<feColorMatrix in="SourceAlpha" type="matrix" values="0 0 0 0 0 0 0 0 0 0 0 0 0 0 0 0 0 0 127 0" result="hardAlpha"/>
<feOffset dy="8"/>
<feGaussianBlur stdDeviation="5"/>
<feColorMatrix type="matrix" values="0 0 0 0 0 0 0 0 0 0 0 0 0 0 0 0 0 0 0.08 0"/>
<feBlend mode="normal" in2="effect2_dropShadow_675_18842" result="effect3_dropShadow_675_18842"/>
<feBlend mode="normal" in="SourceGraphic" in2="effect3_dropShadow_675_18842" result="shape"/>
</filter>
</defs>
</svg>
