<svg width="346" height="346" viewBox="0 0 346 346" fill="none" xmlns="http://www.w3.org/2000/svg">
<g filter="url(#filter0_ddd_675_18847)">
<rect width="325" height="325" transform="translate(10.5 2.02734)" fill="#FFAFA3"/>
<path d="M38.6326 42.2524V40.7774C38.6326 40.3421 38.7146 39.8837 38.8785 39.4023C39.0424 38.9209 39.2703 38.4599 39.5622 38.0195C39.8541 37.579 40.1973 37.2026 40.5916 36.8902L41.7286 37.7045C41.4162 38.1603 41.1499 38.6366 40.9296 39.1334C40.7094 39.6302 40.5993 40.1705 40.5993 40.7544V42.2524H38.6326ZM42.5506 42.2524V40.7774C42.5506 40.3421 42.6325 39.8837 42.7964 39.4023C42.9603 38.9209 43.1882 38.4599 43.4802 38.0195C43.7721 37.579 44.1152 37.2026 44.5096 36.8902L45.6466 37.7045C45.3342 38.1603 45.0678 38.6366 44.8476 39.1334C44.6274 39.6302 44.5173 40.1705 44.5173 40.7544V42.2524H42.5506ZM49.9412 37.3358V53.0691H47.5673V37.3358H49.9412ZM60.7601 37.3358V53.0691H58.4631V37.3358H60.7601ZM63.6123 53.0691V41.2691H65.9093V53.0691H63.6123ZM64.7724 39.4484C64.3729 39.4484 64.0297 39.3152 63.7429 39.0489C63.4613 38.7775 63.3204 38.4548 63.3204 38.0809C63.3204 37.7019 63.4613 37.3793 63.7429 37.113C64.0297 36.8415 64.3729 36.7058 64.7724 36.7058C65.1718 36.7058 65.5124 36.8415 65.7941 37.113C66.0809 37.3793 66.2243 37.7019 66.2243 38.0809C66.2243 38.4548 66.0809 38.7775 65.7941 39.0489C65.5124 39.3152 65.1718 39.4484 64.7724 39.4484ZM70.8742 49.0666L70.8588 46.2626H71.2583L75.9599 41.2691H78.7101L73.3479 46.954H72.9868L70.8742 49.0666ZM68.7616 53.0691V37.3358H71.0586V53.0691H68.7616ZM76.2134 53.0691L71.9881 47.461L73.5707 45.8554L79.0328 53.0691H76.2134ZM85.1654 53.3072C84.0028 53.3072 83.0015 53.0588 82.1616 52.5621C81.3268 52.0602 80.6815 51.3559 80.2257 50.4494C79.775 49.5378 79.5496 48.47 79.5496 47.2459C79.5496 46.0372 79.775 44.972 80.2257 44.0501C80.6815 43.1282 81.3166 42.4086 82.1309 41.8914C82.9503 41.3741 83.908 41.1154 85.0041 41.1154C85.6698 41.1154 86.3152 41.2256 86.94 41.4458C87.5648 41.666 88.1256 42.0117 88.6224 42.4829C89.1192 42.9541 89.511 43.5661 89.7978 44.319C90.0846 45.0667 90.228 45.9758 90.228 47.0462V47.8605H80.8479V46.1397H87.9771C87.9771 45.5353 87.8542 45.0001 87.6083 44.5341C87.3625 44.0629 87.0168 43.6916 86.5712 43.4201C86.1308 43.1487 85.6135 43.013 85.0194 43.013C84.3741 43.013 83.8107 43.1717 83.3293 43.4893C82.853 43.8017 82.4843 44.2114 82.2231 44.7184C81.967 45.2204 81.8389 45.7658 81.8389 46.3548V47.6992C81.8389 48.4879 81.9772 49.1588 82.2538 49.7119C82.5355 50.2651 82.9273 50.6876 83.4292 50.9795C83.9311 51.2663 84.5175 51.4097 85.1884 51.4097C85.6238 51.4097 86.0207 51.3483 86.3792 51.2253C86.7377 51.0973 87.0475 50.9078 87.3087 50.6569C87.5699 50.4059 87.7697 50.096 87.908 49.7273L90.082 50.1191C89.9079 50.7593 89.5955 51.3201 89.1448 51.8015C88.6992 52.2778 88.1384 52.6491 87.4624 52.9154C86.7915 53.1766 86.0258 53.3072 85.1654 53.3072ZM100.323 46.0628V53.0691H98.0259V37.3358H100.292V43.1897H100.438C100.715 42.5546 101.137 42.0501 101.706 41.6763C102.274 41.3024 103.017 41.1154 103.934 41.1154C104.743 41.1154 105.45 41.2819 106.054 41.6148C106.663 41.9477 107.135 42.4445 107.467 43.1052C107.805 43.7607 107.974 44.5802 107.974 45.5635V53.0691H105.677V45.8401C105.677 44.9745 105.455 44.3036 105.009 43.8273C104.564 43.3459 103.944 43.1052 103.15 43.1052C102.607 43.1052 102.121 43.2204 101.69 43.4509C101.265 43.6813 100.93 44.0194 100.684 44.4649C100.443 44.9054 100.323 45.438 100.323 46.0628ZM115.772 53.3072C114.666 53.3072 113.701 53.0537 112.876 52.5467C112.051 52.0397 111.411 51.3303 110.955 50.4187C110.5 49.5071 110.272 48.4418 110.272 47.2229C110.272 45.9988 110.5 44.9284 110.955 44.0117C111.411 43.0949 112.051 42.383 112.876 41.876C113.701 41.369 114.666 41.1154 115.772 41.1154C116.878 41.1154 117.844 41.369 118.668 41.876C119.493 42.383 120.133 43.0949 120.589 44.0117C121.045 44.9284 121.273 45.9988 121.273 47.2229C121.273 48.4418 121.045 49.5071 120.589 50.4187C120.133 51.3303 119.493 52.0397 118.668 52.5467C117.844 53.0537 116.878 53.3072 115.772 53.3072ZM115.78 51.379C116.497 51.379 117.091 51.1895 117.562 50.8105C118.033 50.4315 118.382 49.927 118.607 49.2971C118.837 48.6671 118.953 47.9732 118.953 47.2152C118.953 46.4623 118.837 45.7709 118.607 45.141C118.382 44.5059 118.033 43.9963 117.562 43.6122C117.091 43.2281 116.497 43.036 115.78 43.036C115.058 43.036 114.459 43.2281 113.982 43.6122C113.511 43.9963 113.16 44.5059 112.93 45.141C112.704 45.7709 112.592 46.4623 112.592 47.2152C112.592 47.9732 112.704 48.6671 112.93 49.2971C113.16 49.927 113.511 50.4315 113.982 50.8105C114.459 51.1895 115.058 51.379 115.78 51.379ZM125.798 53.0691L122.325 41.2691H124.699L127.012 49.9347H127.127L129.447 41.2691H131.821L134.125 49.8963H134.241L136.538 41.2691H138.911L135.447 53.0691H133.104L130.707 44.5494H130.53L128.133 53.0691H125.798ZM151.849 41.2691V43.1128H145.403V41.2691H151.849ZM147.132 38.442H149.429V49.6044C149.429 50.05 149.495 50.3854 149.629 50.6108C149.762 50.831 149.933 50.9821 150.143 51.064C150.358 51.1408 150.591 51.1792 150.842 51.1792C151.027 51.1792 151.188 51.1664 151.326 51.1408C151.465 51.1152 151.572 51.0947 151.649 51.0794L152.064 52.9769C151.931 53.0281 151.741 53.0793 151.495 53.1306C151.25 53.1869 150.942 53.2176 150.574 53.2227C149.969 53.233 149.406 53.1254 148.883 52.9001C148.361 52.6747 147.938 52.3265 147.616 51.8553C147.293 51.3841 147.132 50.7926 147.132 50.0807V38.442ZM156.702 46.0628V53.0691H154.405V37.3358H156.672V43.1897H156.817C157.094 42.5546 157.517 42.0501 158.085 41.6763C158.654 41.3024 159.396 41.1154 160.313 41.1154C161.122 41.1154 161.829 41.2819 162.433 41.6148C163.043 41.9477 163.514 42.4445 163.847 43.1052C164.185 43.7607 164.354 44.5802 164.354 45.5635V53.0691H162.057V45.8401C162.057 44.9745 161.834 44.3036 161.388 43.8273C160.943 43.3459 160.323 43.1052 159.529 43.1052C158.986 43.1052 158.5 43.2204 158.07 43.4509C157.645 43.6813 157.309 44.0194 157.063 44.4649C156.823 44.9054 156.702 45.438 156.702 46.0628ZM172.267 53.3072C171.104 53.3072 170.103 53.0588 169.263 52.5621C168.428 52.0602 167.783 51.3559 167.327 50.4494C166.876 49.5378 166.651 48.47 166.651 47.2459C166.651 46.0372 166.876 44.972 167.327 44.0501C167.783 43.1282 168.418 42.4086 169.232 41.8914C170.052 41.3741 171.009 41.1154 172.105 41.1154C172.771 41.1154 173.417 41.2256 174.041 41.4458C174.666 41.666 175.227 42.0117 175.724 42.4829C176.221 42.9541 176.612 43.5661 176.899 44.319C177.186 45.0667 177.329 45.9758 177.329 47.0462V47.8605H167.949V46.1397H175.078C175.078 45.5353 174.956 45.0001 174.71 44.5341C174.464 44.0629 174.118 43.6916 173.673 43.4201C173.232 43.1487 172.715 43.013 172.121 43.013C171.475 43.013 170.912 43.1717 170.431 43.4893C169.954 43.8017 169.586 44.2114 169.324 44.7184C169.068 45.2204 168.94 45.7658 168.94 46.3548V47.6992C168.94 48.4879 169.079 49.1588 169.355 49.7119C169.637 50.2651 170.029 50.6876 170.531 50.9795C171.032 51.2663 171.619 51.4097 172.29 51.4097C172.725 51.4097 173.122 51.3483 173.481 51.2253C173.839 51.0973 174.149 50.9078 174.41 50.6569C174.671 50.4059 174.871 50.096 175.009 49.7273L177.183 50.1191C177.009 50.7593 176.697 51.3201 176.246 51.8015C175.801 52.2778 175.24 52.6491 174.564 52.9154C173.893 53.1766 173.127 53.3072 172.267 53.3072ZM185.127 53.0691V41.2691H187.424V53.0691H185.127ZM186.287 39.4484C185.888 39.4484 185.545 39.3152 185.258 39.0489C184.976 38.7775 184.835 38.4548 184.835 38.0809C184.835 37.7019 184.976 37.3793 185.258 37.113C185.545 36.8415 185.888 36.7058 186.287 36.7058C186.687 36.7058 187.027 36.8415 187.309 37.113C187.596 37.3793 187.739 37.7019 187.739 38.0809C187.739 38.4548 187.596 38.7775 187.309 39.0489C187.027 39.3152 186.687 39.4484 186.287 39.4484ZM192.574 46.0628V53.0691H190.277V41.2691H192.481V43.1897H192.627C192.899 42.5648 193.324 42.0629 193.903 41.6839C194.486 41.3049 195.221 41.1154 196.107 41.1154C196.911 41.1154 197.616 41.2845 198.22 41.6225C198.824 41.9554 199.293 42.4522 199.626 43.1128C199.959 43.7735 200.125 44.5904 200.125 45.5635V53.0691H197.828V45.8401C197.828 44.9848 197.605 44.3164 197.16 43.835C196.714 43.3484 196.102 43.1052 195.324 43.1052C194.791 43.1052 194.317 43.2204 193.903 43.4509C193.493 43.6813 193.168 44.0194 192.927 44.4649C192.691 44.9054 192.574 45.438 192.574 46.0628ZM208.584 41.2691V43.1128H201.915V41.2691H208.584ZM203.744 53.0691V39.9016C203.744 39.1641 203.905 38.5521 204.228 38.0656C204.55 37.5739 204.978 37.2077 205.511 36.967C206.043 36.7212 206.622 36.5983 207.247 36.5983C207.708 36.5983 208.102 36.6367 208.43 36.7135C208.758 36.7852 209.001 36.8518 209.16 36.9132L208.622 38.7723C208.514 38.7416 208.376 38.7058 208.207 38.6648C208.038 38.6187 207.833 38.5957 207.593 38.5957C207.034 38.5957 206.635 38.7339 206.394 39.0105C206.159 39.2871 206.041 39.6865 206.041 40.2089V53.0691H203.744ZM215.221 53.3072C214.115 53.3072 213.15 53.0537 212.325 52.5467C211.501 52.0397 210.86 51.3303 210.404 50.4187C209.949 49.5071 209.721 48.4418 209.721 47.2229C209.721 45.9988 209.949 44.9284 210.404 44.0117C210.86 43.0949 211.501 42.383 212.325 41.876C213.15 41.369 214.115 41.1154 215.221 41.1154C216.328 41.1154 217.293 41.369 218.118 41.876C218.942 42.383 219.582 43.0949 220.038 44.0117C220.494 44.9284 220.722 45.9988 220.722 47.2229C220.722 48.4418 220.494 49.5071 220.038 50.4187C219.582 51.3303 218.942 52.0397 218.118 52.5467C217.293 53.0537 216.328 53.3072 215.221 53.3072ZM215.229 51.379C215.946 51.379 216.54 51.1895 217.011 50.8105C217.482 50.4315 217.831 49.927 218.056 49.2971C218.287 48.6671 218.402 47.9732 218.402 47.2152C218.402 46.4623 218.287 45.7709 218.056 45.141C217.831 44.5059 217.482 43.9963 217.011 43.6122C216.54 43.2281 215.946 43.036 215.229 43.036C214.507 43.036 213.908 43.2281 213.431 43.6122C212.96 43.9963 212.609 44.5059 212.379 45.141C212.153 45.7709 212.041 46.4623 212.041 47.2152C212.041 47.9732 212.153 48.6671 212.379 49.2971C212.609 49.927 212.96 50.4315 213.431 50.8105C213.908 51.1895 214.507 51.379 215.229 51.379ZM223.048 53.0691V41.2691H225.268V43.1436H225.391C225.606 42.5085 225.985 42.0092 226.528 41.6455C227.076 41.2768 227.696 41.0924 228.387 41.0924C228.53 41.0924 228.699 41.0975 228.894 41.1078C229.094 41.118 229.25 41.1308 229.363 41.1462V43.3433C229.27 43.3177 229.107 43.2895 228.871 43.2588C228.635 43.223 228.4 43.205 228.164 43.205C227.621 43.205 227.137 43.3203 226.712 43.5507C226.292 43.7761 225.959 44.0911 225.714 44.4957C225.468 44.8951 225.345 45.3509 225.345 45.8631V53.0691H223.048ZM231.112 53.0691V41.2691H233.317V43.1897H233.463C233.709 42.5392 234.111 42.0322 234.669 41.6686C235.228 41.2998 235.896 41.1154 236.674 41.1154C237.463 41.1154 238.124 41.2998 238.656 41.6686C239.194 42.0373 239.591 42.5444 239.847 43.1897H239.97C240.252 42.5597 240.7 42.0578 241.315 41.6839C241.929 41.3049 242.662 41.1154 243.512 41.1154C244.582 41.1154 245.455 41.4509 246.131 42.1218C246.813 42.7927 247.153 43.8042 247.153 45.1563V53.0691H244.856V45.3714C244.856 44.5725 244.638 43.9937 244.203 43.6352C243.768 43.2767 243.248 43.0975 242.644 43.0975C241.896 43.0975 241.315 43.3279 240.9 43.7889C240.485 44.2447 240.277 44.8311 240.277 45.5481V53.0691H237.988V45.2255C237.988 44.5853 237.788 44.0706 237.389 43.6813C236.989 43.2921 236.47 43.0975 235.829 43.0975C235.394 43.0975 234.992 43.2127 234.623 43.4432C234.26 43.6685 233.965 43.9835 233.74 44.3881C233.52 44.7927 233.409 45.2613 233.409 45.794V53.0691H231.112ZM253.428 53.3303C252.68 53.3303 252.004 53.192 251.4 52.9154C250.795 52.6338 250.316 52.2266 249.963 51.694C249.615 51.1613 249.441 50.5083 249.441 49.735C249.441 49.0692 249.569 48.5212 249.825 48.091C250.081 47.6608 250.427 47.3202 250.862 47.0692C251.297 46.8183 251.784 46.6288 252.322 46.5007C252.859 46.3727 253.407 46.2754 253.966 46.2088C254.672 46.1269 255.246 46.0603 255.686 46.0091C256.127 45.9527 256.447 45.8631 256.647 45.7402C256.846 45.6173 256.946 45.4175 256.946 45.141V45.0872C256.946 44.4163 256.757 43.8964 256.378 43.5277C256.004 43.1589 255.446 42.9746 254.703 42.9746C253.93 42.9746 253.32 43.1461 252.875 43.4893C252.434 43.8273 252.129 44.2037 251.96 44.6186L249.802 44.1269C250.058 43.4099 250.432 42.8312 250.923 42.3907C251.42 41.9451 251.991 41.6225 252.637 41.4227C253.282 41.2179 253.96 41.1154 254.672 41.1154C255.144 41.1154 255.643 41.1718 256.17 41.2845C256.703 41.392 257.2 41.5917 257.661 41.8837C258.127 42.1756 258.508 42.593 258.805 43.1359C259.102 43.6736 259.251 44.3727 259.251 45.2332V53.0691H257.008V51.4558H256.916C256.767 51.7529 256.544 52.0448 256.247 52.3316C255.95 52.6184 255.569 52.8565 255.103 53.046C254.636 53.2355 254.078 53.3303 253.428 53.3303ZM253.927 51.4865C254.562 51.4865 255.105 51.3611 255.556 51.1101C256.012 50.8592 256.357 50.5314 256.593 50.1268C256.834 49.7171 256.954 49.2792 256.954 48.8131V47.292C256.872 47.374 256.713 47.4508 256.478 47.5225C256.247 47.5891 255.983 47.648 255.686 47.6992C255.389 47.7453 255.1 47.7888 254.818 47.8298C254.537 47.8656 254.301 47.8963 254.112 47.922C253.666 47.9783 253.259 48.073 252.89 48.2062C252.526 48.3394 252.234 48.5314 252.014 48.7824C251.799 49.0282 251.692 49.356 251.692 49.7657C251.692 50.3342 251.902 50.7644 252.322 51.0563C252.742 51.3431 253.277 51.4865 253.927 51.4865ZM267.581 41.2691V43.1128H261.135V41.2691H267.581ZM262.864 38.442H265.161V49.6044C265.161 50.05 265.227 50.3854 265.36 50.6108C265.494 50.831 265.665 50.9821 265.875 51.064C266.09 51.1408 266.323 51.1792 266.574 51.1792C266.759 51.1792 266.92 51.1664 267.058 51.1408C267.197 51.1152 267.304 51.0947 267.381 51.0794L267.796 52.9769C267.663 53.0281 267.473 53.0793 267.227 53.1306C266.981 53.1869 266.674 53.2176 266.305 53.2227C265.701 53.233 265.138 53.1254 264.615 52.9001C264.093 52.6747 263.67 52.3265 263.348 51.8553C263.025 51.3841 262.864 50.7926 262.864 50.0807V38.442ZM269.884 53.0691V41.2691H272.181V53.0691H269.884ZM271.044 39.4484C270.644 39.4484 270.301 39.3152 270.014 39.0489C269.733 38.7775 269.592 38.4548 269.592 38.0809C269.592 37.7019 269.733 37.3793 270.014 37.113C270.301 36.8415 270.644 36.7058 271.044 36.7058C271.443 36.7058 271.784 36.8415 272.065 37.113C272.352 37.3793 272.496 37.7019 272.496 38.0809C272.496 38.4548 272.352 38.7775 272.065 39.0489C271.784 39.3152 271.443 39.4484 271.044 39.4484ZM280.003 53.3072C278.897 53.3072 277.932 53.0537 277.107 52.5467C276.283 52.0397 275.642 51.3303 275.187 50.4187C274.731 49.5071 274.503 48.4418 274.503 47.2229C274.503 45.9988 274.731 44.9284 275.187 44.0117C275.642 43.0949 276.283 42.383 277.107 41.876C277.932 41.369 278.897 41.1154 280.003 41.1154C281.11 41.1154 282.075 41.369 282.9 41.876C283.724 42.383 284.364 43.0949 284.82 44.0117C285.276 44.9284 285.504 45.9988 285.504 47.2229C285.504 48.4418 285.276 49.5071 284.82 50.4187C284.364 51.3303 283.724 52.0397 282.9 52.5467C282.075 53.0537 281.11 53.3072 280.003 53.3072ZM280.011 51.379C280.728 51.379 281.322 51.1895 281.793 50.8105C282.264 50.4315 282.613 49.927 282.838 49.2971C283.069 48.6671 283.184 47.9732 283.184 47.2152C283.184 46.4623 283.069 45.7709 282.838 45.141C282.613 44.5059 282.264 43.9963 281.793 43.6122C281.322 43.2281 280.728 43.036 280.011 43.036C279.289 43.036 278.69 43.2281 278.213 43.6122C277.742 43.9963 277.391 44.5059 277.161 45.141C276.936 45.7709 276.823 46.4623 276.823 47.2152C276.823 47.9732 276.936 48.6671 277.161 49.2971C277.391 49.927 277.742 50.4315 278.213 50.8105C278.69 51.1895 279.289 51.379 280.011 51.379ZM290.127 46.0628V53.0691H287.83V41.2691H290.035V43.1897H290.181C290.452 42.5648 290.877 42.0629 291.456 41.6839C292.04 41.3049 292.775 41.1154 293.661 41.1154C294.465 41.1154 295.169 41.2845 295.773 41.6225C296.378 41.9554 296.846 42.4522 297.179 43.1128C297.512 43.7735 297.679 44.5904 297.679 45.5635V53.0691H295.382V45.8401C295.382 44.9848 295.159 44.3164 294.713 43.835C294.268 43.3484 293.656 43.1052 292.877 43.1052C292.344 43.1052 291.871 43.2204 291.456 43.4509C291.046 43.6813 290.721 44.0194 290.48 44.4649C290.245 44.9054 290.127 45.438 290.127 46.0628ZM39.0859 85.0691V73.2691H41.3829V85.0691H39.0859ZM40.2459 71.4484C39.8464 71.4484 39.5033 71.3152 39.2165 71.0489C38.9348 70.7775 38.794 70.4548 38.794 70.0809C38.794 69.7019 38.9348 69.3793 39.2165 69.113C39.5033 68.8415 39.8464 68.7058 40.2459 68.7058C40.6454 68.7058 40.986 68.8415 41.2677 69.113C41.5545 69.3793 41.6979 69.7019 41.6979 70.0809C41.6979 70.4548 41.5545 70.7775 41.2677 71.0489C40.986 71.3152 40.6454 71.4484 40.2459 71.4484ZM53.0774 76.15L50.9955 76.5187C50.9085 76.2524 50.7702 75.9989 50.5807 75.7582C50.3963 75.5174 50.1454 75.3203 49.8278 75.1666C49.5103 75.013 49.1134 74.9361 48.6371 74.9361C47.9866 74.9361 47.4438 75.0821 47.0084 75.374C46.5731 75.6608 46.3554 76.0322 46.3554 76.488C46.3554 76.8823 46.5014 77.1999 46.7933 77.4406C47.0853 77.6813 47.5564 77.8785 48.2069 78.0321L50.0814 78.4623C51.1671 78.7133 51.9763 79.1 52.509 79.6223C53.0416 80.1447 53.3079 80.8233 53.3079 81.6582C53.3079 82.3649 53.1031 82.9949 52.6933 83.548C52.2887 84.096 51.7228 84.5262 50.9955 84.8386C50.2734 85.151 49.436 85.3072 48.4834 85.3072C47.1621 85.3072 46.084 85.0256 45.2492 84.4622C44.4144 83.8937 43.9022 83.0871 43.7127 82.0423L45.9329 81.7042C46.0712 82.283 46.3554 82.7209 46.7857 83.0179C47.2159 83.3098 47.7767 83.4558 48.4681 83.4558C49.2209 83.4558 49.8227 83.2996 50.2734 82.9872C50.7241 82.6697 50.9495 82.283 50.9495 81.8272C50.9495 81.4584 50.8112 81.1486 50.5346 80.8976C50.2632 80.6467 49.8458 80.4572 49.2824 80.3291L47.285 79.8912C46.1839 79.6403 45.3695 79.2408 44.842 78.6928C44.3196 78.1448 44.0584 77.4508 44.0584 76.6109C44.0584 75.9144 44.2531 75.3049 44.6423 74.7825C45.0315 74.2601 45.5693 73.8529 46.2556 73.561C46.9419 73.264 47.728 73.1154 48.614 73.1154C49.8893 73.1154 50.8931 73.392 51.6255 73.9451C52.3579 74.4931 52.8419 75.2281 53.0774 76.15ZM63.3798 69.3358V85.0691H61.0828V69.3358H63.3798ZM66.232 85.0691V73.2691H68.529V85.0691H66.232ZM67.392 71.4484C66.9925 71.4484 66.6494 71.3152 66.3626 71.0489C66.0809 70.7775 65.9401 70.4548 65.9401 70.0809C65.9401 69.7019 66.0809 69.3793 66.3626 69.113C66.6494 68.8415 66.9925 68.7058 67.392 68.7058C67.7915 68.7058 68.1321 68.8415 68.4138 69.113C68.7006 69.3793 68.844 69.7019 68.844 70.0809C68.844 70.4548 68.7006 70.7775 68.4138 71.0489C68.1321 71.3152 67.7915 71.4484 67.392 71.4484ZM80.2236 76.15L78.1417 76.5187C78.0546 76.2524 77.9163 75.9989 77.7268 75.7582C77.5424 75.5174 77.2915 75.3203 76.974 75.1666C76.6564 75.013 76.2595 74.9361 75.7832 74.9361C75.1328 74.9361 74.5899 75.0821 74.1546 75.374C73.7192 75.6608 73.5016 76.0322 73.5016 76.488C73.5016 76.8823 73.6475 77.1999 73.9394 77.4406C74.2314 77.6813 74.7026 77.8785 75.353 78.0321L77.2275 78.4623C78.3132 78.7133 79.1224 79.1 79.6551 79.6223C80.1877 80.1447 80.454 80.8233 80.454 81.6582C80.454 82.3649 80.2492 82.9949 79.8394 83.548C79.4348 84.096 78.8689 84.5262 78.1417 84.8386C77.4195 85.151 76.5822 85.3072 75.6296 85.3072C74.3082 85.3072 73.2301 85.0256 72.3953 84.4622C71.5605 83.8937 71.0483 83.0871 70.8588 82.0423L73.079 81.7042C73.2173 82.283 73.5016 82.7209 73.9318 83.0179C74.362 83.3098 74.9228 83.4558 75.6142 83.4558C76.3671 83.4558 76.9688 83.2996 77.4195 82.9872C77.8702 82.6697 78.0956 82.283 78.0956 81.8272C78.0956 81.4584 77.9573 81.1486 77.6807 80.8976C77.4093 80.6467 76.9919 80.4572 76.4285 80.3291L74.4311 79.8912C73.33 79.6403 72.5157 79.2408 71.9881 78.6928C71.4658 78.1448 71.2046 77.4508 71.2046 76.6109C71.2046 75.9144 71.3992 75.3049 71.7884 74.7825C72.1776 74.2601 72.7154 73.8529 73.4017 73.561C74.088 73.264 74.8741 73.1154 75.7602 73.1154C77.0354 73.1154 78.0392 73.392 78.7716 73.9451C79.504 74.4931 79.988 75.2281 80.2236 76.15ZM88.2498 73.2691V75.1128H81.8044V73.2691H88.2498ZM83.5329 70.442H85.8299V81.6044C85.8299 82.05 85.8965 82.3854 86.0296 82.6108C86.1628 82.831 86.3344 82.9821 86.5444 83.064C86.7595 83.1408 86.9925 83.1792 87.2434 83.1792C87.4278 83.1792 87.5891 83.1664 87.7274 83.1408C87.8657 83.1152 87.9733 83.0947 88.0501 83.0794L88.4649 84.9769C88.3318 85.0281 88.1423 85.0793 87.8964 85.1306C87.6506 85.1869 87.3433 85.2176 86.9746 85.2227C86.3702 85.233 85.8069 85.1254 85.2845 84.9001C84.7621 84.6747 84.3395 84.3265 84.0169 83.8553C83.6942 83.3841 83.5329 82.7926 83.5329 82.0807V70.442ZM95.5117 85.3072C94.3491 85.3072 93.3478 85.0588 92.5079 84.5621C91.6731 84.0602 91.0278 83.3559 90.572 82.4494C90.1213 81.5378 89.8959 80.47 89.8959 79.2459C89.8959 78.0372 90.1213 76.972 90.572 76.0501C91.0278 75.1282 91.6629 74.4086 92.4772 73.8914C93.2966 73.3741 94.2544 73.1154 95.3504 73.1154C96.0162 73.1154 96.6615 73.2256 97.2863 73.4458C97.9111 73.666 98.4719 74.0117 98.9687 74.4829C99.4655 74.9541 99.8573 75.5661 100.144 76.319C100.431 77.0667 100.574 77.9758 100.574 79.0462V79.8605H91.1942V78.1397H98.3234C98.3234 77.5353 98.2005 77.0001 97.9547 76.5341C97.7088 76.0629 97.3631 75.6916 96.9176 75.4201C96.4771 75.1487 95.9598 75.013 95.3657 75.013C94.7204 75.013 94.157 75.1717 93.6756 75.4893C93.1993 75.8017 92.8306 76.2114 92.5694 76.7184C92.3133 77.2204 92.1853 77.7658 92.1853 78.3548V79.6992C92.1853 80.4879 92.3235 81.1588 92.6001 81.7119C92.8818 82.2651 93.2736 82.6876 93.7755 82.9795C94.2774 83.2663 94.8638 83.4097 95.5347 83.4097C95.9701 83.4097 96.367 83.3483 96.7255 83.2253C97.084 83.0973 97.3939 82.9078 97.6551 82.6569C97.9162 82.4059 98.116 82.096 98.2543 81.7273L100.428 82.1191C100.254 82.7593 99.9418 83.3201 99.4911 83.8015C99.0455 84.2778 98.4847 84.6491 97.8087 84.9154C97.1378 85.1766 96.3721 85.3072 95.5117 85.3072ZM107.302 85.2996C106.35 85.2996 105.499 85.0563 104.752 84.5697C104.009 84.0781 103.425 83.379 103 82.4725C102.58 81.5608 102.37 80.4674 102.37 79.1921C102.37 77.9169 102.583 76.826 103.008 75.9195C103.438 75.013 104.027 74.319 104.775 73.8376C105.523 73.3562 106.37 73.1154 107.318 73.1154C108.05 73.1154 108.639 73.2384 109.085 73.4842C109.535 73.7249 109.884 74.0066 110.129 74.3292C110.38 74.6519 110.575 74.9361 110.713 75.182H110.851V69.3358H113.148V85.0691H110.905V83.233H110.713C110.575 83.484 110.375 83.7708 110.114 84.0934C109.858 84.4161 109.505 84.6978 109.054 84.9385C108.603 85.1792 108.019 85.2996 107.302 85.2996ZM107.809 83.3406C108.47 83.3406 109.028 83.1664 109.484 82.8182C109.945 82.4648 110.293 81.9757 110.529 81.3509C110.77 80.726 110.89 79.9988 110.89 79.1691C110.89 78.3496 110.772 77.6326 110.537 77.0181C110.301 76.4035 109.955 75.9246 109.499 75.5815C109.044 75.2383 108.48 75.0667 107.809 75.0667C107.118 75.0667 106.542 75.246 106.081 75.6045C105.62 75.963 105.272 76.4521 105.036 77.0718C104.806 77.6915 104.69 78.3906 104.69 79.1691C104.69 79.9578 104.808 80.6671 105.044 81.2971C105.279 81.927 105.628 82.4264 106.088 82.7951C106.555 83.1588 107.128 83.3406 107.809 83.3406ZM123.141 77.4252V79.4149H116.166V77.4252H123.141ZM134.01 69.3358V85.0691H131.636V69.3358H134.01ZM147.503 85.3072C146.361 85.3072 145.377 85.0486 144.553 84.5313C143.733 84.0089 143.103 83.2894 142.663 82.3726C142.222 81.4559 142.002 80.4059 142.002 79.2229C142.002 78.0244 142.228 76.9668 142.678 76.0501C143.129 75.1282 143.764 74.4086 144.583 73.8914C145.403 73.3741 146.368 73.1154 147.48 73.1154C148.376 73.1154 149.175 73.2819 149.877 73.6148C150.578 73.9426 151.144 74.4035 151.574 74.9976C152.01 75.5917 152.268 76.2857 152.35 77.0795H150.115C149.992 76.5264 149.71 76.0501 149.27 75.6506C148.834 75.2511 148.25 75.0514 147.518 75.0514C146.878 75.0514 146.317 75.2204 145.836 75.5584C145.359 75.8913 144.988 76.3676 144.722 76.9873C144.455 77.6019 144.322 78.3292 144.322 79.1691C144.322 80.0295 144.453 80.7721 144.714 81.397C144.975 82.0218 145.344 82.5058 145.82 82.8489C146.302 83.1921 146.868 83.3636 147.518 83.3636C147.953 83.3636 148.348 83.2842 148.701 83.1255C149.06 82.9616 149.359 82.7286 149.6 82.4264C149.846 82.1242 150.017 81.7606 150.115 81.3355H152.35C152.268 82.0986 152.02 82.7798 151.605 83.379C151.19 83.9782 150.635 84.4494 149.938 84.7925C149.247 85.1357 148.435 85.3072 147.503 85.3072ZM158.003 85.3303C157.255 85.3303 156.579 85.192 155.975 84.9154C155.37 84.6338 154.891 84.2266 154.538 83.694C154.19 83.1613 154.016 82.5083 154.016 81.735C154.016 81.0692 154.144 80.5212 154.4 80.091C154.656 79.6608 155.001 79.3202 155.437 79.0692C155.872 78.8183 156.359 78.6288 156.896 78.5007C157.434 78.3727 157.982 78.2754 158.54 78.2088C159.247 78.1269 159.821 78.0603 160.261 78.0091C160.702 77.9527 161.022 77.8631 161.222 77.7402C161.421 77.6173 161.521 77.4175 161.521 77.141V77.0872C161.521 76.4163 161.332 75.8964 160.953 75.5277C160.579 75.1589 160.021 74.9746 159.278 74.9746C158.505 74.9746 157.895 75.1461 157.45 75.4893C157.009 75.8273 156.704 76.2037 156.535 76.6186L154.377 76.1269C154.633 75.4099 155.007 74.8312 155.498 74.3907C155.995 73.9451 156.566 73.6225 157.211 73.4227C157.857 73.2179 158.535 73.1154 159.247 73.1154C159.718 73.1154 160.218 73.1718 160.745 73.2845C161.278 73.392 161.775 73.5917 162.236 73.8837C162.702 74.1756 163.083 74.593 163.38 75.1359C163.677 75.6736 163.826 76.3727 163.826 77.2332V85.0691H161.583V83.4558H161.49C161.342 83.7529 161.119 84.0448 160.822 84.3316C160.525 84.6184 160.143 84.8565 159.677 85.046C159.211 85.2355 158.653 85.3303 158.003 85.3303ZM158.502 83.4865C159.137 83.4865 159.68 83.3611 160.131 83.1101C160.586 82.8592 160.932 82.5314 161.168 82.1268C161.408 81.7171 161.529 81.2792 161.529 80.8131V79.292C161.447 79.374 161.288 79.4508 161.053 79.5225C160.822 79.5891 160.558 79.648 160.261 79.6992C159.964 79.7453 159.675 79.7888 159.393 79.8298C159.111 79.8656 158.876 79.8963 158.686 79.922C158.241 79.9783 157.834 80.073 157.465 80.2062C157.101 80.3394 156.809 80.5314 156.589 80.7824C156.374 81.0282 156.266 81.356 156.266 81.7657C156.266 82.3342 156.476 82.7644 156.896 83.0563C157.316 83.3431 157.852 83.4865 158.502 83.4865ZM168.944 78.0628V85.0691H166.647V73.2691H168.852V75.1897H168.998C169.27 74.5648 169.695 74.0629 170.273 73.6839C170.857 73.3049 171.592 73.1154 172.478 73.1154C173.282 73.1154 173.986 73.2845 174.591 73.6225C175.195 73.9554 175.664 74.4522 175.997 75.1128C176.33 75.7735 176.496 76.5904 176.496 77.5635V85.0691H174.199V77.8401C174.199 76.9848 173.976 76.3164 173.531 75.835C173.085 75.3484 172.473 75.1052 171.695 75.1052C171.162 75.1052 170.688 75.2204 170.273 75.4509C169.864 75.6813 169.538 76.0194 169.298 76.4649C169.062 76.9054 168.944 77.438 168.944 78.0628ZM184.826 85.0691V73.2691H187.046V75.1436H187.169C187.384 74.5085 187.763 74.0092 188.306 73.6455C188.854 73.2768 189.474 73.0924 190.165 73.0924C190.309 73.0924 190.478 73.0975 190.672 73.1078C190.872 73.118 191.028 73.1308 191.141 73.1462V75.3433C191.049 75.3177 190.885 75.2895 190.649 75.2588C190.414 75.223 190.178 75.205 189.942 75.205C189.399 75.205 188.915 75.3203 188.49 75.5507C188.07 75.7761 187.738 76.0911 187.492 76.4957C187.246 76.8951 187.123 77.3509 187.123 77.8631V85.0691H184.826ZM197.554 85.3072C196.391 85.3072 195.39 85.0588 194.55 84.5621C193.715 84.0602 193.07 83.3559 192.614 82.4494C192.163 81.5378 191.938 80.47 191.938 79.2459C191.938 78.0372 192.163 76.972 192.614 76.0501C193.07 75.1282 193.705 74.4086 194.519 73.8914C195.339 73.3741 196.296 73.1154 197.392 73.1154C198.058 73.1154 198.704 73.2256 199.328 73.4458C199.953 73.666 200.514 74.0117 201.011 74.4829C201.508 74.9541 201.899 75.5661 202.186 76.319C202.473 77.0667 202.616 77.9758 202.616 79.0462V79.8605H193.236V78.1397H200.365C200.365 77.5353 200.243 77.0001 199.997 76.5341C199.751 76.0629 199.405 75.6916 198.96 75.4201C198.519 75.1487 198.002 75.013 197.408 75.013C196.762 75.013 196.199 75.1717 195.718 75.4893C195.241 75.8017 194.873 76.2114 194.611 76.7184C194.355 77.2204 194.227 77.7658 194.227 78.3548V79.6992C194.227 80.4879 194.366 81.1588 194.642 81.7119C194.924 82.2651 195.316 82.6876 195.818 82.9795C196.319 83.2663 196.906 83.4097 197.577 83.4097C198.012 83.4097 198.409 83.3483 198.768 83.2253C199.126 83.0973 199.436 82.9078 199.697 82.6569C199.958 82.4059 200.158 82.096 200.296 81.7273L202.47 82.1191C202.296 82.7593 201.984 83.3201 201.533 83.8015C201.088 84.2778 200.527 84.6491 199.851 84.9154C199.18 85.1766 198.414 85.3072 197.554 85.3072ZM208.361 85.3303C207.613 85.3303 206.937 85.192 206.333 84.9154C205.729 84.6338 205.25 84.2266 204.896 83.694C204.548 83.1613 204.374 82.5083 204.374 81.735C204.374 81.0692 204.502 80.5212 204.758 80.091C205.014 79.6608 205.36 79.3202 205.795 79.0692C206.23 78.8183 206.717 78.6288 207.255 78.5007C207.793 78.3727 208.341 78.2754 208.899 78.2088C209.606 78.1269 210.179 78.0603 210.62 78.0091C211.06 77.9527 211.38 77.8631 211.58 77.7402C211.78 77.6173 211.879 77.4175 211.879 77.141V77.0872C211.879 76.4163 211.69 75.8964 211.311 75.5277C210.937 75.1589 210.379 74.9746 209.636 74.9746C208.863 74.9746 208.253 75.1461 207.808 75.4893C207.367 75.8273 207.063 76.2037 206.894 76.6186L204.735 76.1269C204.991 75.4099 205.365 74.8312 205.857 74.3907C206.353 73.9451 206.924 73.6225 207.57 73.4227C208.215 73.2179 208.894 73.1154 209.606 73.1154C210.077 73.1154 210.576 73.1718 211.104 73.2845C211.636 73.392 212.133 73.5917 212.594 73.8837C213.06 74.1756 213.442 74.593 213.739 75.1359C214.036 75.6736 214.184 76.3727 214.184 77.2332V85.0691H211.941V83.4558H211.849C211.7 83.7529 211.477 84.0448 211.18 84.3316C210.883 84.6184 210.502 84.8565 210.036 85.046C209.57 85.2355 209.011 85.3303 208.361 85.3303ZM208.86 83.4865C209.495 83.4865 210.038 83.3611 210.489 83.1101C210.945 82.8592 211.291 82.5314 211.526 82.1268C211.767 81.7171 211.887 81.2792 211.887 80.8131V79.292C211.805 79.374 211.646 79.4508 211.411 79.5225C211.18 79.5891 210.917 79.648 210.62 79.6992C210.323 79.7453 210.033 79.7888 209.751 79.8298C209.47 79.8656 209.234 79.8963 209.045 79.922C208.599 79.9783 208.192 80.073 207.823 80.2062C207.46 80.3394 207.168 80.5314 206.947 80.7824C206.732 81.0282 206.625 81.356 206.625 81.7657C206.625 82.3342 206.835 82.7644 207.255 83.0563C207.675 83.3431 208.21 83.4865 208.86 83.4865ZM221.423 85.2996C220.47 85.2996 219.62 85.0563 218.872 84.5697C218.13 84.0781 217.546 83.379 217.121 82.4725C216.701 81.5608 216.491 80.4674 216.491 79.1921C216.491 77.9169 216.704 76.826 217.129 75.9195C217.559 75.013 218.148 74.319 218.896 73.8376C219.643 73.3562 220.491 73.1154 221.438 73.1154C222.171 73.1154 222.76 73.2384 223.205 73.4842C223.656 73.7249 224.004 74.0066 224.25 74.3292C224.501 74.6519 224.696 74.9361 224.834 75.182H224.972V69.3358H227.269V85.0691H225.026V83.233H224.834C224.696 83.484 224.496 83.7708 224.235 84.0934C223.979 84.4161 223.625 84.6978 223.175 84.9385C222.724 85.1792 222.14 85.2996 221.423 85.2996ZM221.93 83.3406C222.591 83.3406 223.149 83.1664 223.605 82.8182C224.066 82.4648 224.414 81.9757 224.65 81.3509C224.89 80.726 225.011 79.9988 225.011 79.1691C225.011 78.3496 224.893 77.6326 224.657 77.0181C224.422 76.4035 224.076 75.9246 223.62 75.5815C223.164 75.2383 222.601 75.0667 221.93 75.0667C221.239 75.0667 220.662 75.246 220.202 75.6045C219.741 75.963 219.392 76.4521 219.157 77.0718C218.926 77.6915 218.811 78.3906 218.811 79.1691C218.811 79.9578 218.929 80.6671 219.164 81.2971C219.4 81.927 219.748 82.4264 220.209 82.7951C220.675 83.1588 221.249 83.3406 221.93 83.3406ZM235.797 85.0691V73.2691H238.094V85.0691H235.797ZM236.957 71.4484C236.557 71.4484 236.214 71.3152 235.928 71.0489C235.646 70.7775 235.505 70.4548 235.505 70.0809C235.505 69.7019 235.646 69.3793 235.928 69.113C236.214 68.8415 236.557 68.7058 236.957 68.7058C237.356 68.7058 237.697 68.8415 237.979 69.113C238.266 69.3793 238.409 69.7019 238.409 70.0809C238.409 70.4548 238.266 70.7775 237.979 71.0489C237.697 71.3152 237.356 71.4484 236.957 71.4484ZM246.454 73.2691V75.1128H240.009V73.2691H246.454ZM241.737 70.442H244.034V81.6044C244.034 82.05 244.101 82.3854 244.234 82.6108C244.367 82.831 244.539 82.9821 244.749 83.064C244.964 83.1408 245.197 83.1792 245.448 83.1792C245.632 83.1792 245.794 83.1664 245.932 83.1408C246.07 83.1152 246.178 83.0947 246.255 83.0794L246.669 84.9769C246.536 85.0281 246.347 85.0793 246.101 85.1306C245.855 85.1869 245.548 85.2176 245.179 85.2227C244.575 85.233 244.011 85.1254 243.489 84.9001C242.967 84.6747 242.544 84.3265 242.221 83.8553C241.899 83.3841 241.737 82.7926 241.737 82.0807V70.442ZM257.679 85.3303C256.931 85.3303 256.255 85.192 255.65 84.9154C255.046 84.6338 254.567 84.2266 254.214 83.694C253.866 83.1613 253.691 82.5083 253.691 81.735C253.691 81.0692 253.82 80.5212 254.076 80.091C254.332 79.6608 254.677 79.3202 255.113 79.0692C255.548 78.8183 256.035 78.6288 256.572 78.5007C257.11 78.3727 257.658 78.2754 258.216 78.2088C258.923 78.1269 259.497 78.0603 259.937 78.0091C260.378 77.9527 260.698 77.8631 260.897 77.7402C261.097 77.6173 261.197 77.4175 261.197 77.141V77.0872C261.197 76.4163 261.008 75.8964 260.629 75.5277C260.255 75.1589 259.696 74.9746 258.954 74.9746C258.18 74.9746 257.571 75.1461 257.125 75.4893C256.685 75.8273 256.38 76.2037 256.211 76.6186L254.053 76.1269C254.309 75.4099 254.682 74.8312 255.174 74.3907C255.671 73.9451 256.242 73.6225 256.887 73.4227C257.533 73.2179 258.211 73.1154 258.923 73.1154C259.394 73.1154 259.894 73.1718 260.421 73.2845C260.954 73.392 261.451 73.5917 261.912 73.8837C262.378 74.1756 262.759 74.593 263.056 75.1359C263.353 75.6736 263.502 76.3727 263.502 77.2332V85.0691H261.259V83.4558H261.166C261.018 83.7529 260.795 84.0448 260.498 84.3316C260.201 84.6184 259.819 84.8565 259.353 85.046C258.887 85.2355 258.329 85.3303 257.679 85.3303ZM258.178 83.4865C258.813 83.4865 259.356 83.3611 259.807 83.1101C260.262 82.8592 260.608 82.5314 260.844 82.1268C261.084 81.7171 261.205 81.2792 261.205 80.8131V79.292C261.123 79.374 260.964 79.4508 260.728 79.5225C260.498 79.5891 260.234 79.648 259.937 79.6992C259.64 79.7453 259.351 79.7888 259.069 79.8298C258.787 79.8656 258.552 79.8963 258.362 79.922C257.917 79.9783 257.51 80.073 257.141 80.2062C256.777 80.3394 256.485 80.5314 256.265 80.7824C256.05 81.0282 255.942 81.356 255.942 81.7657C255.942 82.3342 256.152 82.7644 256.572 83.0563C256.992 83.3431 257.527 83.4865 258.178 83.4865ZM268.62 69.3358V85.0691H266.323V69.3358H268.62ZM276.443 85.3072C275.337 85.3072 274.371 85.0537 273.547 84.5467C272.722 84.0397 272.082 83.3303 271.626 82.4187C271.17 81.5071 270.942 80.4418 270.942 79.2229C270.942 77.9988 271.17 76.9284 271.626 76.0117C272.082 75.0949 272.722 74.383 273.547 73.876C274.371 73.369 275.337 73.1154 276.443 73.1154C277.549 73.1154 278.515 73.369 279.339 73.876C280.164 74.383 280.804 75.0949 281.26 76.0117C281.716 76.9284 281.943 77.9988 281.943 79.2229C281.943 80.4418 281.716 81.5071 281.26 82.4187C280.804 83.3303 280.164 84.0397 279.339 84.5467C278.515 85.0537 277.549 85.3072 276.443 85.3072ZM276.451 83.379C277.168 83.379 277.762 83.1895 278.233 82.8105C278.704 82.4315 279.052 81.927 279.278 81.2971C279.508 80.6671 279.623 79.9732 279.623 79.2152C279.623 78.4623 279.508 77.7709 279.278 77.141C279.052 76.5059 278.704 75.9963 278.233 75.6122C277.762 75.2281 277.168 75.036 276.451 75.036C275.728 75.036 275.129 75.2281 274.653 75.6122C274.182 75.9963 273.831 76.5059 273.6 77.141C273.375 77.7709 273.262 78.4623 273.262 79.2152C273.262 79.9732 273.375 80.6671 273.6 81.2971C273.831 81.927 274.182 82.4315 274.653 82.8105C275.129 83.1895 275.728 83.379 276.451 83.379ZM289.778 73.2691V75.1128H283.332V73.2691H289.778ZM285.061 70.442H287.358V81.6044C287.358 82.05 287.424 82.3854 287.557 82.6108C287.691 82.831 287.862 82.9821 288.072 83.064C288.287 83.1408 288.52 83.1792 288.771 83.1792C288.956 83.1792 289.117 83.1664 289.255 83.1408C289.394 83.1152 289.501 83.0947 289.578 83.0794L289.993 84.9769C289.86 85.0281 289.67 85.0793 289.424 85.1306C289.178 85.1869 288.871 85.2176 288.502 85.2227C287.898 85.233 287.335 85.1254 286.812 84.9001C286.29 84.6747 285.867 84.3265 285.545 83.8553C285.222 83.3841 285.061 82.7926 285.061 82.0807V70.442ZM44.7016 105.269V107.113H38.0334V105.269H44.7016ZM39.8618 117.069V103.902C39.8618 103.164 40.0231 102.552 40.3458 102.066C40.6684 101.574 41.0961 101.208 41.6287 100.967C42.1614 100.721 42.7401 100.598 43.3649 100.598C43.8259 100.598 44.2202 100.637 44.548 100.713C44.8758 100.785 45.119 100.852 45.2778 100.913L44.7401 102.772C44.6325 102.742 44.4942 102.706 44.3252 102.665C44.1562 102.619 43.9513 102.596 43.7106 102.596C43.1524 102.596 42.7529 102.734 42.5122 103.01C42.2766 103.287 42.1588 103.687 42.1588 104.209V117.069H39.8618ZM49.9085 117.33C49.1608 117.33 48.4847 117.192 47.8804 116.915C47.276 116.634 46.7972 116.227 46.4438 115.694C46.0955 115.161 45.9214 114.508 45.9214 113.735C45.9214 113.069 46.0494 112.521 46.3055 112.091C46.5616 111.661 46.9073 111.32 47.3426 111.069C47.7779 110.818 48.2645 110.629 48.8023 110.501C49.34 110.373 49.888 110.275 50.4463 110.209C51.153 110.127 51.7266 110.06 52.1671 110.009C52.6075 109.953 52.9276 109.863 53.1274 109.74C53.3271 109.617 53.427 109.418 53.427 109.141V109.087C53.427 108.416 53.2375 107.896 52.8585 107.528C52.4846 107.159 51.9264 106.975 51.1838 106.975C50.4104 106.975 49.8009 107.146 49.3554 107.489C48.9149 107.827 48.6102 108.204 48.4412 108.619L46.2825 108.127C46.5385 107.41 46.9124 106.831 47.4041 106.391C47.9009 105.945 48.4719 105.622 49.1172 105.423C49.7625 105.218 50.4411 105.115 51.153 105.115C51.6242 105.115 52.1236 105.172 52.6511 105.284C53.1837 105.392 53.6805 105.592 54.1414 105.884C54.6075 106.176 54.9891 106.593 55.2861 107.136C55.5832 107.674 55.7317 108.373 55.7317 109.233V117.069H53.4884V115.456H53.3963C53.2477 115.753 53.025 116.045 52.7279 116.332C52.4309 116.618 52.0493 116.857 51.5832 117.046C51.1172 117.236 50.5589 117.33 49.9085 117.33ZM50.4079 115.487C51.0429 115.487 51.5858 115.361 52.0365 115.11C52.4923 114.859 52.838 114.531 53.0736 114.127C53.3143 113.717 53.4347 113.279 53.4347 112.813V111.292C53.3527 111.374 53.194 111.451 52.9584 111.522C52.7279 111.589 52.4641 111.648 52.1671 111.699C51.87 111.745 51.5807 111.789 51.299 111.83C51.0173 111.866 50.7817 111.896 50.5922 111.922C50.1467 111.978 49.7395 112.073 49.3707 112.206C49.0071 112.339 48.7152 112.531 48.495 112.782C48.2799 113.028 48.1723 113.356 48.1723 113.766C48.1723 114.334 48.3823 114.764 48.8023 115.056C49.2222 115.343 49.7574 115.487 50.4079 115.487ZM67.3955 108.15L65.3136 108.519C65.2265 108.252 65.0883 107.999 64.8988 107.758C64.7144 107.517 64.4634 107.32 64.1459 107.167C63.8284 107.013 63.4314 106.936 62.9551 106.936C62.3047 106.936 61.7618 107.082 61.3265 107.374C60.8912 107.661 60.6735 108.032 60.6735 108.488C60.6735 108.882 60.8195 109.2 61.1114 109.441C61.4033 109.681 61.8745 109.878 62.5249 110.032L64.3994 110.462C65.4852 110.713 66.2944 111.1 66.827 111.622C67.3597 112.145 67.626 112.823 67.626 113.658C67.626 114.365 67.4211 114.995 67.0114 115.548C66.6068 116.096 66.0409 116.526 65.3136 116.839C64.5915 117.151 63.7541 117.307 62.8015 117.307C61.4801 117.307 60.4021 117.026 59.5672 116.462C58.7324 115.894 58.2203 115.087 58.0308 114.042L60.251 113.704C60.3893 114.283 60.6735 114.721 61.1037 115.018C61.5339 115.31 62.0947 115.456 62.7861 115.456C63.539 115.456 64.1408 115.3 64.5915 114.987C65.0422 114.67 65.2675 114.283 65.2675 113.827C65.2675 113.458 65.1292 113.149 64.8527 112.898C64.5812 112.647 64.1638 112.457 63.6005 112.329L61.6031 111.891C60.5019 111.64 59.6876 111.241 59.1601 110.693C58.6377 110.145 58.3765 109.451 58.3765 108.611C58.3765 107.914 58.5711 107.305 58.9603 106.783C59.3496 106.26 59.8873 105.853 60.5736 105.561C61.2599 105.264 62.0461 105.115 62.9321 105.115C64.2074 105.115 65.2112 105.392 65.9436 105.945C66.6759 106.493 67.1599 107.228 67.3955 108.15ZM75.4218 105.269V107.113H68.9763V105.269H75.4218ZM70.7048 102.442H73.0018V113.604C73.0018 114.05 73.0684 114.385 73.2016 114.611C73.3347 114.831 73.5063 114.982 73.7163 115.064C73.9314 115.141 74.1644 115.179 74.4154 115.179C74.5998 115.179 74.7611 115.166 74.8994 115.141C75.0376 115.115 75.1452 115.095 75.222 115.079L75.6369 116.977C75.5037 117.028 75.3142 117.079 75.0684 117.131C74.8225 117.187 74.5153 117.218 74.1465 117.223C73.5422 117.233 72.9788 117.125 72.4564 116.9C71.934 116.675 71.5115 116.326 71.1888 115.855C70.8662 115.384 70.7048 114.793 70.7048 114.081V102.442ZM82.6836 117.307C81.521 117.307 80.5198 117.059 79.6799 116.562C78.845 116.06 78.1997 115.356 77.7439 114.449C77.2932 113.538 77.0679 112.47 77.0679 111.246C77.0679 110.037 77.2932 108.972 77.7439 108.05C78.1997 107.128 78.8348 106.409 79.6491 105.891C80.4686 105.374 81.4263 105.115 82.5223 105.115C83.1881 105.115 83.8334 105.226 84.4582 105.446C85.0831 105.666 85.6439 106.012 86.1407 106.483C86.6375 106.954 87.0292 107.566 87.3161 108.319C87.6029 109.067 87.7463 109.976 87.7463 111.046V111.86H78.3662V110.14H85.4954C85.4954 109.535 85.3724 109 85.1266 108.534C84.8808 108.063 84.5351 107.692 84.0895 107.42C83.649 107.149 83.1318 107.013 82.5377 107.013C81.8924 107.013 81.329 107.172 80.8476 107.489C80.3713 107.802 80.0025 108.211 79.7413 108.718C79.4852 109.22 79.3572 109.766 79.3572 110.355V111.699C79.3572 112.488 79.4955 113.159 79.772 113.712C80.0537 114.265 80.4455 114.688 80.9474 114.98C81.4493 115.266 82.0358 115.41 82.7067 115.41C83.142 115.41 83.5389 115.348 83.8974 115.225C84.2559 115.097 84.5658 114.908 84.827 114.657C85.0882 114.406 85.2879 114.096 85.4262 113.727L87.6003 114.119C87.4262 114.759 87.1138 115.32 86.6631 115.802C86.2175 116.278 85.6567 116.649 84.9806 116.915C84.3097 117.177 83.544 117.307 82.6836 117.307ZM90.0569 117.069V105.269H92.2771V107.144H92.4C92.6151 106.509 92.9941 106.009 93.537 105.646C94.085 105.277 94.7047 105.092 95.3961 105.092C95.5395 105.092 95.7085 105.098 95.9031 105.108C96.1029 105.118 96.2591 105.131 96.3717 105.146V107.343C96.2795 107.318 96.1157 107.29 95.8801 107.259C95.6445 107.223 95.4089 107.205 95.1733 107.205C94.6304 107.205 94.1464 107.32 93.7213 107.551C93.3014 107.776 92.9685 108.091 92.7226 108.496C92.4768 108.895 92.3539 109.351 92.3539 109.863V117.069H90.0569ZM98.2829 117.215C97.8629 117.215 97.5019 117.067 97.1997 116.769C96.8975 116.467 96.7464 116.104 96.7464 115.679C96.7464 115.259 96.8975 114.9 97.1997 114.603C97.5019 114.301 97.8629 114.15 98.2829 114.15C98.7029 114.15 99.0639 114.301 99.3661 114.603C99.6683 114.9 99.8194 115.259 99.8194 115.679C99.8194 115.96 99.7477 116.219 99.6042 116.455C99.466 116.685 99.2816 116.869 99.0511 117.008C98.8207 117.146 98.5646 117.215 98.2829 117.215ZM103.09 101.336V102.811C103.09 103.246 103.008 103.704 102.844 104.186C102.686 104.662 102.46 105.121 102.168 105.561C101.876 106.001 101.533 106.38 101.139 106.698L100.002 105.884C100.304 105.443 100.565 104.975 100.786 104.478C101.011 103.981 101.124 103.433 101.124 102.834V101.336H103.09ZM107.001 101.336V102.811C107.001 103.246 106.919 103.704 106.755 104.186C106.596 104.662 106.371 105.121 106.079 105.561C105.787 106.001 105.444 106.38 105.049 106.698L103.912 105.884C104.214 105.443 104.476 104.975 104.696 104.478C104.921 103.981 105.034 103.433 105.034 102.834V101.336H107.001Z" fill="black" fill-opacity="0.8"/>
<path d="M48.6388 287.023H46.8412C46.772 286.639 46.6433 286.301 46.4551 286.009C46.2669 285.717 46.0364 285.469 45.7637 285.266C45.491 285.062 45.1856 284.908 44.8476 284.805C44.5134 284.701 44.1581 284.649 43.7817 284.649C43.1018 284.649 42.493 284.82 41.9552 285.162C41.4213 285.504 40.9988 286.005 40.6876 286.666C40.3804 287.326 40.2267 288.133 40.2267 289.086C40.2267 290.046 40.3804 290.856 40.6876 291.517C40.9988 292.178 41.4232 292.677 41.961 293.015C42.4987 293.353 43.1037 293.522 43.7759 293.522C44.1485 293.522 44.5019 293.472 44.8361 293.372C45.1741 293.269 45.4795 293.117 45.7522 292.917C46.0249 292.717 46.2554 292.473 46.4436 292.185C46.6357 291.893 46.7682 291.559 46.8412 291.183L48.6388 291.189C48.5428 291.769 48.3565 292.303 48.0799 292.79C47.8072 293.274 47.4557 293.693 47.0255 294.046C46.5992 294.396 46.1113 294.667 45.5621 294.859C45.0128 295.051 44.4136 295.147 43.7644 295.147C42.7427 295.147 41.8323 294.905 41.0333 294.421C40.2344 293.933 39.6044 293.236 39.1435 292.329C38.6864 291.423 38.4579 290.342 38.4579 289.086C38.4579 287.826 38.6883 286.744 39.1493 285.842C39.6102 284.935 40.2402 284.24 41.0391 283.756C41.8381 283.268 42.7465 283.024 43.7644 283.024C44.3905 283.024 44.9744 283.115 45.516 283.295C46.0614 283.472 46.5512 283.733 46.9852 284.079C47.4193 284.421 47.7784 284.839 48.0626 285.335C48.3469 285.826 48.5389 286.389 48.6388 287.023ZM52.1752 289.731V294.986H50.4525V283.186H52.1522V287.576H52.2616C52.4691 287.1 52.786 286.721 53.2123 286.441C53.6387 286.161 54.1957 286.02 54.8832 286.02C55.4901 286.02 56.0202 286.145 56.4735 286.395C56.9305 286.645 57.2839 287.017 57.5336 287.513C57.7871 288.004 57.9139 288.619 57.9139 289.356V294.986H56.1911V289.564C56.1911 288.915 56.024 288.411 55.6899 288.054C55.3557 287.693 54.8909 287.513 54.2955 287.513C53.8884 287.513 53.5235 287.599 53.2008 287.772C52.882 287.945 52.6304 288.198 52.446 288.532C52.2655 288.863 52.1752 289.262 52.1752 289.731ZM61.7571 283.186V294.986H60.0343V283.186H61.7571ZM67.6241 295.164C66.7944 295.164 66.0704 294.974 65.4519 294.594C64.8335 294.214 64.3534 293.682 64.0115 292.998C63.6696 292.314 63.4987 291.515 63.4987 290.601C63.4987 289.683 63.6696 288.88 64.0115 288.193C64.3534 287.505 64.8335 286.971 65.4519 286.591C66.0704 286.21 66.7944 286.02 67.6241 286.02C68.4538 286.02 69.1778 286.21 69.7963 286.591C70.4147 286.971 70.8948 287.505 71.2367 288.193C71.5786 288.88 71.7495 289.683 71.7495 290.601C71.7495 291.515 71.5786 292.314 71.2367 292.998C70.8948 293.682 70.4147 294.214 69.7963 294.594C69.1778 294.974 68.4538 295.164 67.6241 295.164ZM67.6299 293.718C68.1676 293.718 68.6132 293.576 68.9666 293.292C69.32 293.007 69.5812 292.629 69.7502 292.157C69.923 291.684 70.0094 291.164 70.0094 290.595C70.0094 290.031 69.923 289.512 69.7502 289.04C69.5812 288.563 69.32 288.181 68.9666 287.893C68.6132 287.605 68.1676 287.461 67.6299 287.461C67.0883 287.461 66.6388 287.605 66.2816 287.893C65.9282 288.181 65.6651 288.563 65.4923 289.04C65.3233 289.512 65.2387 290.031 65.2387 290.595C65.2387 291.164 65.3233 291.684 65.4923 292.157C65.6651 292.629 65.9282 293.007 66.2816 293.292C66.6388 293.576 67.0883 293.718 67.6299 293.718ZM77.3082 295.164C76.4363 295.164 75.6854 294.978 75.0554 294.605C74.4293 294.229 73.9453 293.701 73.6035 293.021C73.2654 292.337 73.0964 291.536 73.0964 290.618C73.0964 289.712 73.2654 288.913 73.6035 288.221C73.9453 287.53 74.4216 286.99 75.0324 286.602C75.6469 286.214 76.3652 286.02 77.1872 286.02C77.6866 286.02 78.1706 286.103 78.6392 286.268C79.1078 286.433 79.5284 286.693 79.901 287.046C80.2736 287.399 80.5675 287.858 80.7826 288.423C80.9977 288.984 81.1052 289.666 81.1052 290.468V291.079H74.0702V289.789H79.417C79.417 289.335 79.3248 288.934 79.1405 288.584C78.9561 288.231 78.6968 287.952 78.3626 287.749C78.0323 287.545 77.6443 287.444 77.1988 287.444C76.7148 287.444 76.2923 287.563 75.9312 287.801C75.574 288.035 75.2974 288.342 75.1015 288.723C74.9094 289.099 74.8134 289.508 74.8134 289.95V290.958C74.8134 291.55 74.9171 292.053 75.1246 292.468C75.3358 292.883 75.6297 293.199 76.0061 293.418C76.3825 293.634 76.8223 293.741 77.3255 293.741C77.652 293.741 77.9497 293.695 78.2186 293.603C78.4875 293.507 78.7199 293.365 78.9158 293.176C79.1117 292.988 79.2615 292.756 79.3652 292.479L80.9957 292.773C80.8651 293.253 80.6308 293.674 80.2928 294.035C79.9586 294.392 79.538 294.671 79.031 294.87C78.5278 295.066 77.9536 295.164 77.3082 295.164ZM87.0919 294.986V283.186H88.8723V288.314H94.755V283.186H96.5411V294.986H94.755V289.84H88.8723V294.986H87.0919ZM101.393 295.181C100.832 295.181 100.325 295.078 99.8716 294.87C99.4183 294.659 99.0591 294.354 98.7941 293.954C98.5329 293.555 98.4023 293.065 98.4023 292.485C98.4023 291.986 98.4983 291.575 98.6904 291.252C98.8825 290.929 99.1417 290.674 99.4682 290.486C99.7947 290.297 100.16 290.155 100.563 290.059C100.966 289.963 101.377 289.89 101.796 289.84C102.326 289.779 102.756 289.729 103.087 289.691C103.417 289.648 103.657 289.581 103.807 289.489C103.957 289.397 104.032 289.247 104.032 289.04V288.999C104.032 288.496 103.889 288.106 103.605 287.83C103.325 287.553 102.906 287.415 102.349 287.415C101.769 287.415 101.312 287.543 100.978 287.801C100.647 288.054 100.419 288.337 100.292 288.648L98.6731 288.279C98.8652 287.741 99.1456 287.307 99.5143 286.977C99.8869 286.643 100.315 286.401 100.799 286.251C101.283 286.097 101.792 286.02 102.326 286.02C102.679 286.02 103.054 286.063 103.45 286.147C103.849 286.228 104.222 286.378 104.567 286.597C104.917 286.815 105.203 287.129 105.426 287.536C105.649 287.939 105.76 288.463 105.76 289.109V294.986H104.078V293.776H104.008C103.897 293.998 103.73 294.217 103.507 294.432C103.284 294.648 102.998 294.826 102.649 294.968C102.299 295.11 101.88 295.181 101.393 295.181ZM101.767 293.799C102.243 293.799 102.651 293.705 102.989 293.516C103.331 293.328 103.59 293.082 103.766 292.779C103.947 292.472 104.037 292.143 104.037 291.794V290.653C103.976 290.714 103.857 290.772 103.68 290.826C103.507 290.876 103.309 290.92 103.087 290.958C102.864 290.993 102.647 291.025 102.436 291.056C102.224 291.083 102.048 291.106 101.905 291.125C101.571 291.167 101.266 291.239 100.989 291.338C100.717 291.438 100.498 291.582 100.332 291.771C100.171 291.955 100.09 292.201 100.09 292.508C100.09 292.934 100.248 293.257 100.563 293.476C100.878 293.691 101.279 293.799 101.767 293.799ZM112.088 286.136V287.518H107.087V286.136H112.088ZM108.458 294.986V285.11C108.458 284.557 108.579 284.098 108.821 283.733C109.063 283.364 109.384 283.09 109.783 282.909C110.183 282.725 110.617 282.632 111.085 282.632C111.431 282.632 111.727 282.661 111.973 282.719C112.219 282.773 112.401 282.823 112.52 282.869L112.117 284.263C112.036 284.24 111.932 284.213 111.806 284.182C111.679 284.148 111.525 284.131 111.345 284.131C110.926 284.131 110.626 284.234 110.446 284.442C110.269 284.649 110.181 284.949 110.181 285.34V294.986H108.458ZM115.41 289.731V294.986H113.687V286.136H115.341V287.576H115.45C115.654 287.107 115.972 286.731 116.407 286.447C116.844 286.162 117.396 286.02 118.06 286.02C118.663 286.02 119.191 286.147 119.645 286.401C120.098 286.65 120.449 287.023 120.699 287.518C120.949 288.014 121.074 288.627 121.074 289.356V294.986H119.351V289.564C119.351 288.922 119.184 288.421 118.849 288.06C118.515 287.695 118.056 287.513 117.472 287.513C117.073 287.513 116.718 287.599 116.407 287.772C116.099 287.945 115.855 288.198 115.675 288.532C115.498 288.863 115.41 289.262 115.41 289.731ZM127.02 295.164C126.148 295.164 125.397 294.978 124.767 294.605C124.141 294.229 123.657 293.701 123.315 293.021C122.977 292.337 122.808 291.536 122.808 290.618C122.808 289.712 122.977 288.913 123.315 288.221C123.657 287.53 124.133 286.99 124.744 286.602C125.358 286.214 126.077 286.02 126.899 286.02C127.398 286.02 127.882 286.103 128.351 286.268C128.819 286.433 129.24 286.693 129.613 287.046C129.985 287.399 130.279 287.858 130.494 288.423C130.709 288.984 130.817 289.666 130.817 290.468V291.079H123.782V289.789H129.129C129.129 289.335 129.036 288.934 128.852 288.584C128.668 288.231 128.408 287.952 128.074 287.749C127.744 287.545 127.356 287.444 126.91 287.444C126.426 287.444 126.004 287.563 125.643 287.801C125.285 288.035 125.009 288.342 124.813 288.723C124.621 289.099 124.525 289.508 124.525 289.95V290.958C124.525 291.55 124.629 292.053 124.836 292.468C125.047 292.883 125.341 293.199 125.718 293.418C126.094 293.634 126.534 293.741 127.037 293.741C127.364 293.741 127.661 293.695 127.93 293.603C128.199 293.507 128.431 293.365 128.627 293.176C128.823 292.988 128.973 292.756 129.077 292.479L130.707 292.773C130.577 293.253 130.342 293.674 130.004 294.035C129.67 294.392 129.25 294.671 128.742 294.87C128.239 295.066 127.665 295.164 127.02 295.164ZM132.55 294.986V286.136H134.215V287.541H134.307C134.468 287.065 134.753 286.691 135.16 286.418C135.571 286.141 136.036 286.003 136.554 286.003C136.662 286.003 136.788 286.007 136.934 286.015C137.084 286.022 137.201 286.032 137.286 286.043V287.691C137.217 287.672 137.094 287.651 136.917 287.628C136.74 287.601 136.564 287.588 136.387 287.588C135.98 287.588 135.617 287.674 135.298 287.847C134.983 288.016 134.733 288.252 134.549 288.556C134.365 288.855 134.272 289.197 134.272 289.581V294.986H132.55Z" fill="black" fill-opacity="0.494118"/>
</g>
<defs>
<filter id="filter0_ddd_675_18847" x="0.5" y="0.0273438" width="345" height="345" filterUnits="userSpaceOnUse" color-interpolation-filters="sRGB">
<feFlood flood-opacity="0" result="BackgroundImageFix"/>
<feColorMatrix in="SourceAlpha" type="matrix" values="0 0 0 0 0 0 0 0 0 0 0 0 0 0 0 0 0 0 127 0" result="hardAlpha"/>
<feOffset dy="2.5"/>
<feGaussianBlur stdDeviation="1"/>
<feColorMatrix type="matrix" values="0 0 0 0 0 0 0 0 0 0 0 0 0 0 0 0 0 0 0.02 0"/>
<feBlend mode="normal" in2="BackgroundImageFix" result="effect1_dropShadow_675_18847"/>
<feColorMatrix in="SourceAlpha" type="matrix" values="0 0 0 0 0 0 0 0 0 0 0 0 0 0 0 0 0 0 127 0" result="hardAlpha"/>
<feOffset dy="3"/>
<feGaussianBlur stdDeviation="2.5"/>
<feColorMatrix type="matrix" values="0 0 0 0 0 0 0 0 0 0 0 0 0 0 0 0 0 0 0.04 0"/>
<feBlend mode="normal" in2="effect1_dropShadow_675_18847" result="effect2_dropShadow_675_18847"/>
<feColorMatrix in="SourceAlpha" type="matrix" values="0 0 0 0 0 0 0 0 0 0 0 0 0 0 0 0 0 0 127 0" result="hardAlpha"/>
<feOffset dy="8"/>
<feGaussianBlur stdDeviation="5"/>
<feColorMatrix type="matrix" values="0 0 0 0 0 0 0 0 0 0 0 0 0 0 0 0 0 0 0.08 0"/>
<feBlend mode="normal" in2="effect2_dropShadow_675_18847" result="effect3_dropShadow_675_18847"/>
<feBlend mode="normal" in="SourceGraphic" in2="effect3_dropShadow_675_18847" result="shape"/>
</filter>
</defs>
</svg>
