<svg width="345" height="346" viewBox="0 0 345 346" fill="none" xmlns="http://www.w3.org/2000/svg">
<g filter="url(#filter0_ddd_675_18848)">
<rect width="325" height="325" transform="translate(10 2.02734)" fill="#FFD966"/>
<path d="M38.1761 42.2773V40.8C38.1761 40.364 38.2581 39.9049 38.4223 39.4227C38.5864 38.9406 38.8147 38.4789 39.1071 38.0378C39.3994 37.5967 39.7431 37.2197 40.1381 36.9068L41.2768 37.7223C40.9639 38.1789 40.6972 38.6559 40.4766 39.1534C40.256 39.651 40.1458 40.1922 40.1458 40.7769V42.2773H38.1761ZM42.1001 42.2773V40.8C42.1001 40.364 42.1821 39.9049 42.3463 39.4227C42.5104 38.9406 42.7387 38.4789 43.0311 38.0378C43.3234 37.5967 43.6671 37.2197 44.0621 36.9068L45.2008 37.7223C44.8879 38.1789 44.6212 38.6559 44.4006 39.1534C44.18 39.651 44.0698 40.1922 44.0698 40.7769V42.2773H42.1001ZM46.3474 39.3997V37.353H58.5426V39.3997H53.6261V53.1106H51.2563V39.3997H46.3474ZM63.115 46.0936V53.1106H60.8145V37.353H63.0842V43.2159H63.2304C63.5074 42.5799 63.9306 42.0747 64.5 41.7002C65.0693 41.3258 65.8131 41.1385 66.7313 41.1385C67.5417 41.1385 68.2496 41.3052 68.8548 41.6386C69.4652 41.9721 69.9372 42.4696 70.2706 43.1313C70.6091 43.7879 70.7784 44.6086 70.7784 45.5934V53.1106H68.4778V45.8704C68.4778 45.0035 68.2547 44.3316 67.8084 43.8546C67.3622 43.3724 66.7415 43.1313 65.9465 43.1313C65.4027 43.1313 64.9155 43.2467 64.4846 43.4775C64.0588 43.7084 63.7229 44.0469 63.4767 44.4932C63.2356 44.9343 63.115 45.4678 63.115 46.0936ZM78.7035 53.3491C77.5391 53.3491 76.5363 53.1003 75.6951 52.6028C74.859 52.1001 74.2127 51.3948 73.7562 50.4869C73.3048 49.5739 73.0791 48.5044 73.0791 47.2784C73.0791 46.0679 73.3048 45.001 73.7562 44.0777C74.2127 43.1544 74.8488 42.4337 75.6643 41.9156C76.485 41.3976 77.4442 41.1385 78.5419 41.1385C79.2088 41.1385 79.8551 41.2488 80.4809 41.4694C81.1066 41.6899 81.6683 42.0362 82.1659 42.5081C82.6634 42.98 83.0558 43.593 83.3431 44.347C83.6303 45.0959 83.7739 46.0064 83.7739 47.0784V47.894H74.3794V46.1705H81.5196C81.5196 45.5652 81.3965 45.0292 81.1502 44.5624C80.904 44.0905 80.5578 43.7186 80.1115 43.4468C79.6704 43.1749 79.1523 43.039 78.5573 43.039C77.911 43.039 77.3468 43.198 76.8646 43.516C76.3876 43.8289 76.0183 44.2393 75.7567 44.7471C75.5002 45.2498 75.372 45.796 75.372 46.3859V47.7324C75.372 48.5223 75.5105 49.1943 75.7874 49.7483C76.0696 50.3022 76.462 50.7254 76.9646 51.0178C77.4673 51.305 78.0546 51.4487 78.7266 51.4487C79.1626 51.4487 79.5601 51.3871 79.9192 51.264C80.2782 51.1358 80.5886 50.946 80.8502 50.6946C81.1118 50.4433 81.3118 50.133 81.4503 49.7636L83.6278 50.1561C83.4534 50.7972 83.1405 51.3589 82.6891 51.8411C82.2428 52.3181 81.6811 52.69 81.0041 52.9567C80.3321 53.2183 79.5653 53.3491 78.7035 53.3491ZM86.0881 53.1106V41.2924H88.3117V43.1698H88.4348C88.6503 42.5337 89.0299 42.0336 89.5736 41.6694C90.1224 41.3001 90.7431 41.1154 91.4356 41.1154C91.5792 41.1154 91.7485 41.1206 91.9434 41.1308C92.1434 41.1411 92.2999 41.1539 92.4127 41.1693V43.3698C92.3204 43.3442 92.1562 43.316 91.9203 43.2852C91.6843 43.2493 91.4484 43.2313 91.2124 43.2313C90.6687 43.2313 90.184 43.3467 89.7582 43.5776C89.3376 43.8033 89.0042 44.1187 88.758 44.5239C88.5118 44.924 88.3887 45.3806 88.3887 45.8935V53.1106H86.0881ZM98.8356 53.3491C97.6712 53.3491 96.6684 53.1003 95.8272 52.6028C94.9911 52.1001 94.3448 51.3948 93.8882 50.4869C93.4369 49.5739 93.2112 48.5044 93.2112 47.2784C93.2112 46.0679 93.4369 45.001 93.8882 44.0777C94.3448 43.1544 94.9808 42.4337 95.7964 41.9156C96.6171 41.3976 97.5763 41.1385 98.674 41.1385C99.3408 41.1385 99.9871 41.2488 100.613 41.4694C101.239 41.6899 101.8 42.0362 102.298 42.5081C102.795 42.98 103.188 43.593 103.475 44.347C103.762 45.0959 103.906 46.0064 103.906 47.0784V47.894H94.5115V46.1705H101.652C101.652 45.5652 101.529 45.0292 101.282 44.5624C101.036 44.0905 100.69 43.7186 100.244 43.4468C99.8025 43.1749 99.2844 43.039 98.6894 43.039C98.0431 43.039 97.4788 43.198 96.9967 43.516C96.5196 43.8289 96.1503 44.2393 95.8887 44.7471C95.6322 45.2498 95.504 45.796 95.504 46.3859V47.7324C95.504 48.5223 95.6425 49.1943 95.9195 49.7483C96.2016 50.3022 96.594 50.7254 97.0967 51.0178C97.5994 51.305 98.1867 51.4487 98.8587 51.4487C99.2947 51.4487 99.6922 51.3871 100.051 51.264C100.41 51.1358 100.721 50.946 100.982 50.6946C101.244 50.4433 101.444 50.133 101.582 49.7636L103.76 50.1561C103.585 50.7972 103.273 51.3589 102.821 51.8411C102.375 52.3181 101.813 52.69 101.136 52.9567C100.464 53.2183 99.6973 53.3491 98.8356 53.3491ZM111.716 53.1106V41.2924H114.016V53.1106H111.716ZM112.878 39.4689C112.478 39.4689 112.134 39.3355 111.847 39.0688C111.565 38.797 111.424 38.4738 111.424 38.0993C111.424 37.7198 111.565 37.3966 111.847 37.1299C112.134 36.858 112.478 36.7221 112.878 36.7221C113.278 36.7221 113.619 36.858 113.901 37.1299C114.188 37.3966 114.332 37.7198 114.332 38.0993C114.332 38.4738 114.188 38.797 113.901 39.0688C113.619 39.3355 113.278 39.4689 112.878 39.4689ZM125.729 44.1777L123.644 44.547C123.557 44.2803 123.418 44.0264 123.228 43.7853C123.044 43.5442 122.792 43.3467 122.474 43.1929C122.156 43.039 121.759 42.962 121.282 42.962C120.63 42.962 120.087 43.1082 119.651 43.4006C119.215 43.6879 118.997 44.0597 118.997 44.5163C118.997 44.9112 119.143 45.2292 119.435 45.4703C119.728 45.7114 120.2 45.9089 120.851 46.0628L122.728 46.4936C123.816 46.745 124.626 47.1323 125.16 47.6555C125.693 48.1787 125.96 48.8583 125.96 49.6944C125.96 50.4023 125.755 51.0332 125.344 51.5872C124.939 52.136 124.372 52.5669 123.644 52.8798C122.921 53.1927 122.082 53.3491 121.128 53.3491C119.805 53.3491 118.725 53.067 117.889 52.5028C117.053 51.9334 116.54 51.1255 116.35 50.0791L118.573 49.7406C118.712 50.3202 118.997 50.7588 119.428 51.0563C119.858 51.3486 120.42 51.4948 121.113 51.4948C121.867 51.4948 122.469 51.3384 122.921 51.0255C123.372 50.7075 123.598 50.3202 123.598 49.8637C123.598 49.4944 123.459 49.184 123.182 48.9327C122.91 48.6813 122.492 48.4916 121.928 48.3633L119.928 47.9248C118.825 47.6734 118.009 47.2733 117.481 46.7245C116.958 46.1756 116.696 45.4806 116.696 44.6394C116.696 43.9418 116.891 43.3314 117.281 42.8082C117.671 42.285 118.209 41.8772 118.897 41.5848C119.584 41.2873 120.371 41.1385 121.259 41.1385C122.536 41.1385 123.541 41.4155 124.275 41.9695C125.008 42.5183 125.493 43.2544 125.729 44.1777ZM137.186 53.3722C136.437 53.3722 135.76 53.2337 135.155 52.9567C134.549 52.6746 134.07 52.2668 133.716 51.7333C133.367 51.1999 133.193 50.5459 133.193 49.7713C133.193 49.1045 133.321 48.5557 133.577 48.1248C133.834 47.6939 134.18 47.3528 134.616 47.1015C135.052 46.8501 135.539 46.6604 136.078 46.5321C136.617 46.4039 137.165 46.3064 137.725 46.2397C138.432 46.1577 139.007 46.091 139.448 46.0397C139.889 45.9833 140.21 45.8935 140.41 45.7704C140.61 45.6473 140.71 45.4472 140.71 45.1703V45.1164C140.71 44.4444 140.52 43.9238 140.14 43.5545C139.766 43.1852 139.207 43.0005 138.463 43.0005C137.689 43.0005 137.078 43.1723 136.632 43.516C136.191 43.8546 135.886 44.2316 135.716 44.6471L133.554 44.1546C133.811 43.4365 134.185 42.8569 134.678 42.4158C135.175 41.9695 135.747 41.6463 136.393 41.4463C137.04 41.2411 137.719 41.1385 138.432 41.1385C138.904 41.1385 139.404 41.195 139.933 41.3078C140.466 41.4155 140.964 41.6156 141.425 41.9079C141.892 42.2003 142.274 42.6184 142.572 43.1621C142.869 43.7007 143.018 44.4008 143.018 45.2626V53.1106H140.771V51.4948H140.679C140.53 51.7923 140.307 52.0847 140.01 52.372C139.712 52.6592 139.33 52.8977 138.863 53.0875C138.396 53.2773 137.837 53.3722 137.186 53.3722ZM137.686 51.5256C138.322 51.5256 138.866 51.3999 139.317 51.1486C139.774 50.8973 140.12 50.569 140.356 50.1637C140.597 49.7534 140.718 49.3148 140.718 48.848V47.3246C140.635 47.4067 140.476 47.4836 140.241 47.5554C140.01 47.6221 139.746 47.6811 139.448 47.7324C139.151 47.7786 138.861 47.8222 138.579 47.8632C138.296 47.8991 138.061 47.9299 137.871 47.9555C137.424 48.012 137.017 48.1068 136.647 48.2402C136.283 48.3736 135.991 48.5659 135.77 48.8173C135.555 49.0635 135.447 49.3918 135.447 49.8021C135.447 50.3715 135.657 50.8024 136.078 51.0947C136.499 51.382 137.035 51.5256 137.686 51.5256ZM156.856 41.2924V43.139H150.401V41.2924H156.856ZM152.132 38.461H154.433V49.6405C154.433 50.0868 154.499 50.4228 154.633 50.6485C154.766 50.869 154.938 51.0204 155.148 51.1024C155.364 51.1794 155.597 51.2178 155.848 51.2178C156.033 51.2178 156.195 51.205 156.333 51.1794C156.472 51.1537 156.579 51.1332 156.656 51.1178L157.072 53.0183C156.938 53.0696 156.749 53.1209 156.502 53.1721C156.256 53.2286 155.948 53.2593 155.579 53.2645C154.974 53.2747 154.41 53.167 153.886 52.9413C153.363 52.7156 152.94 52.3668 152.617 51.8949C152.294 51.423 152.132 50.8306 152.132 50.1176V38.461ZM164.014 53.3491C162.906 53.3491 161.939 53.0952 161.113 52.5874C160.287 52.0796 159.646 51.3692 159.19 50.4561C158.733 49.5431 158.505 48.4762 158.505 47.2554C158.505 46.0294 158.733 44.9574 159.19 44.0392C159.646 43.1211 160.287 42.4081 161.113 41.9003C161.939 41.3924 162.906 41.1385 164.014 41.1385C165.122 41.1385 166.089 41.3924 166.915 41.9003C167.741 42.4081 168.382 43.1211 168.838 44.0392C169.295 44.9574 169.523 46.0294 169.523 47.2554C169.523 48.4762 169.295 49.5431 168.838 50.4561C168.382 51.3692 167.741 52.0796 166.915 52.5874C166.089 53.0952 165.122 53.3491 164.014 53.3491ZM164.022 51.4179C164.74 51.4179 165.335 51.2281 165.807 50.8485C166.279 50.4689 166.627 49.9637 166.853 49.3328C167.084 48.7019 167.199 48.0068 167.199 47.2477C167.199 46.4936 167.084 45.8012 166.853 45.1703C166.627 44.5342 166.279 44.0238 165.807 43.6391C165.335 43.2544 164.74 43.0621 164.022 43.0621C163.298 43.0621 162.698 43.2544 162.221 43.6391C161.749 44.0238 161.398 44.5342 161.167 45.1703C160.941 45.8012 160.829 46.4936 160.829 47.2477C160.829 48.0068 160.941 48.7019 161.167 49.3328C161.398 49.9637 161.749 50.4689 162.221 50.8485C162.698 51.2281 163.298 51.4179 164.022 51.4179ZM176.831 53.3491C175.723 53.3491 174.756 53.0952 173.93 52.5874C173.104 52.0796 172.463 51.3692 172.006 50.4561C171.55 49.5431 171.322 48.4762 171.322 47.2554C171.322 46.0294 171.55 44.9574 172.006 44.0392C172.463 43.1211 173.104 42.4081 173.93 41.9003C174.756 41.3924 175.723 41.1385 176.831 41.1385C177.939 41.1385 178.906 41.3924 179.731 41.9003C180.557 42.4081 181.198 43.1211 181.655 44.0392C182.111 44.9574 182.34 46.0294 182.34 47.2554C182.34 48.4762 182.111 49.5431 181.655 50.4561C181.198 51.3692 180.557 52.0796 179.731 52.5874C178.906 53.0952 177.939 53.3491 176.831 53.3491ZM176.838 51.4179C177.557 51.4179 178.152 51.2281 178.623 50.8485C179.095 50.4689 179.444 49.9637 179.67 49.3328C179.901 48.7019 180.016 48.0068 180.016 47.2477C180.016 46.4936 179.901 45.8012 179.67 45.1703C179.444 44.5342 179.095 44.0238 178.623 43.6391C178.152 43.2544 177.557 43.0621 176.838 43.0621C176.115 43.0621 175.515 43.2544 175.038 43.6391C174.566 44.0238 174.215 44.5342 173.984 45.1703C173.758 45.8012 173.645 46.4936 173.645 47.2477C173.645 48.0068 173.758 48.7019 173.984 49.3328C174.215 49.9637 174.566 50.4689 175.038 50.8485C175.515 51.2281 176.115 51.4179 176.838 51.4179ZM190.165 53.1106V41.2924H192.373V43.2159H192.519C192.766 42.5645 193.168 42.0567 193.727 41.6925C194.286 41.3232 194.956 41.1385 195.736 41.1385C196.525 41.1385 197.187 41.3232 197.721 41.6925C198.259 42.0618 198.657 42.5696 198.913 43.2159H199.036C199.318 42.585 199.767 42.0823 200.383 41.7079C200.998 41.3283 201.732 41.1385 202.583 41.1385C203.655 41.1385 204.53 41.4745 205.207 42.1465C205.889 42.8184 206.23 43.8315 206.23 45.1856V53.1106H203.93V45.4011C203.93 44.6009 203.712 44.0213 203.276 43.6622C202.84 43.3031 202.319 43.1236 201.714 43.1236C200.965 43.1236 200.383 43.3544 199.967 43.8161C199.552 44.2726 199.344 44.8599 199.344 45.578V53.1106H197.051V45.2549C197.051 44.6137 196.851 44.0982 196.451 43.7084C196.051 43.3185 195.53 43.1236 194.889 43.1236C194.453 43.1236 194.051 43.239 193.681 43.4699C193.317 43.6955 193.022 44.011 192.796 44.4162C192.576 44.8215 192.466 45.2908 192.466 45.8243V53.1106H190.165ZM216.562 48.2094V41.2924H218.87V53.1106H216.608V51.064H216.485C216.213 51.6949 215.777 52.2206 215.177 52.6413C214.582 53.0567 213.841 53.2645 212.953 53.2645C212.194 53.2645 211.522 53.0978 210.937 52.7644C210.358 52.4258 209.901 51.9257 209.568 51.264C209.24 50.6023 209.075 49.7842 209.075 48.8096V41.2924H211.376V48.5326C211.376 49.3379 211.599 49.9791 212.045 50.4561C212.492 50.9332 213.071 51.1717 213.784 51.1717C214.215 51.1717 214.643 51.064 215.069 50.8485C215.5 50.6331 215.857 50.3074 216.139 49.8714C216.426 49.4354 216.567 48.8814 216.562 48.2094ZM226.701 53.3491C225.557 53.3491 224.572 53.0901 223.746 52.572C222.926 52.0488 222.295 51.3281 221.854 50.41C221.412 49.4918 221.192 48.4403 221.192 47.2554C221.192 46.0551 221.418 44.9959 221.869 44.0777C222.32 43.1544 222.956 42.4337 223.777 41.9156C224.598 41.3976 225.565 41.1385 226.678 41.1385C227.575 41.1385 228.376 41.3052 229.078 41.6386C229.781 41.9669 230.348 42.4286 230.779 43.0236C231.215 43.6186 231.474 44.3136 231.556 45.1087H229.317C229.194 44.5547 228.912 44.0777 228.471 43.6776C228.035 43.2775 227.45 43.0775 226.716 43.0775C226.075 43.0775 225.513 43.2467 225.031 43.5853C224.554 43.9187 224.182 44.3957 223.916 45.0164C223.649 45.6319 223.516 46.3603 223.516 47.2015C223.516 48.0632 223.646 48.807 223.908 49.4328C224.17 50.0586 224.539 50.5433 225.016 50.887C225.498 51.2307 226.065 51.4025 226.716 51.4025C227.152 51.4025 227.547 51.323 227.901 51.164C228.26 50.9998 228.56 50.7665 228.801 50.4638C229.048 50.1612 229.219 49.797 229.317 49.3712H231.556C231.474 50.1355 231.225 50.8177 230.81 51.4179C230.394 52.018 229.838 52.4899 229.14 52.8336C228.447 53.1773 227.634 53.3491 226.701 53.3491ZM236.078 46.0936V53.1106H233.778V37.353H236.048V43.2159H236.194C236.471 42.5799 236.894 42.0747 237.463 41.7002C238.033 41.3258 238.776 41.1385 239.695 41.1385C240.505 41.1385 241.213 41.3052 241.818 41.6386C242.429 41.9721 242.9 42.4696 243.234 43.1313C243.572 43.7879 243.742 44.6086 243.742 45.5934V53.1106H241.441V45.8704C241.441 45.0035 241.218 44.3316 240.772 43.8546C240.325 43.3724 239.705 43.1313 238.91 43.1313C238.366 43.1313 237.879 43.2467 237.448 43.4775C237.022 43.7084 236.686 44.0469 236.44 44.4932C236.199 44.9343 236.078 45.4678 236.078 46.0936ZM257.586 41.2924V43.139H251.13V41.2924H257.586ZM252.862 38.461H255.162V49.6405C255.162 50.0868 255.229 50.4228 255.362 50.6485C255.495 50.869 255.667 51.0204 255.878 51.1024C256.093 51.1794 256.326 51.2178 256.578 51.2178C256.762 51.2178 256.924 51.205 257.063 51.1794C257.201 51.1537 257.309 51.1332 257.386 51.1178L257.801 53.0183C257.668 53.0696 257.478 53.1209 257.232 53.1721C256.986 53.2286 256.678 53.2593 256.308 53.2645C255.703 53.2747 255.139 53.167 254.616 52.9413C254.093 52.7156 253.669 52.3668 253.346 51.8949C253.023 51.423 252.862 50.8306 252.862 50.1176V38.461ZM264.859 53.3491C263.694 53.3491 262.692 53.1003 261.85 52.6028C261.014 52.1001 260.368 51.3948 259.911 50.4869C259.46 49.5739 259.234 48.5044 259.234 47.2784C259.234 46.0679 259.46 45.001 259.911 44.0777C260.368 43.1544 261.004 42.4337 261.82 41.9156C262.64 41.3976 263.599 41.1385 264.697 41.1385C265.364 41.1385 266.01 41.2488 266.636 41.4694C267.262 41.6899 267.824 42.0362 268.321 42.5081C268.819 42.98 269.211 43.593 269.498 44.347C269.786 45.0959 269.929 46.0064 269.929 47.0784V47.894H260.535V46.1705H267.675C267.675 45.5652 267.552 45.0292 267.306 44.5624C267.059 44.0905 266.713 43.7186 266.267 43.4468C265.826 43.1749 265.308 43.039 264.713 43.039C264.066 43.039 263.502 43.198 263.02 43.516C262.543 43.8289 262.174 44.2393 261.912 44.7471C261.655 45.2498 261.527 45.796 261.527 46.3859V47.7324C261.527 48.5223 261.666 49.1943 261.943 49.7483C262.225 50.3022 262.617 50.7254 263.12 51.0178C263.623 51.305 264.21 51.4487 264.882 51.4487C265.318 51.4487 265.715 51.3871 266.074 51.264C266.433 51.1358 266.744 50.946 267.005 50.6946C267.267 50.4433 267.467 50.133 267.606 49.7636L269.783 50.1561C269.609 50.7972 269.296 51.3589 268.844 51.8411C268.398 52.3181 267.836 52.69 267.159 52.9567C266.487 53.2183 265.721 53.3491 264.859 53.3491ZM273.784 41.2924L276.392 45.8935L279.024 41.2924H281.54L277.854 47.2015L281.571 53.1106H279.055L276.392 48.6942L273.738 53.1106H271.214L274.892 47.2015L271.26 41.2924H273.784ZM289.18 41.2924V43.139H282.725V41.2924H289.18ZM284.456 38.461H286.757V49.6405C286.757 50.0868 286.823 50.4228 286.957 50.6485C287.09 50.869 287.262 51.0204 287.472 51.1024C287.688 51.1794 287.921 51.2178 288.172 51.2178C288.357 51.2178 288.519 51.205 288.657 51.1794C288.796 51.1537 288.903 51.1332 288.98 51.1178L289.396 53.0183C289.262 53.0696 289.073 53.1209 288.826 53.1721C288.58 53.2286 288.272 53.2593 287.903 53.2645C287.298 53.2747 286.734 53.167 286.21 52.9413C285.687 52.7156 285.264 52.3668 284.941 51.8949C284.618 51.423 284.456 50.8306 284.456 50.1176V38.461ZM38.63 85.1106V73.2924H40.9306V85.1106H38.63ZM39.7918 71.4689C39.3917 71.4689 39.0481 71.3355 38.7608 71.0688C38.4787 70.797 38.3376 70.4738 38.3376 70.0993C38.3376 69.7198 38.4787 69.3966 38.7608 69.1299C39.0481 68.858 39.3917 68.7221 39.7918 68.7221C40.1919 68.7221 40.533 68.858 40.8151 69.1299C41.1024 69.3966 41.246 69.7198 41.246 70.0993C41.246 70.4738 41.1024 70.797 40.8151 71.0688C40.533 71.3355 40.1919 71.4689 39.7918 71.4689ZM46.0877 78.0936V85.1106H43.7872V73.2924H45.9954V75.2159H46.1416C46.4135 74.5902 46.8392 74.0875 47.4188 73.7079C48.0036 73.3283 48.7396 73.1385 49.627 73.1385C50.4324 73.1385 51.1376 73.3078 51.7429 73.6463C52.3482 73.9798 52.8175 74.4773 53.1509 75.139C53.4844 75.8007 53.6511 76.6188 53.6511 77.5934V85.1106H51.3505V77.8704C51.3505 77.0138 51.1274 76.3444 50.6811 75.8623C50.2349 75.375 49.6219 75.1313 48.8422 75.1313C48.3088 75.1313 47.8343 75.2467 47.4188 75.4775C47.0085 75.7084 46.6827 76.0469 46.4417 76.4932C46.2057 76.9343 46.0877 77.4678 46.0877 78.0936ZM62.1785 85.1106V69.353H64.479V75.2083H64.6175C64.7509 74.962 64.9432 74.6774 65.1945 74.3542C65.4459 74.031 65.7947 73.7489 66.241 73.5078C66.6872 73.2616 67.2771 73.1385 68.0106 73.1385C68.9647 73.1385 69.8162 73.3796 70.5651 73.8618C71.3139 74.3439 71.9013 75.039 72.327 75.9469C72.7579 76.8548 72.9733 77.9474 72.9733 79.2246C72.9733 80.5018 72.7604 81.5969 72.3347 82.51C71.909 83.4179 71.3242 84.1181 70.5804 84.6105C69.8367 85.0978 68.9878 85.3414 68.0337 85.3414C67.3156 85.3414 66.7282 85.2209 66.2717 84.9798C65.8203 84.7387 65.4664 84.4566 65.2099 84.1334C64.9535 83.8103 64.756 83.523 64.6175 83.2717H64.4251V85.1106H62.1785ZM64.4328 79.2015C64.4328 80.0325 64.5534 80.7608 64.7945 81.3866C65.0355 82.0124 65.3843 82.5023 65.8409 82.8562C66.2974 83.205 66.8565 83.3794 67.5182 83.3794C68.2055 83.3794 68.78 83.1973 69.2417 82.8331C69.7033 82.4638 70.0521 81.9637 70.2881 81.3328C70.5291 80.7019 70.6497 79.9914 70.6497 79.2015C70.6497 78.4218 70.5317 77.7217 70.2958 77.101C70.0649 76.4803 69.7161 75.9905 69.2494 75.6314C68.7877 75.2724 68.2106 75.0928 67.5182 75.0928C66.8514 75.0928 66.2871 75.2647 65.8255 75.6083C65.3689 75.952 65.0227 76.4316 64.7868 77.0471C64.5508 77.6627 64.4328 78.3808 64.4328 79.2015ZM78.7576 85.3722C78.0087 85.3722 77.3316 85.2337 76.7263 84.9567C76.121 84.6746 75.6414 84.2668 75.2875 83.7333C74.9387 83.1999 74.7643 82.5459 74.7643 81.7713C74.7643 81.1045 74.8925 80.5557 75.149 80.1248C75.4055 79.6939 75.7517 79.3528 76.1877 79.1015C76.6237 78.8501 77.111 78.6604 77.6496 78.5321C78.1882 78.4039 78.737 78.3064 79.2961 78.2397C80.004 78.1577 80.5785 78.091 81.0196 78.0397C81.4608 77.9833 81.7814 77.8935 81.9814 77.7704C82.1814 77.6473 82.2815 77.4472 82.2815 77.1703V77.1164C82.2815 76.4444 82.0917 75.9238 81.7121 75.5545C81.3377 75.1852 80.7785 75.0005 80.0348 75.0005C79.2602 75.0005 78.6498 75.1723 78.2036 75.516C77.7625 75.8546 77.4573 76.2316 77.288 76.6471L75.1259 76.1546C75.3824 75.4365 75.7568 74.8569 76.2493 74.4158C76.7468 73.9695 77.3188 73.6463 77.9651 73.4463C78.6114 73.2411 79.291 73.1385 80.004 73.1385C80.4759 73.1385 80.976 73.195 81.5044 73.3078C82.0378 73.4155 82.5354 73.6156 82.997 73.9079C83.4638 74.2003 83.8459 74.6184 84.1434 75.1621C84.441 75.7007 84.5897 76.4008 84.5897 77.2626V85.1106H82.343V83.4948H82.2507C82.1019 83.7923 81.8788 84.0847 81.5813 84.372C81.2838 84.6592 80.9017 84.8977 80.4349 85.0875C79.9681 85.2773 79.409 85.3722 78.7576 85.3722ZM79.2577 83.5256C79.8937 83.5256 80.4374 83.3999 80.8888 83.1486C81.3454 82.8973 81.6916 82.569 81.9275 82.1637C82.1686 81.7534 82.2892 81.3148 82.2892 80.848V79.3246C82.2071 79.4067 82.0481 79.4836 81.8121 79.5554C81.5813 79.6221 81.3171 79.6811 81.0196 79.7324C80.7221 79.7786 80.4323 79.8222 80.1502 79.8632C79.8681 79.8991 79.6321 79.9299 79.4423 79.9555C78.9961 80.012 78.5883 80.1068 78.219 80.2402C77.8548 80.3736 77.5624 80.5659 77.3418 80.8173C77.1264 81.0635 77.0187 81.3918 77.0187 81.8021C77.0187 82.3715 77.229 82.8024 77.6496 83.0947C78.0702 83.382 78.6062 83.5256 79.2577 83.5256ZM96.2715 76.1777L94.1864 76.547C94.0992 76.2803 93.9607 76.0264 93.7709 75.7853C93.5863 75.5442 93.3349 75.3467 93.0169 75.1929C92.6989 75.039 92.3013 74.962 91.8243 74.962C91.1729 74.962 90.6291 75.1082 90.1931 75.4006C89.7571 75.6879 89.5391 76.0597 89.5391 76.5163C89.5391 76.9112 89.6853 77.2292 89.9777 77.4703C90.2701 77.7114 90.742 77.9089 91.3934 78.0628L93.2708 78.4936C94.3582 78.745 95.1687 79.1323 95.7021 79.6555C96.2356 80.1787 96.5023 80.8583 96.5023 81.6944C96.5023 82.4023 96.2972 83.0332 95.8868 83.5872C95.4816 84.136 94.9148 84.5669 94.1864 84.8798C93.4631 85.1927 92.6245 85.3491 91.6704 85.3491C90.347 85.3491 89.2673 85.067 88.4312 84.5028C87.5951 83.9334 87.0821 83.1255 86.8924 82.0791L89.116 81.7406C89.2545 82.3202 89.5391 82.7588 89.97 83.0563C90.4009 83.3486 90.9626 83.4948 91.655 83.4948C92.4091 83.4948 93.0118 83.3384 93.4631 83.0255C93.9145 82.7075 94.1402 82.3202 94.1402 81.8637C94.1402 81.4944 94.0017 81.184 93.7247 80.9327C93.4529 80.6813 93.0348 80.4916 92.4706 80.3633L90.4701 79.9248C89.3673 79.6734 88.5517 79.2733 88.0234 78.7245C87.5002 78.1756 87.2386 77.4806 87.2386 76.6394C87.2386 75.9418 87.4335 75.3314 87.8234 74.8082C88.2132 74.285 88.7518 73.8772 89.4391 73.5848C90.1265 73.2873 90.9138 73.1385 91.8012 73.1385C93.0784 73.1385 94.0838 73.4155 94.8173 73.9695C95.5508 74.5183 96.0356 75.2544 96.2715 76.1777ZM98.7934 85.1106V73.2924H101.094V85.1106H98.7934ZM99.9553 71.4689C99.5552 71.4689 99.2115 71.3355 98.9242 71.0688C98.6421 70.797 98.5011 70.4738 98.5011 70.0993C98.5011 69.7198 98.6421 69.3966 98.9242 69.1299C99.2115 68.858 99.5552 68.7221 99.9553 68.7221C100.355 68.7221 100.696 68.858 100.979 69.1299C101.266 69.3966 101.409 69.7198 101.409 70.0993C101.409 70.4738 101.266 70.797 100.979 71.0688C100.696 71.3355 100.355 71.4689 99.9553 71.4689ZM108.929 85.3491C107.785 85.3491 106.8 85.0901 105.974 84.572C105.153 84.0488 104.523 83.3281 104.081 82.41C103.64 81.4918 103.42 80.4403 103.42 79.2554C103.42 78.0551 103.645 76.9959 104.097 76.0777C104.548 75.1544 105.184 74.4337 106.005 73.9156C106.826 73.3976 107.793 73.1385 108.906 73.1385C109.803 73.1385 110.603 73.3052 111.306 73.6386C112.009 73.9669 112.576 74.4286 113.007 75.0236C113.443 75.6186 113.702 76.3136 113.784 77.1087H111.545C111.422 76.5547 111.139 76.0777 110.698 75.6776C110.262 75.2775 109.678 75.0775 108.944 75.0775C108.303 75.0775 107.741 75.2467 107.259 75.5853C106.782 75.9187 106.41 76.3957 106.143 77.0164C105.877 77.6319 105.743 78.3603 105.743 79.2015C105.743 80.0632 105.874 80.807 106.136 81.4328C106.397 82.0586 106.767 82.5433 107.244 82.887C107.726 83.2307 108.293 83.4025 108.944 83.4025C109.38 83.4025 109.775 83.323 110.129 83.164C110.488 82.9998 110.788 82.7665 111.029 82.4638C111.275 82.1612 111.447 81.797 111.545 81.3712H113.784C113.702 82.1355 113.453 82.8177 113.037 83.4179C112.622 84.018 112.065 84.4899 111.368 84.8336C110.675 85.1773 109.862 85.3491 108.929 85.3491ZM124.862 76.1777L122.776 76.547C122.689 76.2803 122.551 76.0264 122.361 75.7853C122.176 75.5442 121.925 75.3467 121.607 75.1929C121.289 75.039 120.891 74.962 120.414 74.962C119.763 74.962 119.219 75.1082 118.783 75.4006C118.347 75.6879 118.129 76.0597 118.129 76.5163C118.129 76.9112 118.275 77.2292 118.568 77.4703C118.86 77.7114 119.332 77.9089 119.983 78.0628L121.861 78.4936C122.948 78.745 123.759 79.1323 124.292 79.6555C124.826 80.1787 125.092 80.8583 125.092 81.6944C125.092 82.4023 124.887 83.0332 124.477 83.5872C124.072 84.136 123.505 84.5669 122.776 84.8798C122.053 85.1927 121.214 85.3491 120.26 85.3491C118.937 85.3491 117.857 85.067 117.021 84.5028C116.185 83.9334 115.672 83.1255 115.482 82.0791L117.706 81.7406C117.844 82.3202 118.129 82.7588 118.56 83.0563C118.991 83.3486 119.553 83.4948 120.245 83.4948C120.999 83.4948 121.602 83.3384 122.053 83.0255C122.505 82.7075 122.73 82.3202 122.73 81.8637C122.73 81.4944 122.592 81.184 122.315 80.9327C122.043 80.6813 121.625 80.4916 121.061 80.3633L119.06 79.9248C117.957 79.6734 117.142 79.2733 116.613 78.7245C116.09 78.1756 115.829 77.4806 115.829 76.6394C115.829 75.9418 116.024 75.3314 116.413 74.8082C116.803 74.285 117.342 73.8772 118.029 73.5848C118.716 73.2873 119.504 73.1385 120.391 73.1385C121.668 73.1385 122.674 73.4155 123.407 73.9695C124.141 74.5183 124.626 75.2544 124.862 76.1777ZM132.879 89.5424V73.2924H135.126V75.2083H135.318C135.452 74.962 135.644 74.6774 135.895 74.3542C136.147 74.031 136.495 73.7489 136.942 73.5078C137.388 73.2616 137.978 73.1385 138.711 73.1385C139.665 73.1385 140.517 73.3796 141.266 73.8618C142.015 74.3439 142.602 75.039 143.028 75.9469C143.459 76.8548 143.674 77.9474 143.674 79.2246C143.674 80.5018 143.461 81.5969 143.035 82.51C142.61 83.4179 142.025 84.1181 141.281 84.6105C140.537 85.0978 139.688 85.3414 138.734 85.3414C138.016 85.3414 137.429 85.2209 136.972 84.9798C136.521 84.7387 136.167 84.4566 135.911 84.1334C135.654 83.8103 135.457 83.523 135.318 83.2717H135.18V89.5424H132.879ZM135.134 79.2015C135.134 80.0325 135.254 80.7608 135.495 81.3866C135.736 82.0124 136.085 82.5023 136.542 82.8562C136.998 83.205 137.557 83.3794 138.219 83.3794C138.906 83.3794 139.481 83.1973 139.942 82.8331C140.404 82.4638 140.753 81.9637 140.989 81.3328C141.23 80.7019 141.35 79.9914 141.35 79.2015C141.35 78.4218 141.232 77.7217 140.996 77.101C140.766 76.4803 140.417 75.9905 139.95 75.6314C139.488 75.2724 138.911 75.0928 138.219 75.0928C137.552 75.0928 136.988 75.2647 136.526 75.6083C136.07 75.952 135.723 76.4316 135.487 77.0471C135.252 77.6627 135.134 78.3808 135.134 79.2015ZM149.453 85.3722C148.704 85.3722 148.027 85.2337 147.421 84.9567C146.816 84.6746 146.336 84.2668 145.982 83.7333C145.634 83.1999 145.459 82.5459 145.459 81.7713C145.459 81.1045 145.587 80.5557 145.844 80.1248C146.1 79.6939 146.447 79.3528 146.883 79.1015C147.319 78.8501 147.806 78.6604 148.345 78.5321C148.883 78.4039 149.432 78.3064 149.991 78.2397C150.699 78.1577 151.273 78.091 151.715 78.0397C152.156 77.9833 152.476 77.8935 152.676 77.7704C152.876 77.6473 152.976 77.4472 152.976 77.1703V77.1164C152.976 76.4444 152.787 75.9238 152.407 75.5545C152.033 75.1852 151.473 75.0005 150.73 75.0005C149.955 75.0005 149.345 75.1723 148.899 75.516C148.457 75.8546 148.152 76.2316 147.983 76.6471L145.821 76.1546C146.077 75.4365 146.452 74.8569 146.944 74.4158C147.442 73.9695 148.014 73.6463 148.66 73.4463C149.306 73.2411 149.986 73.1385 150.699 73.1385C151.171 73.1385 151.671 73.195 152.199 73.3078C152.733 73.4155 153.23 73.6156 153.692 73.9079C154.159 74.2003 154.541 74.6184 154.838 75.1621C155.136 75.7007 155.285 76.4008 155.285 77.2626V85.1106H153.038V83.4948H152.946C152.797 83.7923 152.574 84.0847 152.276 84.372C151.979 84.6592 151.597 84.8977 151.13 85.0875C150.663 85.2773 150.104 85.3722 149.453 85.3722ZM149.953 83.5256C150.589 83.5256 151.132 83.3999 151.584 83.1486C152.04 82.8973 152.387 82.569 152.622 82.1637C152.864 81.7534 152.984 81.3148 152.984 80.848V79.3246C152.902 79.4067 152.743 79.4836 152.507 79.5554C152.276 79.6221 152.012 79.6811 151.715 79.7324C151.417 79.7786 151.127 79.8222 150.845 79.8632C150.563 79.8991 150.327 79.9299 150.137 79.9555C149.691 80.012 149.283 80.1068 148.914 80.2402C148.55 80.3736 148.257 80.5659 148.037 80.8173C147.821 81.0635 147.714 81.3918 147.714 81.8021C147.714 82.3715 147.924 82.8024 148.345 83.0947C148.765 83.382 149.301 83.5256 149.953 83.5256ZM158.111 85.1106V73.2924H160.334V75.1698H160.457C160.673 74.5337 161.052 74.0336 161.596 73.6694C162.145 73.3001 162.765 73.1154 163.458 73.1154C163.602 73.1154 163.771 73.1206 163.966 73.1308C164.166 73.1411 164.322 73.1539 164.435 73.1693V75.3698C164.343 75.3442 164.179 75.316 163.943 75.2852C163.707 75.2493 163.471 75.2313 163.235 75.2313C162.691 75.2313 162.206 75.3467 161.781 75.5776C161.36 75.8033 161.027 76.1187 160.78 76.5239C160.534 76.924 160.411 77.3806 160.411 77.8935V85.1106H158.111ZM172.403 73.2924V75.139H165.947V73.2924H172.403ZM167.678 70.461H169.979V81.6405C169.979 82.0868 170.046 82.4228 170.179 82.6485C170.312 82.869 170.484 83.0204 170.694 83.1024C170.91 83.1794 171.143 83.2178 171.395 83.2178C171.579 83.2178 171.741 83.205 171.879 83.1794C172.018 83.1537 172.126 83.1332 172.202 83.1178L172.618 85.0183C172.485 85.0696 172.295 85.1209 172.049 85.1721C171.802 85.2286 171.495 85.2593 171.125 85.2645C170.52 85.2747 169.956 85.167 169.433 84.9413C168.909 84.7156 168.486 84.3668 168.163 83.8949C167.84 83.423 167.678 82.8306 167.678 82.1176V70.461ZM176.225 85.2568C175.804 85.2568 175.443 85.108 175.14 84.8105C174.837 84.5079 174.686 84.1437 174.686 83.718C174.686 83.2973 174.837 82.9383 175.14 82.6408C175.443 82.3381 175.804 82.1868 176.225 82.1868C176.645 82.1868 177.007 82.3381 177.31 82.6408C177.612 82.9383 177.764 83.2973 177.764 83.718C177.764 84.0001 177.692 84.2591 177.548 84.4951C177.41 84.7259 177.225 84.9105 176.994 85.049C176.763 85.1875 176.507 85.2568 176.225 85.2568ZM188.411 69.353V85.1106H186.033V69.353H188.411ZM196.967 73.2924V75.139H190.511V73.2924H196.967ZM192.243 70.461H194.543V81.6405C194.543 82.0868 194.61 82.4228 194.743 82.6485C194.877 82.869 195.048 83.0204 195.259 83.1024C195.474 83.1794 195.708 83.2178 195.959 83.2178C196.144 83.2178 196.305 83.205 196.444 83.1794C196.582 83.1537 196.69 83.1332 196.767 83.1178L197.182 85.0183C197.049 85.0696 196.859 85.1209 196.613 85.1721C196.367 85.2286 196.059 85.2593 195.69 85.2645C195.084 85.2747 194.52 85.167 193.997 84.9413C193.474 84.7156 193.05 84.3668 192.727 83.8949C192.404 83.423 192.243 82.8306 192.243 82.1176V70.461ZM201.843 69.353V70.8303C201.843 71.2663 201.761 71.7254 201.597 72.2075C201.438 72.6846 201.212 73.1437 200.92 73.5848C200.627 74.0259 200.284 74.4055 199.889 74.7235L198.75 73.9079C199.053 73.4668 199.314 72.9975 199.535 72.4999C199.761 72.0024 199.873 71.4535 199.873 70.8534V69.353H201.843ZM211.192 76.1777L209.107 76.547C209.019 76.2803 208.881 76.0264 208.691 75.7853C208.506 75.5442 208.255 75.3467 207.937 75.1929C207.619 75.039 207.222 74.962 206.744 74.962C206.093 74.962 205.549 75.1082 205.113 75.4006C204.677 75.6879 204.459 76.0597 204.459 76.5163C204.459 76.9112 204.606 77.2292 204.898 77.4703C205.19 77.7114 205.662 77.9089 206.314 78.0628L208.191 78.4936C209.278 78.745 210.089 79.1323 210.622 79.6555C211.156 80.1787 211.423 80.8583 211.423 81.6944C211.423 82.4023 211.217 83.0332 210.807 83.5872C210.402 84.136 209.835 84.5669 209.107 84.8798C208.383 85.1927 207.545 85.3491 206.591 85.3491C205.267 85.3491 204.187 85.067 203.351 84.5028C202.515 83.9334 202.002 83.1255 201.813 82.0791L204.036 81.7406C204.175 82.3202 204.459 82.7588 204.89 83.0563C205.321 83.3486 205.883 83.4948 206.575 83.4948C207.329 83.4948 207.932 83.3384 208.383 83.0255C208.835 82.7075 209.06 82.3202 209.06 81.8637C209.06 81.4944 208.922 81.184 208.645 80.9327C208.373 80.6813 207.955 80.4916 207.391 80.3633L205.39 79.9248C204.287 79.6734 203.472 79.2733 202.944 78.7245C202.42 78.1756 202.159 77.4806 202.159 76.6394C202.159 75.9418 202.354 75.3314 202.744 74.8082C203.133 74.285 203.672 73.8772 204.359 73.5848C205.047 73.2873 205.834 73.1385 206.721 73.1385C207.999 73.1385 209.004 73.4155 209.737 73.9695C210.471 74.5183 210.956 75.2544 211.192 76.1777ZM224.726 73.2924V75.139H218.271V73.2924H224.726ZM220.002 70.461H222.302V81.6405C222.302 82.0868 222.369 82.4228 222.502 82.6485C222.636 82.869 222.808 83.0204 223.018 83.1024C223.233 83.1794 223.467 83.2178 223.718 83.2178C223.903 83.2178 224.064 83.205 224.203 83.1794C224.341 83.1537 224.449 83.1332 224.526 83.1178L224.941 85.0183C224.808 85.0696 224.618 85.1209 224.372 85.1721C224.126 85.2286 223.818 85.2593 223.449 85.2645C222.844 85.2747 222.279 85.167 221.756 84.9413C221.233 84.7156 220.81 84.3668 220.487 83.8949C220.163 83.423 220.002 82.8306 220.002 82.1176V70.461ZM230.472 85.3722C229.723 85.3722 229.046 85.2337 228.441 84.9567C227.835 84.6746 227.356 84.2668 227.002 83.7333C226.653 83.1999 226.479 82.5459 226.479 81.7713C226.479 81.1045 226.607 80.5557 226.863 80.1248C227.12 79.6939 227.466 79.3528 227.902 79.1015C228.338 78.8501 228.825 78.6604 229.364 78.5321C229.902 78.4039 230.451 78.3064 231.01 78.2397C231.718 78.1577 232.293 78.091 232.734 78.0397C233.175 77.9833 233.496 77.8935 233.696 77.7704C233.896 77.6473 233.996 77.4472 233.996 77.1703V77.1164C233.996 76.4444 233.806 75.9238 233.426 75.5545C233.052 75.1852 232.493 75.0005 231.749 75.0005C230.974 75.0005 230.364 75.1723 229.918 75.516C229.477 75.8546 229.171 76.2316 229.002 76.6471L226.84 76.1546C227.097 75.4365 227.471 74.8569 227.964 74.4158C228.461 73.9695 229.033 73.6463 229.679 73.4463C230.326 73.2411 231.005 73.1385 231.718 73.1385C232.19 73.1385 232.69 73.195 233.219 73.3078C233.752 73.4155 234.25 73.6156 234.711 73.9079C235.178 74.2003 235.56 74.6184 235.858 75.1621C236.155 75.7007 236.304 76.4008 236.304 77.2626V85.1106H234.057V83.4948H233.965C233.816 83.7923 233.593 84.0847 233.296 84.372C232.998 84.6592 232.616 84.8977 232.149 85.0875C231.682 85.2773 231.123 85.3722 230.472 85.3722ZM230.972 83.5256C231.608 83.5256 232.152 83.3999 232.603 83.1486C233.06 82.8973 233.406 82.569 233.642 82.1637C233.883 81.7534 234.003 81.3148 234.003 80.848V79.3246C233.921 79.4067 233.762 79.4836 233.526 79.5554C233.296 79.6221 233.031 79.6811 232.734 79.7324C232.436 79.7786 232.147 79.8222 231.864 79.8632C231.582 79.8991 231.346 79.9299 231.157 79.9555C230.71 80.012 230.303 80.1068 229.933 80.2402C229.569 80.3736 229.277 80.5659 229.056 80.8173C228.841 81.0635 228.733 81.3918 228.733 81.8021C228.733 82.3715 228.943 82.8024 229.364 83.0947C229.784 83.382 230.32 83.5256 230.972 83.5256ZM241.246 81.102L241.23 78.2936H241.63L246.339 73.2924H249.094L243.723 78.9861H243.362L241.246 81.102ZM239.13 85.1106V69.353H241.43V85.1106H239.13ZM246.593 85.1106L242.361 79.4939L243.946 77.8858L249.417 85.1106H246.593ZM250.952 85.1106V73.2924H253.253V85.1106H250.952ZM252.114 71.4689C251.714 71.4689 251.37 71.3355 251.083 71.0688C250.801 70.797 250.66 70.4738 250.66 70.0993C250.66 69.7198 250.801 69.3966 251.083 69.1299C251.37 68.858 251.714 68.7221 252.114 68.7221C252.514 68.7221 252.855 68.858 253.137 69.1299C253.424 69.3966 253.568 69.7198 253.568 70.0993C253.568 70.4738 253.424 70.797 253.137 71.0688C252.855 71.3355 252.514 71.4689 252.114 71.4689ZM258.41 78.0936V85.1106H256.109V73.2924H258.317V75.2159H258.464C258.735 74.5902 259.161 74.0875 259.741 73.7079C260.326 73.3283 261.062 73.1385 261.949 73.1385C262.754 73.1385 263.46 73.3078 264.065 73.6463C264.67 73.9798 265.14 74.4773 265.473 75.139C265.806 75.8007 265.973 76.6188 265.973 77.5934V85.1106H263.673V77.8704C263.673 77.0138 263.449 76.3444 263.003 75.8623C262.557 75.375 261.944 75.1313 261.164 75.1313C260.631 75.1313 260.156 75.2467 259.741 75.4775C259.33 75.7084 259.005 76.0469 258.764 76.4932C258.528 76.9343 258.41 77.4678 258.41 78.0936ZM273.775 89.7886C272.836 89.7886 272.029 89.6655 271.351 89.4193C270.679 89.1731 270.131 88.8474 269.705 88.4422C269.279 88.0369 268.961 87.5932 268.751 87.1111L270.728 86.2955C270.867 86.5212 271.051 86.7597 271.282 87.011C271.518 87.2675 271.836 87.4855 272.236 87.665C272.641 87.8446 273.162 87.9343 273.798 87.9343C274.67 87.9343 275.391 87.7215 275.96 87.2957C276.53 86.8751 276.814 86.2032 276.814 85.2799V82.9562H276.668C276.53 83.2076 276.33 83.4871 276.068 83.7949C275.811 84.1027 275.458 84.3694 275.006 84.5951C274.555 84.8208 273.967 84.9336 273.244 84.9336C272.311 84.9336 271.469 84.7156 270.721 84.2796C269.977 83.8385 269.387 83.1896 268.951 82.333C268.52 81.4713 268.305 80.412 268.305 79.1553C268.305 77.8986 268.517 76.8215 268.943 75.9238C269.374 75.0262 269.964 74.3388 270.713 73.8618C271.462 73.3796 272.311 73.1385 273.26 73.1385C273.993 73.1385 274.586 73.2616 275.037 73.5078C275.488 73.7489 275.84 74.031 276.091 74.3542C276.347 74.6774 276.545 74.962 276.683 75.2083H276.853V73.2924H279.107V85.3722C279.107 86.3878 278.871 87.2214 278.399 87.8728C277.927 88.5242 277.289 89.0064 276.483 89.3193C275.683 89.6322 274.78 89.7886 273.775 89.7886ZM273.752 83.0255C274.414 83.0255 274.973 82.8716 275.429 82.5638C275.891 82.2509 276.24 81.8047 276.476 81.2251C276.717 80.6403 276.837 79.9401 276.837 79.1246C276.837 78.3295 276.719 77.6293 276.483 77.0241C276.247 76.4188 275.901 75.9469 275.445 75.6083C274.988 75.2647 274.424 75.0928 273.752 75.0928C273.06 75.0928 272.482 75.2724 272.021 75.6314C271.559 75.9854 271.21 76.4675 270.974 77.0779C270.744 77.6883 270.628 78.3705 270.628 79.1246C270.628 79.8991 270.746 80.5788 270.982 81.1635C271.218 81.7483 271.567 82.2048 272.029 82.5331C272.495 82.8613 273.07 83.0255 273.752 83.0255ZM38.63 117.111V105.292H40.8382V107.216H40.9844C41.2306 106.565 41.6333 106.057 42.1924 105.693C42.7515 105.323 43.4209 105.139 44.2006 105.139C44.9905 105.139 45.6522 105.323 46.1857 105.693C46.7242 106.062 47.1218 106.57 47.3782 107.216H47.5013C47.7835 106.585 48.2323 106.082 48.8478 105.708C49.4633 105.328 50.1969 105.139 51.0483 105.139C52.1204 105.139 52.995 105.475 53.672 106.146C54.3543 106.818 54.6954 107.831 54.6954 109.186V117.111H52.3948V109.401C52.3948 108.601 52.1768 108.021 51.7408 107.662C51.3048 107.303 50.7842 107.124 50.1789 107.124C49.43 107.124 48.8478 107.354 48.4323 107.816C48.0169 108.273 47.8091 108.86 47.8091 109.578V117.111H45.5163V109.255C45.5163 108.614 45.3162 108.098 44.9161 107.708C44.516 107.319 43.9954 107.124 43.3542 107.124C42.9182 107.124 42.5156 107.239 42.1462 107.47C41.782 107.696 41.4871 108.011 41.2614 108.416C41.0408 108.821 40.9306 109.291 40.9306 109.824V117.111H38.63ZM62.634 117.349C61.4696 117.349 60.4668 117.1 59.6256 116.603C58.7895 116.1 58.1432 115.395 57.6866 114.487C57.2352 113.574 57.0096 112.504 57.0096 111.278C57.0096 110.068 57.2352 109.001 57.6866 108.078C58.1432 107.154 58.7792 106.434 59.5948 105.916C60.4155 105.398 61.3747 105.139 62.4724 105.139C63.1392 105.139 63.7855 105.249 64.4113 105.469C65.0371 105.69 65.5988 106.036 66.0963 106.508C66.5939 106.98 66.9863 107.593 67.2735 108.347C67.5608 109.096 67.7044 110.006 67.7044 111.078V111.894H58.3099V110.17H65.45C65.45 109.565 65.3269 109.029 65.0807 108.562C64.8345 108.091 64.4882 107.719 64.042 107.447C63.6009 107.175 63.0828 107.039 62.4878 107.039C61.8415 107.039 61.2772 107.198 60.7951 107.516C60.318 107.829 59.9487 108.239 59.6871 108.747C59.4306 109.25 59.3024 109.796 59.3024 110.386V111.732C59.3024 112.522 59.4409 113.194 59.7179 113.748C60 114.302 60.3924 114.725 60.8951 115.018C61.3978 115.305 61.9851 115.449 62.657 115.449C63.093 115.449 63.4906 115.387 63.8496 115.264C64.2087 115.136 64.519 114.946 64.7806 114.695C65.0422 114.443 65.2423 114.133 65.3808 113.764L67.5582 114.156C67.3838 114.797 67.0709 115.359 66.6195 115.841C66.1733 116.318 65.6116 116.69 64.9345 116.957C64.2625 117.218 63.4957 117.349 62.634 117.349ZM84.3702 108.178L82.2851 108.547C82.1979 108.28 82.0594 108.026 81.8696 107.785C81.685 107.544 81.4336 107.347 81.1156 107.193C80.7976 107.039 80.4001 106.962 79.923 106.962C79.2716 106.962 78.7279 107.108 78.2919 107.401C77.8559 107.688 77.6379 108.06 77.6379 108.516C77.6379 108.911 77.7841 109.229 78.0764 109.47C78.3688 109.711 78.8407 109.909 79.4922 110.063L81.3695 110.494C82.457 110.745 83.2674 111.132 83.8009 111.655C84.3343 112.179 84.6011 112.858 84.6011 113.694C84.6011 114.402 84.3959 115.033 83.9855 115.587C83.5803 116.136 83.0135 116.567 82.2851 116.88C81.5619 117.193 80.7232 117.349 79.7692 117.349C78.4458 117.349 77.366 117.067 76.5299 116.503C75.6938 115.933 75.1809 115.126 74.9911 114.079L77.2147 113.741C77.3532 114.32 77.6379 114.759 78.0687 115.056C78.4996 115.349 79.0613 115.495 79.7538 115.495C80.5078 115.495 81.1105 115.338 81.5619 115.025C82.0133 114.707 82.239 114.32 82.239 113.864C82.239 113.494 82.1005 113.184 81.8235 112.933C81.5516 112.681 81.1336 112.492 80.5693 112.363L78.5689 111.925C77.466 111.673 76.6505 111.273 76.1221 110.724C75.5989 110.176 75.3373 109.481 75.3373 108.639C75.3373 107.942 75.5323 107.331 75.9221 106.808C76.3119 106.285 76.8505 105.877 77.5379 105.585C78.2252 105.287 79.0126 105.139 79.9 105.139C81.1772 105.139 82.1825 105.416 82.916 105.969C83.6496 106.518 84.1343 107.254 84.3702 108.178ZM91.8703 117.349C90.7623 117.349 89.7954 117.095 88.9696 116.587C88.1438 116.08 87.5026 115.369 87.0461 114.456C86.5895 113.543 86.3613 112.476 86.3613 111.255C86.3613 110.029 86.5895 108.957 87.0461 108.039C87.5026 107.121 88.1438 106.408 88.9696 105.9C89.7954 105.392 90.7623 105.139 91.8703 105.139C92.9782 105.139 93.9451 105.392 94.771 105.9C95.5968 106.408 96.238 107.121 96.6945 108.039C97.151 108.957 97.3793 110.029 97.3793 111.255C97.3793 112.476 97.151 113.543 96.6945 114.456C96.238 115.369 95.5968 116.08 94.771 116.587C93.9451 117.095 92.9782 117.349 91.8703 117.349ZM91.878 115.418C92.5961 115.418 93.1911 115.228 93.663 114.849C94.1349 114.469 94.4837 113.964 94.7094 113.333C94.9402 112.702 95.0556 112.007 95.0556 111.248C95.0556 110.494 94.9402 109.801 94.7094 109.17C94.4837 108.534 94.1349 108.024 93.663 107.639C93.1911 107.254 92.5961 107.062 91.878 107.062C91.1547 107.062 90.5546 107.254 90.0775 107.639C89.6056 108.024 89.2543 108.534 89.0235 109.17C88.7978 109.801 88.6849 110.494 88.6849 111.248C88.6849 112.007 88.7978 112.702 89.0235 113.333C89.2543 113.964 89.6056 114.469 90.0775 114.849C90.5546 115.228 91.1547 115.418 91.878 115.418ZM99.7089 117.111V105.292H101.917V107.216H102.063C102.309 106.565 102.712 106.057 103.271 105.693C103.83 105.323 104.5 105.139 105.279 105.139C106.069 105.139 106.731 105.323 107.264 105.693C107.803 106.062 108.201 106.57 108.457 107.216H108.58C108.862 106.585 109.311 106.082 109.927 105.708C110.542 105.328 111.276 105.139 112.127 105.139C113.199 105.139 114.074 105.475 114.751 106.146C115.433 106.818 115.774 107.831 115.774 109.186V117.111H113.474V109.401C113.474 108.601 113.256 108.021 112.82 107.662C112.384 107.303 111.863 107.124 111.258 107.124C110.509 107.124 109.927 107.354 109.511 107.816C109.096 108.273 108.888 108.86 108.888 109.578V117.111H106.595V109.255C106.595 108.614 106.395 108.098 105.995 107.708C105.595 107.319 105.074 107.124 104.433 107.124C103.997 107.124 103.594 107.239 103.225 107.47C102.861 107.696 102.566 108.011 102.34 108.416C102.12 108.821 102.009 109.291 102.009 109.824V117.111H99.7089ZM123.713 117.349C122.548 117.349 121.546 117.1 120.704 116.603C119.868 116.1 119.222 115.395 118.765 114.487C118.314 113.574 118.088 112.504 118.088 111.278C118.088 110.068 118.314 109.001 118.765 108.078C119.222 107.154 119.858 106.434 120.674 105.916C121.494 105.398 122.454 105.139 123.551 105.139C124.218 105.139 124.864 105.249 125.49 105.469C126.116 105.69 126.678 106.036 127.175 106.508C127.673 106.98 128.065 107.593 128.352 108.347C128.64 109.096 128.783 110.006 128.783 111.078V111.894H119.389V110.17H126.529C126.529 109.565 126.406 109.029 126.16 108.562C125.913 108.091 125.567 107.719 125.121 107.447C124.68 107.175 124.162 107.039 123.567 107.039C122.92 107.039 122.356 107.198 121.874 107.516C121.397 107.829 121.028 108.239 120.766 108.747C120.509 109.25 120.381 109.796 120.381 110.386V111.732C120.381 112.522 120.52 113.194 120.797 113.748C121.079 114.302 121.471 114.725 121.974 115.018C122.477 115.305 123.064 115.449 123.736 115.449C124.172 115.449 124.569 115.387 124.928 115.264C125.288 115.136 125.598 114.946 125.859 114.695C126.121 114.443 126.321 114.133 126.46 113.764L128.637 114.156C128.463 114.797 128.15 115.359 127.698 115.841C127.252 116.318 126.69 116.69 126.013 116.957C125.341 117.218 124.575 117.349 123.713 117.349ZM142.11 105.292V107.139H135.654V105.292H142.11ZM137.386 102.461H139.686V113.641C139.686 114.087 139.753 114.423 139.886 114.648C140.02 114.869 140.191 115.02 140.402 115.102C140.617 115.179 140.851 115.218 141.102 115.218C141.287 115.218 141.448 115.205 141.587 115.179C141.725 115.154 141.833 115.133 141.91 115.118L142.325 117.018C142.192 117.07 142.002 117.121 141.756 117.172C141.51 117.229 141.202 117.259 140.833 117.264C140.227 117.275 139.663 117.167 139.14 116.941C138.617 116.716 138.194 116.367 137.87 115.895C137.547 115.423 137.386 114.831 137.386 114.118V102.461ZM144.416 117.111V105.292H146.717V117.111H144.416ZM145.578 103.469C145.178 103.469 144.834 103.336 144.547 103.069C144.265 102.797 144.124 102.474 144.124 102.099C144.124 101.72 144.265 101.397 144.547 101.13C144.834 100.858 145.178 100.722 145.578 100.722C145.978 100.722 146.319 100.858 146.601 101.13C146.889 101.397 147.032 101.72 147.032 102.099C147.032 102.474 146.889 102.797 146.601 103.069C146.319 103.336 145.978 103.469 145.578 103.469ZM149.573 117.111V105.292H151.782V107.216H151.928C152.174 106.565 152.577 106.057 153.136 105.693C153.695 105.323 154.364 105.139 155.144 105.139C155.934 105.139 156.596 105.323 157.129 105.693C157.668 106.062 158.065 106.57 158.322 107.216H158.445C158.727 106.585 159.176 106.082 159.791 105.708C160.407 105.328 161.14 105.139 161.992 105.139C163.064 105.139 163.938 105.475 164.616 106.146C165.298 106.818 165.639 107.831 165.639 109.186V117.111H163.338V109.401C163.338 108.601 163.12 108.021 162.684 107.662C162.248 107.303 161.728 107.124 161.122 107.124C160.373 107.124 159.791 107.354 159.376 107.816C158.96 108.273 158.753 108.86 158.753 109.578V117.111H156.46V109.255C156.46 108.614 156.26 108.098 155.86 107.708C155.46 107.319 154.939 107.124 154.298 107.124C153.862 107.124 153.459 107.239 153.09 107.47C152.726 107.696 152.431 108.011 152.205 108.416C151.984 108.821 151.874 109.291 151.874 109.824V117.111H149.573ZM173.577 117.349C172.413 117.349 171.41 117.1 170.569 116.603C169.733 116.1 169.087 115.395 168.63 114.487C168.179 113.574 167.953 112.504 167.953 111.278C167.953 110.068 168.179 109.001 168.63 108.078C169.087 107.154 169.723 106.434 170.538 105.916C171.359 105.398 172.318 105.139 173.416 105.139C174.083 105.139 174.729 105.249 175.355 105.469C175.981 105.69 176.542 106.036 177.04 106.508C177.537 106.98 177.93 107.593 178.217 108.347C178.504 109.096 178.648 110.006 178.648 111.078V111.894H169.253V110.17H176.393C176.393 109.565 176.27 109.029 176.024 108.562C175.778 108.091 175.432 107.719 174.985 107.447C174.544 107.175 174.026 107.039 173.431 107.039C172.785 107.039 172.221 107.198 171.739 107.516C171.262 107.829 170.892 108.239 170.631 108.747C170.374 109.25 170.246 109.796 170.246 110.386V111.732C170.246 112.522 170.384 113.194 170.661 113.748C170.943 114.302 171.336 114.725 171.839 115.018C172.341 115.305 172.929 115.449 173.601 115.449C174.037 115.449 174.434 115.387 174.793 115.264C175.152 115.136 175.463 114.946 175.724 114.695C175.986 114.443 176.186 114.133 176.324 113.764L178.502 114.156C178.327 114.797 178.014 115.359 177.563 115.841C177.117 116.318 176.555 116.69 175.878 116.957C175.206 117.218 174.439 117.349 173.577 117.349ZM191.974 105.292V107.139H185.519V105.292H191.974ZM187.25 102.461H189.551V113.641C189.551 114.087 189.618 114.423 189.751 114.648C189.884 114.869 190.056 115.02 190.266 115.102C190.482 115.179 190.715 115.218 190.967 115.218C191.151 115.218 191.313 115.205 191.451 115.179C191.59 115.154 191.697 115.133 191.774 115.118L192.19 117.018C192.057 117.07 191.867 117.121 191.621 117.172C191.374 117.229 191.067 117.259 190.697 117.264C190.092 117.275 189.528 117.167 189.005 116.941C188.481 116.716 188.058 116.367 187.735 115.895C187.412 115.423 187.25 114.831 187.25 114.118V102.461ZM199.132 117.349C198.024 117.349 197.057 117.095 196.231 116.587C195.406 116.08 194.764 115.369 194.308 114.456C193.851 113.543 193.623 112.476 193.623 111.255C193.623 110.029 193.851 108.957 194.308 108.039C194.764 107.121 195.406 106.408 196.231 105.9C197.057 105.392 198.024 105.139 199.132 105.139C200.24 105.139 201.207 105.392 202.033 105.9C202.859 106.408 203.5 107.121 203.956 108.039C204.413 108.957 204.641 110.029 204.641 111.255C204.641 112.476 204.413 113.543 203.956 114.456C203.5 115.369 202.859 116.08 202.033 116.587C201.207 117.095 200.24 117.349 199.132 117.349ZM199.14 115.418C199.858 115.418 200.453 115.228 200.925 114.849C201.397 114.469 201.746 113.964 201.971 113.333C202.202 112.702 202.317 112.007 202.317 111.248C202.317 110.494 202.202 109.801 201.971 109.17C201.746 108.534 201.397 108.024 200.925 107.639C200.453 107.254 199.858 107.062 199.14 107.062C198.417 107.062 197.816 107.254 197.339 107.639C196.867 108.024 196.516 108.534 196.285 109.17C196.06 109.801 195.947 110.494 195.947 111.248C195.947 112.007 196.06 112.702 196.285 113.333C196.516 113.964 196.867 114.469 197.339 114.849C197.816 115.228 198.417 115.418 199.14 115.418ZM218.091 105.292V107.139H211.412V105.292H218.091ZM213.244 117.111V103.923C213.244 103.184 213.405 102.571 213.728 102.084C214.051 101.592 214.48 101.225 215.013 100.984C215.547 100.737 216.126 100.614 216.752 100.614C217.214 100.614 217.609 100.653 217.937 100.73C218.265 100.802 218.509 100.868 218.668 100.93L218.129 102.792C218.022 102.761 217.883 102.725 217.714 102.684C217.545 102.638 217.339 102.615 217.098 102.615C216.539 102.615 216.139 102.753 215.898 103.03C215.662 103.307 215.544 103.707 215.544 104.231V117.111H213.244ZM220.226 117.111V105.292H222.527V117.111H220.226ZM221.388 103.469C220.988 103.469 220.644 103.336 220.357 103.069C220.075 102.797 219.934 102.474 219.934 102.099C219.934 101.72 220.075 101.397 220.357 101.13C220.644 100.858 220.988 100.722 221.388 100.722C221.788 100.722 222.129 100.858 222.411 101.13C222.699 101.397 222.842 101.72 222.842 102.099C222.842 102.474 222.699 102.797 222.411 103.069C222.129 103.336 221.788 103.469 221.388 103.469ZM227.684 110.094V117.111H225.383V105.292H227.592V107.216H227.738C228.01 106.59 228.435 106.087 229.015 105.708C229.6 105.328 230.336 105.139 231.223 105.139C232.028 105.139 232.734 105.308 233.339 105.646C233.944 105.98 234.414 106.477 234.747 107.139C235.08 107.801 235.247 108.619 235.247 109.593V117.111H232.947V109.87C232.947 109.014 232.723 108.344 232.277 107.862C231.831 107.375 231.218 107.131 230.438 107.131C229.905 107.131 229.43 107.247 229.015 107.478C228.605 107.708 228.279 108.047 228.038 108.493C227.802 108.934 227.684 109.468 227.684 110.094ZM242.518 117.341C241.564 117.341 240.713 117.098 239.964 116.61C239.22 116.118 238.635 115.418 238.21 114.51C237.789 113.597 237.579 112.502 237.579 111.225C237.579 109.947 237.792 108.855 238.217 107.947C238.648 107.039 239.238 106.344 239.987 105.862C240.736 105.38 241.585 105.139 242.534 105.139C243.267 105.139 243.857 105.262 244.303 105.508C244.755 105.749 245.104 106.031 245.35 106.354C245.601 106.677 245.796 106.962 245.935 107.208H246.073V101.353H248.374V117.111H246.127V115.272H245.935C245.796 115.523 245.596 115.81 245.334 116.133C245.078 116.457 244.724 116.739 244.273 116.98C243.821 117.221 243.236 117.341 242.518 117.341ZM243.026 115.379C243.688 115.379 244.247 115.205 244.703 114.856C245.165 114.502 245.514 114.012 245.75 113.387C245.991 112.761 246.111 112.032 246.111 111.202C246.111 110.381 245.993 109.663 245.758 109.047C245.522 108.432 245.175 107.952 244.719 107.608C244.262 107.265 243.698 107.093 243.026 107.093C242.334 107.093 241.757 107.272 241.295 107.631C240.833 107.99 240.484 108.48 240.249 109.101C240.018 109.722 239.902 110.422 239.902 111.202C239.902 111.991 240.02 112.702 240.256 113.333C240.492 113.964 240.841 114.464 241.303 114.833C241.769 115.197 242.344 115.379 243.026 115.379ZM259.477 117.111L255.999 105.292H258.376L260.692 113.971H260.808L263.131 105.292H265.509L267.817 113.933H267.932L270.233 105.292H272.61L269.14 117.111H266.794L264.393 108.578H264.216L261.816 117.111H259.477ZM276.856 110.094V117.111H274.555V101.353H276.825V107.216H276.971C277.248 106.58 277.671 106.075 278.241 105.7C278.81 105.326 279.554 105.139 280.472 105.139C281.283 105.139 281.99 105.305 282.596 105.639C283.206 105.972 283.678 106.47 284.011 107.131C284.35 107.788 284.519 108.609 284.519 109.593V117.111H282.219V109.87C282.219 109.004 281.996 108.332 281.549 107.855C281.103 107.372 280.482 107.131 279.687 107.131C279.144 107.131 278.656 107.247 278.225 107.478C277.8 107.708 277.464 108.047 277.217 108.493C276.976 108.934 276.856 109.468 276.856 110.094ZM290.79 117.372C290.041 117.372 289.364 117.234 288.759 116.957C288.154 116.675 287.674 116.267 287.32 115.733C286.971 115.2 286.797 114.546 286.797 113.771C286.797 113.105 286.925 112.556 287.182 112.125C287.438 111.694 287.784 111.353 288.22 111.101C288.656 110.85 289.144 110.66 289.682 110.532C290.221 110.404 290.77 110.306 291.329 110.24C292.037 110.158 292.611 110.091 293.052 110.04C293.493 109.983 293.814 109.894 294.014 109.77C294.214 109.647 294.314 109.447 294.314 109.17V109.116C294.314 108.444 294.124 107.924 293.745 107.554C293.37 107.185 292.811 107.001 292.067 107.001C291.293 107.001 290.682 107.172 290.236 107.516C289.795 107.855 289.49 108.232 289.321 108.647L287.158 108.155C287.415 107.437 287.789 106.857 288.282 106.416C288.779 105.969 289.351 105.646 289.998 105.446C290.644 105.241 291.324 105.139 292.037 105.139C292.508 105.139 293.009 105.195 293.537 105.308C294.07 105.416 294.568 105.616 295.03 105.908C295.496 106.2 295.878 106.618 296.176 107.162C296.473 107.701 296.622 108.401 296.622 109.263V117.111H294.376V115.495H294.283C294.134 115.792 293.911 116.085 293.614 116.372C293.316 116.659 292.934 116.898 292.467 117.088C292.001 117.277 291.442 117.372 290.79 117.372ZM291.29 115.526C291.926 115.526 292.47 115.4 292.921 115.149C293.378 114.897 293.724 114.569 293.96 114.164C294.201 113.753 294.322 113.315 294.322 112.848V111.325C294.24 111.407 294.081 111.484 293.845 111.555C293.614 111.622 293.35 111.681 293.052 111.732C292.755 111.779 292.465 111.822 292.183 111.863C291.901 111.899 291.665 111.93 291.475 111.956C291.029 112.012 290.621 112.107 290.251 112.24C289.887 112.374 289.595 112.566 289.374 112.817C289.159 113.063 289.051 113.392 289.051 113.802C289.051 114.371 289.262 114.802 289.682 115.095C290.103 115.382 290.639 115.526 291.29 115.526ZM304.965 105.292V107.139H298.509V105.292H304.965ZM300.241 102.461H302.541V113.641C302.541 114.087 302.608 114.423 302.741 114.648C302.875 114.869 303.046 115.02 303.257 115.102C303.472 115.179 303.706 115.218 303.957 115.218C304.142 115.218 304.303 115.205 304.442 115.179C304.58 115.154 304.688 115.133 304.765 115.118L305.18 117.018C305.047 117.07 304.857 117.121 304.611 117.172C304.365 117.229 304.057 117.259 303.688 117.264C303.082 117.275 302.518 117.167 301.995 116.941C301.472 116.716 301.048 116.367 300.725 115.895C300.402 115.423 300.241 114.831 300.241 114.118V102.461ZM41.1922 133.353V149.111H38.8147V133.353H41.1922ZM52.2894 149.111L48.8116 137.292H51.1891L53.5051 145.971H53.6205L55.9441 137.292H58.3216L60.6298 145.933H60.7452L63.0458 137.292H65.4233L61.9532 149.111H59.6065L57.2059 140.578H57.029L54.6284 149.111H52.2894ZM70.8074 149.372C70.0585 149.372 69.3814 149.234 68.7762 148.957C68.1709 148.675 67.6913 148.267 67.3374 147.733C66.9886 147.2 66.8142 146.546 66.8142 145.771C66.8142 145.105 66.9424 144.556 67.1989 144.125C67.4553 143.694 67.8016 143.353 68.2376 143.101C68.6736 142.85 69.1609 142.66 69.6995 142.532C70.238 142.404 70.7869 142.306 71.346 142.24C72.0539 142.158 72.6284 142.091 73.0695 142.04C73.5106 141.983 73.8312 141.894 74.0313 141.77C74.2313 141.647 74.3313 141.447 74.3313 141.17V141.116C74.3313 140.444 74.1415 139.924 73.762 139.554C73.3875 139.185 72.8284 139.001 72.0846 139.001C71.3101 139.001 70.6997 139.172 70.2534 139.516C69.8123 139.855 69.5071 140.232 69.3378 140.647L67.1758 140.155C67.4323 139.437 67.8067 138.857 68.2991 138.416C68.7967 137.969 69.3686 137.646 70.0149 137.446C70.6612 137.241 71.3409 137.139 72.0539 137.139C72.5258 137.139 73.0259 137.195 73.5542 137.308C74.0877 137.416 74.5852 137.616 75.0469 137.908C75.5137 138.2 75.8958 138.618 76.1933 139.162C76.4908 139.701 76.6396 140.401 76.6396 141.263V149.111H74.3929V147.495H74.3005C74.1518 147.792 73.9287 148.085 73.6312 148.372C73.3337 148.659 72.9515 148.898 72.4847 149.088C72.018 149.277 71.4589 149.372 70.8074 149.372ZM71.3075 147.526C71.9436 147.526 72.4873 147.4 72.9387 147.149C73.3952 146.897 73.7414 146.569 73.9774 146.164C74.2185 145.753 74.339 145.315 74.339 144.848V143.325C74.2569 143.407 74.0979 143.484 73.862 143.555C73.6312 143.622 73.367 143.681 73.0695 143.732C72.772 143.779 72.4822 143.822 72.2001 143.863C71.9179 143.899 71.682 143.93 71.4922 143.956C71.0459 144.012 70.6381 144.107 70.2688 144.24C69.9046 144.374 69.6123 144.566 69.3917 144.817C69.1763 145.063 69.0685 145.392 69.0685 145.802C69.0685 146.371 69.2788 146.802 69.6995 147.095C70.1201 147.382 70.6561 147.526 71.3075 147.526ZM81.766 142.094V149.111H79.4654V137.292H81.6736V139.216H81.8198C82.0917 138.59 82.5174 138.087 83.097 137.708C83.6818 137.328 84.4179 137.139 85.3053 137.139C86.1106 137.139 86.8159 137.308 87.4211 137.646C88.0264 137.98 88.4958 138.477 88.8292 139.139C89.1626 139.801 89.3293 140.619 89.3293 141.593V149.111H87.0287V141.87C87.0287 141.014 86.8056 140.344 86.3594 139.862C85.9131 139.375 85.3001 139.131 84.5205 139.131C83.987 139.131 83.5125 139.247 83.097 139.478C82.6867 139.708 82.361 140.047 82.1199 140.493C81.8839 140.934 81.766 141.468 81.766 142.094ZM97.693 137.292V139.139H91.2376V137.292H97.693ZM92.9688 134.461H95.2693V145.641C95.2693 146.087 95.336 146.423 95.4694 146.648C95.6028 146.869 95.7746 147.02 95.9849 147.102C96.2003 147.179 96.4337 147.218 96.6851 147.218C96.8697 147.218 97.0313 147.205 97.1698 147.179C97.3083 147.154 97.416 147.133 97.4929 147.118L97.9084 149.018C97.7751 149.07 97.5853 149.121 97.3391 149.172C97.0929 149.229 96.7851 149.259 96.4158 149.264C95.8105 149.275 95.2463 149.167 94.7231 148.941C94.1999 148.716 93.7767 148.367 93.4535 147.895C93.1304 147.423 92.9688 146.831 92.9688 146.118V134.461ZM101.515 149.257C101.095 149.257 100.733 149.108 100.43 148.811C100.128 148.508 99.9764 148.144 99.9764 147.718C99.9764 147.297 100.128 146.938 100.43 146.641C100.733 146.338 101.095 146.187 101.515 146.187C101.936 146.187 102.297 146.338 102.6 146.641C102.903 146.938 103.054 147.297 103.054 147.718C103.054 148 102.982 148.259 102.839 148.495C102.7 148.726 102.515 148.911 102.285 149.049C102.054 149.188 101.797 149.257 101.515 149.257ZM106.33 133.353V134.83C106.33 135.266 106.248 135.725 106.084 136.208C105.925 136.685 105.699 137.144 105.407 137.585C105.114 138.026 104.771 138.405 104.376 138.724L103.237 137.908C103.54 137.467 103.801 136.997 104.022 136.5C104.247 136.002 104.36 135.454 104.36 134.853V133.353H106.33ZM110.246 133.353V134.83C110.246 135.266 110.164 135.725 110 136.208C109.841 136.685 109.615 137.144 109.323 137.585C109.031 138.026 108.687 138.405 108.292 138.724L107.153 137.908C107.456 137.467 107.718 136.997 107.938 136.5C108.164 136.002 108.277 135.454 108.277 134.853V133.353H110.246Z" fill="black" fill-opacity="0.8"/>
<path d="M48.1977 286.969H46.3972C46.328 286.584 46.1991 286.246 46.0106 285.954C45.8221 285.661 45.5913 285.413 45.3181 285.209C45.045 285.005 44.7392 284.851 44.4006 284.747C44.0659 284.644 43.7101 284.592 43.3331 284.592C42.6521 284.592 42.0424 284.763 41.5038 285.105C40.969 285.448 40.5459 285.95 40.2342 286.611C39.9265 287.273 39.7726 288.081 39.7726 289.035C39.7726 289.997 39.9265 290.808 40.2342 291.47C40.5459 292.132 40.971 292.632 41.5095 292.971C42.0481 293.309 42.654 293.478 43.3273 293.478C43.7004 293.478 44.0544 293.428 44.3891 293.328C44.7276 293.224 45.0335 293.072 45.3066 292.872C45.5797 292.672 45.8106 292.428 45.9991 292.14C46.1914 291.847 46.3241 291.513 46.3972 291.135L48.1977 291.141C48.1015 291.722 47.9149 292.257 47.6379 292.745C47.3648 293.23 47.0128 293.65 46.5819 294.003C46.1549 294.354 45.6663 294.625 45.1162 294.817C44.566 295.009 43.9659 295.106 43.3157 295.106C42.2924 295.106 41.3807 294.863 40.5805 294.379C39.7803 293.89 39.1494 293.192 38.6877 292.284C38.2299 291.376 38.001 290.293 38.001 289.035C38.001 287.773 38.2318 286.69 38.6935 285.786C39.1551 284.878 39.7861 284.182 40.5862 283.697C41.3864 283.209 42.2963 282.964 43.3157 282.964C43.9428 282.964 44.5276 283.055 45.07 283.236C45.6163 283.413 46.1068 283.674 46.5415 284.02C46.9762 284.363 47.3359 284.782 47.6206 285.278C47.9053 285.771 48.0976 286.334 48.1977 286.969ZM51.7395 289.681V294.944H50.0141V283.126H51.7164V287.523H51.8261C52.0338 287.046 52.3512 286.667 52.7782 286.386C53.2052 286.105 53.7631 285.965 54.4517 285.965C55.0595 285.965 55.5904 286.09 56.0444 286.34C56.5022 286.59 56.8561 286.963 57.1062 287.46C57.3601 287.952 57.487 288.568 57.487 289.306V294.944H55.7616V289.514C55.7616 288.864 55.5943 288.36 55.2596 288.002C54.9249 287.64 54.4594 287.46 53.8631 287.46C53.4553 287.46 53.0898 287.546 52.7667 287.719C52.4474 287.892 52.1954 288.146 52.0107 288.481C51.8299 288.812 51.7395 289.212 51.7395 289.681ZM61.3361 283.126V294.944H59.6107V283.126H61.3361ZM67.2122 295.123C66.3812 295.123 65.6561 294.933 65.0367 294.552C64.4173 294.171 63.9364 293.638 63.594 292.953C63.2516 292.268 63.0805 291.468 63.0805 290.553C63.0805 289.633 63.2516 288.829 63.594 288.141C63.9364 287.452 64.4173 286.917 65.0367 286.536C65.6561 286.155 66.3812 285.965 67.2122 285.965C68.0432 285.965 68.7683 286.155 69.3877 286.536C70.0071 286.917 70.488 287.452 70.8304 288.141C71.1728 288.829 71.3439 289.633 71.3439 290.553C71.3439 291.468 71.1728 292.268 70.8304 292.953C70.488 293.638 70.0071 294.171 69.3877 294.552C68.7683 294.933 68.0432 295.123 67.2122 295.123ZM67.218 293.675C67.7566 293.675 68.2028 293.532 68.5567 293.248C68.9107 292.963 69.1723 292.584 69.3415 292.111C69.5147 291.638 69.6012 291.116 69.6012 290.547C69.6012 289.981 69.5147 289.462 69.3415 288.989C69.1723 288.512 68.9107 288.129 68.5567 287.84C68.2028 287.552 67.7566 287.408 67.218 287.408C66.6755 287.408 66.2254 287.552 65.8676 287.84C65.5137 288.129 65.2502 288.512 65.0771 288.989C64.9078 289.462 64.8232 289.981 64.8232 290.547C64.8232 291.116 64.9078 291.638 65.0771 292.111C65.2502 292.584 65.5137 292.963 65.8676 293.248C66.2254 293.532 66.6755 293.675 67.218 293.675ZM76.9113 295.123C76.038 295.123 75.2859 294.936 74.655 294.563C74.0279 294.186 73.5432 293.657 73.2008 292.976C72.8622 292.292 72.693 291.489 72.693 290.57C72.693 289.662 72.8622 288.862 73.2008 288.169C73.5432 287.477 74.0202 286.936 74.6319 286.548C75.2474 286.159 75.9668 285.965 76.7901 285.965C77.2902 285.965 77.7749 286.048 78.2443 286.213C78.7136 286.379 79.1349 286.638 79.508 286.992C79.8812 287.346 80.1755 287.806 80.3909 288.371C80.6064 288.933 80.7141 289.616 80.7141 290.42V291.032H73.6682V289.739H79.0233C79.0233 289.285 78.931 288.883 78.7463 288.533C78.5617 288.179 78.302 287.9 77.9673 287.696C77.6364 287.492 77.2479 287.39 76.8016 287.39C76.3169 287.39 75.8937 287.51 75.5321 287.748C75.1743 287.983 74.8973 288.291 74.7011 288.671C74.5088 289.048 74.4126 289.458 74.4126 289.901V290.91C74.4126 291.503 74.5165 292.007 74.7242 292.422C74.9358 292.838 75.2301 293.155 75.6071 293.374C75.9841 293.59 76.4246 293.698 76.9286 293.698C77.2556 293.698 77.5537 293.651 77.823 293.559C78.0923 293.463 78.3251 293.321 78.5213 293.132C78.7175 292.944 78.8675 292.711 78.9714 292.434L80.6044 292.728C80.4736 293.209 80.239 293.63 79.9004 293.992C79.5657 294.35 79.1445 294.629 78.6367 294.829C78.1327 295.025 77.5576 295.123 76.9113 295.123ZM86.71 294.944V283.126H88.4931V288.262H94.3849V283.126H96.1738V294.944H94.3849V289.791H88.4931V294.944H86.71ZM101.033 295.14C100.471 295.14 99.9633 295.036 99.5093 294.829C99.0554 294.617 98.6957 294.311 98.4302 293.911C98.1686 293.511 98.0378 293.021 98.0378 292.44C98.0378 291.94 98.134 291.528 98.3264 291.205C98.5187 290.882 98.7784 290.626 99.1054 290.437C99.4324 290.249 99.7979 290.106 100.202 290.01C100.606 289.914 101.017 289.841 101.437 289.791C101.968 289.729 102.398 289.679 102.729 289.641C103.06 289.599 103.301 289.531 103.451 289.439C103.601 289.347 103.676 289.197 103.676 288.989V288.948C103.676 288.444 103.533 288.054 103.249 287.777C102.968 287.5 102.549 287.362 101.991 287.362C101.41 287.362 100.952 287.49 100.617 287.748C100.286 288.002 100.058 288.285 99.9306 288.596L98.3091 288.227C98.5014 287.689 98.7822 287.254 99.1516 286.923C99.5247 286.588 99.9537 286.346 100.438 286.196C100.923 286.042 101.433 285.965 101.968 285.965C102.322 285.965 102.697 286.007 103.093 286.092C103.493 286.173 103.866 286.323 104.212 286.542C104.562 286.761 104.849 287.075 105.072 287.483C105.295 287.887 105.407 288.412 105.407 289.058V294.944H103.722V293.732H103.653C103.541 293.955 103.374 294.175 103.151 294.39C102.927 294.606 102.641 294.784 102.291 294.927C101.941 295.069 101.521 295.14 101.033 295.14ZM101.408 293.755C101.885 293.755 102.293 293.661 102.631 293.473C102.974 293.284 103.233 293.038 103.41 292.734C103.591 292.426 103.681 292.097 103.681 291.747V290.605C103.62 290.666 103.501 290.724 103.324 290.778C103.151 290.828 102.952 290.872 102.729 290.91C102.506 290.945 102.289 290.978 102.077 291.009C101.866 291.035 101.689 291.059 101.546 291.078C101.212 291.12 100.906 291.191 100.629 291.291C100.356 291.391 100.136 291.536 99.971 291.724C99.8094 291.909 99.7286 292.155 99.7286 292.463C99.7286 292.89 99.8863 293.213 100.202 293.432C100.517 293.648 100.919 293.755 101.408 293.755ZM111.745 286.08V287.465H106.736V286.08H111.745ZM108.109 294.944V285.053C108.109 284.499 108.23 284.04 108.473 283.674C108.715 283.305 109.036 283.03 109.436 282.849C109.836 282.664 110.271 282.572 110.74 282.572C111.087 282.572 111.383 282.601 111.629 282.658C111.875 282.712 112.058 282.762 112.177 282.809L111.773 284.205C111.693 284.182 111.589 284.155 111.462 284.124C111.335 284.09 111.181 284.072 111 284.072C110.581 284.072 110.281 284.176 110.1 284.384C109.923 284.592 109.835 284.892 109.835 285.284V294.944H108.109ZM115.071 289.681V294.944H113.346V286.08H115.002V287.523H115.112C115.316 287.054 115.635 286.677 116.07 286.392C116.508 286.107 117.06 285.965 117.726 285.965C118.33 285.965 118.859 286.092 119.313 286.346C119.767 286.596 120.119 286.969 120.369 287.465C120.619 287.962 120.744 288.575 120.744 289.306V294.944H119.019V289.514C119.019 288.872 118.851 288.369 118.517 288.008C118.182 287.642 117.722 287.46 117.137 287.46C116.737 287.46 116.381 287.546 116.07 287.719C115.762 287.892 115.518 288.146 115.337 288.481C115.16 288.812 115.071 289.212 115.071 289.681ZM126.699 295.123C125.826 295.123 125.074 294.936 124.443 294.563C123.816 294.186 123.331 293.657 122.989 292.976C122.65 292.292 122.481 291.489 122.481 290.57C122.481 289.662 122.65 288.862 122.989 288.169C123.331 287.477 123.808 286.936 124.42 286.548C125.036 286.159 125.755 285.965 126.578 285.965C127.078 285.965 127.563 286.048 128.032 286.213C128.502 286.379 128.923 286.638 129.296 286.992C129.669 287.346 129.964 287.806 130.179 288.371C130.394 288.933 130.502 289.616 130.502 290.42V291.032H123.456V289.739H128.811C128.811 289.285 128.719 288.883 128.534 288.533C128.35 288.179 128.09 287.9 127.755 287.696C127.425 287.492 127.036 287.39 126.59 287.39C126.105 287.39 125.682 287.51 125.32 287.748C124.962 287.983 124.685 288.291 124.489 288.671C124.297 289.048 124.201 289.458 124.201 289.901V290.91C124.201 291.503 124.305 292.007 124.512 292.422C124.724 292.838 125.018 293.155 125.395 293.374C125.772 293.59 126.213 293.698 126.717 293.698C127.044 293.698 127.342 293.651 127.611 293.559C127.88 293.463 128.113 293.321 128.309 293.132C128.506 292.944 128.656 292.711 128.759 292.434L130.393 292.728C130.262 293.209 130.027 293.63 129.689 293.992C129.354 294.35 128.933 294.629 128.425 294.829C127.921 295.025 127.346 295.123 126.699 295.123ZM132.238 294.944V286.08H133.906V287.488H133.998C134.159 287.011 134.444 286.636 134.852 286.363C135.264 286.086 135.729 285.948 136.248 285.948C136.356 285.948 136.483 285.952 136.629 285.959C136.779 285.967 136.897 285.977 136.981 285.988V287.639C136.912 287.619 136.789 287.598 136.612 287.575C136.435 287.548 136.258 287.535 136.081 287.535C135.673 287.535 135.31 287.621 134.99 287.794C134.675 287.964 134.425 288.2 134.24 288.504C134.056 288.804 133.963 289.147 133.963 289.531V294.944H132.238Z" fill="black" fill-opacity="0.494118"/>
</g>
<defs>
<filter id="filter0_ddd_675_18848" x="0" y="0.0273438" width="345" height="345" filterUnits="userSpaceOnUse" color-interpolation-filters="sRGB">
<feFlood flood-opacity="0" result="BackgroundImageFix"/>
<feColorMatrix in="SourceAlpha" type="matrix" values="0 0 0 0 0 0 0 0 0 0 0 0 0 0 0 0 0 0 127 0" result="hardAlpha"/>
<feOffset dy="2.5"/>
<feGaussianBlur stdDeviation="1"/>
<feColorMatrix type="matrix" values="0 0 0 0 0 0 0 0 0 0 0 0 0 0 0 0 0 0 0.02 0"/>
<feBlend mode="normal" in2="BackgroundImageFix" result="effect1_dropShadow_675_18848"/>
<feColorMatrix in="SourceAlpha" type="matrix" values="0 0 0 0 0 0 0 0 0 0 0 0 0 0 0 0 0 0 127 0" result="hardAlpha"/>
<feOffset dy="3"/>
<feGaussianBlur stdDeviation="2.5"/>
<feColorMatrix type="matrix" values="0 0 0 0 0 0 0 0 0 0 0 0 0 0 0 0 0 0 0.04 0"/>
<feBlend mode="normal" in2="effect1_dropShadow_675_18848" result="effect2_dropShadow_675_18848"/>
<feColorMatrix in="SourceAlpha" type="matrix" values="0 0 0 0 0 0 0 0 0 0 0 0 0 0 0 0 0 0 127 0" result="hardAlpha"/>
<feOffset dy="8"/>
<feGaussianBlur stdDeviation="5"/>
<feColorMatrix type="matrix" values="0 0 0 0 0 0 0 0 0 0 0 0 0 0 0 0 0 0 0.08 0"/>
<feBlend mode="normal" in2="effect2_dropShadow_675_18848" result="effect3_dropShadow_675_18848"/>
<feBlend mode="normal" in="SourceGraphic" in2="effect3_dropShadow_675_18848" result="shape"/>
</filter>
</defs>
</svg>
