<svg width="346" height="347" viewBox="0 0 346 347" fill="none" xmlns="http://www.w3.org/2000/svg">
<g filter="url(#filter0_ddd_675_18844)">
<rect width="326" height="326" transform="translate(10 2.02734)" fill="#FFBDF2"/>
<path d="M38.2147 42.2997V40.8204C38.2147 40.3838 38.2969 39.924 38.4612 39.4412C38.6256 38.9584 38.8542 38.4961 39.147 38.0544C39.4397 37.6126 39.7839 37.2351 40.1794 36.9218L41.3197 37.7385C41.0064 38.1956 40.7393 38.6733 40.5184 39.1715C40.2975 39.6698 40.1871 40.2117 40.1871 40.7972V42.2997H38.2147ZM42.1441 42.2997V40.8204C42.1441 40.3838 42.2263 39.924 42.3906 39.4412C42.555 38.9584 42.7836 38.4961 43.0764 38.0544C43.3692 37.6126 43.7133 37.2351 44.1088 36.9218L45.2491 37.7385C44.9358 38.1956 44.6687 38.6733 44.4478 39.1715C44.2269 39.6698 44.1165 40.2117 44.1165 40.7972V42.2997H42.1441ZM46.3973 39.4181V37.3686H58.6093V39.4181H53.686V53.1479H51.3129V39.4181H46.3973ZM64.1531 53.3868C63.0436 53.3868 62.0753 53.1325 61.2484 52.624C60.4214 52.1155 59.7793 51.4041 59.3222 50.4898C58.865 49.5755 58.6365 48.5071 58.6365 47.2846C58.6365 46.057 58.865 44.9835 59.3222 44.0641C59.7793 43.1446 60.4214 42.4307 61.2484 41.9221C62.0753 41.4136 63.0436 41.1594 64.1531 41.1594C65.2625 41.1594 66.2308 41.4136 67.0577 41.9221C67.8847 42.4307 68.5268 43.1446 68.9839 44.0641C69.4411 44.9835 69.6697 46.057 69.6697 47.2846C69.6697 48.5071 69.4411 49.5755 68.9839 50.4898C68.5268 51.4041 67.8847 52.1155 67.0577 52.624C66.2308 53.1325 65.2625 53.3868 64.1531 53.3868ZM64.1608 51.4529C64.8799 51.4529 65.4757 51.2629 65.9483 50.8828C66.4208 50.5027 66.7701 49.9967 66.9961 49.3649C67.2273 48.7331 67.3428 48.0371 67.3428 47.2769C67.3428 46.5219 67.2273 45.8284 66.9961 45.1967C66.7701 44.5597 66.4208 44.0486 65.9483 43.6634C65.4757 43.2782 64.8799 43.0856 64.1608 43.0856C63.4365 43.0856 62.8355 43.2782 62.3579 43.6634C61.8853 44.0486 61.5334 44.5597 61.3023 45.1967C61.0763 45.8284 60.9633 46.5219 60.9633 47.2769C60.9633 48.0371 61.0763 48.7331 61.3023 49.3649C61.5334 49.9967 61.8853 50.5027 62.3579 50.8828C62.8355 51.2629 63.4365 51.4529 64.1608 51.4529ZM76.9874 53.3868C75.8779 53.3868 74.9097 53.1325 74.0827 52.624C73.2558 52.1155 72.6137 51.4041 72.1565 50.4898C71.6994 49.5755 71.4708 48.5071 71.4708 47.2846C71.4708 46.057 71.6994 44.9835 72.1565 44.0641C72.6137 43.1446 73.2558 42.4307 74.0827 41.9221C74.9097 41.4136 75.8779 41.1594 76.9874 41.1594C78.0969 41.1594 79.0651 41.4136 79.8921 41.9221C80.7191 42.4307 81.3611 43.1446 81.8183 44.0641C82.2754 44.9835 82.504 46.057 82.504 47.2846C82.504 48.5071 82.2754 49.5755 81.8183 50.4898C81.3611 51.4041 80.7191 52.1155 79.8921 52.624C79.0651 53.1325 78.0969 53.3868 76.9874 53.3868ZM76.9951 51.4529C77.7142 51.4529 78.3101 51.2629 78.7826 50.8828C79.2552 50.5027 79.6045 49.9967 79.8305 49.3649C80.0616 48.7331 80.1772 48.0371 80.1772 47.2769C80.1772 46.5219 80.0616 45.8284 79.8305 45.1967C79.6045 44.5597 79.2552 44.0486 78.7826 43.6634C78.3101 43.2782 77.7142 43.0856 76.9951 43.0856C76.2709 43.0856 75.6699 43.2782 75.1922 43.6634C74.7197 44.0486 74.3678 44.5597 74.1367 45.1967C73.9107 45.8284 73.7977 46.5219 73.7977 47.2769C73.7977 48.0371 73.9107 48.7331 74.1367 49.3649C74.3678 49.9967 74.7197 50.5027 75.1922 50.8828C75.6699 51.2629 76.2709 51.4529 76.9951 51.4529ZM86.9556 49.1338L86.9402 46.3215H87.3408L92.0561 41.3135H94.8144L89.4365 47.015H89.0744L86.9556 49.1338ZM84.8368 53.1479V37.3686H87.1405V53.1479H84.8368ZM92.3104 53.1479L88.0728 47.5235L89.66 45.9132L95.138 53.1479H92.3104ZM102.179 53.1479V41.3135H104.39V43.2397H104.536C104.783 42.5873 105.186 42.0788 105.746 41.7141C106.306 41.3443 106.976 41.1594 107.757 41.1594C108.548 41.1594 109.21 41.3443 109.745 41.7141C110.284 42.0839 110.682 42.5925 110.939 43.2397H111.062C111.345 42.6079 111.794 42.1045 112.411 41.7295C113.027 41.3494 113.761 41.1594 114.614 41.1594C115.688 41.1594 116.563 41.4958 117.241 42.1687C117.925 42.8416 118.266 43.856 118.266 45.2121V53.1479H115.962V45.4278C115.962 44.6265 115.744 44.0461 115.307 43.6865C114.871 43.327 114.35 43.1472 113.743 43.1472C112.994 43.1472 112.411 43.3783 111.994 43.8406C111.578 44.2978 111.37 44.8859 111.37 45.605V53.1479H109.074V45.2814C109.074 44.6393 108.874 44.1231 108.473 43.7328C108.073 43.3424 107.551 43.1472 106.909 43.1472C106.473 43.1472 106.07 43.2628 105.7 43.4939C105.335 43.7199 105.04 44.0358 104.814 44.4416C104.593 44.8474 104.482 45.3174 104.482 45.8516V53.1479H102.179ZM126.216 53.3868C125.05 53.3868 124.046 53.1377 123.203 52.6394C122.366 52.1361 121.719 51.4298 121.262 50.5206C120.81 49.6063 120.584 48.5354 120.584 47.3078C120.584 46.0955 120.81 45.0272 121.262 44.1026C121.719 43.178 122.356 42.4563 123.172 41.9376C123.994 41.4188 124.955 41.1594 126.054 41.1594C126.722 41.1594 127.369 41.2698 127.995 41.4907C128.622 41.7115 129.185 42.0583 129.683 42.5308C130.181 43.0034 130.574 43.6172 130.862 44.3722C131.149 45.1222 131.293 46.0339 131.293 47.1074V47.9241H121.886V46.1983H129.036C129.036 45.5922 128.912 45.0554 128.666 44.588C128.419 44.1154 128.073 43.743 127.626 43.4708C127.184 43.1986 126.665 43.0624 126.069 43.0624C125.422 43.0624 124.857 43.2217 124.374 43.5401C123.897 43.8535 123.527 44.2644 123.265 44.7729C123.008 45.2763 122.88 45.8233 122.88 46.414V47.7623C122.88 48.5534 123.018 49.2262 123.296 49.781C123.578 50.3357 123.971 50.7595 124.474 51.0523C124.978 51.3399 125.566 51.4837 126.239 51.4837C126.675 51.4837 127.073 51.4221 127.433 51.2988C127.793 51.1704 128.103 50.9803 128.365 50.7287C128.627 50.477 128.828 50.1662 128.966 49.7964L131.147 50.1893C130.972 50.8314 130.659 51.3938 130.207 51.8767C129.76 52.3544 129.197 52.7268 128.519 52.9939C127.847 53.2558 127.079 53.3868 126.216 53.3868ZM142.558 53.4099C141.808 53.4099 141.13 53.2712 140.524 52.9939C139.918 52.7113 139.437 52.303 139.083 51.7688C138.734 51.2346 138.559 50.5797 138.559 49.8041C138.559 49.1363 138.687 48.5867 138.944 48.1553C139.201 47.7238 139.548 47.3822 139.984 47.1305C140.421 46.8789 140.909 46.6888 141.448 46.5604C141.988 46.432 142.537 46.3344 143.097 46.2676C143.806 46.1854 144.381 46.1187 144.823 46.0673C145.265 46.0108 145.586 45.9209 145.786 45.7976C145.986 45.6744 146.087 45.474 146.087 45.1967V45.1427C146.087 44.4698 145.897 43.9485 145.516 43.5787C145.141 43.2088 144.582 43.0239 143.837 43.0239C143.061 43.0239 142.45 43.196 142.003 43.5401C141.561 43.8791 141.256 44.2567 141.086 44.6727L138.921 44.1796C139.178 43.4605 139.553 42.8801 140.046 42.4384C140.544 41.9915 141.117 41.6679 141.764 41.4676C142.411 41.2621 143.092 41.1594 143.806 41.1594C144.279 41.1594 144.779 41.2159 145.308 41.3289C145.843 41.4367 146.341 41.6371 146.803 41.9298C147.271 42.2226 147.653 42.6413 147.951 43.1857C148.249 43.7251 148.398 44.4262 148.398 45.2891V53.1479H146.148V51.53H146.056C145.907 51.8279 145.683 52.1207 145.385 52.4083C145.088 52.6959 144.705 52.9348 144.237 53.1248C143.77 53.3149 143.21 53.4099 142.558 53.4099ZM143.059 51.5608C143.696 51.5608 144.24 51.4349 144.692 51.1832C145.149 50.9316 145.496 50.6028 145.732 50.197C145.974 49.7861 146.094 49.3469 146.094 48.8795V47.354C146.012 47.4362 145.853 47.5132 145.617 47.5851C145.385 47.6519 145.121 47.711 144.823 47.7623C144.525 47.8086 144.235 47.8522 143.952 47.8933C143.67 47.9293 143.434 47.9601 143.244 47.9858C142.797 48.0423 142.388 48.1373 142.018 48.2708C141.654 48.4044 141.361 48.597 141.14 48.8487C140.924 49.0953 140.817 49.424 140.817 49.8349C140.817 50.4051 141.027 50.8365 141.448 51.1293C141.87 51.417 142.406 51.5608 143.059 51.5608ZM165.599 44.2027L163.511 44.5726C163.424 44.3055 163.285 44.0512 163.095 43.8098C162.91 43.5684 162.659 43.3706 162.34 43.2165C162.022 43.0624 161.624 42.9854 161.146 42.9854C160.494 42.9854 159.949 43.1318 159.512 43.4246C159.076 43.7122 158.858 44.0846 158.858 44.5418C158.858 44.9373 159.004 45.2557 159.297 45.4971C159.59 45.7386 160.062 45.9363 160.714 46.0904L162.594 46.5219C163.683 46.7736 164.495 47.1614 165.029 47.6853C165.563 48.2092 165.83 48.8898 165.83 49.727C165.83 50.4359 165.625 51.0677 165.214 51.6224C164.808 52.172 164.241 52.6035 163.511 52.9168C162.787 53.2301 161.947 53.3868 160.992 53.3868C159.667 53.3868 158.585 53.1043 157.748 52.5393C156.911 51.9691 156.397 51.1601 156.207 50.1123L158.434 49.7733C158.572 50.3537 158.858 50.7929 159.289 51.0908C159.72 51.3836 160.283 51.53 160.976 51.53C161.731 51.53 162.335 51.3733 162.787 51.06C163.239 50.7415 163.465 50.3537 163.465 49.8965C163.465 49.5267 163.326 49.216 163.049 48.9643C162.777 48.7126 162.358 48.5225 161.793 48.3941L159.79 47.955C158.685 47.7033 157.869 47.3026 157.34 46.753C156.816 46.2034 156.554 45.5074 156.554 44.665C156.554 43.9665 156.749 43.3552 157.139 42.8313C157.53 42.3074 158.069 41.899 158.757 41.6062C159.446 41.3083 160.234 41.1594 161.123 41.1594C162.402 41.1594 163.408 41.4367 164.143 41.9915C164.878 42.5411 165.363 43.2782 165.599 44.2027ZM173.225 53.3868C172.059 53.3868 171.055 53.1377 170.213 52.6394C169.375 52.1361 168.728 51.4298 168.271 50.5206C167.819 49.6063 167.593 48.5354 167.593 47.3078C167.593 46.0955 167.819 45.0272 168.271 44.1026C168.728 43.178 169.365 42.4563 170.182 41.9376C171.004 41.4188 171.964 41.1594 173.063 41.1594C173.731 41.1594 174.378 41.2698 175.005 41.4907C175.632 41.7115 176.194 42.0583 176.692 42.5308C177.191 43.0034 177.583 43.6172 177.871 44.3722C178.159 45.1222 178.303 46.0339 178.303 47.1074V47.9241H168.895V46.1983H176.045C176.045 45.5922 175.922 45.0554 175.675 44.588C175.429 44.1154 175.082 43.743 174.635 43.4708C174.193 43.1986 173.675 43.0624 173.079 43.0624C172.432 43.0624 171.867 43.2217 171.384 43.5401C170.906 43.8535 170.536 44.2644 170.274 44.7729C170.017 45.2763 169.889 45.8233 169.889 46.414V47.7623C169.889 48.5534 170.028 49.2262 170.305 49.781C170.588 50.3357 170.981 50.7595 171.484 51.0523C171.987 51.3399 172.575 51.4837 173.248 51.4837C173.685 51.4837 174.083 51.4221 174.442 51.2988C174.802 51.1704 175.113 50.9803 175.375 50.7287C175.637 50.477 175.837 50.1662 175.976 49.7964L178.156 50.1893C177.982 50.8314 177.668 51.3938 177.216 51.8767C176.769 52.3544 176.207 52.7268 175.529 52.9939C174.856 53.2558 174.088 53.3868 173.225 53.3868ZM185.605 53.3868C184.459 53.3868 183.473 53.1274 182.646 52.6086C181.824 52.0847 181.193 51.363 180.751 50.4436C180.309 49.5242 180.088 48.4712 180.088 47.2846C180.088 46.0827 180.314 45.022 180.766 44.1026C181.218 43.178 181.855 42.4563 182.677 41.9376C183.499 41.4188 184.467 41.1594 185.582 41.1594C186.481 41.1594 187.282 41.3263 187.986 41.6602C188.689 41.9889 189.257 42.4512 189.688 43.047C190.125 43.6429 190.384 44.3389 190.467 45.135H188.225C188.101 44.5803 187.819 44.1026 187.377 43.7019C186.94 43.3013 186.355 43.101 185.62 43.101C184.978 43.101 184.416 43.2705 183.933 43.6095C183.455 43.9434 183.083 44.421 182.816 45.0426C182.549 45.6589 182.415 46.3883 182.415 47.2307C182.415 48.0936 182.546 48.8384 182.808 49.4651C183.07 50.0917 183.44 50.5771 183.918 50.9213C184.4 51.2654 184.968 51.4375 185.62 51.4375C186.057 51.4375 186.452 51.3579 186.807 51.1986C187.166 51.0343 187.467 50.8006 187.708 50.4975C187.955 50.1945 188.127 49.8298 188.225 49.4034H190.467C190.384 50.1688 190.135 50.8519 189.719 51.4529C189.303 52.0539 188.746 52.5264 188.047 52.8706C187.354 53.2147 186.54 53.3868 185.605 53.3868ZM197.677 53.3868C196.567 53.3868 195.599 53.1325 194.772 52.624C193.945 52.1155 193.303 51.4041 192.846 50.4898C192.388 49.5755 192.16 48.5071 192.16 47.2846C192.16 46.057 192.388 44.9835 192.846 44.0641C193.303 43.1446 193.945 42.4307 194.772 41.9221C195.599 41.4136 196.567 41.1594 197.677 41.1594C198.786 41.1594 199.754 41.4136 200.581 41.9221C201.408 42.4307 202.05 43.1446 202.507 44.0641C202.965 44.9835 203.193 46.057 203.193 47.2846C203.193 48.5071 202.965 49.5755 202.507 50.4898C202.05 51.4041 201.408 52.1155 200.581 52.624C199.754 53.1325 198.786 53.3868 197.677 53.3868ZM197.684 51.4529C198.403 51.4529 198.999 51.2629 199.472 50.8828C199.944 50.5027 200.294 49.9967 200.52 49.3649C200.751 48.7331 200.866 48.0371 200.866 47.2769C200.866 46.5219 200.751 45.8284 200.52 45.1967C200.294 44.5597 199.944 44.0486 199.472 43.6634C198.999 43.2782 198.403 43.0856 197.684 43.0856C196.96 43.0856 196.359 43.2782 195.881 43.6634C195.409 44.0486 195.057 44.5597 194.826 45.1967C194.6 45.8284 194.487 46.5219 194.487 47.2769C194.487 48.0371 194.6 48.7331 194.826 49.3649C195.057 49.9967 195.409 50.5027 195.881 50.8828C196.359 51.2629 196.96 51.4529 197.684 51.4529ZM207.83 46.1212V53.1479H205.526V41.3135H207.737V43.2397H207.884C208.156 42.613 208.582 42.1096 209.163 41.7295C209.748 41.3494 210.485 41.1594 211.374 41.1594C212.18 41.1594 212.886 41.3289 213.493 41.6679C214.099 42.0018 214.569 42.5 214.903 43.1626C215.236 43.8252 215.403 44.6445 215.403 45.6204V53.1479H213.1V45.8978C213.1 45.04 212.876 44.3697 212.429 43.8869C211.982 43.3989 211.369 43.1549 210.588 43.1549C210.054 43.1549 209.579 43.2705 209.163 43.5016C208.752 43.7328 208.425 44.0718 208.184 44.5186C207.948 44.9604 207.83 45.4946 207.83 46.1212ZM222.685 53.3791C221.729 53.3791 220.877 53.1351 220.127 52.6471C219.382 52.154 218.796 51.4529 218.37 50.5437C217.949 49.6295 217.738 48.5328 217.738 47.2538C217.738 45.9748 217.951 44.8808 218.378 43.9716C218.809 43.0624 219.4 42.3664 220.15 41.8836C220.9 41.4008 221.75 41.1594 222.7 41.1594C223.434 41.1594 224.025 41.2826 224.472 41.5292C224.924 41.7706 225.273 42.0531 225.52 42.3767C225.772 42.7003 225.967 42.9854 226.105 43.2319H226.244V37.3686H228.548V53.1479H226.298V51.3065H226.105C225.967 51.5582 225.766 51.8458 225.504 52.1694C225.248 52.493 224.893 52.7756 224.441 53.017C223.989 53.2584 223.404 53.3791 222.685 53.3791ZM223.193 51.4144C223.856 51.4144 224.416 51.2397 224.873 50.8905C225.335 50.536 225.684 50.0455 225.921 49.4189C226.162 48.7922 226.283 48.0628 226.283 47.2307C226.283 46.4089 226.165 45.6898 225.928 45.0734C225.692 44.457 225.345 43.9767 224.888 43.6326C224.431 43.2884 223.866 43.1164 223.193 43.1164C222.5 43.1164 221.922 43.2962 221.459 43.6557C220.997 44.0153 220.648 44.5058 220.412 45.1273C220.181 45.7488 220.065 46.45 220.065 47.2307C220.065 48.0217 220.183 48.7331 220.419 49.3649C220.656 49.9967 221.005 50.4975 221.467 50.8673C221.935 51.232 222.51 51.4144 223.193 51.4144ZM242.625 41.3135V43.1626H236.161V41.3135H242.625ZM237.894 38.4781H240.198V49.6731C240.198 50.12 240.265 50.4564 240.398 50.6824C240.532 50.9033 240.704 51.0548 240.914 51.137C241.13 51.2141 241.364 51.2526 241.615 51.2526C241.8 51.2526 241.962 51.2397 242.101 51.2141C242.24 51.1884 242.347 51.1678 242.424 51.1524L242.841 53.0555C242.707 53.1069 242.517 53.1582 242.27 53.2096C242.024 53.2661 241.716 53.2969 241.346 53.302C240.74 53.3123 240.175 53.2045 239.651 52.9784C239.127 52.7524 238.703 52.4032 238.379 51.9306C238.056 51.458 237.894 50.8648 237.894 50.1508V38.4781ZM249.792 53.3868C248.683 53.3868 247.715 53.1325 246.888 52.624C246.061 52.1155 245.419 51.4041 244.961 50.4898C244.504 49.5755 244.276 48.5071 244.276 47.2846C244.276 46.057 244.504 44.9835 244.961 44.0641C245.419 43.1446 246.061 42.4307 246.888 41.9221C247.715 41.4136 248.683 41.1594 249.792 41.1594C250.902 41.1594 251.87 41.4136 252.697 41.9221C253.524 42.4307 254.166 43.1446 254.623 44.0641C255.08 44.9835 255.309 46.057 255.309 47.2846C255.309 48.5071 255.08 49.5755 254.623 50.4898C254.166 51.4041 253.524 52.1155 252.697 52.624C251.87 53.1325 250.902 53.3868 249.792 53.3868ZM249.8 51.4529C250.519 51.4529 251.115 51.2629 251.588 50.8828C252.06 50.5027 252.409 49.9967 252.635 49.3649C252.866 48.7331 252.982 48.0371 252.982 47.2769C252.982 46.5219 252.866 45.8284 252.635 45.1967C252.409 44.5597 252.06 44.0486 251.588 43.6634C251.115 43.2782 250.519 43.0856 249.8 43.0856C249.076 43.0856 248.475 43.2782 247.997 43.6634C247.525 44.0486 247.173 44.5597 246.942 45.1967C246.716 45.8284 246.603 46.5219 246.603 47.2769C246.603 48.0371 246.716 48.7331 246.942 49.3649C247.173 49.9967 247.525 50.5027 247.997 50.8828C248.475 51.2629 249.076 51.4529 249.8 51.4529ZM268.777 41.3135V43.1626H262.089V41.3135H268.777ZM263.923 53.1479V39.942C263.923 39.2024 264.085 38.5886 264.409 38.1006C264.732 37.6075 265.161 37.2402 265.695 36.9988C266.229 36.7523 266.81 36.629 267.437 36.629C267.899 36.629 268.294 36.6675 268.623 36.7446C268.952 36.8165 269.196 36.8832 269.355 36.9449L268.816 38.8094C268.708 38.7786 268.569 38.7427 268.4 38.7016C268.23 38.6553 268.025 38.6322 267.783 38.6322C267.223 38.6322 266.823 38.7709 266.581 39.0483C266.345 39.3256 266.227 39.7263 266.227 40.2502V53.1479H263.923ZM270.915 53.1479V41.3135H273.219V53.1479H270.915ZM272.079 39.4874C271.678 39.4874 271.334 39.3539 271.046 39.0868C270.764 38.8146 270.623 38.491 270.623 38.116C270.623 37.7359 270.764 37.4123 271.046 37.1452C271.334 36.873 271.678 36.7369 272.079 36.7369C272.479 36.7369 272.821 36.873 273.104 37.1452C273.391 37.4123 273.535 37.7359 273.535 38.116C273.535 38.491 273.391 38.8146 273.104 39.0868C272.821 39.3539 272.479 39.4874 272.079 39.4874ZM278.383 46.1212V53.1479H276.08V41.3135H278.291V43.2397H278.437C278.71 42.613 279.136 42.1096 279.716 41.7295C280.302 41.3494 281.039 41.1594 281.928 41.1594C282.734 41.1594 283.44 41.3289 284.046 41.6679C284.652 42.0018 285.122 42.5 285.456 43.1626C285.79 43.8252 285.957 44.6445 285.957 45.6204V53.1479H283.653V45.8978C283.653 45.04 283.43 44.3697 282.983 43.8869C282.536 43.3989 281.922 43.1549 281.142 43.1549C280.608 43.1549 280.132 43.2705 279.716 43.5016C279.305 43.7328 278.979 44.0718 278.738 44.5186C278.502 44.9604 278.383 45.4946 278.383 46.1212ZM293.238 53.3791C292.283 53.3791 291.43 53.1351 290.68 52.6471C289.936 52.154 289.35 51.4529 288.924 50.5437C288.502 49.6295 288.292 48.5328 288.292 47.2538C288.292 45.9748 288.505 44.8808 288.931 43.9716C289.363 43.0624 289.954 42.3664 290.703 41.8836C291.453 41.4008 292.303 41.1594 293.254 41.1594C293.988 41.1594 294.579 41.2826 295.026 41.5292C295.478 41.7706 295.827 42.0531 296.074 42.3767C296.325 42.7003 296.521 42.9854 296.659 43.2319H296.798V37.3686H299.102V53.1479H296.852V51.3065H296.659C296.521 51.5582 296.32 51.8458 296.058 52.1694C295.801 52.493 295.447 52.7756 294.995 53.017C294.543 53.2584 293.957 53.3791 293.238 53.3791ZM293.747 51.4144C294.409 51.4144 294.969 51.2397 295.426 50.8905C295.889 50.536 296.238 50.0455 296.474 49.4189C296.716 48.7922 296.836 48.0628 296.836 47.2307C296.836 46.4089 296.718 45.6898 296.482 45.0734C296.246 44.457 295.899 43.9767 295.442 43.6326C294.985 43.2884 294.42 43.1164 293.747 43.1164C293.053 43.1164 292.476 43.2962 292.013 43.6557C291.551 44.0153 291.202 44.5058 290.965 45.1273C290.734 45.7488 290.619 46.45 290.619 47.2307C290.619 48.0217 290.737 48.7331 290.973 49.3649C291.209 49.9967 291.559 50.4975 292.021 50.8673C292.488 51.232 293.064 51.4144 293.747 51.4144ZM44.1936 74.3135V76.1626H37.7293V74.3135H44.1936ZM39.4628 71.4781H41.7666V82.6731C41.7666 83.12 41.8333 83.4564 41.9669 83.6824C42.1004 83.9033 42.2725 84.0548 42.4831 84.137C42.6988 84.2141 42.9325 84.2526 43.1842 84.2526C43.3692 84.2526 43.531 84.2397 43.6696 84.2141C43.8083 84.1884 43.9162 84.1678 43.9932 84.1524L44.4093 86.0555C44.2757 86.1069 44.0857 86.1582 43.8391 86.2096C43.5926 86.2661 43.2844 86.2969 42.9146 86.302C42.3085 86.3123 41.7435 86.2045 41.2195 85.9784C40.6956 85.7524 40.2718 85.4032 39.9482 84.9306C39.6246 84.458 39.4628 83.8648 39.4628 83.1508V71.4781ZM49.0612 79.1212V86.1479H46.7575V70.3686H49.0304V76.2397H49.1768C49.4542 75.6027 49.8779 75.0968 50.4481 74.7218C51.0182 74.3469 51.763 74.1594 52.6824 74.1594C53.494 74.1594 54.2028 74.3263 54.8089 74.6602C55.4202 74.9941 55.8927 75.4923 56.2266 76.1549C56.5656 76.8124 56.7351 77.6342 56.7351 78.6204V86.1479H54.4314V78.8978C54.4314 78.0297 54.208 77.3568 53.7611 76.8791C53.3142 76.3963 52.6927 76.1549 51.8966 76.1549C51.3521 76.1549 50.8641 76.2705 50.4327 76.5016C50.0063 76.7328 49.6699 77.0718 49.4233 77.5186C49.1819 77.9604 49.0612 78.4946 49.0612 79.1212ZM64.6712 86.3868C63.5052 86.3868 62.501 86.1377 61.6586 85.6394C60.8214 85.1361 60.1742 84.4298 59.7171 83.5206C59.265 82.6063 59.039 81.5354 59.039 80.3078C59.039 79.0955 59.265 78.0272 59.7171 77.1026C60.1742 76.178 60.8111 75.4563 61.6278 74.9376C62.4497 74.4188 63.4102 74.1594 64.5094 74.1594C65.1771 74.1594 65.8243 74.2698 66.451 74.4907C67.0776 74.7115 67.6401 75.0583 68.1383 75.5308C68.6366 76.0034 69.0295 76.6172 69.3172 77.3722C69.6048 78.1222 69.7486 79.0339 69.7486 80.1074V80.9241H60.3411V79.1983H67.4911C67.4911 78.5922 67.3679 78.0554 67.1213 77.588C66.8748 77.1154 66.528 76.743 66.0812 76.4708C65.6394 76.1986 65.1206 76.0624 64.5248 76.0624C63.8776 76.0624 63.3126 76.2217 62.8298 76.5401C62.3521 76.8535 61.9822 77.2644 61.7203 77.7729C61.4635 78.2763 61.335 78.8233 61.335 79.414V80.7623C61.335 81.5534 61.4737 82.2262 61.7511 82.781C62.0336 83.3357 62.4266 83.7595 62.9299 84.0523C63.4333 84.3399 64.0214 84.4837 64.6943 84.4837C65.1309 84.4837 65.529 84.4221 65.8886 84.2988C66.2481 84.1704 66.5589 83.9803 66.8208 83.7287C67.0828 83.477 67.2831 83.1662 67.4218 82.7964L69.6022 83.1893C69.4276 83.8314 69.1143 84.3938 68.6623 84.8767C68.2154 85.3544 67.6529 85.7268 66.9749 85.9939C66.302 86.2558 65.5341 86.3868 64.6712 86.3868ZM82.5543 86.3868C81.4088 86.3868 80.4226 86.1274 79.5957 85.6086C78.7738 85.0847 78.142 84.363 77.7003 83.4436C77.2586 82.5242 77.0377 81.4712 77.0377 80.2846C77.0377 79.0827 77.2637 78.022 77.7157 77.1026C78.1677 76.178 78.8046 75.4563 79.6265 74.9376C80.4483 74.4188 81.4165 74.1594 82.5312 74.1594C83.43 74.1594 84.2313 74.3263 84.935 74.6602C85.6387 74.9889 86.2063 75.4512 86.6378 76.047C87.0744 76.6429 87.3338 77.3389 87.416 78.135H85.1739C85.0506 77.5803 84.7681 77.1026 84.3264 76.7019C83.8898 76.3013 83.3042 76.101 82.5697 76.101C81.9276 76.101 81.3652 76.2705 80.8823 76.6095C80.4047 76.9434 80.0323 77.421 79.7652 78.0426C79.4981 78.6589 79.3645 79.3883 79.3645 80.2307C79.3645 81.0936 79.4955 81.8384 79.7575 82.4651C80.0194 83.0917 80.3892 83.5771 80.8669 83.9213C81.3498 84.2654 81.9174 84.4375 82.5697 84.4375C83.0063 84.4375 83.4018 84.3579 83.7562 84.1986C84.1158 84.0343 84.4163 83.8006 84.6577 83.4975C84.9042 83.1945 85.0763 82.8298 85.1739 82.4034H87.416C87.3338 83.1688 87.0847 83.8519 86.6686 84.4529C86.2526 85.0539 85.6952 85.5264 84.9967 85.8706C84.3033 86.2147 83.4891 86.3868 82.5543 86.3868ZM93.0849 86.4099C92.335 86.4099 91.657 86.2712 91.0509 85.9939C90.4448 85.7113 89.9645 85.303 89.6101 84.7688C89.2608 84.2346 89.0862 83.5797 89.0862 82.8041C89.0862 82.1363 89.2146 81.5867 89.4714 81.1553C89.7282 80.7238 90.0749 80.3822 90.5115 80.1305C90.9481 79.8789 91.4361 79.6888 91.9754 79.5604C92.5148 79.432 93.0644 79.3344 93.6242 79.2676C94.3331 79.1854 94.9084 79.1187 95.3501 79.0673C95.7918 79.0108 96.1129 78.9209 96.3132 78.7976C96.5135 78.6744 96.6137 78.474 96.6137 78.1967V78.1427C96.6137 77.4698 96.4236 76.9485 96.0435 76.5787C95.6686 76.2088 95.1087 76.0239 94.3639 76.0239C93.5883 76.0239 92.977 76.196 92.5302 76.5401C92.0884 76.8791 91.7828 77.2567 91.6133 77.6727L89.4483 77.1796C89.7051 76.4605 90.0801 75.8801 90.5732 75.4384C91.0714 74.9915 91.6441 74.6679 92.2913 74.4676C92.9385 74.2621 93.6191 74.1594 94.3331 74.1594C94.8056 74.1594 95.3064 74.2159 95.8355 74.3289C96.3697 74.4367 96.8679 74.6371 97.3302 74.9298C97.7976 75.2226 98.1803 75.6413 98.4782 76.1857C98.7762 76.7251 98.9251 77.4262 98.9251 78.2891V86.1479H96.6753V84.53H96.5829C96.4339 84.8279 96.2105 85.1207 95.9126 85.4083C95.6146 85.6959 95.232 85.9348 94.7645 86.1248C94.2971 86.3149 93.7372 86.4099 93.0849 86.4099ZM93.5857 84.5608C94.2226 84.5608 94.7671 84.4349 95.2191 84.1832C95.6763 83.9316 96.023 83.6028 96.2593 83.197C96.5007 82.7861 96.6214 82.3469 96.6214 81.8795V80.354C96.5392 80.4362 96.38 80.5132 96.1437 80.5851C95.9126 80.6519 95.648 80.711 95.3501 80.7623C95.0522 80.8086 94.762 80.8522 94.4795 80.8933C94.197 80.9293 93.9607 80.9601 93.7706 80.9858C93.3238 81.0423 92.9154 81.1373 92.5456 81.2708C92.1809 81.4044 91.8881 81.597 91.6672 81.8487C91.4515 82.0953 91.3436 82.424 91.3436 82.8349C91.3436 83.4051 91.5542 83.8365 91.9754 84.1293C92.3966 84.417 92.9334 84.5608 93.5857 84.5608ZM104.059 70.3686V86.1479H101.755V70.3686H104.059ZM111.904 86.3868C110.759 86.3868 109.772 86.1274 108.945 85.6086C108.124 85.0847 107.492 84.363 107.05 83.4436C106.608 82.5242 106.388 81.4712 106.388 80.2846C106.388 79.0827 106.614 78.022 107.066 77.1026C107.518 76.178 108.154 75.4563 108.976 74.9376C109.798 74.4188 110.766 74.1594 111.881 74.1594C112.78 74.1594 113.581 74.3263 114.285 74.6602C114.989 74.9889 115.556 75.4512 115.988 76.047C116.424 76.6429 116.684 77.3389 116.766 78.135H114.524C114.4 77.5803 114.118 77.1026 113.676 76.7019C113.24 76.3013 112.654 76.101 111.92 76.101C111.277 76.101 110.715 76.2705 110.232 76.6095C109.754 76.9434 109.382 77.421 109.115 78.0426C108.848 78.6589 108.714 79.3883 108.714 80.2307C108.714 81.0936 108.845 81.8384 109.107 82.4651C109.369 83.0917 109.739 83.5771 110.217 83.9213C110.7 84.2654 111.267 84.4375 111.92 84.4375C112.356 84.4375 112.752 84.3579 113.106 84.1986C113.466 84.0343 113.766 83.8006 114.008 83.4975C114.254 83.1945 114.426 82.8298 114.524 82.4034H116.766C116.684 83.1688 116.434 83.8519 116.018 84.4529C115.602 85.0539 115.045 85.5264 114.347 85.8706C113.653 86.2147 112.839 86.3868 111.904 86.3868ZM126.487 81.24V74.3135H128.799V86.1479H126.534V84.0985H126.41C126.138 84.7303 125.702 85.2568 125.101 85.678C124.505 86.094 123.763 86.302 122.874 86.302C122.114 86.302 121.441 86.1351 120.855 85.8012C120.275 85.4622 119.818 84.9614 119.484 84.2988C119.155 83.6362 118.991 82.8169 118.991 81.841V74.3135H121.294V81.5636C121.294 82.3701 121.518 83.0121 121.965 83.4898C122.412 83.9675 122.992 84.2064 123.706 84.2064C124.137 84.2064 124.566 84.0985 124.993 83.8828C125.424 83.667 125.781 83.3409 126.064 82.9043C126.351 82.4677 126.493 81.9129 126.487 81.24ZM133.959 70.3686V86.1479H131.656V70.3686H133.959ZM140.264 86.4099C139.514 86.4099 138.836 86.2712 138.23 85.9939C137.624 85.7113 137.143 85.303 136.789 84.7688C136.44 84.2346 136.265 83.5797 136.265 82.8041C136.265 82.1363 136.394 81.5867 136.65 81.1553C136.907 80.7238 137.254 80.3822 137.691 80.1305C138.127 79.8789 138.615 79.6888 139.154 79.5604C139.694 79.432 140.243 79.3344 140.803 79.2676C141.512 79.1854 142.087 79.1187 142.529 79.0673C142.971 79.0108 143.292 78.9209 143.492 78.7976C143.693 78.6744 143.793 78.474 143.793 78.1967V78.1427C143.793 77.4698 143.603 76.9485 143.223 76.5787C142.848 76.2088 142.288 76.0239 141.543 76.0239C140.767 76.0239 140.156 76.196 139.709 76.5401C139.267 76.8791 138.962 77.2567 138.792 77.6727L136.627 77.1796C136.884 76.4605 137.259 75.8801 137.752 75.4384C138.25 74.9915 138.823 74.6679 139.47 74.4676C140.118 74.2621 140.798 74.1594 141.512 74.1594C141.985 74.1594 142.485 74.2159 143.014 74.3289C143.549 74.4367 144.047 74.6371 144.509 74.9298C144.977 75.2226 145.359 75.6413 145.657 76.1857C145.955 76.7251 146.104 77.4262 146.104 78.2891V86.1479H143.854V84.53H143.762C143.613 84.8279 143.389 85.1207 143.092 85.4083C142.794 85.6959 142.411 85.9348 141.944 86.1248C141.476 86.3149 140.916 86.4099 140.264 86.4099ZM140.765 84.5608C141.402 84.5608 141.946 84.4349 142.398 84.1832C142.855 83.9316 143.202 83.6028 143.438 83.197C143.68 82.7861 143.8 82.3469 143.8 81.8795V80.354C143.718 80.4362 143.559 80.5132 143.323 80.5851C143.092 80.6519 142.827 80.711 142.529 80.7623C142.231 80.8086 141.941 80.8522 141.658 80.8933C141.376 80.9293 141.14 80.9601 140.95 80.9858C140.503 81.0423 140.094 81.1373 139.725 81.2708C139.36 81.4044 139.067 81.597 138.846 81.8487C138.63 82.0953 138.523 82.424 138.523 82.8349C138.523 83.4051 138.733 83.8365 139.154 84.1293C139.576 84.417 140.112 84.5608 140.765 84.5608ZM154.458 74.3135V76.1626H147.994V74.3135H154.458ZM149.727 71.4781H152.031V82.6731C152.031 83.12 152.098 83.4564 152.231 83.6824C152.365 83.9033 152.537 84.0548 152.748 84.137C152.963 84.2141 153.197 84.2526 153.449 84.2526C153.634 84.2526 153.796 84.2397 153.934 84.2141C154.073 84.1884 154.181 84.1678 154.258 84.1524L154.674 86.0555C154.54 86.1069 154.35 86.1582 154.104 86.2096C153.857 86.2661 153.549 86.2969 153.179 86.302C152.573 86.3123 152.008 86.2045 151.484 85.9784C150.96 85.7524 150.536 85.4032 150.213 84.9306C149.889 84.458 149.727 83.8648 149.727 83.1508V71.4781ZM161.626 86.3868C160.516 86.3868 159.548 86.1325 158.721 85.624C157.894 85.1155 157.252 84.4041 156.795 83.4898C156.338 82.5755 156.109 81.5071 156.109 80.2846C156.109 79.057 156.338 77.9835 156.795 77.0641C157.252 76.1446 157.894 75.4307 158.721 74.9221C159.548 74.4136 160.516 74.1594 161.626 74.1594C162.735 74.1594 163.703 74.4136 164.53 74.9221C165.357 75.4307 165.999 76.1446 166.457 77.0641C166.914 77.9835 167.142 79.057 167.142 80.2846C167.142 81.5071 166.914 82.5755 166.457 83.4898C165.999 84.4041 165.357 85.1155 164.53 85.624C163.703 86.1325 162.735 86.3868 161.626 86.3868ZM161.633 84.4529C162.352 84.4529 162.948 84.2629 163.421 83.8828C163.893 83.5027 164.243 82.9967 164.469 82.3649C164.7 81.7331 164.815 81.0371 164.815 80.2769C164.815 79.5219 164.7 78.8284 164.469 78.1967C164.243 77.5597 163.893 77.0486 163.421 76.6634C162.948 76.2782 162.352 76.0856 161.633 76.0856C160.909 76.0856 160.308 76.2782 159.83 76.6634C159.358 77.0486 159.006 77.5597 158.775 78.1967C158.549 78.8284 158.436 79.5219 158.436 80.2769C158.436 81.0371 158.549 81.7331 158.775 82.3649C159.006 82.9967 159.358 83.5027 159.83 83.8828C160.308 84.2629 160.909 84.4529 161.633 84.4529ZM169.475 86.1479V74.3135H171.702V76.1934H171.825C172.041 75.5565 172.421 75.0557 172.965 74.691C173.515 74.3212 174.136 74.1363 174.83 74.1363C174.974 74.1363 175.143 74.1414 175.338 74.1517C175.539 74.1619 175.695 74.1748 175.808 74.1902V76.3937C175.716 76.3681 175.552 76.3398 175.315 76.309C175.079 76.273 174.843 76.2551 174.606 76.2551C174.062 76.2551 173.577 76.3706 173.15 76.6018C172.729 76.8278 172.395 77.1437 172.149 77.5495C171.902 77.9501 171.779 78.4073 171.779 78.9209V86.1479H169.475ZM183.251 86.1479V70.3686H185.555V76.2319H185.694C185.827 75.9854 186.02 75.7003 186.272 75.3767C186.523 75.0531 186.873 74.7706 187.32 74.5292C187.766 74.2826 188.357 74.1594 189.092 74.1594C190.047 74.1594 190.9 74.4008 191.65 74.8836C192.4 75.3664 192.988 76.0624 193.414 76.9716C193.846 77.8808 194.061 78.9748 194.061 80.2538C194.061 81.5328 193.848 82.6295 193.422 83.5437C192.995 84.4529 192.41 85.154 191.665 85.6471C190.92 86.1351 190.07 86.3791 189.115 86.3791C188.396 86.3791 187.808 86.2584 187.35 86.017C186.898 85.7756 186.544 85.493 186.287 85.1694C186.03 84.8458 185.833 84.5582 185.694 84.3065H185.501V86.1479H183.251ZM185.509 80.2307C185.509 81.0628 185.63 81.7922 185.871 82.4189C186.113 83.0455 186.462 83.536 186.919 83.8905C187.376 84.2397 187.936 84.4144 188.599 84.4144C189.287 84.4144 189.862 84.232 190.324 83.8673C190.787 83.4975 191.136 82.9967 191.372 82.3649C191.614 81.7331 191.734 81.0217 191.734 80.2307C191.734 79.45 191.616 78.7488 191.38 78.1273C191.149 77.5058 190.8 77.0153 190.332 76.6557C189.87 76.2962 189.292 76.1164 188.599 76.1164C187.931 76.1164 187.366 76.2884 186.904 76.6326C186.446 76.9767 186.1 77.457 185.863 78.0734C185.627 78.6898 185.509 79.4089 185.509 80.2307ZM203.906 81.24V74.3135H206.218V86.1479H203.952V84.0985H203.829C203.557 84.7303 203.12 85.2568 202.519 85.678C201.923 86.094 201.181 86.302 200.293 86.302C199.532 86.302 198.86 86.1351 198.274 85.8012C197.694 85.4622 197.236 84.9614 196.903 84.2988C196.574 83.6362 196.409 82.8169 196.409 81.841V74.3135H198.713V81.5636C198.713 82.3701 198.937 83.0121 199.383 83.4898C199.83 83.9675 200.411 84.2064 201.125 84.2064C201.556 84.2064 201.985 84.0985 202.411 83.8828C202.843 83.667 203.2 83.3409 203.482 82.9043C203.77 82.4677 203.911 81.9129 203.906 81.24ZM214.599 74.3135V76.1626H208.134V74.3135H214.599ZM209.868 71.4781H212.172V82.6731C212.172 83.12 212.238 83.4564 212.372 83.6824C212.505 83.9033 212.678 84.0548 212.888 84.137C213.104 84.2141 213.338 84.2526 213.589 84.2526C213.774 84.2526 213.936 84.2397 214.075 84.2141C214.213 84.1884 214.321 84.1678 214.398 84.1524L214.814 86.0555C214.681 86.1069 214.491 86.1582 214.244 86.2096C213.998 86.2661 213.689 86.2969 213.32 86.302C212.714 86.3123 212.148 86.2045 211.625 85.9784C211.101 85.7524 210.677 85.4032 210.353 84.9306C210.03 84.458 209.868 83.8648 209.868 83.1508V71.4781ZM222.433 74.3135V76.1626H215.968V74.3135H222.433ZM217.702 71.4781H220.006V82.6731C220.006 83.12 220.072 83.4564 220.206 83.6824C220.339 83.9033 220.512 84.0548 220.722 84.137C220.938 84.2141 221.172 84.2526 221.423 84.2526C221.608 84.2526 221.77 84.2397 221.909 84.2141C222.047 84.1884 222.155 84.1678 222.232 84.1524L222.648 86.0555C222.515 86.1069 222.325 86.1582 222.078 86.2096C221.832 86.2661 221.523 86.2969 221.154 86.302C220.547 86.3123 219.982 86.2045 219.459 85.9784C218.935 85.7524 218.511 85.4032 218.187 84.9306C217.864 84.458 217.702 83.8648 217.702 83.1508V71.4781ZM229.6 86.3868C228.491 86.3868 227.522 86.1325 226.695 85.624C225.868 85.1155 225.226 84.4041 224.769 83.4898C224.312 82.5755 224.084 81.5071 224.084 80.2846C224.084 79.057 224.312 77.9835 224.769 77.0641C225.226 76.1446 225.868 75.4307 226.695 74.9221C227.522 74.4136 228.491 74.1594 229.6 74.1594C230.71 74.1594 231.678 74.4136 232.505 74.9221C233.332 75.4307 233.974 76.1446 234.431 77.0641C234.888 77.9835 235.117 79.057 235.117 80.2846C235.117 81.5071 234.888 82.5755 234.431 83.4898C233.974 84.4041 233.332 85.1155 232.505 85.624C231.678 86.1325 230.71 86.3868 229.6 86.3868ZM229.608 84.4529C230.327 84.4529 230.923 84.2629 231.395 83.8828C231.868 83.5027 232.217 82.9967 232.443 82.3649C232.674 81.7331 232.79 81.0371 232.79 80.2769C232.79 79.5219 232.674 78.8284 232.443 78.1967C232.217 77.5597 231.868 77.0486 231.395 76.6634C230.923 76.2782 230.327 76.0856 229.608 76.0856C228.884 76.0856 228.283 76.2782 227.805 76.6634C227.332 77.0486 226.98 77.5597 226.749 78.1967C226.523 78.8284 226.41 79.5219 226.41 80.2769C226.41 81.0371 226.523 81.7331 226.749 82.3649C226.98 82.9967 227.332 83.5027 227.805 83.8828C228.283 84.2629 228.884 84.4529 229.608 84.4529ZM239.753 79.1212V86.1479H237.449V74.3135H239.661V76.2397H239.807C240.079 75.613 240.506 75.1096 241.086 74.7295C241.672 74.3494 242.409 74.1594 243.297 74.1594C244.104 74.1594 244.81 74.3289 245.416 74.6679C246.022 75.0018 246.492 75.5 246.826 76.1626C247.16 76.8252 247.327 77.6445 247.327 78.6204V86.1479H245.023V78.8978C245.023 78.04 244.8 77.3697 244.353 76.8869C243.906 76.3989 243.292 76.1549 242.512 76.1549C241.977 76.1549 241.502 76.2705 241.086 76.5016C240.675 76.7328 240.349 77.0718 240.108 77.5186C239.871 77.9604 239.753 78.4946 239.753 79.1212ZM251.696 86.2943C251.275 86.2943 250.912 86.1454 250.609 85.8475C250.306 85.5444 250.155 85.1797 250.155 84.7534C250.155 84.3322 250.306 83.9726 250.609 83.6747C250.912 83.3717 251.275 83.2201 251.696 83.2201C252.117 83.2201 252.479 83.3717 252.782 83.6747C253.085 83.9726 253.237 84.3322 253.237 84.7534C253.237 85.0359 253.165 85.2953 253.021 85.5316C252.882 85.7627 252.697 85.9476 252.466 86.0863C252.235 86.225 251.978 86.2943 251.696 86.2943ZM256.517 70.3686V71.8479C256.517 72.2846 256.435 72.7443 256.271 73.2271C256.111 73.7048 255.885 74.1645 255.593 74.6062C255.3 75.048 254.956 75.4281 254.56 75.7465L253.42 74.9298C253.723 74.4881 253.985 74.0181 254.206 73.5199C254.432 73.0216 254.545 72.472 254.545 71.8711V70.3686H256.517ZM260.439 70.3686V71.8479C260.439 72.2846 260.357 72.7443 260.192 73.2271C260.033 73.7048 259.807 74.1645 259.514 74.6062C259.222 75.048 258.877 75.4281 258.482 75.7465L257.342 74.9298C257.645 74.4881 257.907 74.0181 258.127 73.5199C258.353 73.0216 258.466 72.472 258.466 71.8711V70.3686H260.439ZM39.3396 112.599C39.3396 110.668 39.5938 108.89 40.1023 107.267C40.6109 105.644 41.3531 104.147 42.329 102.775H44.4401C44.06 103.284 43.7056 103.908 43.3769 104.648C43.0481 105.387 42.7605 106.199 42.5139 107.082C42.2674 107.961 42.0748 108.872 41.9361 109.818C41.7974 110.757 41.728 111.685 41.728 112.599C41.728 113.821 41.8487 115.059 42.0902 116.313C42.3316 117.566 42.6577 118.729 43.0687 119.803C43.4796 120.876 43.9367 121.752 44.4401 122.43H42.329C41.3531 121.059 40.6109 119.561 40.1023 117.938C39.5938 116.315 39.3396 114.535 39.3396 112.599ZM51.4035 119.387C50.258 119.387 49.2718 119.127 48.4448 118.609C47.623 118.085 46.9912 117.363 46.5495 116.444C46.1077 115.524 45.8869 114.471 45.8869 113.285C45.8869 112.083 46.1129 111.022 46.5649 110.103C47.0169 109.178 47.6538 108.456 48.4757 107.938C49.2975 107.419 50.2657 107.159 51.3803 107.159C52.2792 107.159 53.0805 107.326 53.7842 107.66C54.4879 107.989 55.0555 108.451 55.487 109.047C55.9236 109.643 56.183 110.339 56.2651 111.135H54.0231C53.8998 110.58 53.6173 110.103 53.1755 109.702C52.7389 109.301 52.1534 109.101 51.4189 109.101C50.7768 109.101 50.2144 109.27 49.7315 109.609C49.2538 109.943 48.8814 110.421 48.6143 111.043C48.3472 111.659 48.2137 112.388 48.2137 113.231C48.2137 114.094 48.3447 114.838 48.6066 115.465C48.8686 116.092 49.2384 116.577 49.7161 116.921C50.1989 117.265 50.7665 117.437 51.4189 117.437C51.8555 117.437 52.251 117.358 52.6054 117.199C52.9649 117.034 53.2654 116.801 53.5068 116.498C53.7534 116.194 53.9255 115.83 54.0231 115.403H56.2651C56.183 116.169 55.9338 116.852 55.5178 117.453C55.1017 118.054 54.5444 118.526 53.8459 118.871C53.1524 119.215 52.3383 119.387 51.4035 119.387ZM61.9341 119.41C61.1842 119.41 60.5061 119.271 59.9 118.994C59.2939 118.711 58.8137 118.303 58.4593 117.769C58.11 117.235 57.9353 116.58 57.9353 115.804C57.9353 115.136 58.0637 114.587 58.3206 114.155C58.5774 113.724 58.9241 113.382 59.3607 113.131C59.7973 112.879 60.2853 112.689 60.8246 112.56C61.3639 112.432 61.9135 112.334 62.4734 112.268C63.1823 112.185 63.7575 112.119 64.1993 112.067C64.641 112.011 64.9621 111.921 65.1624 111.798C65.3627 111.674 65.4629 111.474 65.4629 111.197V111.143C65.4629 110.47 65.2728 109.948 64.8927 109.579C64.5178 109.209 63.9579 109.024 63.2131 109.024C62.4375 109.024 61.8262 109.196 61.3794 109.54C60.9376 109.879 60.632 110.257 60.4625 110.673L58.2975 110.18C58.5543 109.461 58.9292 108.88 59.4223 108.438C59.9206 107.991 60.4933 107.668 61.1405 107.468C61.7877 107.262 62.4683 107.159 63.1823 107.159C63.6548 107.159 64.1556 107.216 64.6847 107.329C65.2189 107.437 65.7171 107.637 66.1794 107.93C66.6468 108.223 67.0295 108.641 67.3274 109.186C67.6253 109.725 67.7743 110.426 67.7743 111.289V119.148H65.5245V117.53H65.432C65.2831 117.828 65.0597 118.121 64.7617 118.408C64.4638 118.696 64.0811 118.935 63.6137 119.125C63.1463 119.315 62.5864 119.41 61.9341 119.41ZM62.4349 117.561C63.0718 117.561 63.6163 117.435 64.0683 117.183C64.5255 116.932 64.8722 116.603 65.1084 116.197C65.3499 115.786 65.4706 115.347 65.4706 114.88V113.354C65.3884 113.436 65.2292 113.513 64.9929 113.585C64.7617 113.652 64.4972 113.711 64.1993 113.762C63.9014 113.809 63.6112 113.852 63.3287 113.893C63.0461 113.929 62.8099 113.96 62.6198 113.986C62.1729 114.042 61.7646 114.137 61.3948 114.271C61.0301 114.404 60.7373 114.597 60.5164 114.849C60.3007 115.095 60.1928 115.424 60.1928 115.835C60.1928 116.405 60.4034 116.837 60.8246 117.129C61.2458 117.417 61.7826 117.561 62.4349 117.561ZM72.9078 103.369V119.148H70.604V103.369H72.9078ZM80.7533 119.387C79.6079 119.387 78.6216 119.127 77.7947 118.609C76.9728 118.085 76.341 117.363 75.8993 116.444C75.4576 115.524 75.2367 114.471 75.2367 113.285C75.2367 112.083 75.4627 111.022 75.9147 110.103C76.3667 109.178 77.0037 108.456 77.8255 107.938C78.6473 107.419 79.6156 107.159 80.7302 107.159C81.6291 107.159 82.4304 107.326 83.1341 107.66C83.8378 107.989 84.4053 108.451 84.8368 109.047C85.2734 109.643 85.5328 110.339 85.615 111.135H83.3729C83.2496 110.58 82.9671 110.103 82.5254 109.702C82.0888 109.301 81.5032 109.101 80.7687 109.101C80.1266 109.101 79.5642 109.27 79.0814 109.609C78.6037 109.943 78.2313 110.421 77.9642 111.043C77.6971 111.659 77.5635 112.388 77.5635 113.231C77.5635 114.094 77.6945 114.838 77.9565 115.465C78.2184 116.092 78.5883 116.577 79.066 116.921C79.5488 117.265 80.1164 117.437 80.7687 117.437C81.2053 117.437 81.6008 117.358 81.9552 117.199C82.3148 117.034 82.6153 116.801 82.8567 116.498C83.1032 116.194 83.2753 115.83 83.3729 115.403H85.615C85.5328 116.169 85.2837 116.852 84.8676 117.453C84.4516 118.054 83.8943 118.526 83.1957 118.871C82.5023 119.215 81.6881 119.387 80.7533 119.387ZM95.3366 114.24V107.313H97.648V119.148H95.3829V117.098H95.2596C94.9873 117.73 94.5507 118.257 93.9498 118.678C93.3539 119.094 92.6117 119.302 91.7231 119.302C90.9629 119.302 90.29 119.135 89.7045 118.801C89.124 118.462 88.6669 117.961 88.333 117.299C88.0043 116.636 87.8399 115.817 87.8399 114.841V107.313H90.1436V114.564C90.1436 115.37 90.3671 116.012 90.8139 116.49C91.2608 116.968 91.8412 117.206 92.5552 117.206C92.9867 117.206 93.4156 117.098 93.8419 116.883C94.2734 116.667 94.6304 116.341 94.9129 115.904C95.2005 115.468 95.3418 114.913 95.3366 114.24ZM102.808 103.369V119.148H100.505V103.369H102.808ZM109.113 119.41C108.363 119.41 107.685 119.271 107.079 118.994C106.473 118.711 105.993 118.303 105.638 117.769C105.289 117.235 105.114 116.58 105.114 115.804C105.114 115.136 105.243 114.587 105.5 114.155C105.756 113.724 106.103 113.382 106.54 113.131C106.976 112.879 107.464 112.689 108.004 112.56C108.543 112.432 109.093 112.334 109.652 112.268C110.361 112.185 110.937 112.119 111.378 112.067C111.82 112.011 112.141 111.921 112.341 111.798C112.542 111.674 112.642 111.474 112.642 111.197V111.143C112.642 110.47 112.452 109.948 112.072 109.579C111.697 109.209 111.137 109.024 110.392 109.024C109.616 109.024 109.005 109.196 108.558 109.54C108.117 109.879 107.811 110.257 107.641 110.673L105.476 110.18C105.733 109.461 106.108 108.88 106.601 108.438C107.1 107.991 107.672 107.668 108.319 107.468C108.967 107.262 109.647 107.159 110.361 107.159C110.834 107.159 111.335 107.216 111.864 107.329C112.398 107.437 112.896 107.637 113.358 107.93C113.826 108.223 114.208 108.641 114.506 109.186C114.804 109.725 114.953 110.426 114.953 111.289V119.148H112.703V117.53H112.611C112.462 117.828 112.239 118.121 111.941 118.408C111.643 118.696 111.26 118.935 110.793 119.125C110.325 119.315 109.765 119.41 109.113 119.41ZM109.614 117.561C110.251 117.561 110.795 117.435 111.247 117.183C111.704 116.932 112.051 116.603 112.287 116.197C112.529 115.786 112.65 115.347 112.65 114.88V113.354C112.567 113.436 112.408 113.513 112.172 113.585C111.941 113.652 111.676 113.711 111.378 113.762C111.08 113.809 110.79 113.852 110.508 113.893C110.225 113.929 109.989 113.96 109.799 113.986C109.352 114.042 108.944 114.137 108.574 114.271C108.209 114.404 107.916 114.597 107.695 114.849C107.48 115.095 107.372 115.424 107.372 115.835C107.372 116.405 107.582 116.837 108.004 117.129C108.425 117.417 108.962 117.561 109.614 117.561ZM123.307 107.313V109.163H116.843V107.313H123.307ZM118.577 104.478H120.88V115.673C120.88 116.12 120.947 116.456 121.081 116.682C121.214 116.903 121.386 117.055 121.597 117.137C121.813 117.214 122.046 117.253 122.298 117.253C122.483 117.253 122.645 117.24 122.783 117.214C122.922 117.188 123.03 117.168 123.107 117.152L123.523 119.055C123.389 119.107 123.199 119.158 122.953 119.21C122.706 119.266 122.398 119.297 122.028 119.302C121.422 119.312 120.857 119.204 120.333 118.978C119.809 118.752 119.386 118.403 119.062 117.931C118.738 117.458 118.577 116.865 118.577 116.151V104.478ZM130.475 119.387C129.365 119.387 128.397 119.133 127.57 118.624C126.743 118.116 126.101 117.404 125.644 116.49C125.187 115.576 124.958 114.507 124.958 113.285C124.958 112.057 125.187 110.983 125.644 110.064C126.101 109.145 126.743 108.431 127.57 107.922C128.397 107.414 129.365 107.159 130.475 107.159C131.584 107.159 132.553 107.414 133.38 107.922C134.206 108.431 134.849 109.145 135.306 110.064C135.763 110.983 135.991 112.057 135.991 113.285C135.991 114.507 135.763 115.576 135.306 116.49C134.849 117.404 134.206 118.116 133.38 118.624C132.553 119.133 131.584 119.387 130.475 119.387ZM130.483 117.453C131.202 117.453 131.797 117.263 132.27 116.883C132.743 116.503 133.092 115.997 133.318 115.365C133.549 114.733 133.665 114.037 133.665 113.277C133.665 112.522 133.549 111.828 133.318 111.197C133.092 110.56 132.743 110.049 132.27 109.663C131.797 109.278 131.202 109.086 130.483 109.086C129.758 109.086 129.157 109.278 128.68 109.663C128.207 110.049 127.855 110.56 127.624 111.197C127.398 111.828 127.285 112.522 127.285 113.277C127.285 114.037 127.398 114.733 127.624 115.365C127.855 115.997 128.207 116.503 128.68 116.883C129.157 117.263 129.758 117.453 130.483 117.453ZM138.324 119.148V107.313H140.551V109.193H140.674C140.89 108.556 141.27 108.056 141.814 107.691C142.364 107.321 142.986 107.136 143.679 107.136C143.823 107.136 143.992 107.141 144.188 107.152C144.388 107.162 144.545 107.175 144.658 107.19V109.394C144.565 109.368 144.401 109.34 144.164 109.309C143.928 109.273 143.692 109.255 143.456 109.255C142.911 109.255 142.426 109.371 141.999 109.602C141.578 109.828 141.244 110.144 140.998 110.549C140.751 110.95 140.628 111.407 140.628 111.921V119.148H138.324ZM160.784 110.203L158.696 110.573C158.609 110.305 158.47 110.051 158.28 109.81C158.095 109.568 157.843 109.371 157.525 109.217C157.206 109.062 156.808 108.985 156.331 108.985C155.678 108.985 155.134 109.132 154.697 109.425C154.261 109.712 154.042 110.085 154.042 110.542C154.042 110.937 154.189 111.256 154.481 111.497C154.774 111.739 155.247 111.936 155.899 112.09L157.779 112.522C158.868 112.774 159.68 113.161 160.214 113.685C160.748 114.209 161.015 114.89 161.015 115.727C161.015 116.436 160.81 117.068 160.399 117.622C159.993 118.172 159.425 118.603 158.696 118.917C157.972 119.23 157.132 119.387 156.176 119.387C154.851 119.387 153.77 119.104 152.933 118.539C152.096 117.969 151.582 117.16 151.392 116.112L153.619 115.773C153.757 116.354 154.042 116.793 154.474 117.091C154.905 117.384 155.468 117.53 156.161 117.53C156.916 117.53 157.52 117.373 157.972 117.06C158.424 116.742 158.65 116.354 158.65 115.897C158.65 115.527 158.511 115.216 158.234 114.964C157.961 114.713 157.543 114.523 156.978 114.394L154.975 113.955C153.87 113.703 153.053 113.303 152.524 112.753C152.001 112.203 151.739 111.507 151.739 110.665C151.739 109.966 151.934 109.355 152.324 108.831C152.714 108.307 153.254 107.899 153.942 107.606C154.63 107.308 155.419 107.159 156.307 107.159C157.586 107.159 158.593 107.437 159.328 107.991C160.062 108.541 160.548 109.278 160.784 110.203ZM168.294 119.387C167.149 119.387 166.163 119.127 165.336 118.609C164.514 118.085 163.882 117.363 163.44 116.444C162.999 115.524 162.778 114.471 162.778 113.285C162.778 112.083 163.004 111.022 163.456 110.103C163.908 109.178 164.545 108.456 165.366 107.938C166.188 107.419 167.157 107.159 168.271 107.159C169.17 107.159 169.971 107.326 170.675 107.66C171.379 107.989 171.946 108.451 172.378 109.047C172.814 109.643 173.074 110.339 173.156 111.135H170.914C170.791 110.58 170.508 110.103 170.066 109.702C169.63 109.301 169.044 109.101 168.31 109.101C167.668 109.101 167.105 109.27 166.622 109.609C166.145 109.943 165.772 110.421 165.505 111.043C165.238 111.659 165.105 112.388 165.105 113.231C165.105 114.094 165.236 114.838 165.497 115.465C165.759 116.092 166.129 116.577 166.607 116.921C167.09 117.265 167.657 117.437 168.31 117.437C168.746 117.437 169.142 117.358 169.496 117.199C169.856 117.034 170.156 116.801 170.398 116.498C170.644 116.194 170.816 115.83 170.914 115.403H173.156C173.074 116.169 172.825 116.852 172.409 117.453C171.993 118.054 171.435 118.526 170.737 118.871C170.043 119.215 169.229 119.387 168.294 119.387ZM175.381 119.148V107.313H177.608V109.193H177.731C177.947 108.556 178.327 108.056 178.871 107.691C179.421 107.321 180.042 107.136 180.736 107.136C180.88 107.136 181.049 107.141 181.244 107.152C181.445 107.162 181.601 107.175 181.714 107.19V109.394C181.622 109.368 181.457 109.34 181.221 109.309C180.985 109.273 180.749 109.255 180.512 109.255C179.968 109.255 179.482 109.371 179.056 109.602C178.635 109.828 178.301 110.144 178.054 110.549C177.808 110.95 177.685 111.407 177.685 111.921V119.148H175.381ZM188.146 119.387C186.98 119.387 185.976 119.138 185.133 118.639C184.296 118.136 183.649 117.43 183.192 116.521C182.74 115.606 182.514 114.535 182.514 113.308C182.514 112.096 182.74 111.027 183.192 110.103C183.649 109.178 184.286 108.456 185.103 107.938C185.924 107.419 186.885 107.159 187.984 107.159C188.652 107.159 189.299 107.27 189.926 107.491C190.552 107.712 191.115 108.058 191.613 108.531C192.111 109.003 192.504 109.617 192.792 110.372C193.08 111.122 193.223 112.034 193.223 113.107V113.924H183.816V112.198H190.966C190.966 111.592 190.843 111.055 190.596 110.588C190.349 110.115 190.003 109.743 189.556 109.471C189.114 109.199 188.595 109.062 188 109.062C187.352 109.062 186.787 109.222 186.304 109.54C185.827 109.853 185.457 110.264 185.195 110.773C184.938 111.276 184.81 111.823 184.81 112.414V113.762C184.81 114.553 184.948 115.226 185.226 115.781C185.508 116.336 185.901 116.759 186.405 117.052C186.908 117.34 187.496 117.484 188.169 117.484C188.606 117.484 189.004 117.422 189.363 117.299C189.723 117.17 190.034 116.98 190.296 116.729C190.558 116.477 190.758 116.166 190.897 115.796L193.077 116.189C192.902 116.831 192.589 117.394 192.137 117.877C191.69 118.354 191.128 118.727 190.45 118.994C189.777 119.256 189.009 119.387 188.146 119.387ZM200.641 119.387C199.475 119.387 198.471 119.138 197.629 118.639C196.791 118.136 196.144 117.43 195.687 116.521C195.235 115.606 195.009 114.535 195.009 113.308C195.009 112.096 195.235 111.027 195.687 110.103C196.144 109.178 196.781 108.456 197.598 107.938C198.42 107.419 199.38 107.159 200.479 107.159C201.147 107.159 201.794 107.27 202.421 107.491C203.048 107.712 203.61 108.058 204.108 108.531C204.607 109.003 205 109.617 205.287 110.372C205.575 111.122 205.719 112.034 205.719 113.107V113.924H196.311V112.198H203.461C203.461 111.592 203.338 111.055 203.091 110.588C202.845 110.115 202.498 109.743 202.051 109.471C201.61 109.199 201.091 109.062 200.495 109.062C199.848 109.062 199.283 109.222 198.8 109.54C198.322 109.853 197.952 110.264 197.69 110.773C197.434 111.276 197.305 111.823 197.305 112.414V113.762C197.305 114.553 197.444 115.226 197.721 115.781C198.004 116.336 198.397 116.759 198.9 117.052C199.403 117.34 199.992 117.484 200.664 117.484C201.101 117.484 201.499 117.422 201.859 117.299C202.218 117.17 202.529 116.98 202.791 116.729C203.053 116.477 203.253 116.166 203.392 115.796L205.572 116.189C205.398 116.831 205.084 117.394 204.632 117.877C204.185 118.354 203.623 118.727 202.945 118.994C202.272 119.256 201.504 119.387 200.641 119.387ZM210.34 112.121V119.148H208.036V107.313H210.247V109.24H210.394C210.666 108.613 211.092 108.11 211.673 107.73C212.258 107.349 212.995 107.159 213.884 107.159C214.69 107.159 215.397 107.329 216.003 107.668C216.609 108.002 217.079 108.5 217.413 109.163C217.747 109.825 217.914 110.644 217.914 111.62V119.148H215.61V111.898C215.61 111.04 215.386 110.37 214.94 109.887C214.493 109.399 213.879 109.155 213.098 109.155C212.564 109.155 212.089 109.27 211.673 109.502C211.262 109.733 210.936 110.072 210.694 110.519C210.458 110.96 210.34 111.495 210.34 112.121ZM225.195 112.599C225.195 114.535 224.94 116.315 224.432 117.938C223.923 119.561 223.181 121.059 222.205 122.43H220.094C220.474 121.922 220.829 121.298 221.157 120.558C221.486 119.818 221.774 119.009 222.02 118.131C222.267 117.247 222.46 116.333 222.598 115.388C222.737 114.443 222.806 113.513 222.806 112.599C222.806 111.382 222.686 110.146 222.444 108.893C222.203 107.64 221.877 106.476 221.466 105.403C221.055 104.329 220.598 103.453 220.094 102.775H222.205C223.181 104.147 223.923 105.644 224.432 107.267C224.94 108.89 225.195 110.668 225.195 112.599Z" fill="black" fill-opacity="0.8"/>
<path d="M48.2501 287.921H46.4472C46.3779 287.536 46.2488 287.197 46.06 286.904C45.8713 286.611 45.6401 286.362 45.3666 286.158C45.0931 285.954 44.7868 285.8 44.4478 285.696C44.1127 285.592 43.7563 285.54 43.3788 285.54C42.6969 285.54 42.0863 285.711 41.547 286.054C41.0115 286.397 40.5877 286.9 40.2757 287.563C39.9675 288.225 39.8134 289.034 39.8134 289.989C39.8134 290.953 39.9675 291.765 40.2757 292.428C40.5877 293.091 41.0134 293.591 41.5528 293.93C42.0921 294.269 42.6988 294.439 43.373 294.439C43.7467 294.439 44.1011 294.389 44.4363 294.289C44.7753 294.185 45.0815 294.033 45.355 293.832C45.6286 293.632 45.8597 293.387 46.0485 293.098C46.2411 292.806 46.374 292.47 46.4472 292.093L48.2501 292.099C48.1538 292.68 47.967 293.216 47.6896 293.705C47.4161 294.191 47.0636 294.61 46.6321 294.965C46.2045 295.315 45.7152 295.587 45.1644 295.78C44.6135 295.972 44.0125 296.069 43.3614 296.069C42.3367 296.069 41.4237 295.826 40.6224 295.34C39.8211 294.851 39.1893 294.152 38.727 293.243C38.2686 292.334 38.0394 291.249 38.0394 289.989C38.0394 288.726 38.2705 287.641 38.7328 286.736C39.1951 285.827 39.8269 285.13 40.6282 284.644C41.4295 284.155 42.3406 283.91 43.3614 283.91C43.9894 283.91 44.5749 284.001 45.1181 284.182C45.6652 284.359 46.1563 284.621 46.5917 284.968C47.027 285.311 47.3872 285.731 47.6722 286.228C47.9573 286.721 48.1499 287.285 48.2501 287.921ZM51.7968 290.637V295.907H50.069V284.072H51.7737V288.476H51.8835C52.0915 287.998 52.4094 287.618 52.837 287.337C53.2646 287.056 53.8232 286.915 54.5128 286.915C55.1214 286.915 55.6531 287.041 56.1076 287.291C56.5661 287.541 56.9205 287.915 57.1709 288.412C57.4251 288.905 57.5523 289.521 57.5523 290.261V295.907H55.8245V290.469C55.8245 289.818 55.6569 289.313 55.3218 288.955C54.9866 288.593 54.5205 288.412 53.9233 288.412C53.515 288.412 53.149 288.499 52.8254 288.672C52.5057 288.845 52.2533 289.1 52.0684 289.435C51.8874 289.766 51.7968 290.167 51.7968 290.637ZM61.4067 284.072V295.907H59.6789V284.072H61.4067ZM67.2909 296.086C66.4587 296.086 65.7326 295.895 65.1123 295.514C64.4921 295.132 64.0106 294.599 63.6677 293.913C63.3248 293.227 63.1534 292.426 63.1534 291.509C63.1534 290.589 63.3248 289.783 63.6677 289.094C64.0106 288.404 64.4921 287.869 65.1123 287.487C65.7326 287.106 66.4587 286.915 67.2909 286.915C68.123 286.915 68.8491 287.106 69.4694 287.487C70.0896 287.869 70.5712 288.404 70.914 289.094C71.2569 289.783 71.4283 290.589 71.4283 291.509C71.4283 292.426 71.2569 293.227 70.914 293.913C70.5712 294.599 70.0896 295.132 69.4694 295.514C68.8491 295.895 68.123 296.086 67.2909 296.086ZM67.2966 294.635C67.836 294.635 68.2828 294.493 68.6373 294.208C68.9917 293.923 69.2536 293.543 69.4231 293.069C69.5965 292.596 69.6832 292.074 69.6832 291.503C69.6832 290.937 69.5965 290.417 69.4231 289.943C69.2536 289.466 68.9917 289.082 68.6373 288.793C68.2828 288.504 67.836 288.36 67.2966 288.36C66.7535 288.36 66.3027 288.504 65.9445 288.793C65.59 289.082 65.3262 289.466 65.1528 289.943C64.9833 290.417 64.8985 290.937 64.8985 291.503C64.8985 292.074 64.9833 292.596 65.1528 293.069C65.3262 293.543 65.59 293.923 65.9445 294.208C66.3027 294.493 66.7535 294.635 67.2966 294.635ZM77.0033 296.086C76.1288 296.086 75.3757 295.899 74.7439 295.525C74.116 295.148 73.6306 294.618 73.2877 293.936C72.9487 293.251 72.7792 292.447 72.7792 291.527C72.7792 290.617 72.9487 289.816 73.2877 289.123C73.6306 288.429 74.1083 287.888 74.7208 287.499C75.3372 287.11 76.0576 286.915 76.882 286.915C77.3828 286.915 77.8682 286.998 78.3382 287.164C78.8081 287.329 79.23 287.589 79.6037 287.944C79.9773 288.298 80.272 288.759 80.4878 289.325C80.7035 289.887 80.8114 290.571 80.8114 291.376V291.989H73.7558V290.694H79.1183C79.1183 290.24 79.0258 289.837 78.8409 289.487C78.656 289.132 78.3959 288.853 78.0608 288.649C77.7295 288.445 77.3404 288.343 76.8935 288.343C76.4081 288.343 75.9844 288.462 75.6222 288.701C75.264 288.936 74.9866 289.244 74.7901 289.625C74.5975 290.003 74.5012 290.413 74.5012 290.856V291.868C74.5012 292.461 74.6052 292.965 74.8132 293.382C75.0251 293.798 75.3198 294.115 75.6974 294.335C76.0749 294.551 76.516 294.659 77.0206 294.659C77.3481 294.659 77.6467 294.612 77.9163 294.52C78.186 294.424 78.4191 294.281 78.6155 294.092C78.812 293.904 78.9622 293.67 79.0663 293.393L80.7016 293.688C80.5706 294.169 80.3356 294.591 79.9966 294.953C79.6614 295.312 79.2396 295.591 78.7311 295.791C78.2264 295.988 77.6505 296.086 77.0033 296.086ZM86.8156 295.907V284.072H88.6011V289.215H94.5011V284.072H96.2924V295.907H94.5011V290.746H88.6011V295.907H86.8156ZM101.158 296.103C100.596 296.103 100.087 295.999 99.6326 295.791C99.178 295.579 98.8178 295.273 98.552 294.872C98.29 294.472 98.159 293.981 98.159 293.399C98.159 292.898 98.2553 292.486 98.4479 292.162C98.6406 291.839 98.9006 291.582 99.2281 291.394C99.5555 291.205 99.9215 291.062 100.326 290.966C100.73 290.87 101.143 290.797 101.563 290.746C102.094 290.685 102.526 290.635 102.857 290.596C103.188 290.554 103.429 290.486 103.579 290.394C103.73 290.302 103.805 290.151 103.805 289.943V289.903C103.805 289.398 103.662 289.007 103.377 288.73C103.096 288.452 102.676 288.314 102.117 288.314C101.536 288.314 101.077 288.443 100.742 288.701C100.411 288.955 100.182 289.238 100.054 289.55L98.4306 289.18C98.6232 288.641 98.9045 288.206 99.2743 287.875C99.648 287.539 100.078 287.297 100.563 287.146C101.048 286.992 101.559 286.915 102.094 286.915C102.449 286.915 102.824 286.958 103.221 287.042C103.622 287.123 103.995 287.274 104.342 287.493C104.693 287.713 104.98 288.027 105.203 288.435C105.427 288.84 105.538 289.365 105.538 290.013V295.907H103.851V294.693H103.782C103.67 294.917 103.502 295.136 103.279 295.352C103.055 295.568 102.768 295.747 102.418 295.889C102.067 296.032 101.647 296.103 101.158 296.103ZM101.534 294.716C102.011 294.716 102.42 294.622 102.759 294.433C103.102 294.244 103.362 293.998 103.539 293.694C103.72 293.385 103.81 293.056 103.81 292.705V291.561C103.749 291.623 103.629 291.681 103.452 291.735C103.279 291.785 103.08 291.829 102.857 291.868C102.634 291.902 102.416 291.935 102.204 291.966C101.992 291.993 101.815 292.016 101.672 292.035C101.337 292.077 101.031 292.149 100.754 292.249C100.48 292.349 100.26 292.494 100.095 292.682C99.933 292.867 99.8521 293.114 99.8521 293.422C99.8521 293.85 100.01 294.173 100.326 294.393C100.642 294.608 101.044 294.716 101.534 294.716ZM111.885 287.031V288.418H106.869V287.031H111.885ZM108.244 295.907V286.002C108.244 285.448 108.366 284.987 108.608 284.621C108.851 284.251 109.173 283.976 109.573 283.795C109.974 283.61 110.409 283.518 110.879 283.518C111.226 283.518 111.523 283.546 111.769 283.604C112.016 283.658 112.199 283.708 112.318 283.754L111.914 285.153C111.833 285.13 111.729 285.103 111.602 285.072C111.474 285.037 111.32 285.02 111.139 285.02C110.719 285.02 110.419 285.124 110.238 285.332C110.061 285.54 109.972 285.84 109.972 286.233V295.907H108.244ZM115.216 290.637V295.907H113.488V287.031H115.147V288.476H115.257C115.461 288.006 115.781 287.628 116.216 287.343C116.655 287.058 117.208 286.915 117.874 286.915C118.479 286.915 119.009 287.042 119.463 287.297C119.918 287.547 120.27 287.921 120.521 288.418C120.771 288.915 120.896 289.529 120.896 290.261V295.907H119.169V290.469C119.169 289.826 119.001 289.323 118.666 288.961C118.331 288.595 117.87 288.412 117.285 288.412C116.884 288.412 116.528 288.499 116.216 288.672C115.908 288.845 115.663 289.1 115.482 289.435C115.305 289.766 115.216 290.167 115.216 290.637ZM126.86 296.086C125.986 296.086 125.232 295.899 124.601 295.525C123.973 295.148 123.487 294.618 123.144 293.936C122.805 293.251 122.636 292.447 122.636 291.527C122.636 290.617 122.805 289.816 123.144 289.123C123.487 288.429 123.965 287.888 124.578 287.499C125.194 287.11 125.914 286.915 126.739 286.915C127.24 286.915 127.725 286.998 128.195 287.164C128.665 287.329 129.087 287.589 129.46 287.944C129.834 288.298 130.129 288.759 130.345 289.325C130.56 289.887 130.668 290.571 130.668 291.376V291.989H123.613V290.694H128.975C128.975 290.24 128.883 289.837 128.698 289.487C128.513 289.132 128.253 288.853 127.918 288.649C127.586 288.445 127.197 288.343 126.75 288.343C126.265 288.343 125.841 288.462 125.479 288.701C125.121 288.936 124.843 289.244 124.647 289.625C124.454 290.003 124.358 290.413 124.358 290.856V291.868C124.358 292.461 124.462 292.965 124.67 293.382C124.882 293.798 125.177 294.115 125.554 294.335C125.932 294.551 126.373 294.659 126.877 294.659C127.205 294.659 127.503 294.612 127.773 294.52C128.043 294.424 128.276 294.281 128.472 294.092C128.669 293.904 128.819 293.67 128.923 293.393L130.558 293.688C130.427 294.169 130.192 294.591 129.853 294.953C129.518 295.312 129.096 295.591 128.588 295.791C128.083 295.988 127.507 296.086 126.86 296.086ZM132.406 295.907V287.031H134.076V288.441H134.169C134.33 287.963 134.616 287.588 135.024 287.314C135.436 287.037 135.902 286.898 136.422 286.898C136.53 286.898 136.657 286.902 136.804 286.91C136.954 286.917 137.071 286.927 137.156 286.938V288.591C137.087 288.572 136.964 288.551 136.786 288.528C136.609 288.501 136.432 288.487 136.255 288.487C135.846 288.487 135.482 288.574 135.163 288.747C134.847 288.917 134.596 289.154 134.411 289.458C134.226 289.758 134.134 290.101 134.134 290.486V295.907H132.406Z" fill="black" fill-opacity="0.494118"/>
</g>
<defs>
<filter id="filter0_ddd_675_18844" x="0" y="0.0273438" width="346" height="346" filterUnits="userSpaceOnUse" color-interpolation-filters="sRGB">
<feFlood flood-opacity="0" result="BackgroundImageFix"/>
<feColorMatrix in="SourceAlpha" type="matrix" values="0 0 0 0 0 0 0 0 0 0 0 0 0 0 0 0 0 0 127 0" result="hardAlpha"/>
<feOffset dy="2.5"/>
<feGaussianBlur stdDeviation="1"/>
<feColorMatrix type="matrix" values="0 0 0 0 0 0 0 0 0 0 0 0 0 0 0 0 0 0 0.02 0"/>
<feBlend mode="normal" in2="BackgroundImageFix" result="effect1_dropShadow_675_18844"/>
<feColorMatrix in="SourceAlpha" type="matrix" values="0 0 0 0 0 0 0 0 0 0 0 0 0 0 0 0 0 0 127 0" result="hardAlpha"/>
<feOffset dy="3"/>
<feGaussianBlur stdDeviation="2.5"/>
<feColorMatrix type="matrix" values="0 0 0 0 0 0 0 0 0 0 0 0 0 0 0 0 0 0 0.04 0"/>
<feBlend mode="normal" in2="effect1_dropShadow_675_18844" result="effect2_dropShadow_675_18844"/>
<feColorMatrix in="SourceAlpha" type="matrix" values="0 0 0 0 0 0 0 0 0 0 0 0 0 0 0 0 0 0 127 0" result="hardAlpha"/>
<feOffset dy="8"/>
<feGaussianBlur stdDeviation="5"/>
<feColorMatrix type="matrix" values="0 0 0 0 0 0 0 0 0 0 0 0 0 0 0 0 0 0 0.08 0"/>
<feBlend mode="normal" in2="effect2_dropShadow_675_18844" result="effect3_dropShadow_675_18844"/>
<feBlend mode="normal" in="SourceGraphic" in2="effect3_dropShadow_675_18844" result="shape"/>
</filter>
</defs>
</svg>
