<svg width="345" height="346" viewBox="0 0 345 346" fill="none" xmlns="http://www.w3.org/2000/svg">
<g filter="url(#filter0_ddd_675_18846)">
<rect width="325" height="325" transform="translate(10 2.02734)" fill="#D9B8FF"/>
<path d="M38.1758 42.2773V40.8C38.1758 40.364 38.2579 39.9049 38.422 39.4227C38.5862 38.9406 38.8144 38.4789 39.1068 38.0378C39.3992 37.5967 39.7429 37.2197 40.1378 36.9068L41.2766 37.7223C40.9637 38.1789 40.6969 38.6559 40.4764 39.1534C40.2558 39.651 40.1455 40.1922 40.1455 40.7769V42.2773H38.1758ZM42.0998 42.2773V40.8C42.0998 40.364 42.1819 39.9049 42.346 39.4227C42.5102 38.9406 42.7384 38.4789 43.0308 38.0378C43.3232 37.5967 43.6669 37.2197 44.0618 36.9068L45.2006 37.7223C44.8877 38.1789 44.6209 38.6559 44.4004 39.1534C44.1798 39.651 44.0695 40.1922 44.0695 40.7769V42.2773H42.0998ZM57.7883 42.3311C57.6396 41.8643 57.4395 41.4463 57.1882 41.077C56.942 40.7025 56.647 40.3845 56.3034 40.1229C55.9597 39.8562 55.5673 39.6536 55.1262 39.5151C54.6902 39.3766 54.2106 39.3073 53.6874 39.3073C52.8 39.3073 51.9998 39.5356 51.2868 39.9921C50.5738 40.4486 50.0096 41.118 49.5941 42.0003C49.1837 42.8774 48.9786 43.952 48.9786 45.2241C48.9786 46.5013 49.1863 47.5811 49.6018 48.4633C50.0173 49.3456 50.5866 50.015 51.3099 50.4715C52.0331 50.928 52.8564 51.1563 53.7797 51.1563C54.6363 51.1563 55.3826 50.9819 56.0187 50.6331C56.6599 50.2843 57.1549 49.7919 57.5037 49.1558C57.8576 48.5146 58.0345 47.7606 58.0345 46.8937L58.6501 47.0092H54.1413V45.0471H60.3351V46.8399C60.3351 48.1633 60.053 49.3123 59.4887 50.2869C58.9296 51.2563 58.1551 52.0052 57.1651 52.5335C56.1803 53.0619 55.0518 53.326 53.7797 53.326C52.3537 53.326 51.1021 52.9977 50.025 52.3412C48.9529 51.6846 48.1168 50.7536 47.5167 49.5482C46.9165 48.3377 46.6165 46.9014 46.6165 45.2395C46.6165 43.9828 46.7909 42.8543 47.1397 41.8541C47.4885 40.8538 47.9783 40.0049 48.6092 39.3073C49.2453 38.6046 49.9916 38.0686 50.8482 37.6993C51.71 37.3248 52.6512 37.1376 53.672 37.1376C54.5235 37.1376 55.316 37.2633 56.0495 37.5146C56.7881 37.7659 57.4447 38.1224 58.0192 38.5841C58.5988 39.0457 59.0784 39.5946 59.458 40.2306C59.8375 40.8615 60.094 41.5617 60.2274 42.3311H57.7883ZM68.0236 53.3491C66.8593 53.3491 65.8565 53.1003 65.0152 52.6028C64.1791 52.1001 63.5328 51.3948 63.0763 50.4869C62.6249 49.5739 62.3992 48.5044 62.3992 47.2784C62.3992 46.0679 62.6249 45.001 63.0763 44.0777C63.5328 43.1544 64.1689 42.4337 64.9845 41.9156C65.8052 41.3976 66.7644 41.1385 67.8621 41.1385C68.5289 41.1385 69.1752 41.2488 69.801 41.4694C70.4268 41.6899 70.9884 42.0362 71.486 42.5081C71.9835 42.98 72.3759 43.593 72.6632 44.347C72.9504 45.0959 73.0941 46.0064 73.0941 47.0784V47.894H63.6995V46.1705H70.8397C70.8397 45.5652 70.7166 45.0292 70.4704 44.5624C70.2242 44.0905 69.8779 43.7186 69.4317 43.4468C68.9905 43.1749 68.4725 43.039 67.8774 43.039C67.2311 43.039 66.6669 43.198 66.1847 43.516C65.7077 43.8289 65.3384 44.2393 65.0768 44.7471C64.8203 45.2498 64.6921 45.796 64.6921 46.3859V47.7324C64.6921 48.5223 64.8306 49.1943 65.1076 49.7483C65.3897 50.3022 65.7821 50.7254 66.2848 51.0178C66.7874 51.305 67.3748 51.4487 68.0467 51.4487C68.4827 51.4487 68.8802 51.3871 69.2393 51.264C69.5984 51.1358 69.9087 50.946 70.1703 50.6946C70.4319 50.4433 70.6319 50.133 70.7704 49.7636L72.9479 50.1561C72.7735 50.7972 72.4606 51.3589 72.0092 51.8411C71.5629 52.3181 71.0013 52.69 70.3242 52.9567C69.6522 53.2183 68.8854 53.3491 68.0236 53.3491ZM80.925 41.2924V43.139H74.4696V41.2924H80.925ZM76.2008 38.461H78.5013V49.6405C78.5013 50.0868 78.568 50.4228 78.7013 50.6485C78.8347 50.869 79.0065 51.0204 79.2169 51.1024C79.4323 51.1794 79.6657 51.2178 79.917 51.2178C80.1017 51.2178 80.2633 51.205 80.4017 51.1794C80.5402 51.1537 80.648 51.1332 80.7249 51.1178L81.1404 53.0183C81.007 53.0696 80.8172 53.1209 80.571 53.1721C80.3248 53.2286 80.017 53.2593 79.6477 53.2645C79.0425 53.2747 78.4782 53.167 77.955 52.9413C77.4318 52.7156 77.0086 52.3668 76.6855 51.8949C76.3623 51.423 76.2008 50.8306 76.2008 50.1176V38.461ZM88.7481 41.2924V43.139H82.2928V41.2924H88.7481ZM84.0239 38.461H86.3245V49.6405C86.3245 50.0868 86.3912 50.4228 86.5245 50.6485C86.6579 50.869 86.8297 51.0204 87.04 51.1024C87.2555 51.1794 87.4889 51.2178 87.7402 51.2178C87.9249 51.2178 88.0864 51.205 88.2249 51.1794C88.3634 51.1537 88.4712 51.1332 88.5481 51.1178L88.9636 53.0183C88.8302 53.0696 88.6404 53.1209 88.3942 53.1721C88.148 53.2286 87.8402 53.2593 87.4709 53.2645C86.8656 53.2747 86.3014 53.167 85.7782 52.9413C85.255 52.7156 84.8318 52.3668 84.5087 51.8949C84.1855 51.423 84.0239 50.8306 84.0239 50.1176V38.461ZM91.0546 53.1106V41.2924H93.3552V53.1106H91.0546ZM92.2165 39.4689C91.8164 39.4689 91.4727 39.3355 91.1854 39.0688C90.9033 38.797 90.7623 38.4738 90.7623 38.0993C90.7623 37.7198 90.9033 37.3966 91.1854 37.1299C91.4727 36.858 91.8164 36.7221 92.2165 36.7221C92.6165 36.7221 92.9577 36.858 93.2398 37.1299C93.527 37.3966 93.6706 37.7198 93.6706 38.0993C93.6706 38.4738 93.527 38.797 93.2398 39.0688C92.9577 39.3355 92.6165 39.4689 92.2165 39.4689ZM98.5124 46.0936V53.1106H96.2118V41.2924H98.42V43.2159H98.5662C98.8381 42.5902 99.2638 42.0875 99.8434 41.7079C100.428 41.3283 101.164 41.1385 102.052 41.1385C102.857 41.1385 103.562 41.3078 104.168 41.6463C104.773 41.9798 105.242 42.4773 105.576 43.139C105.909 43.8007 106.076 44.6188 106.076 45.5934V53.1106H103.775V45.8704C103.775 45.0138 103.552 44.3444 103.106 43.8623C102.659 43.375 102.047 43.1313 101.267 43.1313C100.733 43.1313 100.259 43.2467 99.8434 43.4775C99.4331 43.7084 99.1074 44.0469 98.8663 44.4932C98.6303 44.9343 98.5124 45.4678 98.5124 46.0936ZM113.878 57.7886C112.939 57.7886 112.131 57.6655 111.454 57.4193C110.782 57.1731 110.233 56.8474 109.808 56.4422C109.382 56.0369 109.064 55.5932 108.853 55.1111L110.831 54.2955C110.969 54.5212 111.154 54.7597 111.385 55.011C111.621 55.2675 111.939 55.4855 112.339 55.665C112.744 55.8446 113.265 55.9343 113.901 55.9343C114.773 55.9343 115.493 55.7215 116.063 55.2957C116.632 54.8751 116.917 54.2032 116.917 53.2799V50.9562H116.771C116.632 51.2076 116.432 51.4871 116.171 51.7949C115.914 52.1027 115.56 52.3694 115.109 52.5951C114.657 52.8208 114.07 52.9336 113.347 52.9336C112.413 52.9336 111.572 52.7156 110.823 52.2796C110.079 51.8385 109.49 51.1896 109.054 50.333C108.623 49.4713 108.407 48.412 108.407 47.1553C108.407 45.8986 108.62 44.8215 109.046 43.9238C109.477 43.0262 110.067 42.3388 110.815 41.8618C111.564 41.3796 112.413 41.1385 113.362 41.1385C114.096 41.1385 114.688 41.2616 115.14 41.5078C115.591 41.7489 115.942 42.031 116.194 42.3542C116.45 42.6774 116.648 42.962 116.786 43.2083H116.955V41.2924H119.21V53.3722C119.21 54.3878 118.974 55.2214 118.502 55.8728C118.03 56.5242 117.391 57.0064 116.586 57.3193C115.786 57.6322 114.883 57.7886 113.878 57.7886ZM113.855 51.0255C114.516 51.0255 115.075 50.8716 115.532 50.5638C115.994 50.2509 116.342 49.8047 116.578 49.2251C116.819 48.6403 116.94 47.9401 116.94 47.1246C116.94 46.3295 116.822 45.6293 116.586 45.0241C116.35 44.4188 116.004 43.9469 115.547 43.6083C115.091 43.2647 114.527 43.0928 113.855 43.0928C113.162 43.0928 112.585 43.2724 112.123 43.6314C111.662 43.9854 111.313 44.4675 111.077 45.0779C110.846 45.6883 110.731 46.3705 110.731 47.1246C110.731 47.8991 110.849 48.5788 111.085 49.1635C111.321 49.7483 111.67 50.2048 112.131 50.5331C112.598 50.8613 113.172 51.0255 113.855 51.0255ZM130.992 53.3722C130.243 53.3722 129.566 53.2337 128.961 52.9567C128.355 52.6746 127.876 52.2668 127.522 51.7333C127.173 51.1999 126.999 50.5459 126.999 49.7713C126.999 49.1045 127.127 48.5557 127.383 48.1248C127.64 47.6939 127.986 47.3528 128.422 47.1015C128.858 46.8501 129.345 46.6604 129.884 46.5321C130.422 46.4039 130.971 46.3064 131.53 46.2397C132.238 46.1577 132.813 46.091 133.254 46.0397C133.695 45.9833 134.016 45.8935 134.216 45.7704C134.416 45.6473 134.516 45.4472 134.516 45.1703V45.1164C134.516 44.4444 134.326 43.9238 133.946 43.5545C133.572 43.1852 133.013 43.0005 132.269 43.0005C131.494 43.0005 130.884 43.1723 130.438 43.516C129.997 43.8546 129.691 44.2316 129.522 44.6471L127.36 44.1546C127.617 43.4365 127.991 42.8569 128.483 42.4158C128.981 41.9695 129.553 41.6463 130.199 41.4463C130.846 41.2411 131.525 41.1385 132.238 41.1385C132.71 41.1385 133.21 41.195 133.739 41.3078C134.272 41.4155 134.77 41.6156 135.231 41.9079C135.698 42.2003 136.08 42.6184 136.378 43.1621C136.675 43.7007 136.824 44.4008 136.824 45.2626V53.1106H134.577V51.4948H134.485C134.336 51.7923 134.113 52.0847 133.815 52.372C133.518 52.6592 133.136 52.8977 132.669 53.0875C132.202 53.2773 131.643 53.3722 130.992 53.3722ZM131.492 51.5256C132.128 51.5256 132.672 51.3999 133.123 51.1486C133.58 50.8973 133.926 50.569 134.162 50.1637C134.403 49.7534 134.523 49.3148 134.523 48.848V47.3246C134.441 47.4067 134.282 47.4836 134.046 47.5554C133.815 47.6221 133.551 47.6811 133.254 47.7324C132.956 47.7786 132.667 47.8222 132.384 47.8632C132.102 47.8991 131.866 47.9299 131.677 47.9555C131.23 48.012 130.822 48.1068 130.453 48.2402C130.089 48.3736 129.797 48.5659 129.576 48.8173C129.361 49.0635 129.253 49.3918 129.253 49.8021C129.253 50.3715 129.463 50.8024 129.884 51.0947C130.304 51.382 130.84 51.5256 131.492 51.5256ZM145.33 53.1106V37.353H155.102V39.3997H147.708V44.2008H154.402V46.2397H147.708V53.1106H145.33ZM157.454 53.1106V41.2924H159.678V43.1698H159.801C160.016 42.5337 160.396 42.0336 160.94 41.6694C161.489 41.3001 162.109 41.1154 162.802 41.1154C162.945 41.1154 163.115 41.1206 163.31 41.1308C163.51 41.1411 163.666 41.1539 163.779 41.1693V43.3698C163.687 43.3442 163.522 43.316 163.286 43.2852C163.051 43.2493 162.815 43.2313 162.579 43.2313C162.035 43.2313 161.55 43.3467 161.124 43.5776C160.704 43.8033 160.37 44.1187 160.124 44.5239C159.878 44.924 159.755 45.3806 159.755 45.8935V53.1106H157.454ZM170.202 53.3491C169.037 53.3491 168.035 53.1003 167.193 52.6028C166.357 52.1001 165.711 51.3948 165.254 50.4869C164.803 49.5739 164.577 48.5044 164.577 47.2784C164.577 46.0679 164.803 45.001 165.254 44.0777C165.711 43.1544 166.347 42.4337 167.163 41.9156C167.983 41.3976 168.942 41.1385 170.04 41.1385C170.707 41.1385 171.353 41.2488 171.979 41.4694C172.605 41.6899 173.167 42.0362 173.664 42.5081C174.162 42.98 174.554 43.593 174.841 44.347C175.129 45.0959 175.272 46.0064 175.272 47.0784V47.894H165.878V46.1705H173.018C173.018 45.5652 172.895 45.0292 172.649 44.5624C172.402 44.0905 172.056 43.7186 171.61 43.4468C171.169 43.1749 170.651 43.039 170.056 43.039C169.409 43.039 168.845 43.198 168.363 43.516C167.886 43.8289 167.517 44.2393 167.255 44.7471C166.998 45.2498 166.87 45.796 166.87 46.3859V47.7324C166.87 48.5223 167.009 49.1943 167.286 49.7483C167.568 50.3022 167.96 50.7254 168.463 51.0178C168.966 51.305 169.553 51.4487 170.225 51.4487C170.661 51.4487 171.058 51.3871 171.417 51.264C171.777 51.1358 172.087 50.946 172.348 50.6946C172.61 50.4433 172.81 50.133 172.949 49.7636L175.126 50.1561C174.952 50.7972 174.639 51.3589 174.187 51.8411C173.741 52.3181 173.179 52.69 172.502 52.9567C171.83 53.2183 171.064 53.3491 170.202 53.3491ZM182.68 53.3491C181.516 53.3491 180.513 53.1003 179.671 52.6028C178.835 52.1001 178.189 51.3948 177.733 50.4869C177.281 49.5739 177.055 48.5044 177.055 47.2784C177.055 46.0679 177.281 45.001 177.733 44.0777C178.189 43.1544 178.825 42.4337 179.641 41.9156C180.461 41.3976 181.421 41.1385 182.518 41.1385C183.185 41.1385 183.831 41.2488 184.457 41.4694C185.083 41.6899 185.645 42.0362 186.142 42.5081C186.64 42.98 187.032 43.593 187.319 44.347C187.607 45.0959 187.75 46.0064 187.75 47.0784V47.894H178.356V46.1705H185.496C185.496 45.5652 185.373 45.0292 185.127 44.5624C184.88 44.0905 184.534 43.7186 184.088 43.4468C183.647 43.1749 183.129 43.039 182.534 43.039C181.887 43.039 181.323 43.198 180.841 43.516C180.364 43.8289 179.995 44.2393 179.733 44.7471C179.477 45.2498 179.348 45.796 179.348 46.3859V47.7324C179.348 48.5223 179.487 49.1943 179.764 49.7483C180.046 50.3022 180.438 50.7254 180.941 51.0178C181.444 51.305 182.031 51.4487 182.703 51.4487C183.139 51.4487 183.537 51.3871 183.896 51.264C184.255 51.1358 184.565 50.946 184.827 50.6946C185.088 50.4433 185.288 50.133 185.427 49.7636L187.604 50.1561C187.43 50.7972 187.117 51.3589 186.665 51.8411C186.219 52.3181 185.658 52.69 184.98 52.9567C184.308 53.2183 183.542 53.3491 182.68 53.3491ZM201.539 48.0017H203.878L205.524 50.1484L206.301 51.1024L208.925 54.5263H206.494L204.739 52.2412L204.139 51.4102L201.539 48.0017ZM209.433 45.2318C209.433 46.9143 209.125 48.3608 208.509 49.5713C207.894 50.7767 207.05 51.7051 205.978 52.3566C204.911 53.0029 203.698 53.326 202.339 53.326C200.974 53.326 199.756 53.0029 198.684 52.3566C197.617 51.7051 196.776 50.7741 196.16 49.5636C195.545 48.3531 195.237 46.9091 195.237 45.2318C195.237 43.5494 195.545 42.1054 196.16 40.9C196.776 39.6895 197.617 38.761 198.684 38.1147C199.756 37.4633 200.974 37.1376 202.339 37.1376C203.698 37.1376 204.911 37.4633 205.978 38.1147C207.05 38.761 207.894 39.6895 208.509 40.9C209.125 42.1054 209.433 43.5494 209.433 45.2318ZM207.078 45.2318C207.078 43.9495 206.871 42.8697 206.455 41.9926C206.045 41.1103 205.481 40.4435 204.762 39.9921C204.049 39.5356 203.242 39.3073 202.339 39.3073C201.431 39.3073 200.62 39.5356 199.907 39.9921C199.194 40.4435 198.63 41.1103 198.215 41.9926C197.804 42.8697 197.599 43.9495 197.599 45.2318C197.599 46.5142 197.804 47.5965 198.215 48.4787C198.63 49.3559 199.194 50.0227 199.907 50.4792C200.62 50.9306 201.431 51.1563 202.339 51.1563C203.242 51.1563 204.049 50.9306 204.762 50.4792C205.481 50.0227 206.045 49.3559 206.455 48.4787C206.871 47.5965 207.078 46.5142 207.078 45.2318ZM219.46 48.2094V41.2924H221.769V53.1106H219.506V51.064H219.383C219.112 51.6949 218.676 52.2206 218.075 52.6413C217.48 53.0567 216.739 53.2645 215.852 53.2645C215.093 53.2645 214.421 53.0978 213.836 52.7644C213.256 52.4258 212.8 51.9257 212.466 51.264C212.138 50.6023 211.974 49.7842 211.974 48.8096V41.2924H214.274V48.5326C214.274 49.3379 214.498 49.9791 214.944 50.4561C215.39 50.9332 215.97 51.1717 216.683 51.1717C217.114 51.1717 217.542 51.064 217.968 50.8485C218.399 50.6331 218.755 50.3074 219.037 49.8714C219.324 49.4354 219.465 48.8814 219.46 48.2094ZM229.599 53.3491C228.491 53.3491 227.525 53.0952 226.699 52.5874C225.873 52.0796 225.232 51.3692 224.775 50.4561C224.319 49.5431 224.09 48.4762 224.09 47.2554C224.09 46.0294 224.319 44.9574 224.775 44.0392C225.232 43.1211 225.873 42.4081 226.699 41.9003C227.525 41.3924 228.491 41.1385 229.599 41.1385C230.707 41.1385 231.674 41.3924 232.5 41.9003C233.326 42.4081 233.967 43.1211 234.424 44.0392C234.88 44.9574 235.108 46.0294 235.108 47.2554C235.108 48.4762 234.88 49.5431 234.424 50.4561C233.967 51.3692 233.326 52.0796 232.5 52.5874C231.674 53.0952 230.707 53.3491 229.599 53.3491ZM229.607 51.4179C230.325 51.4179 230.92 51.2281 231.392 50.8485C231.864 50.4689 232.213 49.9637 232.439 49.3328C232.669 48.7019 232.785 48.0068 232.785 47.2477C232.785 46.4936 232.669 45.8012 232.439 45.1703C232.213 44.5342 231.864 44.0238 231.392 43.6391C230.92 43.2544 230.325 43.0621 229.607 43.0621C228.884 43.0621 228.284 43.2544 227.807 43.6391C227.335 44.0238 226.983 44.5342 226.753 45.1703C226.527 45.8012 226.414 46.4936 226.414 47.2477C226.414 48.0068 226.527 48.7019 226.753 49.3328C226.983 49.9637 227.335 50.4689 227.807 50.8485C228.284 51.2281 228.884 51.4179 229.607 51.4179ZM242.955 41.2924V43.139H236.499V41.2924H242.955ZM238.231 38.461H240.531V49.6405C240.531 50.0868 240.598 50.4228 240.731 50.6485C240.864 50.869 241.036 51.0204 241.247 51.1024C241.462 51.1794 241.695 51.2178 241.947 51.2178C242.131 51.2178 242.293 51.205 242.432 51.1794C242.57 51.1537 242.678 51.1332 242.755 51.1178L243.17 53.0183C243.037 53.0696 242.847 53.1209 242.601 53.1721C242.355 53.2286 242.047 53.2593 241.677 53.2645C241.072 53.2747 240.508 53.167 239.985 52.9413C239.462 52.7156 239.038 52.3668 238.715 51.8949C238.392 51.423 238.231 50.8306 238.231 50.1176V38.461ZM250.228 53.3491C249.063 53.3491 248.061 53.1003 247.219 52.6028C246.383 52.1001 245.737 51.3948 245.28 50.4869C244.829 49.5739 244.603 48.5044 244.603 47.2784C244.603 46.0679 244.829 45.001 245.28 44.0777C245.737 43.1544 246.373 42.4337 247.189 41.9156C248.009 41.3976 248.968 41.1385 250.066 41.1385C250.733 41.1385 251.379 41.2488 252.005 41.4694C252.631 41.6899 253.193 42.0362 253.69 42.5081C254.188 42.98 254.58 43.593 254.867 44.347C255.155 45.0959 255.298 46.0064 255.298 47.0784V47.894H245.904V46.1705H253.044C253.044 45.5652 252.921 45.0292 252.675 44.5624C252.428 44.0905 252.082 43.7186 251.636 43.4468C251.195 43.1749 250.677 43.039 250.082 43.039C249.435 43.039 248.871 43.198 248.389 43.516C247.912 43.8289 247.543 44.2393 247.281 44.7471C247.024 45.2498 246.896 45.796 246.896 46.3859V47.7324C246.896 48.5223 247.035 49.1943 247.312 49.7483C247.594 50.3022 247.986 50.7254 248.489 51.0178C248.992 51.305 249.579 51.4487 250.251 51.4487C250.687 51.4487 251.084 51.3871 251.443 51.264C251.803 51.1358 252.113 50.946 252.374 50.6946C252.636 50.4433 252.836 50.133 252.975 49.7636L255.152 50.1561C254.978 50.7972 254.665 51.3589 254.213 51.8411C253.767 52.3181 253.205 52.69 252.528 52.9567C251.856 53.2183 251.09 53.3491 250.228 53.3491ZM259.59 37.353V38.8303C259.59 39.2663 259.508 39.7254 259.344 40.2075C259.185 40.6846 258.959 41.1437 258.666 41.5848C258.374 42.0259 258.03 42.4055 257.635 42.7235L256.497 41.9079C256.799 41.4668 257.061 40.9975 257.282 40.4999C257.507 40.0024 257.62 39.4535 257.62 38.8534V37.353H259.59ZM263.506 37.353V38.8303C263.506 39.2663 263.424 39.7254 263.26 40.2075C263.101 40.6846 262.875 41.1437 262.583 41.5848C262.29 42.0259 261.947 42.4055 261.552 42.7235L260.413 41.9079C260.716 41.4668 260.977 40.9975 261.198 40.4999C261.424 40.0024 261.536 39.4535 261.536 38.8534V37.353H263.506ZM44.2542 73.2924V75.139H37.5757V73.2924H44.2542ZM39.4069 85.1106V71.9229C39.4069 71.1842 39.5685 70.5713 39.8916 70.084C40.2148 69.5915 40.6431 69.2248 41.1765 68.9837C41.71 68.7375 42.2896 68.6144 42.9154 68.6144C43.377 68.6144 43.772 68.6529 44.1003 68.7298C44.4286 68.8016 44.6722 68.8683 44.8312 68.9298L44.2927 70.7918C44.1849 70.761 44.0464 70.7251 43.8772 70.6841C43.7079 70.6379 43.5027 70.6149 43.2616 70.6149C42.7025 70.6149 42.3024 70.7534 42.0614 71.0303C41.8254 71.3073 41.7074 71.7074 41.7074 72.2306V85.1106H39.4069ZM51.0175 85.3491C49.8531 85.3491 48.8503 85.1003 48.0091 84.6028C47.173 84.1001 46.5267 83.3948 46.0702 82.4869C45.6188 81.5739 45.3931 80.5044 45.3931 79.2784C45.3931 78.0679 45.6188 77.001 46.0702 76.0777C46.5267 75.1544 47.1627 74.4337 47.9783 73.9156C48.799 73.3976 49.7582 73.1385 50.8559 73.1385C51.5228 73.1385 52.1691 73.2488 52.7948 73.4694C53.4206 73.6899 53.9823 74.0362 54.4799 74.5081C54.9774 74.98 55.3698 75.593 55.6571 76.347C55.9443 77.0959 56.0879 78.0064 56.0879 79.0784V79.894H46.6934V78.1705H53.8336C53.8336 77.5652 53.7104 77.0292 53.4642 76.5624C53.218 76.0905 52.8718 75.7186 52.4255 75.4468C51.9844 75.1749 51.4663 75.039 50.8713 75.039C50.225 75.039 49.6608 75.198 49.1786 75.516C48.7016 75.8289 48.3323 76.2393 48.0707 76.7471C47.8142 77.2498 47.6859 77.796 47.6859 78.3859V79.7324C47.6859 80.5223 47.8244 81.1943 48.1014 81.7483C48.3835 82.3022 48.7759 82.7254 49.2786 83.0178C49.7813 83.305 50.3686 83.4487 51.0406 83.4487C51.4766 83.4487 51.8741 83.3871 52.2332 83.264C52.5922 83.1358 52.9026 82.946 53.1642 82.6946C53.4258 82.4433 53.6258 82.133 53.7643 81.7636L55.9417 82.1561C55.7673 82.7972 55.4545 83.3589 55.0031 83.8411C54.5568 84.3181 53.9951 84.69 53.318 84.9567C52.6461 85.2183 51.8792 85.3491 51.0175 85.3491ZM63.4956 85.3491C62.3313 85.3491 61.3285 85.1003 60.4872 84.6028C59.6511 84.1001 59.0048 83.3948 58.5483 82.4869C58.0969 81.5739 57.8712 80.5044 57.8712 79.2784C57.8712 78.0679 58.0969 77.001 58.5483 76.0777C59.0048 75.1544 59.6409 74.4337 60.4565 73.9156C61.2772 73.3976 62.2364 73.1385 63.3341 73.1385C64.0009 73.1385 64.6472 73.2488 65.273 73.4694C65.8988 73.6899 66.4604 74.0362 66.958 74.5081C67.4556 74.98 67.848 75.593 68.1352 76.347C68.4224 77.0959 68.5661 78.0064 68.5661 79.0784V79.894H59.1715V78.1705H66.3117C66.3117 77.5652 66.1886 77.0292 65.9424 76.5624C65.6962 76.0905 65.3499 75.7186 64.9037 75.4468C64.4625 75.1749 63.9445 75.039 63.3495 75.039C62.7031 75.039 62.1389 75.198 61.6567 75.516C61.1797 75.8289 60.8104 76.2393 60.5488 76.7471C60.2923 77.2498 60.1641 77.796 60.1641 78.3859V79.7324C60.1641 80.5223 60.3026 81.1943 60.5796 81.7483C60.8617 82.3022 61.2541 82.7254 61.7568 83.0178C62.2595 83.305 62.8468 83.4487 63.5187 83.4487C63.9547 83.4487 64.3523 83.3871 64.7113 83.264C65.0704 83.1358 65.3807 82.946 65.6423 82.6946C65.9039 82.4433 66.104 82.133 66.2424 81.7636L68.4199 82.1561C68.2455 82.7972 67.9326 83.3589 67.4812 83.8411C67.0349 84.3181 66.4733 84.69 65.7962 84.9567C65.1242 85.2183 64.3574 85.3491 63.4956 85.3491ZM73.1808 69.353V85.1106H70.8803V69.353H73.1808ZM84.8934 76.1777L82.8083 76.547C82.7211 76.2803 82.5826 76.0264 82.3928 75.7853C82.2081 75.5442 81.9568 75.3467 81.6388 75.1929C81.3207 75.039 80.9232 74.962 80.4462 74.962C79.7947 74.962 79.251 75.1082 78.815 75.4006C78.379 75.6879 78.161 76.0597 78.161 76.5163C78.161 76.9112 78.3072 77.2292 78.5996 77.4703C78.892 77.7114 79.3639 77.9089 80.0153 78.0628L81.8927 78.4936C82.9801 78.745 83.7906 79.1323 84.324 79.6555C84.8575 80.1787 85.1242 80.8583 85.1242 81.6944C85.1242 82.4023 84.919 83.0332 84.5087 83.5872C84.1035 84.136 83.5367 84.5669 82.8083 84.8798C82.085 85.1927 81.2464 85.3491 80.2923 85.3491C78.9689 85.3491 77.8892 85.067 77.0531 84.5028C76.217 83.9334 75.704 83.1255 75.5142 82.0791L77.7378 81.7406C77.8763 82.3202 78.161 82.7588 78.5919 83.0563C79.0228 83.3486 79.5844 83.4948 80.2769 83.4948C81.0309 83.4948 81.6336 83.3384 82.085 83.0255C82.5364 82.7075 82.7621 82.3202 82.7621 81.8637C82.7621 81.4944 82.6236 81.184 82.3466 80.9327C82.0748 80.6813 81.6567 80.4916 81.0925 80.3633L79.092 79.9248C77.9892 79.6734 77.1736 79.2733 76.6453 78.7245C76.1221 78.1756 75.8605 77.4806 75.8605 76.6394C75.8605 75.9418 76.0554 75.3314 76.4452 74.8082C76.8351 74.285 77.3737 73.8772 78.061 73.5848C78.7483 73.2873 79.5357 73.1385 80.4231 73.1385C81.7003 73.1385 82.7057 73.4155 83.4392 73.9695C84.1727 74.5183 84.6574 75.2544 84.8934 76.1777ZM100.707 69.353V85.1106H98.4067V69.353H100.707ZM103.564 85.1106V73.2924H105.864V85.1106H103.564ZM104.726 71.4689C104.326 71.4689 103.982 71.3355 103.695 71.0688C103.413 70.797 103.272 70.4738 103.272 70.0993C103.272 69.7198 103.413 69.3966 103.695 69.1299C103.982 68.858 104.326 68.7221 104.726 68.7221C105.126 68.7221 105.467 68.858 105.749 69.1299C106.036 69.3966 106.18 69.7198 106.18 70.0993C106.18 70.4738 106.036 70.797 105.749 71.0688C105.467 71.3355 105.126 71.4689 104.726 71.4689ZM110.837 81.102L110.822 78.2936H111.222L115.93 73.2924H118.685L113.314 78.9861H112.953L110.837 81.102ZM108.721 85.1106V69.353H111.022V85.1106H108.721ZM116.184 85.1106L111.953 79.4939L113.538 77.8858L119.008 85.1106H116.184ZM125.15 85.3491C123.986 85.3491 122.983 85.1003 122.142 84.6028C121.306 84.1001 120.659 83.3948 120.203 82.4869C119.751 81.5739 119.526 80.5044 119.526 79.2784C119.526 78.0679 119.751 77.001 120.203 76.0777C120.659 75.1544 121.295 74.4337 122.111 73.9156C122.932 73.3976 123.891 73.1385 124.989 73.1385C125.655 73.1385 126.302 73.2488 126.928 73.4694C127.553 73.6899 128.115 74.0362 128.613 74.5081C129.11 74.98 129.502 75.593 129.79 76.347C130.077 77.0959 130.221 78.0064 130.221 79.0784V79.894H120.826V78.1705H127.966C127.966 77.5652 127.843 77.0292 127.597 76.5624C127.351 76.0905 127.004 75.7186 126.558 75.4468C126.117 75.1749 125.599 75.039 125.004 75.039C124.358 75.039 123.793 75.198 123.311 75.516C122.834 75.8289 122.465 76.2393 122.203 76.7471C121.947 77.2498 121.819 77.796 121.819 78.3859V79.7324C121.819 80.5223 121.957 81.1943 122.234 81.7483C122.516 82.3022 122.909 82.7254 123.411 83.0178C123.914 83.305 124.501 83.4487 125.173 83.4487C125.609 83.4487 126.007 83.3871 126.366 83.264C126.725 83.1358 127.035 82.946 127.297 82.6946C127.558 82.4433 127.758 82.133 127.897 81.7636L130.074 82.1561C129.9 82.7972 129.587 83.3589 129.136 83.8411C128.689 84.3181 128.128 84.69 127.451 84.9567C126.779 85.2183 126.012 85.3491 125.15 85.3491ZM143.547 73.2924V75.139H137.092V73.2924H143.547ZM138.823 70.461H141.124V81.6405C141.124 82.0868 141.19 82.4228 141.324 82.6485C141.457 82.869 141.629 83.0204 141.839 83.1024C142.055 83.1794 142.288 83.2178 142.539 83.2178C142.724 83.2178 142.886 83.205 143.024 83.1794C143.162 83.1537 143.27 83.1332 143.347 83.1178L143.763 85.0183C143.629 85.0696 143.439 85.1209 143.193 85.1721C142.947 85.2286 142.639 85.2593 142.27 85.2645C141.665 85.2747 141.1 85.167 140.577 84.9413C140.054 84.7156 139.631 84.3668 139.308 83.8949C138.985 83.423 138.823 82.8306 138.823 82.1176V70.461ZM148.408 78.0936V85.1106H146.108V69.353H148.377V75.2159H148.524C148.801 74.5799 149.224 74.0747 149.793 73.7002C150.362 73.3258 151.106 73.1385 152.024 73.1385C152.835 73.1385 153.543 73.3052 154.148 73.6386C154.758 73.9721 155.23 74.4696 155.564 75.1313C155.902 75.7879 156.072 76.6086 156.072 77.5934V85.1106H153.771V77.8704C153.771 77.0035 153.548 76.3316 153.102 75.8546C152.655 75.3724 152.035 75.1313 151.24 75.1313C150.696 75.1313 150.209 75.2467 149.778 75.4775C149.352 75.7084 149.016 76.0469 148.77 76.4932C148.529 76.9343 148.408 77.4678 148.408 78.0936ZM163.997 85.3491C162.832 85.3491 161.829 85.1003 160.988 84.6028C160.152 84.1001 159.506 83.3948 159.049 82.4869C158.598 81.5739 158.372 80.5044 158.372 79.2784C158.372 78.0679 158.598 77.001 159.049 76.0777C159.506 75.1544 160.142 74.4337 160.957 73.9156C161.778 73.3976 162.737 73.1385 163.835 73.1385C164.502 73.1385 165.148 73.2488 165.774 73.4694C166.4 73.6899 166.961 74.0362 167.459 74.5081C167.957 74.98 168.349 75.593 168.636 76.347C168.923 77.0959 169.067 78.0064 169.067 79.0784V79.894H159.673V78.1705H166.813C166.813 77.5652 166.69 77.0292 166.443 76.5624C166.197 76.0905 165.851 75.7186 165.405 75.4468C164.964 75.1749 164.445 75.039 163.85 75.039C163.204 75.039 162.64 75.198 162.158 75.516C161.681 75.8289 161.311 76.2393 161.05 76.7471C160.793 77.2498 160.665 77.796 160.665 78.3859V79.7324C160.665 80.5223 160.804 81.1943 161.081 81.7483C161.363 82.3022 161.755 82.7254 162.258 83.0178C162.76 83.305 163.348 83.4487 164.02 83.4487C164.456 83.4487 164.853 83.3871 165.212 83.264C165.571 83.1358 165.882 82.946 166.143 82.6946C166.405 82.4433 166.605 82.133 166.743 81.7636L168.921 82.1561C168.746 82.7972 168.434 83.3589 167.982 83.8411C167.536 84.3181 166.974 84.69 166.297 84.9567C165.625 85.2183 164.858 85.3491 163.997 85.3491ZM172.497 89.5424C172.153 89.5424 171.84 89.5142 171.558 89.4578C171.276 89.4065 171.066 89.3501 170.927 89.2885L171.481 87.4034C171.902 87.5163 172.276 87.565 172.605 87.5496C172.933 87.5342 173.223 87.4111 173.474 87.1803C173.731 86.9495 173.956 86.5725 174.151 86.0493L174.436 85.2645L170.112 73.2924H172.574L175.567 82.4638H175.69L178.683 73.2924H181.153L176.282 86.6879C176.057 87.3034 175.769 87.8241 175.421 88.2498C175.072 88.6807 174.656 89.0038 174.174 89.2193C173.692 89.4347 173.133 89.5424 172.497 89.5424ZM192.012 85.3722C191.263 85.3722 190.586 85.2337 189.98 84.9567C189.375 84.6746 188.895 84.2668 188.541 83.7333C188.193 83.1999 188.018 82.5459 188.018 81.7713C188.018 81.1045 188.147 80.5557 188.403 80.1248C188.659 79.6939 189.006 79.3528 189.442 79.1015C189.878 78.8501 190.365 78.6604 190.904 78.5321C191.442 78.4039 191.991 78.3064 192.55 78.2397C193.258 78.1577 193.832 78.091 194.274 78.0397C194.715 77.9833 195.035 77.8935 195.235 77.7704C195.435 77.6473 195.535 77.4472 195.535 77.1703V77.1164C195.535 76.4444 195.346 75.9238 194.966 75.5545C194.592 75.1852 194.033 75.0005 193.289 75.0005C192.514 75.0005 191.904 75.1723 191.458 75.516C191.016 75.8546 190.711 76.2316 190.542 76.6471L188.38 76.1546C188.636 75.4365 189.011 74.8569 189.503 74.4158C190.001 73.9695 190.573 73.6463 191.219 73.4463C191.865 73.2411 192.545 73.1385 193.258 73.1385C193.73 73.1385 194.23 73.195 194.758 73.3078C195.292 73.4155 195.789 73.6156 196.251 73.9079C196.718 74.2003 197.1 74.6184 197.397 75.1621C197.695 75.7007 197.844 76.4008 197.844 77.2626V85.1106H195.597V83.4948H195.505C195.356 83.7923 195.133 84.0847 194.835 84.372C194.538 84.6592 194.156 84.8977 193.689 85.0875C193.222 85.2773 192.663 85.3722 192.012 85.3722ZM192.512 83.5256C193.148 83.5256 193.691 83.3999 194.143 83.1486C194.599 82.8973 194.946 82.569 195.182 82.1637C195.423 81.7534 195.543 81.3148 195.543 80.848V79.3246C195.461 79.4067 195.302 79.4836 195.066 79.5554C194.835 79.6221 194.571 79.6811 194.274 79.7324C193.976 79.7786 193.686 79.8222 193.404 79.8632C193.122 79.8991 192.886 79.9299 192.696 79.9555C192.25 80.012 191.842 80.1068 191.473 80.2402C191.109 80.3736 190.816 80.5659 190.596 80.8173C190.38 81.0635 190.273 81.3918 190.273 81.8021C190.273 82.3715 190.483 82.8024 190.904 83.0947C191.324 83.382 191.86 83.5256 192.512 83.5256ZM200.67 85.1106V73.2924H202.893V75.1698H203.016C203.232 74.5337 203.611 74.0336 204.155 73.6694C204.704 73.3001 205.324 73.1154 206.017 73.1154C206.161 73.1154 206.33 73.1206 206.525 73.1308C206.725 73.1411 206.881 73.1539 206.994 73.1693V75.3698C206.902 75.3442 206.738 75.316 206.502 75.2852C206.266 75.2493 206.03 75.2313 205.794 75.2313C205.25 75.2313 204.765 75.3467 204.34 75.5776C203.919 75.8033 203.586 76.1187 203.339 76.5239C203.093 76.924 202.97 77.3806 202.97 77.8935V85.1106H200.67ZM213.417 85.3491C212.253 85.3491 211.25 85.1003 210.409 84.6028C209.572 84.1001 208.926 83.3948 208.47 82.4869C208.018 81.5739 207.793 80.5044 207.793 79.2784C207.793 78.0679 208.018 77.001 208.47 76.0777C208.926 75.1544 209.562 74.4337 210.378 73.9156C211.198 73.3976 212.158 73.1385 213.255 73.1385C213.922 73.1385 214.569 73.2488 215.194 73.4694C215.82 73.6899 216.382 74.0362 216.879 74.5081C217.377 74.98 217.769 75.593 218.057 76.347C218.344 77.0959 218.487 78.0064 218.487 79.0784V79.894H209.093V78.1705H216.233C216.233 77.5652 216.11 77.0292 215.864 76.5624C215.617 76.0905 215.271 75.7186 214.825 75.4468C214.384 75.1749 213.866 75.039 213.271 75.039C212.624 75.039 212.06 75.198 211.578 75.516C211.101 75.8289 210.732 76.2393 210.47 76.7471C210.214 77.2498 210.085 77.796 210.085 78.3859V79.7324C210.085 80.5223 210.224 81.1943 210.501 81.7483C210.783 82.3022 211.175 82.7254 211.678 83.0178C212.181 83.305 212.768 83.4487 213.44 83.4487C213.876 83.4487 214.274 83.3871 214.633 83.264C214.992 83.1358 215.302 82.946 215.564 82.6946C215.825 82.4433 216.025 82.133 216.164 81.7636L218.341 82.1561C218.167 82.7972 217.854 83.3589 217.403 83.8411C216.956 84.3181 216.395 84.69 215.717 84.9567C215.046 85.2183 214.279 85.3491 213.417 85.3491ZM231.814 73.2924V75.139H225.359V73.2924H231.814ZM227.09 70.461H229.39V81.6405C229.39 82.0868 229.457 82.4228 229.59 82.6485C229.724 82.869 229.896 83.0204 230.106 83.1024C230.321 83.1794 230.555 83.2178 230.806 83.2178C230.991 83.2178 231.152 83.205 231.291 83.1794C231.429 83.1537 231.537 83.1332 231.614 83.1178L232.029 85.0183C231.896 85.0696 231.706 85.1209 231.46 85.1721C231.214 85.2286 230.906 85.2593 230.537 85.2645C229.931 85.2747 229.367 85.167 228.844 84.9413C228.321 84.7156 227.898 84.3668 227.575 83.8949C227.251 83.423 227.09 82.8306 227.09 82.1176V70.461ZM234.12 85.1106V73.2924H236.344V75.1698H236.467C236.683 74.5337 237.062 74.0336 237.606 73.6694C238.155 73.3001 238.775 73.1154 239.468 73.1154C239.612 73.1154 239.781 73.1206 239.976 73.1308C240.176 73.1411 240.332 73.1539 240.445 73.1693V75.3698C240.353 75.3442 240.189 75.316 239.953 75.2852C239.717 75.2493 239.481 75.2313 239.245 75.2313C238.701 75.2313 238.216 75.3467 237.791 75.5776C237.37 75.8033 237.037 76.1187 236.79 76.5239C236.544 76.924 236.421 77.3806 236.421 77.8935V85.1106H234.12ZM244.011 89.5424C243.668 89.5424 243.355 89.5142 243.073 89.4578C242.791 89.4065 242.58 89.3501 242.442 89.2885L242.996 87.4034C243.416 87.5163 243.791 87.565 244.119 87.5496C244.447 87.5342 244.737 87.4111 244.989 87.1803C245.245 86.9495 245.471 86.5725 245.666 86.0493L245.95 85.2645L241.626 73.2924H244.088L247.081 82.4638H247.205L250.198 73.2924H252.667L247.797 86.6879C247.571 87.3034 247.284 87.8241 246.935 88.2498C246.586 88.6807 246.171 89.0038 245.689 89.2193C245.207 89.4347 244.648 89.5424 244.011 89.5424ZM254.591 85.1106V73.2924H256.892V85.1106H254.591ZM255.753 71.4689C255.353 71.4689 255.009 71.3355 254.722 71.0688C254.44 70.797 254.299 70.4738 254.299 70.0993C254.299 69.7198 254.44 69.3966 254.722 69.1299C255.009 68.858 255.353 68.7221 255.753 68.7221C256.153 68.7221 256.494 68.858 256.776 69.1299C257.063 69.3966 257.207 69.7198 257.207 70.0993C257.207 70.4738 257.063 70.797 256.776 71.0688C256.494 71.3355 256.153 71.4689 255.753 71.4689ZM262.049 78.0936V85.1106H259.748V73.2924H261.956V75.2159H262.103C262.375 74.5902 262.8 74.0875 263.38 73.7079C263.965 73.3283 264.701 73.1385 265.588 73.1385C266.393 73.1385 267.099 73.3078 267.704 73.6463C268.309 73.9798 268.779 74.4773 269.112 75.139C269.445 75.8007 269.612 76.6188 269.612 77.5934V85.1106H267.312V77.8704C267.312 77.0138 267.088 76.3444 266.642 75.8623C266.196 75.375 265.583 75.1313 264.803 75.1313C264.27 75.1313 263.795 75.2467 263.38 75.4775C262.97 75.7084 262.644 76.0469 262.403 76.4932C262.167 76.9343 262.049 77.4678 262.049 78.0936ZM277.414 89.7886C276.475 89.7886 275.668 89.6655 274.991 89.4193C274.319 89.1731 273.77 88.8474 273.344 88.4422C272.918 88.0369 272.6 87.5932 272.39 87.1111L274.367 86.2955C274.506 86.5212 274.69 86.7597 274.921 87.011C275.157 87.2675 275.475 87.4855 275.875 87.665C276.281 87.8446 276.801 87.9343 277.437 87.9343C278.309 87.9343 279.03 87.7215 279.599 87.2957C280.169 86.8751 280.453 86.2032 280.453 85.2799V82.9562H280.307C280.169 83.2076 279.969 83.4871 279.707 83.7949C279.451 84.1027 279.097 84.3694 278.645 84.5951C278.194 84.8208 277.607 84.9336 276.883 84.9336C275.95 84.9336 275.108 84.7156 274.36 84.2796C273.616 83.8385 273.026 83.1896 272.59 82.333C272.159 81.4713 271.944 80.412 271.944 79.1553C271.944 77.8986 272.156 76.8215 272.582 75.9238C273.013 75.0262 273.603 74.3388 274.352 73.8618C275.101 73.3796 275.95 73.1385 276.899 73.1385C277.632 73.1385 278.225 73.2616 278.676 73.5078C279.127 73.7489 279.479 74.031 279.73 74.3542C279.987 74.6774 280.184 74.962 280.323 75.2083H280.492V73.2924H282.746V85.3722C282.746 86.3878 282.51 87.2214 282.038 87.8728C281.566 88.5242 280.928 89.0064 280.122 89.3193C279.322 89.6322 278.42 89.7886 277.414 89.7886ZM277.391 83.0255C278.053 83.0255 278.612 82.8716 279.068 82.5638C279.53 82.2509 279.879 81.8047 280.115 81.2251C280.356 80.6403 280.476 79.9401 280.476 79.1246C280.476 78.3295 280.358 77.6293 280.122 77.0241C279.887 76.4188 279.54 75.9469 279.084 75.6083C278.627 75.2647 278.063 75.0928 277.391 75.0928C276.699 75.0928 276.122 75.2724 275.66 75.6314C275.198 75.9854 274.849 76.4675 274.613 77.0779C274.383 77.6883 274.267 78.3705 274.267 79.1246C274.267 79.8991 274.385 80.5788 274.621 81.1635C274.857 81.7483 275.206 82.2048 275.668 82.5331C276.134 82.8613 276.709 83.0255 277.391 83.0255ZM44.1465 105.292V107.139H37.6911V105.292H44.1465ZM39.4223 102.461H41.7228V113.641C41.7228 114.087 41.7895 114.423 41.9229 114.648C42.0562 114.869 42.2281 115.02 42.4384 115.102C42.6538 115.179 42.8872 115.218 43.1385 115.218C43.3232 115.218 43.4848 115.205 43.6233 115.179C43.7618 115.154 43.8695 115.133 43.9464 115.118L44.3619 117.018C44.2285 117.07 44.0387 117.121 43.7925 117.172C43.5463 117.229 43.2386 117.259 42.8692 117.264C42.264 117.275 41.6997 117.167 41.1765 116.941C40.6533 116.716 40.2302 116.367 39.907 115.895C39.5838 115.423 39.4223 114.831 39.4223 114.118V102.461ZM51.3041 117.349C50.1962 117.349 49.2293 117.095 48.4034 116.587C47.5776 116.08 46.9364 115.369 46.4799 114.456C46.0234 113.543 45.7951 112.476 45.7951 111.255C45.7951 110.029 46.0234 108.957 46.4799 108.039C46.9364 107.121 47.5776 106.408 48.4034 105.9C49.2293 105.392 50.1962 105.139 51.3041 105.139C52.4121 105.139 53.379 105.392 54.2048 105.9C55.0306 106.408 55.6718 107.121 56.1283 108.039C56.5848 108.957 56.8131 110.029 56.8131 111.255C56.8131 112.476 56.5848 113.543 56.1283 114.456C55.6718 115.369 55.0306 116.08 54.2048 116.587C53.379 117.095 52.4121 117.349 51.3041 117.349ZM51.3118 115.418C52.0299 115.418 52.6249 115.228 53.0968 114.849C53.5687 114.469 53.9175 113.964 54.1432 113.333C54.3741 112.702 54.4895 112.007 54.4895 111.248C54.4895 110.494 54.3741 109.801 54.1432 109.17C53.9175 108.534 53.5687 108.024 53.0968 107.639C52.6249 107.254 52.0299 107.062 51.3118 107.062C50.5886 107.062 49.9884 107.254 49.5114 107.639C49.0395 108.024 48.6881 108.534 48.4573 109.17C48.2316 109.801 48.1187 110.494 48.1187 111.248C48.1187 112.007 48.2316 112.702 48.4573 113.333C48.6881 113.964 49.0395 114.469 49.5114 114.849C49.9884 115.228 50.5886 115.418 51.3118 115.418ZM73.4943 108.178L71.4092 108.547C71.322 108.28 71.1835 108.026 70.9938 107.785C70.8091 107.544 70.5578 107.347 70.2397 107.193C69.9217 107.039 69.5242 106.962 69.0471 106.962C68.3957 106.962 67.852 107.108 67.416 107.401C66.98 107.688 66.762 108.06 66.762 108.516C66.762 108.911 66.9082 109.229 67.2005 109.47C67.4929 109.711 67.9648 109.909 68.6163 110.063L70.4936 110.494C71.5811 110.745 72.3915 111.132 72.925 111.655C73.4584 112.179 73.7252 112.858 73.7252 113.694C73.7252 114.402 73.52 115.033 73.1096 115.587C72.7044 116.136 72.1376 116.567 71.4092 116.88C70.686 117.193 69.8473 117.349 68.8933 117.349C67.5699 117.349 66.4901 117.067 65.654 116.503C64.8179 115.933 64.305 115.126 64.1152 114.079L66.3388 113.741C66.4773 114.32 66.762 114.759 67.1929 115.056C67.6237 115.349 68.1854 115.495 68.8779 115.495C69.6319 115.495 70.2346 115.338 70.686 115.025C71.1374 114.707 71.3631 114.32 71.3631 113.864C71.3631 113.494 71.2246 113.184 70.9476 112.933C70.6757 112.681 70.2577 112.492 69.6934 112.363L67.693 111.925C66.5901 111.673 65.7746 111.273 65.2462 110.724C64.723 110.176 64.4614 109.481 64.4614 108.639C64.4614 107.942 64.6564 107.331 65.0462 106.808C65.436 106.285 65.9746 105.877 66.662 105.585C67.3493 105.287 68.1367 105.139 69.0241 105.139C70.3013 105.139 71.3066 105.416 72.0402 105.969C72.7737 106.518 73.2584 107.254 73.4943 108.178ZM81.1098 117.349C79.9454 117.349 78.9426 117.1 78.1014 116.603C77.2653 116.1 76.619 115.395 76.1625 114.487C75.7111 113.574 75.4854 112.504 75.4854 111.278C75.4854 110.068 75.7111 109.001 76.1625 108.078C76.619 107.154 77.255 106.434 78.0706 105.916C78.8913 105.398 79.8505 105.139 80.9482 105.139C81.615 105.139 82.2613 105.249 82.8871 105.469C83.5129 105.69 84.0746 106.036 84.5722 106.508C85.0697 106.98 85.4621 107.593 85.7494 108.347C86.0366 109.096 86.1802 110.006 86.1802 111.078V111.894H76.7857V110.17H83.9258C83.9258 109.565 83.8027 109.029 83.5565 108.562C83.3103 108.091 82.9641 107.719 82.5178 107.447C82.0767 107.175 81.5586 107.039 80.9636 107.039C80.3173 107.039 79.7531 107.198 79.2709 107.516C78.7939 107.829 78.4245 108.239 78.1629 108.747C77.9065 109.25 77.7782 109.796 77.7782 110.386V111.732C77.7782 112.522 77.9167 113.194 78.1937 113.748C78.4758 114.302 78.8682 114.725 79.3709 115.018C79.8736 115.305 80.4609 115.449 81.1329 115.449C81.5689 115.449 81.9664 115.387 82.3255 115.264C82.6845 115.136 82.9949 114.946 83.2565 114.695C83.5181 114.443 83.7181 114.133 83.8566 113.764L86.034 114.156C85.8596 114.797 85.5467 115.359 85.0954 115.841C84.6491 116.318 84.0874 116.69 83.4103 116.957C82.7384 117.218 81.9715 117.349 81.1098 117.349ZM90.795 101.353V117.111H88.4944V101.353H90.795ZM95.9521 101.353V117.111H93.6516V101.353H95.9521ZM104.304 117.111V105.292H106.513V107.216H106.659C106.905 106.565 107.308 106.057 107.867 105.693C108.426 105.323 109.095 105.139 109.875 105.139C110.665 105.139 111.327 105.323 111.86 105.693C112.399 106.062 112.796 106.57 113.053 107.216H113.176C113.458 106.585 113.907 106.082 114.522 105.708C115.138 105.328 115.871 105.139 116.723 105.139C117.795 105.139 118.669 105.475 119.347 106.146C120.029 106.818 120.37 107.831 120.37 109.186V117.111H118.069V109.401C118.069 108.601 117.851 108.021 117.415 107.662C116.979 107.303 116.459 107.124 115.853 107.124C115.104 107.124 114.522 107.354 114.107 107.816C113.691 108.273 113.484 108.86 113.484 109.578V117.111H111.191V109.255C111.191 108.614 110.991 108.098 110.591 107.708C110.19 107.319 109.67 107.124 109.029 107.124C108.593 107.124 108.19 107.239 107.821 107.47C107.457 107.696 107.162 108.011 106.936 108.416C106.715 108.821 106.605 109.291 106.605 109.824V117.111H104.304ZM128.308 117.349C127.144 117.349 126.141 117.1 125.3 116.603C124.464 116.1 123.818 115.395 123.361 114.487C122.91 113.574 122.684 112.504 122.684 111.278C122.684 110.068 122.91 109.001 123.361 108.078C123.818 107.154 124.454 106.434 125.269 105.916C126.09 105.398 127.049 105.139 128.147 105.139C128.814 105.139 129.46 105.249 130.086 105.469C130.712 105.69 131.273 106.036 131.771 106.508C132.268 106.98 132.661 107.593 132.948 108.347C133.235 109.096 133.379 110.006 133.379 111.078V111.894H123.984V110.17H131.124C131.124 109.565 131.001 109.029 130.755 108.562C130.509 108.091 130.163 107.719 129.716 107.447C129.275 107.175 128.757 107.039 128.162 107.039C127.516 107.039 126.952 107.198 126.47 107.516C125.992 107.829 125.623 108.239 125.362 108.747C125.105 109.25 124.977 109.796 124.977 110.386V111.732C124.977 112.522 125.115 113.194 125.392 113.748C125.674 114.302 126.067 114.725 126.57 115.018C127.072 115.305 127.66 115.449 128.332 115.449C128.768 115.449 129.165 115.387 129.524 115.264C129.883 115.136 130.193 114.946 130.455 114.695C130.717 114.443 130.917 114.133 131.055 113.764L133.233 114.156C133.058 114.797 132.745 115.359 132.294 115.841C131.848 116.318 131.286 116.69 130.609 116.957C129.937 117.218 129.17 117.349 128.308 117.349ZM150.045 108.178L147.96 108.547C147.872 108.28 147.734 108.026 147.544 107.785C147.359 107.544 147.108 107.347 146.79 107.193C146.472 107.039 146.075 106.962 145.597 106.962C144.946 106.962 144.402 107.108 143.966 107.401C143.53 107.688 143.312 108.06 143.312 108.516C143.312 108.911 143.459 109.229 143.751 109.47C144.043 109.711 144.515 109.909 145.167 110.063L147.044 110.494C148.131 110.745 148.942 111.132 149.475 111.655C150.009 112.179 150.276 112.858 150.276 113.694C150.276 114.402 150.07 115.033 149.66 115.587C149.255 116.136 148.688 116.567 147.96 116.88C147.236 117.193 146.398 117.349 145.444 117.349C144.12 117.349 143.04 117.067 142.204 116.503C141.368 115.933 140.855 115.126 140.666 114.079L142.889 113.741C143.028 114.32 143.312 114.759 143.743 115.056C144.174 115.349 144.736 115.495 145.428 115.495C146.182 115.495 146.785 115.338 147.236 115.025C147.688 114.707 147.913 114.32 147.913 113.864C147.913 113.494 147.775 113.184 147.498 112.933C147.226 112.681 146.808 112.492 146.244 112.363L144.243 111.925C143.141 111.673 142.325 111.273 141.797 110.724C141.273 110.176 141.012 109.481 141.012 108.639C141.012 107.942 141.207 107.331 141.597 106.808C141.986 106.285 142.525 105.877 143.212 105.585C143.9 105.287 144.687 105.139 145.574 105.139C146.852 105.139 147.857 105.416 148.591 105.969C149.324 106.518 149.809 107.254 150.045 108.178ZM157.545 117.349C156.437 117.349 155.47 117.095 154.644 116.587C153.818 116.08 153.177 115.369 152.721 114.456C152.264 113.543 152.036 112.476 152.036 111.255C152.036 110.029 152.264 108.957 152.721 108.039C153.177 107.121 153.818 106.408 154.644 105.9C155.47 105.392 156.437 105.139 157.545 105.139C158.653 105.139 159.62 105.392 160.445 105.9C161.271 106.408 161.912 107.121 162.369 108.039C162.825 108.957 163.054 110.029 163.054 111.255C163.054 112.476 162.825 113.543 162.369 114.456C161.912 115.369 161.271 116.08 160.445 116.587C159.62 117.095 158.653 117.349 157.545 117.349ZM157.552 115.418C158.271 115.418 158.866 115.228 159.337 114.849C159.809 114.469 160.158 113.964 160.384 113.333C160.615 112.702 160.73 112.007 160.73 111.248C160.73 110.494 160.615 109.801 160.384 109.17C160.158 108.534 159.809 108.024 159.337 107.639C158.866 107.254 158.271 107.062 157.552 107.062C156.829 107.062 156.229 107.254 155.752 107.639C155.28 108.024 154.929 108.534 154.698 109.17C154.472 109.801 154.359 110.494 154.359 111.248C154.359 112.007 154.472 112.702 154.698 113.333C154.929 113.964 155.28 114.469 155.752 114.849C156.229 115.228 156.829 115.418 157.552 115.418ZM165.383 117.111V105.292H167.592V107.216H167.738C167.984 106.565 168.387 106.057 168.946 105.693C169.505 105.323 170.174 105.139 170.954 105.139C171.744 105.139 172.405 105.323 172.939 105.693C173.478 106.062 173.875 106.57 174.132 107.216H174.255C174.537 106.585 174.986 106.082 175.601 105.708C176.217 105.328 176.95 105.139 177.802 105.139C178.874 105.139 179.748 105.475 180.425 106.146C181.108 106.818 181.449 107.831 181.449 109.186V117.111H179.148V109.401C179.148 108.601 178.93 108.021 178.494 107.662C178.058 107.303 177.537 107.124 176.932 107.124C176.183 107.124 175.601 107.354 175.186 107.816C174.77 108.273 174.562 108.86 174.562 109.578V117.111H172.27V109.255C172.27 108.614 172.07 108.098 171.669 107.708C171.269 107.319 170.749 107.124 170.108 107.124C169.672 107.124 169.269 107.239 168.9 107.47C168.535 107.696 168.24 108.011 168.015 108.416C167.794 108.821 167.684 109.291 167.684 109.824V117.111H165.383ZM189.387 117.349C188.223 117.349 187.22 117.1 186.379 116.603C185.543 116.1 184.896 115.395 184.44 114.487C183.989 113.574 183.763 112.504 183.763 111.278C183.763 110.068 183.989 109.001 184.44 108.078C184.896 107.154 185.533 106.434 186.348 105.916C187.169 105.398 188.128 105.139 189.226 105.139C189.893 105.139 190.539 105.249 191.165 105.469C191.79 105.69 192.352 106.036 192.85 106.508C193.347 106.98 193.74 107.593 194.027 108.347C194.314 109.096 194.458 110.006 194.458 111.078V111.894H185.063V110.17H192.203C192.203 109.565 192.08 109.029 191.834 108.562C191.588 108.091 191.242 107.719 190.795 107.447C190.354 107.175 189.836 107.039 189.241 107.039C188.595 107.039 188.031 107.198 187.548 107.516C187.071 107.829 186.702 108.239 186.44 108.747C186.184 109.25 186.056 109.796 186.056 110.386V111.732C186.056 112.522 186.194 113.194 186.471 113.748C186.753 114.302 187.146 114.725 187.648 115.018C188.151 115.305 188.738 115.449 189.41 115.449C189.846 115.449 190.244 115.387 190.603 115.264C190.962 115.136 191.272 114.946 191.534 114.695C191.796 114.443 191.996 114.133 192.134 113.764L194.312 114.156C194.137 114.797 193.824 115.359 193.373 115.841C192.927 116.318 192.365 116.69 191.688 116.957C191.016 117.218 190.249 117.349 189.387 117.349ZM202.289 105.292V107.139H195.833V105.292H202.289ZM197.564 102.461H199.865V113.641C199.865 114.087 199.932 114.423 200.065 114.648C200.198 114.869 200.37 115.02 200.58 115.102C200.796 115.179 201.029 115.218 201.281 115.218C201.465 115.218 201.627 115.205 201.765 115.179C201.904 115.154 202.012 115.133 202.089 115.118L202.504 117.018C202.371 117.07 202.181 117.121 201.935 117.172C201.688 117.229 201.381 117.259 201.011 117.264C200.406 117.275 199.842 117.167 199.319 116.941C198.795 116.716 198.372 116.367 198.049 115.895C197.726 115.423 197.564 114.831 197.564 114.118V102.461ZM207.15 110.094V117.111H204.849V101.353H207.119V107.216H207.265C207.542 106.58 207.965 106.075 208.534 105.7C209.104 105.326 209.848 105.139 210.766 105.139C211.576 105.139 212.284 105.305 212.889 105.639C213.5 105.972 213.972 106.47 214.305 107.131C214.644 107.788 214.813 108.609 214.813 109.593V117.111H212.512V109.87C212.512 109.004 212.289 108.332 211.843 107.855C211.397 107.372 210.776 107.131 209.981 107.131C209.437 107.131 208.95 107.247 208.519 107.478C208.093 107.708 207.757 108.047 207.511 108.493C207.27 108.934 207.15 109.468 207.15 110.094ZM217.645 117.111V105.292H219.945V117.111H217.645ZM218.806 103.469C218.406 103.469 218.063 103.336 217.775 103.069C217.493 102.797 217.352 102.474 217.352 102.099C217.352 101.72 217.493 101.397 217.775 101.13C218.063 100.858 218.406 100.722 218.806 100.722C219.206 100.722 219.548 100.858 219.83 101.13C220.117 101.397 220.261 101.72 220.261 102.099C220.261 102.474 220.117 102.797 219.83 103.069C219.548 103.336 219.206 103.469 218.806 103.469ZM225.102 110.094V117.111H222.802V105.292H225.01V107.216H225.156C225.428 106.59 225.854 106.087 226.433 105.708C227.018 105.328 227.754 105.139 228.642 105.139C229.447 105.139 230.152 105.308 230.757 105.646C231.363 105.98 231.832 106.477 232.165 107.139C232.499 107.801 232.666 108.619 232.666 109.593V117.111H230.365V109.87C230.365 109.014 230.142 108.344 229.696 107.862C229.249 107.375 228.636 107.131 227.857 107.131C227.323 107.131 226.849 107.247 226.433 107.478C226.023 107.708 225.697 108.047 225.456 108.493C225.22 108.934 225.102 109.468 225.102 110.094ZM240.468 121.789C239.529 121.789 238.721 121.666 238.044 121.419C237.372 121.173 236.823 120.847 236.397 120.442C235.972 120.037 235.654 119.593 235.443 119.111L237.421 118.295C237.559 118.521 237.744 118.76 237.975 119.011C238.211 119.268 238.529 119.486 238.929 119.665C239.334 119.845 239.855 119.934 240.491 119.934C241.363 119.934 242.083 119.721 242.653 119.296C243.222 118.875 243.507 118.203 243.507 117.28V114.956H243.361C243.222 115.208 243.022 115.487 242.76 115.795C242.504 116.103 242.15 116.369 241.699 116.595C241.247 116.821 240.66 116.934 239.937 116.934C239.003 116.934 238.162 116.716 237.413 116.28C236.669 115.838 236.079 115.19 235.643 114.333C235.212 113.471 234.997 112.412 234.997 111.155C234.997 109.899 235.21 108.821 235.636 107.924C236.067 107.026 236.656 106.339 237.405 105.862C238.154 105.38 239.003 105.139 239.952 105.139C240.686 105.139 241.278 105.262 241.729 105.508C242.181 105.749 242.532 106.031 242.784 106.354C243.04 106.677 243.237 106.962 243.376 107.208H243.545V105.292H245.8V117.372C245.8 118.388 245.564 119.221 245.092 119.873C244.62 120.524 243.981 121.006 243.176 121.319C242.376 121.632 241.473 121.789 240.468 121.789ZM240.445 115.025C241.106 115.025 241.665 114.872 242.122 114.564C242.583 114.251 242.932 113.805 243.168 113.225C243.409 112.64 243.53 111.94 243.53 111.125C243.53 110.33 243.412 109.629 243.176 109.024C242.94 108.419 242.594 107.947 242.137 107.608C241.681 107.265 241.116 107.093 240.445 107.093C239.752 107.093 239.175 107.272 238.713 107.631C238.252 107.985 237.903 108.468 237.667 109.078C237.436 109.688 237.321 110.371 237.321 111.125C237.321 111.899 237.439 112.579 237.675 113.164C237.911 113.748 238.259 114.205 238.721 114.533C239.188 114.861 239.762 115.025 240.445 115.025ZM255.61 109.455V111.448H248.624V109.455H255.61ZM268.357 117.341C267.403 117.341 266.552 117.098 265.803 116.61C265.059 116.118 264.474 115.418 264.049 114.51C263.628 113.597 263.418 112.502 263.418 111.225C263.418 109.947 263.631 108.855 264.056 107.947C264.487 107.039 265.077 106.344 265.826 105.862C266.575 105.38 267.424 105.139 268.373 105.139C269.106 105.139 269.696 105.262 270.142 105.508C270.594 105.749 270.943 106.031 271.189 106.354C271.44 106.677 271.635 106.962 271.774 107.208H271.912V101.353H274.213V117.111H271.966V115.272H271.774C271.635 115.523 271.435 115.81 271.173 116.133C270.917 116.457 270.563 116.739 270.112 116.98C269.66 117.221 269.076 117.341 268.357 117.341ZM268.865 115.379C269.527 115.379 270.086 115.205 270.543 114.856C271.004 114.502 271.353 114.012 271.589 113.387C271.83 112.761 271.951 112.032 271.951 111.202C271.951 110.381 271.833 109.663 271.597 109.047C271.361 108.432 271.014 107.952 270.558 107.608C270.101 107.265 269.537 107.093 268.865 107.093C268.173 107.093 267.596 107.272 267.134 107.631C266.672 107.99 266.324 108.48 266.088 109.101C265.857 109.722 265.741 110.422 265.741 111.202C265.741 111.991 265.859 112.702 266.095 113.333C266.331 113.964 266.68 114.464 267.142 114.833C267.609 115.197 268.183 115.379 268.865 115.379ZM282.236 117.349C281.128 117.349 280.161 117.095 279.335 116.587C278.509 116.08 277.868 115.369 277.412 114.456C276.955 113.543 276.727 112.476 276.727 111.255C276.727 110.029 276.955 108.957 277.412 108.039C277.868 107.121 278.509 106.408 279.335 105.9C280.161 105.392 281.128 105.139 282.236 105.139C283.344 105.139 284.311 105.392 285.137 105.9C285.962 106.408 286.604 107.121 287.06 108.039C287.517 108.957 287.745 110.029 287.745 111.255C287.745 112.476 287.517 113.543 287.06 114.456C286.604 115.369 285.962 116.08 285.137 116.587C284.311 117.095 283.344 117.349 282.236 117.349ZM282.244 115.418C282.962 115.418 283.557 115.228 284.029 114.849C284.501 114.469 284.849 113.964 285.075 113.333C285.306 112.702 285.421 112.007 285.421 111.248C285.421 110.494 285.306 109.801 285.075 109.17C284.849 108.534 284.501 108.024 284.029 107.639C283.557 107.254 282.962 107.062 282.244 107.062C281.52 107.062 280.92 107.254 280.443 107.639C279.971 108.024 279.62 108.534 279.389 109.17C279.163 109.801 279.051 110.494 279.051 111.248C279.051 112.007 279.163 112.702 279.389 113.333C279.62 113.964 279.971 114.469 280.443 114.849C280.92 115.228 281.52 115.418 282.244 115.418ZM298.132 101.353V117.111H295.755V101.353H298.132ZM40.9303 142.094V149.111H38.6298V133.353H40.8995V139.216H41.0457C41.3227 138.58 41.7459 138.075 42.3153 137.7C42.8846 137.326 43.6284 137.139 44.5466 137.139C45.357 137.139 46.0649 137.305 46.6701 137.639C47.2805 137.972 47.7524 138.47 48.0859 139.131C48.4244 139.788 48.5937 140.609 48.5937 141.593V149.111H46.2931V141.87C46.2931 141.004 46.07 140.332 45.6237 139.855C45.1775 139.372 44.5568 139.131 43.7618 139.131C43.218 139.131 42.7307 139.247 42.2999 139.478C41.8741 139.708 41.5382 140.047 41.2919 140.493C41.0509 140.934 40.9303 141.468 40.9303 142.094ZM54.8646 149.372C54.1157 149.372 53.4386 149.234 52.8333 148.957C52.228 148.675 51.7484 148.267 51.3945 147.733C51.0457 147.2 50.8713 146.546 50.8713 145.771C50.8713 145.105 50.9995 144.556 51.256 144.125C51.5125 143.694 51.8587 143.353 52.2947 143.101C52.7307 142.85 53.218 142.66 53.7566 142.532C54.2952 142.404 54.844 142.306 55.4032 142.24C56.111 142.158 56.6855 142.091 57.1266 142.04C57.5678 141.983 57.8884 141.894 58.0884 141.77C58.2885 141.647 58.3885 141.447 58.3885 141.17V141.116C58.3885 140.444 58.1987 139.924 57.8191 139.554C57.4447 139.185 56.8856 139.001 56.1418 139.001C55.3673 139.001 54.7568 139.172 54.3106 139.516C53.8695 139.855 53.5643 140.232 53.395 140.647L51.2329 140.155C51.4894 139.437 51.8639 138.857 52.3563 138.416C52.8538 137.969 53.4258 137.646 54.0721 137.446C54.7184 137.241 55.398 137.139 56.111 137.139C56.5829 137.139 57.083 137.195 57.6114 137.308C58.1448 137.416 58.6424 137.616 59.104 137.908C59.5708 138.2 59.953 138.618 60.2505 139.162C60.548 139.701 60.6967 140.401 60.6967 141.263V149.111H58.45V147.495H58.3577C58.2089 147.792 57.9858 148.085 57.6883 148.372C57.3908 148.659 57.0087 148.898 56.5419 149.088C56.0751 149.277 55.516 149.372 54.8646 149.372ZM55.3647 147.526C56.0007 147.526 56.5445 147.4 56.9958 147.149C57.4524 146.897 57.7986 146.569 58.0345 146.164C58.2756 145.753 58.3962 145.315 58.3962 144.848V143.325C58.3141 143.407 58.1551 143.484 57.9191 143.555C57.6883 143.622 57.4241 143.681 57.1266 143.732C56.8291 143.779 56.5393 143.822 56.2572 143.863C55.9751 143.899 55.7391 143.93 55.5493 143.956C55.1031 144.012 54.6953 144.107 54.326 144.24C53.9618 144.374 53.6694 144.566 53.4488 144.817C53.2334 145.063 53.1257 145.392 53.1257 145.802C53.1257 146.371 53.336 146.802 53.7566 147.095C54.1772 147.382 54.7132 147.526 55.3647 147.526ZM73.2095 137.292L68.9238 149.111H66.4617L62.1684 137.292H64.6382L67.6312 146.387H67.7543L70.7397 137.292H73.2095ZM79.8247 149.349C78.6603 149.349 77.6575 149.1 76.8163 148.603C75.9802 148.1 75.3339 147.395 74.8774 146.487C74.426 145.574 74.2003 144.504 74.2003 143.278C74.2003 142.068 74.426 141.001 74.8774 140.078C75.3339 139.154 75.9699 138.434 76.7855 137.916C77.6062 137.398 78.5654 137.139 79.6631 137.139C80.3299 137.139 80.9762 137.249 81.602 137.469C82.2278 137.69 82.7895 138.036 83.287 138.508C83.7846 138.98 84.177 139.593 84.4643 140.347C84.7515 141.096 84.8951 142.006 84.8951 143.078V143.894H75.5006V142.17H82.6407C82.6407 141.565 82.5176 141.029 82.2714 140.562C82.0252 140.091 81.679 139.719 81.2327 139.447C80.7916 139.175 80.2735 139.039 79.6785 139.039C79.0322 139.039 78.468 139.198 77.9858 139.516C77.5088 139.829 77.1394 140.239 76.8778 140.747C76.6214 141.25 76.4931 141.796 76.4931 142.386V143.732C76.4931 144.522 76.6316 145.194 76.9086 145.748C77.1907 146.302 77.5831 146.725 78.0858 147.018C78.5885 147.305 79.1758 147.449 79.8478 147.449C80.2838 147.449 80.6813 147.387 81.0404 147.264C81.3994 147.136 81.7098 146.946 81.9714 146.695C82.233 146.443 82.433 146.133 82.5715 145.764L84.7489 146.156C84.5745 146.797 84.2616 147.359 83.8102 147.841C83.364 148.318 82.8023 148.69 82.1252 148.957C81.4533 149.218 80.6864 149.349 79.8247 149.349ZM98.2217 137.292V139.139H91.7663V137.292H98.2217ZM93.4975 134.461H95.7981V145.641C95.7981 146.087 95.8648 146.423 95.9981 146.648C96.1315 146.869 96.3033 147.02 96.5136 147.102C96.7291 147.179 96.9624 147.218 97.2138 147.218C97.3985 147.218 97.56 147.205 97.6985 147.179C97.837 147.154 97.9447 147.133 98.0217 147.118L98.4372 149.018C98.3038 149.07 98.114 149.121 97.8678 149.172C97.6216 149.229 97.3138 149.259 96.9445 149.264C96.3392 149.275 95.775 149.167 95.2518 148.941C94.7286 148.716 94.3054 148.367 93.9823 147.895C93.6591 147.423 93.4975 146.831 93.4975 146.118V134.461ZM105.379 149.349C104.271 149.349 103.305 149.095 102.479 148.587C101.653 148.08 101.012 147.369 100.555 146.456C100.099 145.543 99.8704 144.476 99.8704 143.255C99.8704 142.029 100.099 140.957 100.555 140.039C101.012 139.121 101.653 138.408 102.479 137.9C103.305 137.392 104.271 137.139 105.379 137.139C106.487 137.139 107.454 137.392 108.28 137.9C109.106 138.408 109.747 139.121 110.204 140.039C110.66 140.957 110.888 142.029 110.888 143.255C110.888 144.476 110.66 145.543 110.204 146.456C109.747 147.369 109.106 148.08 108.28 148.587C107.454 149.095 106.487 149.349 105.379 149.349ZM105.387 147.418C106.105 147.418 106.7 147.228 107.172 146.849C107.644 146.469 107.993 145.964 108.219 145.333C108.449 144.702 108.565 144.007 108.565 143.248C108.565 142.494 108.449 141.801 108.219 141.17C107.993 140.534 107.644 140.024 107.172 139.639C106.7 139.254 106.105 139.062 105.387 139.062C104.664 139.062 104.064 139.254 103.587 139.639C103.115 140.024 102.763 140.534 102.533 141.17C102.307 141.801 102.194 142.494 102.194 143.248C102.194 144.007 102.307 144.702 102.533 145.333C102.763 145.964 103.115 146.469 103.587 146.849C104.064 147.228 104.664 147.418 105.387 147.418ZM124.23 137.292V139.139H117.775V137.292H124.23ZM119.506 134.461H121.807V145.641C121.807 146.087 121.873 146.423 122.007 146.648C122.14 146.869 122.312 147.02 122.522 147.102C122.738 147.179 122.971 147.218 123.222 147.218C123.407 147.218 123.569 147.205 123.707 147.179C123.846 147.154 123.953 147.133 124.03 147.118L124.446 149.018C124.312 149.07 124.123 149.121 123.876 149.172C123.63 149.229 123.322 149.259 122.953 149.264C122.348 149.275 121.784 149.167 121.26 148.941C120.737 148.716 120.314 148.367 119.991 147.895C119.668 147.423 119.506 146.831 119.506 146.118V134.461ZM129.976 149.372C129.227 149.372 128.55 149.234 127.945 148.957C127.34 148.675 126.86 148.267 126.506 147.733C126.157 147.2 125.983 146.546 125.983 145.771C125.983 145.105 126.111 144.556 126.368 144.125C126.624 143.694 126.97 143.353 127.406 143.101C127.842 142.85 128.33 142.66 128.868 142.532C129.407 142.404 129.956 142.306 130.515 142.24C131.223 142.158 131.797 142.091 132.238 142.04C132.679 141.983 133 141.894 133.2 141.77C133.4 141.647 133.5 141.447 133.5 141.17V141.116C133.5 140.444 133.31 139.924 132.931 139.554C132.556 139.185 131.997 139.001 131.253 139.001C130.479 139.001 129.868 139.172 129.422 139.516C128.981 139.855 128.676 140.232 128.507 140.647L126.345 140.155C126.601 139.437 126.975 138.857 127.468 138.416C127.965 137.969 128.537 137.646 129.184 137.446C129.83 137.241 130.51 137.139 131.223 137.139C131.694 137.139 132.195 137.195 132.723 137.308C133.256 137.416 133.754 137.616 134.216 137.908C134.682 138.2 135.065 138.618 135.362 139.162C135.66 139.701 135.808 140.401 135.808 141.263V149.111H133.562V147.495H133.469C133.321 147.792 133.097 148.085 132.8 148.372C132.502 148.659 132.12 148.898 131.653 149.088C131.187 149.277 130.628 149.372 129.976 149.372ZM130.476 147.526C131.112 147.526 131.656 147.4 132.107 147.149C132.564 146.897 132.91 146.569 133.146 146.164C133.387 145.753 133.508 145.315 133.508 144.848V143.325C133.426 143.407 133.267 143.484 133.031 143.555C132.8 143.622 132.536 143.681 132.238 143.732C131.941 143.779 131.651 143.822 131.369 143.863C131.087 143.899 130.851 143.93 130.661 143.956C130.215 144.012 129.807 144.107 129.438 144.24C129.073 144.374 128.781 144.566 128.56 144.817C128.345 145.063 128.237 145.392 128.237 145.802C128.237 146.371 128.448 146.802 128.868 147.095C129.289 147.382 129.825 147.526 130.476 147.526ZM140.935 133.353V149.111H138.634V133.353H140.935ZM145.907 145.102L145.892 142.294H146.292L151.001 137.292H153.755L148.385 142.986H148.023L145.907 145.102ZM143.791 149.111V133.353H146.092V149.111H143.791ZM151.255 149.111L147.023 143.494L148.608 141.886L154.078 149.111H151.255ZM166.087 149.349C164.979 149.349 164.012 149.095 163.187 148.587C162.361 148.08 161.72 147.369 161.263 146.456C160.807 145.543 160.578 144.476 160.578 143.255C160.578 142.029 160.807 140.957 161.263 140.039C161.72 139.121 162.361 138.408 163.187 137.9C164.012 137.392 164.979 137.139 166.087 137.139C167.195 137.139 168.162 137.392 168.988 137.9C169.814 138.408 170.455 139.121 170.912 140.039C171.368 140.957 171.596 142.029 171.596 143.255C171.596 144.476 171.368 145.543 170.912 146.456C170.455 147.369 169.814 148.08 168.988 148.587C168.162 149.095 167.195 149.349 166.087 149.349ZM166.095 147.418C166.813 147.418 167.408 147.228 167.88 146.849C168.352 146.469 168.701 145.964 168.926 145.333C169.157 144.702 169.273 144.007 169.273 143.248C169.273 142.494 169.157 141.801 168.926 141.17C168.701 140.534 168.352 140.024 167.88 139.639C167.408 139.254 166.813 139.062 166.095 139.062C165.372 139.062 164.772 139.254 164.295 139.639C163.823 140.024 163.471 140.534 163.241 141.17C163.015 141.801 162.902 142.494 162.902 143.248C162.902 144.007 163.015 144.702 163.241 145.333C163.471 145.964 163.823 146.469 164.295 146.849C164.772 147.228 165.372 147.418 166.095 147.418ZM176.226 142.094V149.111H173.926V137.292H176.134V139.216H176.28C176.552 138.59 176.978 138.087 177.558 137.708C178.142 137.328 178.878 137.139 179.766 137.139C180.571 137.139 181.276 137.308 181.882 137.646C182.487 137.98 182.956 138.477 183.29 139.139C183.623 139.801 183.79 140.619 183.79 141.593V149.111H181.489V141.87C181.489 141.014 181.266 140.344 180.82 139.862C180.374 139.375 179.761 139.131 178.981 139.131C178.447 139.131 177.973 139.247 177.558 139.478C177.147 139.708 176.821 140.047 176.58 140.493C176.344 140.934 176.226 141.468 176.226 142.094ZM197.649 137.292V139.139H191.194V137.292H197.649ZM192.925 134.461H195.226V145.641C195.226 146.087 195.292 146.423 195.426 146.648C195.559 146.869 195.731 147.02 195.941 147.102C196.157 147.179 196.39 147.218 196.641 147.218C196.826 147.218 196.988 147.205 197.126 147.179C197.265 147.154 197.372 147.133 197.449 147.118L197.865 149.018C197.731 149.07 197.541 149.121 197.295 149.172C197.049 149.229 196.741 149.259 196.372 149.264C195.767 149.275 195.202 149.167 194.679 148.941C194.156 148.716 193.733 148.367 193.41 147.895C193.087 147.423 192.925 146.831 192.925 146.118V134.461ZM202.51 142.094V149.111H200.21V133.353H202.479V139.216H202.626C202.903 138.58 203.326 138.075 203.895 137.7C204.464 137.326 205.208 137.139 206.126 137.139C206.937 137.139 207.645 137.305 208.25 137.639C208.86 137.972 209.332 138.47 209.666 139.131C210.004 139.788 210.174 140.609 210.174 141.593V149.111H207.873V141.87C207.873 141.004 207.65 140.332 207.204 139.855C206.757 139.372 206.137 139.131 205.342 139.131C204.798 139.131 204.311 139.247 203.88 139.478C203.454 139.708 203.118 140.047 202.872 140.493C202.631 140.934 202.51 141.468 202.51 142.094ZM218.099 149.349C216.934 149.349 215.931 149.1 215.09 148.603C214.254 148.1 213.608 147.395 213.151 146.487C212.7 145.574 212.474 144.504 212.474 143.278C212.474 142.068 212.7 141.001 213.151 140.078C213.608 139.154 214.244 138.434 215.059 137.916C215.88 137.398 216.839 137.139 217.937 137.139C218.604 137.139 219.25 137.249 219.876 137.469C220.502 137.69 221.063 138.036 221.561 138.508C222.059 138.98 222.451 139.593 222.738 140.347C223.025 141.096 223.169 142.006 223.169 143.078V143.894H213.775V142.17H220.915C220.915 141.565 220.792 141.029 220.545 140.562C220.299 140.091 219.953 139.719 219.507 139.447C219.066 139.175 218.547 139.039 217.952 139.039C217.306 139.039 216.742 139.198 216.26 139.516C215.783 139.829 215.413 140.239 215.152 140.747C214.895 141.25 214.767 141.796 214.767 142.386V143.732C214.767 144.522 214.906 145.194 215.183 145.748C215.465 146.302 215.857 146.725 216.36 147.018C216.862 147.305 217.45 147.449 218.122 147.449C218.558 147.449 218.955 147.387 219.314 147.264C219.673 147.136 219.984 146.946 220.245 146.695C220.507 146.443 220.707 146.133 220.845 145.764L223.023 146.156C222.848 146.797 222.536 147.359 222.084 147.841C221.638 148.318 221.076 148.69 220.399 148.957C219.727 149.218 218.96 149.349 218.099 149.349ZM230.979 153.542V137.292H233.226V139.208H233.418C233.551 138.962 233.744 138.677 233.995 138.354C234.246 138.031 234.595 137.749 235.041 137.508C235.488 137.262 236.078 137.139 236.811 137.139C237.765 137.139 238.617 137.38 239.366 137.862C240.114 138.344 240.702 139.039 241.128 139.947C241.558 140.855 241.774 141.947 241.774 143.225C241.774 144.502 241.561 145.597 241.135 146.51C240.709 147.418 240.125 148.118 239.381 148.61C238.637 149.098 237.788 149.341 236.834 149.341C236.116 149.341 235.529 149.221 235.072 148.98C234.621 148.739 234.267 148.457 234.01 148.133C233.754 147.81 233.557 147.523 233.418 147.272H233.28V153.542H230.979ZM233.233 143.202C233.233 144.032 233.354 144.761 233.595 145.387C233.836 146.012 234.185 146.502 234.641 146.856C235.098 147.205 235.657 147.379 236.319 147.379C237.006 147.379 237.581 147.197 238.042 146.833C238.504 146.464 238.853 145.964 239.089 145.333C239.33 144.702 239.45 143.991 239.45 143.202C239.45 142.422 239.332 141.722 239.096 141.101C238.865 140.48 238.517 139.99 238.05 139.631C237.588 139.272 237.011 139.093 236.319 139.093C235.652 139.093 235.088 139.265 234.626 139.608C234.169 139.952 233.823 140.432 233.587 141.047C233.351 141.663 233.233 142.381 233.233 143.202ZM246.414 142.094V149.111H244.113V133.353H246.383V139.216H246.529C246.806 138.58 247.229 138.075 247.799 137.7C248.368 137.326 249.112 137.139 250.03 137.139C250.84 137.139 251.548 137.305 252.153 137.639C252.764 137.972 253.236 138.47 253.569 139.131C253.908 139.788 254.077 140.609 254.077 141.593V149.111H251.776V141.87C251.776 141.004 251.553 140.332 251.107 139.855C250.661 139.372 250.04 139.131 249.245 139.131C248.701 139.131 248.214 139.247 247.783 139.478C247.357 139.708 247.021 140.047 246.775 140.493C246.534 140.934 246.414 141.468 246.414 142.094ZM261.887 149.349C260.779 149.349 259.812 149.095 258.986 148.587C258.16 148.08 257.519 147.369 257.062 146.456C256.606 145.543 256.378 144.476 256.378 143.255C256.378 142.029 256.606 140.957 257.062 140.039C257.519 139.121 258.16 138.408 258.986 137.9C259.812 137.392 260.779 137.139 261.887 137.139C262.995 137.139 263.962 137.392 264.787 137.9C265.613 138.408 266.254 139.121 266.711 140.039C267.167 140.957 267.396 142.029 267.396 143.255C267.396 144.476 267.167 145.543 266.711 146.456C266.254 147.369 265.613 148.08 264.787 148.587C263.962 149.095 262.995 149.349 261.887 149.349ZM261.894 147.418C262.612 147.418 263.207 147.228 263.679 146.849C264.151 146.469 264.5 145.964 264.726 145.333C264.957 144.702 265.072 144.007 265.072 143.248C265.072 142.494 264.957 141.801 264.726 141.17C264.5 140.534 264.151 140.024 263.679 139.639C263.207 139.254 262.612 139.062 261.894 139.062C261.171 139.062 260.571 139.254 260.094 139.639C259.622 140.024 259.271 140.534 259.04 141.17C258.814 141.801 258.701 142.494 258.701 143.248C258.701 144.007 258.814 144.702 259.04 145.333C259.271 145.964 259.622 146.469 260.094 146.849C260.571 147.228 261.171 147.418 261.894 147.418ZM272.026 142.094V149.111H269.725V137.292H271.933V139.216H272.08C272.352 138.59 272.777 138.087 273.357 137.708C273.942 137.328 274.678 137.139 275.565 137.139C276.37 137.139 277.076 137.308 277.681 137.646C278.286 137.98 278.756 138.477 279.089 139.139C279.422 139.801 279.589 140.619 279.589 141.593V149.111H277.289V141.87C277.289 141.014 277.065 140.344 276.619 139.862C276.173 139.375 275.56 139.131 274.78 139.131C274.247 139.131 273.772 139.247 273.357 139.478C272.947 139.708 272.621 140.047 272.38 140.493C272.144 140.934 272.026 141.468 272.026 142.094ZM287.53 149.349C286.365 149.349 285.362 149.1 284.521 148.603C283.685 148.1 283.039 147.395 282.582 146.487C282.131 145.574 281.905 144.504 281.905 143.278C281.905 142.068 282.131 141.001 282.582 140.078C283.039 139.154 283.675 138.434 284.49 137.916C285.311 137.398 286.27 137.139 287.368 137.139C288.035 137.139 288.681 137.249 289.307 137.469C289.933 137.69 290.494 138.036 290.992 138.508C291.49 138.98 291.882 139.593 292.169 140.347C292.456 141.096 292.6 142.006 292.6 143.078V143.894H283.206V142.17H290.346C290.346 141.565 290.223 141.029 289.976 140.562C289.73 140.091 289.384 139.719 288.938 139.447C288.497 139.175 287.978 139.039 287.383 139.039C286.737 139.039 286.173 139.198 285.691 139.516C285.214 139.829 284.844 140.239 284.583 140.747C284.326 141.25 284.198 141.796 284.198 142.386V143.732C284.198 144.522 284.337 145.194 284.614 145.748C284.896 146.302 285.288 146.725 285.791 147.018C286.293 147.305 286.881 147.449 287.553 147.449C287.989 147.449 288.386 147.387 288.745 147.264C289.104 147.136 289.415 146.946 289.676 146.695C289.938 146.443 290.138 146.133 290.276 145.764L292.454 146.156C292.279 146.797 291.967 147.359 291.515 147.841C291.069 148.318 290.507 148.69 289.83 148.957C289.158 149.218 288.391 149.349 287.53 149.349ZM41.1919 181.111L37.7142 169.292H40.0917L42.4076 177.971H42.523L44.8466 169.292H47.2241L49.5324 177.933H49.6478L51.9483 169.292H54.3258L50.8557 181.111H48.509L46.1085 172.578H45.9315L43.5309 181.111H41.1919ZM56.2707 181.111V169.292H58.5712V181.111H56.2707ZM57.4325 167.469C57.0324 167.469 56.6887 167.336 56.4015 167.069C56.1194 166.797 55.9783 166.474 55.9783 166.099C55.9783 165.72 56.1194 165.397 56.4015 165.13C56.6887 164.858 57.0324 164.722 57.4325 164.722C57.8326 164.722 58.1737 164.858 58.4558 165.13C58.743 165.397 58.8867 165.72 58.8867 166.099C58.8867 166.474 58.743 166.797 58.4558 167.069C58.1737 167.336 57.8326 167.469 57.4325 167.469ZM66.9445 169.292V171.139H60.4892V169.292H66.9445ZM62.2203 166.461H64.5209V177.641C64.5209 178.087 64.5876 178.423 64.7209 178.648C64.8543 178.869 65.0261 179.02 65.2364 179.102C65.4519 179.179 65.6853 179.218 65.9366 179.218C66.1213 179.218 66.2828 179.205 66.4213 179.179C66.5598 179.154 66.6675 179.133 66.7445 179.118L67.16 181.018C67.0266 181.07 66.8368 181.121 66.5906 181.172C66.3444 181.229 66.0366 181.259 65.6673 181.264C65.062 181.275 64.4978 181.167 63.9746 180.941C63.4514 180.716 63.0282 180.367 62.7051 179.895C62.3819 179.423 62.2203 178.831 62.2203 178.118V166.461ZM71.8055 174.094V181.111H69.5049V165.353H71.7747V171.216H71.9209C72.1979 170.58 72.6211 170.075 73.1904 169.7C73.7598 169.326 74.5036 169.139 75.4217 169.139C76.2322 169.139 76.94 169.305 77.5453 169.639C78.1557 169.972 78.6276 170.47 78.961 171.131C79.2996 171.788 79.4688 172.609 79.4688 173.593V181.111H77.1683V173.87C77.1683 173.004 76.9452 172.332 76.4989 171.855C76.0526 171.372 75.432 171.131 74.6369 171.131C74.0932 171.131 73.6059 171.247 73.175 171.478C72.7493 171.708 72.4133 172.047 72.1671 172.493C71.926 172.934 71.8055 173.468 71.8055 174.094ZM96.6521 172.178L94.567 172.547C94.4798 172.28 94.3413 172.026 94.1515 171.785C93.9669 171.544 93.7155 171.347 93.3975 171.193C93.0795 171.039 92.6819 170.962 92.2049 170.962C91.5535 170.962 91.0098 171.108 90.5738 171.401C90.1378 171.688 89.9198 172.06 89.9198 172.516C89.9198 172.911 90.0659 173.229 90.3583 173.47C90.6507 173.711 91.1226 173.909 91.774 174.063L93.6514 174.494C94.7388 174.745 95.5493 175.132 96.0828 175.655C96.6162 176.179 96.8829 176.858 96.8829 177.694C96.8829 178.402 96.6778 179.033 96.2674 179.587C95.8622 180.136 95.2954 180.567 94.567 180.88C93.8438 181.193 93.0051 181.349 92.051 181.349C90.7276 181.349 89.6479 181.067 88.8118 180.503C87.9757 179.933 87.4628 179.126 87.273 178.079L89.4966 177.741C89.6351 178.32 89.9198 178.759 90.3506 179.056C90.7815 179.349 91.3432 179.495 92.0356 179.495C92.7897 179.495 93.3924 179.338 93.8438 179.025C94.2952 178.707 94.5208 178.32 94.5208 177.864C94.5208 177.494 94.3824 177.184 94.1054 176.933C93.8335 176.681 93.4155 176.492 92.8512 176.363L90.8507 175.925C89.7479 175.673 88.9323 175.273 88.404 174.724C87.8808 174.176 87.6192 173.481 87.6192 172.639C87.6192 171.942 87.8141 171.331 88.204 170.808C88.5938 170.285 89.1324 169.877 89.8197 169.585C90.5071 169.287 91.2944 169.139 92.1818 169.139C93.4591 169.139 94.4644 169.416 95.1979 169.969C95.9314 170.518 96.4162 171.254 96.6521 172.178ZM104.152 181.349C103.044 181.349 102.077 181.095 101.251 180.587C100.426 180.08 99.7845 179.369 99.3279 178.456C98.8714 177.543 98.6432 176.476 98.6432 175.255C98.6432 174.029 98.8714 172.957 99.3279 172.039C99.7845 171.121 100.426 170.408 101.251 169.9C102.077 169.392 103.044 169.139 104.152 169.139C105.26 169.139 106.227 169.392 107.053 169.9C107.879 170.408 108.52 171.121 108.976 172.039C109.433 172.957 109.661 174.029 109.661 175.255C109.661 176.476 109.433 177.543 108.976 178.456C108.52 179.369 107.879 180.08 107.053 180.587C106.227 181.095 105.26 181.349 104.152 181.349ZM104.16 179.418C104.878 179.418 105.473 179.228 105.945 178.849C106.417 178.469 106.766 177.964 106.991 177.333C107.222 176.702 107.338 176.007 107.338 175.248C107.338 174.494 107.222 173.801 106.991 173.17C106.766 172.534 106.417 172.024 105.945 171.639C105.473 171.254 104.878 171.062 104.16 171.062C103.437 171.062 102.836 171.254 102.359 171.639C101.888 172.024 101.536 172.534 101.305 173.17C101.08 173.801 100.967 174.494 100.967 175.248C100.967 176.007 101.08 176.702 101.305 177.333C101.536 177.964 101.888 178.469 102.359 178.849C102.836 179.228 103.437 179.418 104.16 179.418ZM111.991 181.111V169.292H114.199V171.216H114.345C114.591 170.565 114.994 170.057 115.553 169.693C116.112 169.323 116.782 169.139 117.561 169.139C118.351 169.139 119.013 169.323 119.546 169.693C120.085 170.062 120.482 170.57 120.739 171.216H120.862C121.144 170.585 121.593 170.082 122.209 169.708C122.824 169.328 123.558 169.139 124.409 169.139C125.481 169.139 126.356 169.475 127.033 170.146C127.715 170.818 128.056 171.831 128.056 173.186V181.111H125.756V173.401C125.756 172.601 125.538 172.021 125.102 171.662C124.666 171.303 124.145 171.124 123.54 171.124C122.791 171.124 122.209 171.354 121.793 171.816C121.378 172.273 121.17 172.86 121.17 173.578V181.111H118.877V173.255C118.877 172.614 118.677 172.098 118.277 171.708C117.877 171.319 117.356 171.124 116.715 171.124C116.279 171.124 115.876 171.239 115.507 171.47C115.143 171.696 114.848 172.011 114.622 172.416C114.402 172.821 114.291 173.291 114.291 173.824V181.111H111.991ZM135.995 181.349C134.83 181.349 133.827 181.1 132.986 180.603C132.15 180.1 131.504 179.395 131.047 178.487C130.596 177.574 130.37 176.504 130.37 175.278C130.37 174.068 130.596 173.001 131.047 172.078C131.504 171.154 132.14 170.434 132.955 169.916C133.776 169.398 134.735 169.139 135.833 169.139C136.5 169.139 137.146 169.249 137.772 169.469C138.398 169.69 138.959 170.036 139.457 170.508C139.955 170.98 140.347 171.593 140.634 172.347C140.921 173.096 141.065 174.006 141.065 175.078V175.894H131.671V174.17H138.811C138.811 173.565 138.688 173.029 138.441 172.562C138.195 172.091 137.849 171.719 137.403 171.447C136.962 171.175 136.444 171.039 135.848 171.039C135.202 171.039 134.638 171.198 134.156 171.516C133.679 171.829 133.309 172.239 133.048 172.747C132.791 173.25 132.663 173.796 132.663 174.386V175.732C132.663 176.522 132.802 177.194 133.079 177.748C133.361 178.302 133.753 178.725 134.256 179.018C134.758 179.305 135.346 179.449 136.018 179.449C136.454 179.449 136.851 179.387 137.21 179.264C137.569 179.136 137.88 178.946 138.141 178.695C138.403 178.443 138.603 178.133 138.741 177.764L140.919 178.156C140.745 178.797 140.432 179.359 139.98 179.841C139.534 180.318 138.972 180.69 138.295 180.957C137.623 181.218 136.856 181.349 135.995 181.349ZM148.357 181.349C147.249 181.349 146.283 181.095 145.457 180.587C144.631 180.08 143.99 179.369 143.533 178.456C143.077 177.543 142.848 176.476 142.848 175.255C142.848 174.029 143.077 172.957 143.533 172.039C143.99 171.121 144.631 170.408 145.457 169.9C146.283 169.392 147.249 169.139 148.357 169.139C149.465 169.139 150.432 169.392 151.258 169.9C152.084 170.408 152.725 171.121 153.182 172.039C153.638 172.957 153.866 174.029 153.866 175.255C153.866 176.476 153.638 177.543 153.182 178.456C152.725 179.369 152.084 180.08 151.258 180.587C150.432 181.095 149.465 181.349 148.357 181.349ZM148.365 179.418C149.083 179.418 149.678 179.228 150.15 178.849C150.622 178.469 150.971 177.964 151.197 177.333C151.427 176.702 151.543 176.007 151.543 175.248C151.543 174.494 151.427 173.801 151.197 173.17C150.971 172.534 150.622 172.024 150.15 171.639C149.678 171.254 149.083 171.062 148.365 171.062C147.642 171.062 147.042 171.254 146.565 171.639C146.093 172.024 145.741 172.534 145.511 173.17C145.285 173.801 145.172 174.494 145.172 175.248C145.172 176.007 145.285 176.702 145.511 177.333C145.741 177.964 146.093 178.469 146.565 178.849C147.042 179.228 147.642 179.418 148.365 179.418ZM158.497 174.094V181.111H156.196V169.292H158.404V171.216H158.55C158.822 170.59 159.248 170.087 159.828 169.708C160.412 169.328 161.148 169.139 162.036 169.139C162.841 169.139 163.546 169.308 164.152 169.646C164.757 169.98 165.226 170.477 165.56 171.139C165.893 171.801 166.06 172.619 166.06 173.593V181.111H163.759V173.87C163.759 173.014 163.536 172.344 163.09 171.862C162.644 171.375 162.031 171.131 161.251 171.131C160.718 171.131 160.243 171.247 159.828 171.478C159.417 171.708 159.092 172.047 158.85 172.493C158.615 172.934 158.497 173.468 158.497 174.094ZM174 181.349C172.836 181.349 171.833 181.1 170.992 180.603C170.156 180.1 169.51 179.395 169.053 178.487C168.602 177.574 168.376 176.504 168.376 175.278C168.376 174.068 168.602 173.001 169.053 172.078C169.51 171.154 170.146 170.434 170.961 169.916C171.782 169.398 172.741 169.139 173.839 169.139C174.506 169.139 175.152 169.249 175.778 169.469C176.404 169.69 176.965 170.036 177.463 170.508C177.96 170.98 178.353 171.593 178.64 172.347C178.927 173.096 179.071 174.006 179.071 175.078V175.894H169.676V174.17H176.816C176.816 173.565 176.693 173.029 176.447 172.562C176.201 172.091 175.855 171.719 175.408 171.447C174.967 171.175 174.449 171.039 173.854 171.039C173.208 171.039 172.644 171.198 172.161 171.516C171.684 171.829 171.315 172.239 171.054 172.747C170.797 173.25 170.669 173.796 170.669 174.386V175.732C170.669 176.522 170.807 177.194 171.084 177.748C171.366 178.302 171.759 178.725 172.261 179.018C172.764 179.305 173.351 179.449 174.023 179.449C174.459 179.449 174.857 179.387 175.216 179.264C175.575 179.136 175.885 178.946 176.147 178.695C176.409 178.443 176.609 178.133 176.747 177.764L178.925 178.156C178.75 178.797 178.437 179.359 177.986 179.841C177.54 180.318 176.978 180.69 176.301 180.957C175.629 181.218 174.862 181.349 174 181.349ZM183.901 176.579V176.433C183.911 175.478 184.006 174.719 184.186 174.155C184.37 173.591 184.632 173.134 184.97 172.786C185.309 172.437 185.717 172.119 186.194 171.831C186.502 171.637 186.779 171.419 187.025 171.177C187.271 170.936 187.466 170.659 187.61 170.347C187.753 170.034 187.825 169.687 187.825 169.308C187.825 168.851 187.717 168.456 187.502 168.123C187.286 167.789 186.999 167.533 186.64 167.353C186.286 167.169 185.891 167.077 185.455 167.077C185.06 167.077 184.683 167.159 184.324 167.323C183.965 167.487 183.668 167.743 183.432 168.092C183.196 168.436 183.06 168.879 183.024 169.423H180.685C180.721 168.5 180.954 167.72 181.385 167.084C181.816 166.443 182.385 165.958 183.093 165.63C183.806 165.302 184.593 165.138 185.455 165.138C186.399 165.138 187.225 165.315 187.933 165.668C188.641 166.017 189.189 166.507 189.579 167.138C189.974 167.764 190.172 168.495 190.172 169.331C190.172 169.905 190.082 170.423 189.902 170.885C189.723 171.342 189.466 171.749 189.133 172.108C188.805 172.468 188.41 172.786 187.948 173.063C187.512 173.334 187.158 173.617 186.886 173.909C186.62 174.201 186.425 174.548 186.302 174.948C186.178 175.348 186.112 175.843 186.102 176.433V176.579H183.901ZM185.063 181.257C184.642 181.257 184.281 181.108 183.978 180.811C183.675 180.508 183.524 180.144 183.524 179.718C183.524 179.297 183.675 178.938 183.978 178.641C184.281 178.338 184.642 178.187 185.063 178.187C185.478 178.187 185.837 178.338 186.14 178.641C186.448 178.938 186.602 179.297 186.602 179.718C186.602 180 186.53 180.259 186.386 180.495C186.248 180.726 186.063 180.911 185.832 181.049C185.601 181.188 185.345 181.257 185.063 181.257ZM194.508 165.353V166.83C194.508 167.266 194.425 167.725 194.261 168.208C194.102 168.685 193.877 169.144 193.584 169.585C193.292 170.026 192.948 170.405 192.553 170.724L191.414 169.908C191.717 169.467 191.979 168.997 192.199 168.5C192.425 168.002 192.538 167.454 192.538 166.853V165.353H194.508ZM198.424 165.353V166.83C198.424 167.266 198.342 167.725 198.178 168.208C198.019 168.685 197.793 169.144 197.501 169.585C197.208 170.026 196.864 170.405 196.47 170.724L195.331 169.908C195.633 169.467 195.895 168.997 196.116 168.5C196.341 168.002 196.454 167.454 196.454 166.853V165.353H198.424Z" fill="black" fill-opacity="0.8"/>
<path d="M48.1974 286.969H46.397C46.3277 286.584 46.1989 286.246 46.0104 285.954C45.8219 285.661 45.591 285.413 45.3179 285.209C45.0448 285.005 44.7389 284.851 44.4004 284.747C44.0657 284.644 43.7098 284.592 43.3328 284.592C42.6519 284.592 42.0421 284.763 41.5035 285.105C40.9688 285.448 40.5456 285.95 40.234 286.611C39.9262 287.273 39.7723 288.081 39.7723 289.035C39.7723 289.997 39.9262 290.808 40.234 291.47C40.5456 292.132 40.9707 292.632 41.5093 292.971C42.0479 293.309 42.6538 293.478 43.327 293.478C43.7002 293.478 44.0541 293.428 44.3888 293.328C44.7274 293.224 45.0332 293.072 45.3064 292.872C45.5795 292.672 45.8103 292.428 45.9988 292.14C46.1912 291.847 46.3239 291.513 46.397 291.135L48.1974 291.141C48.1012 291.722 47.9147 292.257 47.6377 292.745C47.3645 293.23 47.0125 293.65 46.5817 294.003C46.1546 294.354 45.6661 294.625 45.1159 294.817C44.5658 295.009 43.9657 295.106 43.3155 295.106C42.2922 295.106 41.3804 294.863 40.5802 294.379C39.78 293.89 39.1491 293.192 38.6875 292.284C38.2297 291.376 38.0008 290.293 38.0008 289.035C38.0008 287.773 38.2316 286.69 38.6932 285.786C39.1549 284.878 39.7858 284.182 40.586 283.697C41.3862 283.209 42.296 282.964 43.3155 282.964C43.9426 282.964 44.5273 283.055 45.0698 283.236C45.616 283.413 46.1065 283.674 46.5413 284.02C46.976 284.363 47.3357 284.782 47.6204 285.278C47.905 285.771 48.0974 286.334 48.1974 286.969ZM51.7393 289.681V294.944H50.0139V283.126H51.7162V287.523H51.8258C52.0336 287.046 52.3509 286.667 52.778 286.386C53.205 286.105 53.7628 285.965 54.4514 285.965C55.0593 285.965 55.5902 286.09 56.0441 286.34C56.5019 286.59 56.8559 286.963 57.1059 287.46C57.3598 287.952 57.4868 288.568 57.4868 289.306V294.944H55.7614V289.514C55.7614 288.864 55.594 288.36 55.2593 288.002C54.9246 287.64 54.4591 287.46 53.8628 287.46C53.4551 287.46 53.0896 287.546 52.7664 287.719C52.4471 287.892 52.1951 288.146 52.0105 288.481C51.8297 288.812 51.7393 289.212 51.7393 289.681ZM61.3359 283.126V294.944H59.6105V283.126H61.3359ZM67.212 295.123C66.381 295.123 65.6558 294.933 65.0364 294.552C64.4171 294.171 63.9362 293.638 63.5938 292.953C63.2514 292.268 63.0802 291.468 63.0802 290.553C63.0802 289.633 63.2514 288.829 63.5938 288.141C63.9362 287.452 64.4171 286.917 65.0364 286.536C65.6558 286.155 66.381 285.965 67.212 285.965C68.0429 285.965 68.7681 286.155 69.3875 286.536C70.0068 286.917 70.4877 287.452 70.8301 288.141C71.1725 288.829 71.3437 289.633 71.3437 290.553C71.3437 291.468 71.1725 292.268 70.8301 292.953C70.4877 293.638 70.0068 294.171 69.3875 294.552C68.7681 294.933 68.0429 295.123 67.212 295.123ZM67.2177 293.675C67.7563 293.675 68.2026 293.532 68.5565 293.248C68.9104 292.963 69.172 292.584 69.3413 292.111C69.5144 291.638 69.601 291.116 69.601 290.547C69.601 289.981 69.5144 289.462 69.3413 288.989C69.172 288.512 68.9104 288.129 68.5565 287.84C68.2026 287.552 67.7563 287.408 67.2177 287.408C66.6753 287.408 66.2252 287.552 65.8674 287.84C65.5135 288.129 65.25 288.512 65.0768 288.989C64.9076 289.462 64.8229 289.981 64.8229 290.547C64.8229 291.116 64.9076 291.638 65.0768 292.111C65.25 292.584 65.5135 292.963 65.8674 293.248C66.2252 293.532 66.6753 293.675 67.2177 293.675ZM76.911 295.123C76.0377 295.123 75.2856 294.936 74.6547 294.563C74.0276 294.186 73.5429 293.657 73.2005 292.976C72.862 292.292 72.6927 291.489 72.6927 290.57C72.6927 289.662 72.862 288.862 73.2005 288.169C73.5429 287.477 74.02 286.936 74.6316 286.548C75.2472 286.159 75.9666 285.965 76.7898 285.965C77.29 285.965 77.7747 286.048 78.244 286.213C78.7134 286.379 79.1346 286.638 79.5078 286.992C79.881 287.346 80.1753 287.806 80.3907 288.371C80.6061 288.933 80.7138 289.616 80.7138 290.42V291.032H73.6679V289.739H79.0231C79.0231 289.285 78.9307 288.883 78.7461 288.533C78.5614 288.179 78.3017 287.9 77.967 287.696C77.6362 287.492 77.2476 287.39 76.8014 287.39C76.3166 287.39 75.8935 287.51 75.5318 287.748C75.1741 287.983 74.8971 288.291 74.7009 288.671C74.5085 289.048 74.4124 289.458 74.4124 289.901V290.91C74.4124 291.503 74.5162 292.007 74.724 292.422C74.9356 292.838 75.2299 293.155 75.6069 293.374C75.9839 293.59 76.4244 293.698 76.9283 293.698C77.2553 293.698 77.5535 293.651 77.8228 293.559C78.0921 293.463 78.3248 293.321 78.521 293.132C78.7172 292.944 78.8673 292.711 78.9711 292.434L80.6042 292.728C80.4734 293.209 80.2387 293.63 79.9002 293.992C79.5655 294.35 79.1442 294.629 78.6364 294.829C78.1325 295.025 77.5573 295.123 76.911 295.123ZM86.7098 294.944V283.126H88.4929V288.262H94.3847V283.126H96.1736V294.944H94.3847V289.791H88.4929V294.944H86.7098ZM101.033 295.14C100.471 295.14 99.963 295.036 99.5091 294.829C99.0551 294.617 98.6954 294.311 98.43 293.911C98.1684 293.511 98.0376 293.021 98.0376 292.44C98.0376 291.94 98.1338 291.528 98.3261 291.205C98.5185 290.882 98.7781 290.626 99.1051 290.437C99.4322 290.249 99.7976 290.106 100.202 290.01C100.606 289.914 101.017 289.841 101.436 289.791C101.967 289.729 102.398 289.679 102.729 289.641C103.06 289.599 103.3 289.531 103.45 289.439C103.6 289.347 103.675 289.197 103.675 288.989V288.948C103.675 288.444 103.533 288.054 103.248 287.777C102.968 287.5 102.548 287.362 101.99 287.362C101.41 287.362 100.952 287.49 100.617 287.748C100.286 288.002 100.057 288.285 99.9303 288.596L98.3088 288.227C98.5012 287.689 98.782 287.254 99.1513 286.923C99.5245 286.588 99.9534 286.346 100.438 286.196C100.923 286.042 101.433 285.965 101.967 285.965C102.321 285.965 102.696 286.007 103.093 286.092C103.493 286.173 103.866 286.323 104.212 286.542C104.562 286.761 104.849 287.075 105.072 287.483C105.295 287.887 105.407 288.412 105.407 289.058V294.944H103.722V293.732H103.652C103.541 293.955 103.373 294.175 103.15 294.39C102.927 294.606 102.641 294.784 102.291 294.927C101.94 295.069 101.521 295.14 101.033 295.14ZM101.408 293.755C101.885 293.755 102.292 293.661 102.631 293.473C102.973 293.284 103.233 293.038 103.41 292.734C103.591 292.426 103.681 292.097 103.681 291.747V290.605C103.62 290.666 103.5 290.724 103.323 290.778C103.15 290.828 102.952 290.872 102.729 290.91C102.506 290.945 102.289 290.978 102.077 291.009C101.865 291.035 101.688 291.059 101.546 291.078C101.211 291.12 100.906 291.191 100.629 291.291C100.355 291.391 100.136 291.536 99.9707 291.724C99.8092 291.909 99.7284 292.155 99.7284 292.463C99.7284 292.89 99.8861 293.213 100.202 293.432C100.517 293.648 100.919 293.755 101.408 293.755ZM111.744 286.08V287.465H106.735V286.08H111.744ZM108.109 294.944V285.053C108.109 284.499 108.23 284.04 108.472 283.674C108.715 283.305 109.036 283.03 109.436 282.849C109.836 282.664 110.271 282.572 110.74 282.572C111.086 282.572 111.383 282.601 111.629 282.658C111.875 282.712 112.058 282.762 112.177 282.809L111.773 284.205C111.692 284.182 111.589 284.155 111.462 284.124C111.335 284.09 111.181 284.072 111 284.072C110.581 284.072 110.281 284.176 110.1 284.384C109.923 284.592 109.834 284.892 109.834 285.284V294.944H108.109ZM115.071 289.681V294.944H113.346V286.08H115.002V287.523H115.112C115.316 287.054 115.635 286.677 116.07 286.392C116.508 286.107 117.06 285.965 117.726 285.965C118.33 285.965 118.859 286.092 119.313 286.346C119.767 286.596 120.119 286.969 120.369 287.465C120.619 287.962 120.744 288.575 120.744 289.306V294.944H119.018V289.514C119.018 288.872 118.851 288.369 118.516 288.008C118.182 287.642 117.722 287.46 117.137 287.46C116.737 287.46 116.381 287.546 116.07 287.719C115.762 287.892 115.517 288.146 115.337 288.481C115.16 288.812 115.071 289.212 115.071 289.681ZM126.699 295.123C125.826 295.123 125.074 294.936 124.443 294.563C123.816 294.186 123.331 293.657 122.989 292.976C122.65 292.292 122.481 291.489 122.481 290.57C122.481 289.662 122.65 288.862 122.989 288.169C123.331 287.477 123.808 286.936 124.42 286.548C125.035 286.159 125.755 285.965 126.578 285.965C127.078 285.965 127.563 286.048 128.032 286.213C128.501 286.379 128.923 286.638 129.296 286.992C129.669 287.346 129.963 287.806 130.179 288.371C130.394 288.933 130.502 289.616 130.502 290.42V291.032H123.456V289.739H128.811C128.811 289.285 128.719 288.883 128.534 288.533C128.35 288.179 128.09 287.9 127.755 287.696C127.424 287.492 127.036 287.39 126.589 287.39C126.105 287.39 125.682 287.51 125.32 287.748C124.962 287.983 124.685 288.291 124.489 288.671C124.297 289.048 124.2 289.458 124.2 289.901V290.91C124.2 291.503 124.304 292.007 124.512 292.422C124.724 292.838 125.018 293.155 125.395 293.374C125.772 293.59 126.212 293.698 126.716 293.698C127.043 293.698 127.342 293.651 127.611 293.559C127.88 293.463 128.113 293.321 128.309 293.132C128.505 292.944 128.655 292.711 128.759 292.434L130.392 292.728C130.261 293.209 130.027 293.63 129.688 293.992C129.354 294.35 128.932 294.629 128.425 294.829C127.921 295.025 127.345 295.123 126.699 295.123ZM132.238 294.944V286.08H133.905V287.488H133.998C134.159 287.011 134.444 286.636 134.852 286.363C135.263 286.086 135.729 285.948 136.248 285.948C136.356 285.948 136.483 285.952 136.629 285.959C136.779 285.967 136.896 285.977 136.981 285.988V287.639C136.912 287.619 136.789 287.598 136.612 287.575C136.435 287.548 136.258 287.535 136.081 287.535C135.673 287.535 135.309 287.621 134.99 287.794C134.675 287.964 134.425 288.2 134.24 288.504C134.055 288.804 133.963 289.147 133.963 289.531V294.944H132.238Z" fill="black" fill-opacity="0.494118"/>
</g>
<defs>
<filter id="filter0_ddd_675_18846" x="0" y="0.0273438" width="345" height="345" filterUnits="userSpaceOnUse" color-interpolation-filters="sRGB">
<feFlood flood-opacity="0" result="BackgroundImageFix"/>
<feColorMatrix in="SourceAlpha" type="matrix" values="0 0 0 0 0 0 0 0 0 0 0 0 0 0 0 0 0 0 127 0" result="hardAlpha"/>
<feOffset dy="2.5"/>
<feGaussianBlur stdDeviation="1"/>
<feColorMatrix type="matrix" values="0 0 0 0 0 0 0 0 0 0 0 0 0 0 0 0 0 0 0.02 0"/>
<feBlend mode="normal" in2="BackgroundImageFix" result="effect1_dropShadow_675_18846"/>
<feColorMatrix in="SourceAlpha" type="matrix" values="0 0 0 0 0 0 0 0 0 0 0 0 0 0 0 0 0 0 127 0" result="hardAlpha"/>
<feOffset dy="3"/>
<feGaussianBlur stdDeviation="2.5"/>
<feColorMatrix type="matrix" values="0 0 0 0 0 0 0 0 0 0 0 0 0 0 0 0 0 0 0.04 0"/>
<feBlend mode="normal" in2="effect1_dropShadow_675_18846" result="effect2_dropShadow_675_18846"/>
<feColorMatrix in="SourceAlpha" type="matrix" values="0 0 0 0 0 0 0 0 0 0 0 0 0 0 0 0 0 0 127 0" result="hardAlpha"/>
<feOffset dy="8"/>
<feGaussianBlur stdDeviation="5"/>
<feColorMatrix type="matrix" values="0 0 0 0 0 0 0 0 0 0 0 0 0 0 0 0 0 0 0.08 0"/>
<feBlend mode="normal" in2="effect2_dropShadow_675_18846" result="effect3_dropShadow_675_18846"/>
<feBlend mode="normal" in="SourceGraphic" in2="effect3_dropShadow_675_18846" result="shape"/>
</filter>
</defs>
</svg>
