<svg width="327" height="365" viewBox="0 0 327 365" fill="none" xmlns="http://www.w3.org/2000/svg">
<path d="M11.2317 160.888L163.482 24.0127L315.732 160.888" stroke="#D2A570" stroke-opacity="0.2" stroke-width="22" stroke-linecap="round" stroke-linejoin="round"/>
<path d="M46.5834 182.061V288.519C46.5834 296.586 50.1479 304.322 56.4929 310.027C62.8379 315.731 71.4436 318.936 80.4167 318.936H249.583C258.557 318.936 267.162 315.731 273.507 310.027C279.852 304.322 283.417 296.586 283.417 288.519V182.061" stroke="#D2A570" stroke-opacity="0.2" stroke-width="22" stroke-linecap="round" stroke-linejoin="round"/>
<path fill-rule="evenodd" clip-rule="evenodd" d="M134.524 151.546C123.383 151.546 116.571 159.684 116.571 168.459C116.571 173.971 119.821 192.906 163.26 217.587C184.277 205.728 195.862 195.715 202.211 187.741C208.824 179.434 209.931 173.137 209.931 168.459C209.931 163.201 208.515 159.031 206.144 156.351C204.061 153.996 200.159 151.546 191.977 151.546C179 151.546 173.536 158.241 172.886 159.467C171.216 162.613 167.936 164.72 164.218 165.035C160.5 165.351 156.873 163.831 154.633 161.017C152.231 158.001 144.3 151.546 134.524 151.546ZM95.0259 168.459C95.0259 150.173 109.758 131.25 134.524 131.25C146.161 131.25 155.786 135.618 162.588 140.381C169.213 135.387 178.997 131.25 191.977 131.25C205.34 131.25 215.801 135.564 222.695 143.358C229.301 150.826 231.475 160.186 231.475 168.459C231.475 177.312 228.992 187.929 219.446 199.918C210.156 211.587 194.427 224.253 168.595 238.159C165.283 239.941 161.218 239.941 157.906 238.159C105.876 210.15 95.0259 184.378 95.0259 168.459Z" fill="#D2A570" fill-opacity="0.2"/>
</svg>
