<svg width="330" height="311" viewBox="0 0 330 311" fill="none" xmlns="http://www.w3.org/2000/svg">
<path d="M54.6828 34.4785C64.82 34.4785 73.0373 26.7602 73.0373 17.2393C73.0373 7.71828 64.82 0 54.6828 0C47.8888 0 41.9576 3.46682 38.7841 8.61963H36.3282C21.1228 8.61963 8.79639 20.1971 8.79639 34.4785V112.055H27.1509V34.4785C27.1509 29.7181 31.2598 25.8589 36.3282 25.8589H38.7841C41.9576 31.0117 47.8888 34.4785 54.6828 34.4785Z" fill="#FFECF5"/>
<path fill-rule="evenodd" clip-rule="evenodd" d="M37.7973 112.055H27.1498H8.79523C3.7268 112.055 -0.425087 115.923 0.0348787 120.664C2.1685 142.654 12.4265 163.359 29.1859 179.1C41.4755 190.643 56.607 198.902 73.0362 203.277V224.11C73.0362 235.371 80.6992 244.95 91.3944 248.499C91.7854 282.697 121.423 310.307 157.926 310.307C194.673 310.307 224.461 282.328 224.461 247.814V213.336C224.461 195.484 239.869 181.012 258.876 181.012C277.883 181.012 293.291 195.484 293.291 213.336V234.201C282.598 237.751 274.936 247.33 274.936 258.589C274.936 272.871 287.262 284.448 302.468 284.448C317.674 284.448 330 272.871 330 258.589C330 247.33 322.339 237.751 311.645 234.201V213.336C311.645 185.963 288.019 163.773 258.876 163.773C229.733 163.773 206.107 185.963 206.107 213.336V247.814C206.107 272.807 184.536 293.067 157.926 293.067C131.559 293.067 110.139 273.174 109.751 248.496C120.441 244.945 128.1 235.368 128.1 224.11V203.277C144.529 198.902 159.661 190.643 171.951 179.1C188.71 163.359 198.968 142.654 201.101 120.664C201.562 115.923 197.409 112.055 192.341 112.055V34.4785C192.341 20.1971 180.015 8.61963 164.809 8.61963H162.353C159.18 3.46682 153.248 0 146.454 0C136.317 0 128.1 7.71828 128.1 17.2393C128.1 26.7603 136.317 34.4785 146.454 34.4785C153.248 34.4785 159.18 31.0117 162.353 25.8589H164.809C169.878 25.8589 173.986 29.7181 173.986 34.4785V112.055H163.34C158.271 112.055 154.242 115.942 153.379 120.633C151.507 130.799 146.337 140.256 138.465 147.649C128.415 157.089 114.783 162.393 100.568 162.393C86.3543 162.393 72.7223 157.089 62.6714 147.649C54.8 140.256 49.6295 130.799 47.7574 120.633C46.8938 115.942 42.865 112.055 37.7973 112.055ZM170.136 129.294H181.099C177.669 143.427 170.059 156.497 158.972 166.911C143.483 181.459 122.474 189.632 100.568 189.632C78.6628 189.632 57.6541 181.459 42.1647 166.911C31.0774 156.497 23.4676 143.427 20.0376 129.294H30.9999C34.2185 140.751 40.6184 151.316 49.6929 159.839C63.1862 172.512 81.4866 179.632 100.568 179.632C119.65 179.632 137.951 172.512 151.444 159.839C160.519 151.316 166.918 140.751 170.136 129.294ZM302.468 249.969C307.537 249.969 311.645 253.828 311.645 258.589C311.645 263.35 307.537 267.209 302.468 267.209C297.4 267.209 293.291 263.35 293.291 258.589C293.291 253.828 297.4 249.969 302.468 249.969ZM109.745 206.871V224.11C109.745 228.871 105.637 232.73 100.568 232.73C95.4994 232.73 91.3907 228.871 91.3907 224.11V206.871H109.745Z" fill="#FFECF5"/>
</svg>
