<svg width="406" height="365" viewBox="0 0 406 365" fill="none" xmlns="http://www.w3.org/2000/svg">
<g clip-path="url(#clip0_1141_25056)">
<path d="M49.2318 167.888L201.482 31.0127L353.732 167.888" stroke="#D1D38F" stroke-width="22" stroke-linecap="round" stroke-linejoin="round"/>
<path d="M84.5833 189.06V295.519C84.5833 303.586 88.1479 311.322 94.4929 317.027C100.838 322.731 109.444 325.935 118.417 325.935H287.583C296.557 325.935 305.162 322.731 311.507 317.027C317.852 311.322 321.417 303.586 321.417 295.519V189.06" stroke="#D1D38F" stroke-width="22" stroke-linecap="round" stroke-linejoin="round"/>
<path fill-rule="evenodd" clip-rule="evenodd" d="M172.524 158.546C161.383 158.546 154.571 166.684 154.571 175.459C154.571 180.971 157.821 199.906 201.26 224.587C222.277 212.728 233.862 202.715 240.211 194.74C246.824 186.434 247.931 180.137 247.931 175.459C247.931 170.201 246.515 166.031 244.144 163.351C242.061 160.996 238.159 158.546 229.977 158.546C217 158.546 211.536 165.241 210.886 166.467C209.216 169.612 205.936 171.72 202.218 172.035C198.5 172.351 194.873 170.831 192.633 168.017C190.231 165.001 182.3 158.546 172.524 158.546ZM133.026 175.459C133.026 157.173 147.758 138.249 172.524 138.249C184.161 138.249 193.786 142.618 200.588 147.381C207.213 142.387 216.997 138.249 229.977 138.249C243.34 138.249 253.801 142.564 260.695 150.358C267.301 157.826 269.475 167.186 269.475 175.459C269.475 184.312 266.992 194.929 257.446 206.918C248.156 218.587 232.427 231.253 206.595 245.159C203.283 246.941 199.218 246.941 195.906 245.159C143.876 217.15 133.026 191.378 133.026 175.459Z" fill="#D1D38F"/>
</g>
<defs>
<clipPath id="clip0_1141_25056">
<rect width="406" height="365" fill="white"/>
</clipPath>
</defs>
</svg>
