<svg width="327" height="327" viewBox="0 0 327 327" fill="none" xmlns="http://www.w3.org/2000/svg">
<circle cx="163.5" cy="163.5" r="163.5" fill="#F4483D"/>
<path d="M154.084 37.5204C155.094 32.0689 162.906 32.0689 163.916 37.5204L175.381 99.3657C176.104 103.265 180.862 104.811 183.739 102.081L229.366 58.7862C233.387 54.9698 239.707 59.5612 237.32 64.5656L210.243 121.338C208.536 124.918 211.477 128.965 215.409 128.448L277.77 120.24C283.267 119.517 285.681 126.946 280.808 129.591L225.533 159.606C222.047 161.499 222.047 166.501 225.533 168.394L280.808 198.409C285.681 201.054 283.267 208.483 277.77 207.76L215.409 199.552C211.477 199.035 208.536 203.082 210.243 206.662L237.32 263.434C239.707 268.439 233.387 273.03 229.366 269.214L183.739 225.919C180.862 223.189 176.104 224.735 175.381 228.634L163.916 290.48C162.906 295.931 155.094 295.931 154.084 290.48L142.619 228.634C141.896 224.735 137.138 223.189 134.261 225.919L88.6345 269.214C84.6126 273.03 78.2931 268.439 80.6799 263.434L107.757 206.662C109.464 203.082 106.523 199.035 102.591 199.552L40.23 207.76C34.733 208.483 32.3192 201.054 37.1916 198.409L92.4671 168.394C95.9525 166.501 95.9525 161.499 92.4671 159.606L37.1916 129.591C32.3192 126.946 34.733 119.517 40.23 120.24L102.591 128.448C106.523 128.965 109.464 124.918 107.757 121.338L80.6799 64.5656C78.2931 59.5612 84.6126 54.9698 88.6345 58.7862L134.261 102.081C137.138 104.811 141.896 103.265 142.619 99.3657L154.084 37.5204Z" fill="#FF8744" fill-opacity="0.74"/>
</svg>
